<?xml version="1.0" encoding="UTF-8"?>
<!--Generator: Apple Native CoreSVG 123-->
<!DOCTYPE svg
PUBLIC "-//W3C//DTD SVG 1.1//EN"
       "http://www.w3.org/Graphics/SVG/1.1/DTD/svg11.dtd">
<svg version="1.1" xmlns="http://www.w3.org/2000/svg" xmlns:xlink="http://www.w3.org/1999/xlink" width="3300" height="2200">
 <!--glyph: "uni10032F.medium", point size: 100.000000, font version: "Version 15.0d7e11", template writer version: "5"-->
 <g id="Notes">
  <rect height="2200" id="artboard" style="fill:white;opacity:1" width="3300" x="0" y="0"/>
  <line id="" style="fill:none;stroke:black;opacity:1;stroke-width:0.5;" x1="263" x2="3036" y1="292" y2="292"/>
  <text style="stroke:none;fill:black;font-family:-apple-system,&quot;SF Pro Display&quot;,&quot;SF Pro Text&quot;,Helvetica,sans-serif;font-weight:bold;" transform="matrix(1 0 0 1 263 322)">Weight/Scale Variations</text>
  <text style="stroke:none;fill:black;font-family:-apple-system,&quot;SF Pro Display&quot;,&quot;SF Pro Text&quot;,Helvetica,sans-serif;text-anchor:middle;" transform="matrix(1 0 0 1 559.711 322)">Ultralight</text>
  <text style="stroke:none;fill:black;font-family:-apple-system,&quot;SF Pro Display&quot;,&quot;SF Pro Text&quot;,Helvetica,sans-serif;text-anchor:middle;" transform="matrix(1 0 0 1 856.422 322)">Thin</text>
  <text style="stroke:none;fill:black;font-family:-apple-system,&quot;SF Pro Display&quot;,&quot;SF Pro Text&quot;,Helvetica,sans-serif;text-anchor:middle;" transform="matrix(1 0 0 1 1153.13 322)">Light</text>
  <text style="stroke:none;fill:black;font-family:-apple-system,&quot;SF Pro Display&quot;,&quot;SF Pro Text&quot;,Helvetica,sans-serif;text-anchor:middle;" transform="matrix(1 0 0 1 1449.84 322)">Regular</text>
  <text style="stroke:none;fill:black;font-family:-apple-system,&quot;SF Pro Display&quot;,&quot;SF Pro Text&quot;,Helvetica,sans-serif;text-anchor:middle;" transform="matrix(1 0 0 1 1746.56 322)">Medium</text>
  <text style="stroke:none;fill:black;font-family:-apple-system,&quot;SF Pro Display&quot;,&quot;SF Pro Text&quot;,Helvetica,sans-serif;text-anchor:middle;" transform="matrix(1 0 0 1 2043.27 322)">Semibold</text>
  <text style="stroke:none;fill:black;font-family:-apple-system,&quot;SF Pro Display&quot;,&quot;SF Pro Text&quot;,Helvetica,sans-serif;text-anchor:middle;" transform="matrix(1 0 0 1 2339.98 322)">Bold</text>
  <text style="stroke:none;fill:black;font-family:-apple-system,&quot;SF Pro Display&quot;,&quot;SF Pro Text&quot;,Helvetica,sans-serif;text-anchor:middle;" transform="matrix(1 0 0 1 2636.69 322)">Heavy</text>
  <text style="stroke:none;fill:black;font-family:-apple-system,&quot;SF Pro Display&quot;,&quot;SF Pro Text&quot;,Helvetica,sans-serif;text-anchor:middle;" transform="matrix(1 0 0 1 2933.4 322)">Black</text>
  <line id="" style="fill:none;stroke:black;opacity:1;stroke-width:0.5;" x1="263" x2="3036" y1="1903" y2="1903"/>
  <g id="" transform="matrix(1 0 0 1 263 1933)">
   <path d="M 9.24805 0.830078 C 13.5547 0.830078 17.1387 -2.74414 17.1387 -7.05078 C 17.1387 -11.3574 13.5449 -14.9316 9.23828 -14.9316 C 4.94141 -14.9316 1.36719 -11.3574 1.36719 -7.05078 C 1.36719 -2.74414 4.95117 0.830078 9.24805 0.830078 Z M 9.24805 -0.654297 C 5.70312 -0.654297 2.87109 -3.49609 2.87109 -7.05078 C 2.87109 -10.6055 5.69336 -13.4473 9.23828 -13.4473 C 12.793 -13.4473 15.6348 -10.6055 15.6445 -7.05078 C 15.6543 -3.49609 12.8027 -0.654297 9.24805 -0.654297 Z M 9.22852 -3.42773 C 9.69727 -3.42773 9.9707 -3.74023 9.9707 -4.25781 L 9.9707 -6.31836 L 12.1973 -6.31836 C 12.6953 -6.31836 13.0371 -6.57227 13.0371 -7.04102 C 13.0371 -7.51953 12.7148 -7.7832 12.1973 -7.7832 L 9.9707 -7.7832 L 9.9707 -10.0098 C 9.9707 -10.5273 9.69727 -10.8496 9.22852 -10.8496 C 8.75977 -10.8496 8.50586 -10.5078 8.50586 -10.0098 L 8.50586 -7.7832 L 6.29883 -7.7832 C 5.78125 -7.7832 5.44922 -7.51953 5.44922 -7.04102 C 5.44922 -6.57227 5.80078 -6.31836 6.29883 -6.31836 L 8.50586 -6.31836 L 8.50586 -4.25781 C 8.50586 -3.75977 8.75977 -3.42773 9.22852 -3.42773 Z"/>
  </g>
  <g id="" transform="matrix(1 0 0 1 281.506 1933)">
   <path d="M 11.709 2.91016 C 17.1582 2.91016 21.6699 -1.60156 21.6699 -7.05078 C 21.6699 -12.4902 17.1484 -17.0117 11.6992 -17.0117 C 6.25977 -17.0117 1.74805 -12.4902 1.74805 -7.05078 C 1.74805 -1.60156 6.26953 2.91016 11.709 2.91016 Z M 11.709 1.25 C 7.09961 1.25 3.41797 -2.44141 3.41797 -7.05078 C 3.41797 -11.6504 7.08984 -15.3516 11.6992 -15.3516 C 16.3086 -15.3516 20 -11.6504 20.0098 -7.05078 C 20.0195 -2.44141 16.3184 1.25 11.709 1.25 Z M 11.6895 -2.41211 C 12.207 -2.41211 12.5195 -2.77344 12.5195 -3.33984 L 12.5195 -6.23047 L 15.5762 -6.23047 C 16.123 -6.23047 16.5039 -6.51367 16.5039 -7.03125 C 16.5039 -7.55859 16.1426 -7.86133 15.5762 -7.86133 L 12.5195 -7.86133 L 12.5195 -10.9277 C 12.5195 -11.5039 12.207 -11.8555 11.6895 -11.8555 C 11.1719 -11.8555 10.8789 -11.4844 10.8789 -10.9277 L 10.8789 -7.86133 L 7.83203 -7.86133 C 7.26562 -7.86133 6.89453 -7.55859 6.89453 -7.03125 C 6.89453 -6.51367 7.28516 -6.23047 7.83203 -6.23047 L 10.8789 -6.23047 L 10.8789 -3.33984 C 10.8789 -2.79297 11.1719 -2.41211 11.6895 -2.41211 Z"/>
  </g>
  <g id="" transform="matrix(1 0 0 1 304.924 1933)">
   <path d="M 14.9707 5.67383 C 21.9336 5.67383 27.6953 -0.078125 27.6953 -7.04102 C 27.6953 -14.0039 21.9238 -19.7559 14.9609 -19.7559 C 8.00781 -19.7559 2.25586 -14.0039 2.25586 -7.04102 C 2.25586 -0.078125 8.01758 5.67383 14.9707 5.67383 Z M 14.9707 3.85742 C 8.93555 3.85742 4.08203 -1.00586 4.08203 -7.04102 C 4.08203 -13.0762 8.92578 -17.9395 14.9609 -17.9395 C 21.0059 -17.9395 25.8594 -13.0762 25.8691 -7.04102 C 25.8789 -1.00586 21.0156 3.85742 14.9707 3.85742 Z M 14.9512 -1.06445 C 15.5176 -1.06445 15.8691 -1.45508 15.8691 -2.06055 L 15.8691 -6.13281 L 20.1074 -6.13281 C 20.6934 -6.13281 21.1133 -6.46484 21.1133 -7.02148 C 21.1133 -7.59766 20.7227 -7.93945 20.1074 -7.93945 L 15.8691 -7.93945 L 15.8691 -12.1875 C 15.8691 -12.8027 15.5176 -13.1934 14.9512 -13.1934 C 14.3848 -13.1934 14.0625 -12.7832 14.0625 -12.1875 L 14.0625 -7.93945 L 9.83398 -7.93945 C 9.21875 -7.93945 8.80859 -7.59766 8.80859 -7.02148 C 8.80859 -6.46484 9.23828 -6.13281 9.83398 -6.13281 L 14.0625 -6.13281 L 14.0625 -2.06055 C 14.0625 -1.47461 14.3848 -1.06445 14.9512 -1.06445 Z"/>
  </g>
  <text style="stroke:none;fill:black;font-family:-apple-system,&quot;SF Pro Display&quot;,&quot;SF Pro Text&quot;,Helvetica,sans-serif;font-weight:bold;" transform="matrix(1 0 0 1 263 1953)">Design Variations</text>
  <text style="stroke:none;fill:black;font-family:-apple-system,&quot;SF Pro Display&quot;,&quot;SF Pro Text&quot;,Helvetica,sans-serif;" transform="matrix(1 0 0 1 263 1971)">Symbols are supported in up to nine weights and three scales.</text>
  <text style="stroke:none;fill:black;font-family:-apple-system,&quot;SF Pro Display&quot;,&quot;SF Pro Text&quot;,Helvetica,sans-serif;" transform="matrix(1 0 0 1 263 1989)">For optimal layout with text and other symbols, vertically align</text>
  <text style="stroke:none;fill:black;font-family:-apple-system,&quot;SF Pro Display&quot;,&quot;SF Pro Text&quot;,Helvetica,sans-serif;" transform="matrix(1 0 0 1 263 2007)">symbols with the adjacent text.</text>
  <rect height="14" id="" style="fill:#00AEEF;stroke:none;opacity:0.4;" width="3" x="776" y="1919"/>
  <g id="" transform="matrix(1 0 0 1 779 1933)">
   <path d="M 10.5273 0 L 12.373 0 L 7.17773 -14.0918 L 5.43945 -14.0918 L 0.244141 0 L 2.08984 0 L 3.50586 -4.0332 L 9.11133 -4.0332 Z M 6.2793 -11.9531 L 6.33789 -11.9531 L 8.59375 -5.52734 L 4.02344 -5.52734 Z"/>
  </g>
  <rect height="14" id="" style="fill:#00AEEF;stroke:none;opacity:0.4;" width="3" x="791.617" y="1919"/>
  <text style="stroke:none;fill:black;font-family:-apple-system,&quot;SF Pro Display&quot;,&quot;SF Pro Text&quot;,Helvetica,sans-serif;font-weight:bold;" transform="matrix(1 0 0 1 776 1953)">Margins</text>
  <text style="stroke:none;fill:black;font-family:-apple-system,&quot;SF Pro Display&quot;,&quot;SF Pro Text&quot;,Helvetica,sans-serif;" transform="matrix(1 0 0 1 776 1971)">Leading and trailing margins on the left and right side of each symbol</text>
  <text style="stroke:none;fill:black;font-family:-apple-system,&quot;SF Pro Display&quot;,&quot;SF Pro Text&quot;,Helvetica,sans-serif;" transform="matrix(1 0 0 1 776 1989)">can be adjusted by modifying the width of the blue rectangles.</text>
  <text style="stroke:none;fill:black;font-family:-apple-system,&quot;SF Pro Display&quot;,&quot;SF Pro Text&quot;,Helvetica,sans-serif;" transform="matrix(1 0 0 1 776 2007)">Modifications are automatically applied proportionally to all</text>
  <text style="stroke:none;fill:black;font-family:-apple-system,&quot;SF Pro Display&quot;,&quot;SF Pro Text&quot;,Helvetica,sans-serif;" transform="matrix(1 0 0 1 776 2025)">scales and weights.</text>
  <g id="" transform="matrix(1 0 0 1 1289 1933)">
   <path d="M 2.83203 3.11523 L 4.375 4.6582 C 5.22461 5.48828 6.19141 5.41992 7.06055 4.46289 L 17.2754 -6.66016 C 17.7051 -6.36719 18.0957 -6.37695 18.5645 -6.47461 L 19.6094 -6.68945 L 20.3027 -5.99609 L 20.2539 -5.47852 C 20.1855 -4.95117 20.3516 -4.53125 20.8496 -4.0332 L 21.6602 -3.22266 C 22.168 -2.71484 22.8223 -2.68555 23.3008 -3.16406 L 26.5527 -6.41602 C 27.0312 -6.89453 27.0117 -7.54883 26.5039 -8.05664 L 25.6836 -8.87695 C 25.1855 -9.375 24.7754 -9.55078 24.2383 -9.47266 L 23.7109 -9.41406 L 23.0566 -10.0781 L 23.3398 -11.2207 C 23.4863 -11.7871 23.3398 -12.2559 22.7148 -12.8613 L 20.3027 -15.2539 C 16.7578 -18.7793 12.2266 -18.6719 9.11133 -15.5371 C 8.69141 -15.1074 8.64258 -14.5215 8.91602 -14.0918 C 9.15039 -13.7207 9.62891 -13.4961 10.2734 -13.6621 C 11.7871 -14.043 13.3008 -13.9258 14.7852 -12.9199 L 14.1602 -11.3379 C 13.9258 -10.752 13.9453 -10.2734 14.1797 -9.83398 L 3.01758 0.439453 C 2.08008 1.30859 1.97266 2.25586 2.83203 3.11523 Z M 10.6738 -15.1465 C 13.3398 -17.1387 16.6504 -16.8262 19.0527 -14.4141 L 21.6797 -11.8066 C 21.9141 -11.5723 21.9434 -11.3867 21.8848 -11.0938 L 21.5039 -9.53125 L 23.0762 -7.95898 L 24.043 -8.04688 C 24.3262 -8.07617 24.4141 -8.05664 24.6387 -7.83203 L 25.2637 -7.20703 L 22.5098 -4.46289 L 21.8848 -5.07812 C 21.6602 -5.30273 21.6406 -5.40039 21.6699 -5.68359 L 21.7578 -6.64062 L 20.1953 -8.20312 L 18.5742 -7.89062 C 18.291 -7.83203 18.1445 -7.83203 17.9102 -8.07617 L 15.7324 -10.2539 C 15.5078 -10.4883 15.4785 -10.625 15.6055 -10.9473 L 16.5527 -13.2227 C 14.9512 -14.7559 12.8418 -15.6055 10.8008 -14.9512 C 10.7129 -14.9219 10.6445 -14.9414 10.6152 -14.9805 C 10.5859 -15.0293 10.5859 -15.0781 10.6738 -15.1465 Z M 4.10156 2.41211 C 3.61328 1.91406 3.78906 1.61133 4.12109 1.30859 L 15.0781 -8.80859 L 16.3086 -7.57812 L 6.15234 3.34961 C 5.84961 3.68164 5.46875 3.7793 5.06836 3.37891 Z"/>
  </g>
  <text style="stroke:none;fill:black;font-family:-apple-system,&quot;SF Pro Display&quot;,&quot;SF Pro Text&quot;,Helvetica,sans-serif;font-weight:bold;" transform="matrix(1 0 0 1 1289 1953)">Exporting</text>
  <text style="stroke:none;fill:black;font-family:-apple-system,&quot;SF Pro Display&quot;,&quot;SF Pro Text&quot;,Helvetica,sans-serif;" transform="matrix(1 0 0 1 1289 1971)">Symbols should be outlined when exporting to ensure the</text>
  <text style="stroke:none;fill:black;font-family:-apple-system,&quot;SF Pro Display&quot;,&quot;SF Pro Text&quot;,Helvetica,sans-serif;" transform="matrix(1 0 0 1 1289 1989)">design is preserved when submitting to Xcode.</text>
  <text id="template-version" style="stroke:none;fill:black;font-family:-apple-system,&quot;SF Pro Display&quot;,&quot;SF Pro Text&quot;,Helvetica,sans-serif;text-anchor:end;" transform="matrix(1 0 0 1 3036 1933)">Template v.1.0</text>
  <text style="stroke:none;fill:black;font-family:-apple-system,&quot;SF Pro Display&quot;,&quot;SF Pro Text&quot;,Helvetica,sans-serif;text-anchor:end;" transform="matrix(1 0 0 1 3036 1951)">Generated from quote.bubble.fill</text>
  <text style="stroke:none;fill:black;font-family:-apple-system,&quot;SF Pro Display&quot;,&quot;SF Pro Text&quot;,Helvetica,sans-serif;text-anchor:end;" transform="matrix(1 0 0 1 3036 1969)">Typeset at 100 points</text>
  <text style="stroke:none;fill:black;font-family:-apple-system,&quot;SF Pro Display&quot;,&quot;SF Pro Text&quot;,Helvetica,sans-serif;" transform="matrix(1 0 0 1 263 726)">Small</text>
  <text style="stroke:none;fill:black;font-family:-apple-system,&quot;SF Pro Display&quot;,&quot;SF Pro Text&quot;,Helvetica,sans-serif;" transform="matrix(1 0 0 1 263 1156)">Medium</text>
  <text style="stroke:none;fill:black;font-family:-apple-system,&quot;SF Pro Display&quot;,&quot;SF Pro Text&quot;,Helvetica,sans-serif;" transform="matrix(1 0 0 1 263 1586)">Large</text>
 </g>
 <g id="Guides">
  <g id="H-reference" style="fill:#27AAE1;stroke:none;" transform="matrix(1 0 0 1 339 696)">
   <path d="M 54.9316 0 L 57.666 0 L 30.5664 -70.459 L 28.0762 -70.459 L 0.976562 0 L 3.66211 0 L 12.9395 -24.4629 L 45.7031 -24.4629 Z M 29.1992 -67.0898 L 29.4434 -67.0898 L 44.8242 -26.709 L 13.8184 -26.709 Z"/>
  </g>
  <line id="Baseline-S" style="fill:none;stroke:#27AAE1;opacity:1;stroke-width:0.577;" x1="263" x2="3036" y1="696" y2="696"/>
  <line id="Capline-S" style="fill:none;stroke:#27AAE1;opacity:1;stroke-width:0.577;" x1="263" x2="3036" y1="625.541" y2="625.541"/>
  <g id="H-reference" style="fill:#27AAE1;stroke:none;" transform="matrix(1 0 0 1 339 1126)">
   <path d="M 54.9316 0 L 57.666 0 L 30.5664 -70.459 L 28.0762 -70.459 L 0.976562 0 L 3.66211 0 L 12.9395 -24.4629 L 45.7031 -24.4629 Z M 29.1992 -67.0898 L 29.4434 -67.0898 L 44.8242 -26.709 L 13.8184 -26.709 Z"/>
  </g>
  <line id="Baseline-M" style="fill:none;stroke:#27AAE1;opacity:1;stroke-width:0.577;" x1="263" x2="3036" y1="1126" y2="1126"/>
  <line id="Capline-M" style="fill:none;stroke:#27AAE1;opacity:1;stroke-width:0.577;" x1="263" x2="3036" y1="1055.54" y2="1055.54"/>
  <g id="H-reference" style="fill:#27AAE1;stroke:none;" transform="matrix(1 0 0 1 339 1556)">
   <path d="M 54.9316 0 L 57.666 0 L 30.5664 -70.459 L 28.0762 -70.459 L 0.976562 0 L 3.66211 0 L 12.9395 -24.4629 L 45.7031 -24.4629 Z M 29.1992 -67.0898 L 29.4434 -67.0898 L 44.8242 -26.709 L 13.8184 -26.709 Z"/>
  </g>
  <line id="Baseline-L" style="fill:none;stroke:#27AAE1;opacity:1;stroke-width:0.577;" x1="263" x2="3036" y1="1556" y2="1556"/>
  <line id="Capline-L" style="fill:none;stroke:#27AAE1;opacity:1;stroke-width:0.577;" x1="263" x2="3036" y1="1485.54" y2="1485.54"/>
  <rect height="119.336" id="left-margin" style="fill:#00AEEF;stroke:none;opacity:0.4;" width="12.4512" x="1383.58" y="1030.79"/>
  <rect height="119.336" id="right-margin" style="fill:#00AEEF;stroke:none;opacity:0.4;" width="12.4512" x="1503.65" y="1030.79"/>
 </g>
 <g id="Symbols">
  <g id="Black-L" transform="matrix(1 0 0 1 2846.24 1556)">
   <path d="M 55.1758 39.0625 C 58.3496 39.0625 60.9863 37.8418 64.8926 34.375 L 89.4043 12.8418 L 125.83 12.8418 C 145.703 12.8906 158.252 0.195312 158.252 -19.5801 L 158.252 -70.1172 C 158.252 -89.8926 145.703 -102.539 125.83 -102.539 L 48.4863 -102.539 C 28.6133 -102.539 16.0645 -89.8926 16.0645 -70.1172 L 16.0645 -19.5801 C 16.0645 0.195312 29.7852 12.8418 46.7285 12.8418 L 47.6562 12.8418 L 47.6562 30.8105 C 47.6562 35.9375 50.5371 39.0625 55.1758 39.0625 Z M 53.8574 -49.3164 C 53.8574 -57.959 60.1074 -64.1113 68.75 -64.1113 C 78.9062 -64.1113 84.9609 -55.9082 84.9609 -45.752 C 84.9609 -31.7871 72.9004 -21.8262 64.5996 -21.8262 C 62.4512 -21.8262 60.6934 -22.998 60.6934 -25.0977 C 60.6934 -26.7578 61.7676 -27.9785 63.6719 -28.3691 C 70.4102 -29.834 74.9512 -33.9844 76.3672 -38.3789 L 74.9023 -38.3789 C 72.998 -36.1816 70.1172 -35.1562 66.4551 -35.1562 C 59.082 -35.1562 53.8574 -41.1133 53.8574 -49.3164 Z M 90.1367 -49.3164 C 90.1367 -57.959 96.4355 -64.1113 105.029 -64.1113 C 115.283 -64.1113 121.24 -55.9082 121.24 -45.752 C 121.24 -31.7871 109.18 -21.8262 100.879 -21.8262 C 98.7793 -21.8262 97.0215 -22.998 97.0215 -25.0977 C 97.0215 -26.7578 98.0957 -27.9785 100 -28.3691 C 106.738 -29.834 111.328 -33.9844 112.646 -38.3789 L 111.182 -38.3789 C 109.326 -36.1816 106.396 -35.1562 102.783 -35.1562 C 95.4102 -35.1562 90.1367 -41.1133 90.1367 -49.3164 Z"/>
  </g>
  <g id="Heavy-L" transform="matrix(1 0 0 1 2550.07 1556)">
   <path d="M 54.4434 37.6953 C 57.4219 37.6953 59.8145 36.5234 63.3789 33.3008 L 87.5 12.0117 L 125.879 12.0117 C 145.264 12.0605 157.178 -0.0488281 157.178 -19.2383 L 157.178 -69.6289 C 157.178 -88.8184 145.264 -100.879 125.879 -100.879 L 47.3145 -100.879 C 27.9785 -100.879 16.0645 -88.8672 16.0645 -69.6289 L 16.0645 -19.2383 C 16.0645 0 28.8574 12.0117 45.9961 12.0117 L 47.5586 12.0117 L 47.5586 30.0781 C 47.5586 34.7656 50.1465 37.6953 54.4434 37.6953 Z M 54.2969 -48.7305 C 54.2969 -57.0801 60.4004 -62.9883 68.75 -62.9883 C 78.3203 -62.9883 84.2773 -55.2734 84.2773 -45.459 C 84.2773 -31.1035 72.0703 -21.7773 64.3066 -21.7773 C 62.2559 -21.7773 60.6445 -22.998 60.6445 -24.9512 C 60.6445 -26.5625 61.6211 -27.6855 63.5742 -28.1738 C 69.6289 -29.541 74.3164 -33.4961 75.9277 -38.0859 L 74.707 -38.0859 C 72.8027 -35.9375 70.0195 -35.0098 66.6016 -35.0098 C 59.3262 -35.0098 54.2969 -40.8691 54.2969 -48.7305 Z M 89.9414 -48.7305 C 89.9414 -57.0801 96.0449 -62.9883 104.395 -62.9883 C 114.014 -62.9883 119.922 -55.2734 119.922 -45.459 C 119.922 -31.1035 107.715 -21.7773 99.9512 -21.7773 C 97.9492 -21.7773 96.3379 -22.998 96.3379 -24.9512 C 96.3379 -26.5625 97.3145 -27.6855 99.2676 -28.1738 C 105.322 -29.541 110.01 -33.4961 111.572 -38.0859 L 110.352 -38.0859 C 108.496 -35.9375 105.664 -35.0098 102.295 -35.0098 C 95.0195 -35.0098 89.9414 -40.8691 89.9414 -48.7305 Z"/>
  </g>
  <g id="Bold-L" transform="matrix(1 0 0 1 2253.97 1556)">
   <path d="M 53.6621 36.1816 C 56.3477 36.1816 58.4473 35.0098 61.6699 32.0801 L 85.3027 11.0352 L 125.977 11.084 C 144.727 11.1328 155.957 -0.292969 155.957 -18.8965 L 155.957 -69.043 C 155.957 -87.6465 144.727 -99.0234 125.977 -99.0234 L 46.0449 -99.0234 C 27.2461 -99.0234 16.0645 -87.6953 16.0645 -69.043 L 16.0645 -18.8965 C 16.0645 -0.244141 27.832 11.084 45.166 11.0352 L 47.4121 11.0352 L 47.4121 29.1992 C 47.4121 33.4961 49.7559 36.1816 53.6621 36.1816 Z M 54.7852 -48.0957 C 54.7852 -56.1035 60.6934 -61.7676 68.7012 -61.7676 C 77.6855 -61.7676 83.4961 -54.541 83.4961 -45.2148 C 83.4961 -30.3711 71.1426 -21.7773 64.0137 -21.7773 C 62.0605 -21.7773 60.5957 -22.998 60.5957 -24.8047 C 60.5957 -26.3184 61.4258 -27.3926 63.4766 -27.9297 C 68.7988 -29.1992 73.584 -32.9102 75.4395 -37.793 L 74.4141 -37.793 C 72.6562 -35.6445 69.9219 -34.8633 66.748 -34.8633 C 59.6191 -34.8633 54.7852 -40.5273 54.7852 -48.0957 Z M 89.6973 -48.0957 C 89.6973 -56.1035 95.6543 -61.7676 103.613 -61.7676 C 112.646 -61.7676 118.457 -54.541 118.457 -45.2148 C 118.457 -30.3711 106.055 -21.7773 98.9258 -21.7773 C 97.0215 -21.7773 95.5566 -22.998 95.5566 -24.8047 C 95.5566 -26.3184 96.3867 -27.3926 98.4375 -27.9297 C 103.76 -29.1992 108.545 -32.9102 110.352 -37.793 L 109.375 -37.793 C 107.617 -35.6445 104.834 -34.8633 101.709 -34.8633 C 94.5312 -34.8633 89.6973 -40.5273 89.6973 -48.0957 Z"/>
  </g>
  <g id="Semibold-L" transform="matrix(1 0 0 1 1957.7 1556)">
   <path d="M 53.0762 35.1074 C 55.6152 35.1074 57.5195 33.9355 60.4492 31.25 L 83.8379 10.4004 L 126.025 10.4492 C 144.385 10.498 155.078 -0.439453 155.078 -18.6035 L 155.078 -68.6523 C 155.078 -86.8164 144.385 -97.7539 126.025 -97.7539 L 45.166 -97.7539 C 26.7578 -97.7539 16.0645 -86.8652 16.0645 -68.6523 L 16.0645 -18.6035 C 16.0645 -0.390625 27.1484 10.4492 44.5801 10.4004 L 47.3633 10.4004 L 47.3633 28.6133 C 47.3633 32.5684 49.5117 35.1074 53.0762 35.1074 Z M 55.0781 -47.7051 C 55.0781 -55.4199 60.8887 -60.9375 68.6523 -60.9375 C 77.2461 -60.9375 83.0078 -54.0527 83.0078 -45.0195 C 83.0078 -29.8828 70.5078 -21.7285 63.7695 -21.7285 C 61.9141 -21.7285 60.5469 -22.9492 60.5469 -24.707 C 60.5469 -26.1719 61.3281 -27.1973 63.4277 -27.7344 C 68.2129 -28.9551 73.0957 -32.5195 75.0977 -37.5977 L 74.2676 -37.5977 C 72.5098 -35.4492 69.873 -34.7168 66.8457 -34.7168 C 59.7656 -34.7168 55.0781 -40.332 55.0781 -47.7051 Z M 89.502 -47.7051 C 89.502 -55.4199 95.3613 -60.9375 103.076 -60.9375 C 111.719 -60.9375 117.432 -54.0527 117.432 -45.0195 C 117.432 -29.8828 104.932 -21.7285 98.1934 -21.7285 C 96.3867 -21.7285 94.9707 -22.9492 94.9707 -24.707 C 94.9707 -26.1719 95.752 -27.1973 97.9004 -27.7344 C 102.686 -28.9551 107.568 -32.5195 109.521 -37.5977 L 108.691 -37.5977 C 106.982 -35.4492 104.297 -34.7168 101.318 -34.7168 C 94.2383 -34.7168 89.502 -40.332 89.502 -47.7051 Z"/>
  </g>
  <g id="Medium-L" transform="matrix(1 0 0 1 1661.3 1556)">
   <path d="M 52.6855 34.3262 C 55.0293 34.3262 56.7871 33.1543 59.5703 30.6152 L 82.7148 9.91211 L 126.025 9.96094 C 144.092 10.0098 154.443 -0.585938 154.443 -18.457 L 154.443 -68.3594 C 154.443 -86.2305 144.092 -96.7773 126.025 -96.7773 L 44.4824 -96.7773 C 26.3672 -96.7773 16.0645 -86.2793 16.0645 -68.3594 L 16.0645 -18.457 C 16.0645 -0.537109 26.6113 9.96094 44.1406 9.91211 L 47.2656 9.91211 L 47.2656 28.1738 C 47.2656 31.8848 49.3164 34.3262 52.6855 34.3262 Z M 55.3223 -47.3633 C 55.3223 -54.8828 61.0352 -60.3027 68.6523 -60.3027 C 76.9043 -60.3027 82.6172 -53.6621 82.6172 -44.873 C 82.6172 -29.4922 70.0195 -21.7285 63.5742 -21.7285 C 61.8164 -21.7285 60.498 -22.9492 60.498 -24.6094 C 60.498 -26.0254 61.2305 -27.0508 63.3789 -27.6367 C 67.7734 -28.7598 72.7051 -32.2266 74.8535 -37.4023 L 74.1211 -37.4023 C 72.4121 -35.3027 69.8242 -34.668 66.9434 -34.668 C 59.9121 -34.668 55.3223 -40.1855 55.3223 -47.3633 Z M 89.4043 -47.3633 C 89.4043 -54.8828 95.1172 -60.3027 102.686 -60.3027 C 110.986 -60.3027 116.65 -53.6621 116.65 -44.873 C 116.65 -29.4922 104.053 -21.7285 97.6562 -21.7285 C 95.8984 -21.7285 94.5801 -22.9492 94.5801 -24.6094 C 94.5801 -26.0254 95.3125 -27.0508 97.4609 -27.6367 C 101.855 -28.7598 106.787 -32.2266 108.936 -37.4023 L 108.203 -37.4023 C 106.494 -35.3027 103.857 -34.668 101.025 -34.668 C 93.9941 -34.668 89.4043 -40.1855 89.4043 -47.3633 Z"/>
  </g>
  <g id="Regular-L" transform="matrix(1 0 0 1 1365.01 1556)">
   <path d="M 52.1484 33.252 C 54.2969 33.252 55.9082 32.1289 58.3984 29.834 L 81.2012 9.27734 L 126.074 9.32617 C 143.75 9.375 153.613 -0.78125 153.613 -18.1641 L 153.613 -67.9688 C 153.613 -85.4004 143.75 -95.5078 126.074 -95.5078 L 43.6035 -95.5078 C 25.8789 -95.5078 16.0645 -85.4492 16.0645 -67.9688 L 16.0645 -18.1641 C 16.0645 -0.683594 25.8789 9.32617 43.6035 9.27734 L 47.2168 9.27734 L 47.2168 27.5879 C 47.2168 31.0059 49.0234 33.252 52.1484 33.252 Z M 55.6641 -46.9238 C 55.6641 -54.248 61.2793 -59.4238 68.6035 -59.4238 C 76.4648 -59.4238 82.0801 -53.1738 82.0801 -44.6777 C 82.0801 -29.0039 69.3848 -21.7285 63.3789 -21.7285 C 61.6699 -21.7285 60.4492 -22.9492 60.4492 -24.5117 C 60.4492 -25.8789 61.084 -26.8555 63.3301 -27.4414 C 67.1875 -28.5156 72.2168 -31.8359 74.5117 -37.207 L 73.9746 -37.207 C 72.3145 -35.1074 69.7266 -34.5703 67.041 -34.5703 C 60.1074 -34.5703 55.6641 -39.9902 55.6641 -46.9238 Z M 89.209 -46.9238 C 89.209 -54.248 94.8242 -59.4238 102.197 -59.4238 C 110.059 -59.4238 115.625 -53.1738 115.625 -44.6777 C 115.625 -29.0039 102.93 -21.7285 96.9238 -21.7285 C 95.2637 -21.7285 94.043 -22.9492 94.043 -24.5117 C 94.043 -25.8789 94.6777 -26.8555 96.875 -27.4414 C 100.781 -28.5156 105.811 -31.8359 108.105 -37.207 L 107.52 -37.207 C 105.859 -35.1074 103.32 -34.5703 100.635 -34.5703 C 93.7012 -34.5703 89.209 -39.9902 89.209 -46.9238 Z"/>
  </g>
  <g id="Light-L" transform="matrix(1 0 0 1 1069.2 1556)">
   <path d="M 50.293 31.7871 C 52.0508 31.7871 53.3691 30.8105 55.2734 29.1016 L 78.125 8.93555 L 126.074 8.98438 C 142.334 9.0332 151.807 -0.683594 151.807 -16.6992 L 151.807 -68.6035 C 151.807 -84.6191 142.334 -94.2871 126.074 -94.2871 L 41.7969 -94.2871 C 25.5371 -94.2871 16.0645 -84.7168 16.0645 -68.6035 L 16.0645 -16.6992 C 16.0645 -0.585938 25.5371 8.98438 41.7969 8.93555 L 46.2891 8.93555 L 46.2891 27.2461 C 46.2891 29.9805 47.8516 31.7871 50.293 31.7871 Z M 56.4453 -46.4355 C 56.4453 -53.3203 61.7676 -58.3984 68.7012 -58.3984 C 75.9277 -58.3984 81.543 -52.5879 81.543 -44.2871 C 81.543 -29.3945 69.1406 -22.6074 63.8184 -22.6074 C 62.3047 -22.6074 61.2305 -23.7305 61.2305 -25.1465 C 61.2305 -26.3184 61.8164 -27.1973 63.7695 -27.7344 C 67.2363 -28.6621 72.5586 -32.0312 74.707 -37.5977 L 74.2188 -37.5977 C 72.5586 -35.498 70.0684 -34.7656 67.3828 -34.7656 C 60.791 -34.7656 56.4453 -39.8926 56.4453 -46.4355 Z M 88.8672 -46.4355 C 88.8672 -53.3203 94.1895 -58.3984 101.172 -58.3984 C 108.398 -58.3984 113.965 -52.5879 113.965 -44.2871 C 113.965 -29.3945 101.611 -22.6074 96.2402 -22.6074 C 94.7754 -22.6074 93.7012 -23.7305 93.7012 -25.1465 C 93.7012 -26.3184 94.2871 -27.1973 96.2402 -27.7344 C 99.6582 -28.6621 105.029 -32.0312 107.227 -37.5977 L 106.641 -37.5977 C 105.029 -35.498 102.49 -34.7656 99.8047 -34.7656 C 93.2129 -34.7656 88.8672 -39.8926 88.8672 -46.4355 Z"/>
  </g>
  <g id="Thin-L" transform="matrix(1 0 0 1 773.683 1556)">
   <path d="M 47.8516 29.834 C 49.0234 29.834 50 29.1016 51.123 28.1738 L 74.0234 8.49609 L 126.074 8.54492 C 140.43 8.54492 149.414 -0.634766 149.414 -14.7949 L 149.414 -69.3848 C 149.414 -83.5449 140.43 -92.7246 126.074 -92.7246 L 39.3555 -92.7246 C 25.0488 -92.7246 16.0645 -83.6914 16.0645 -69.3848 L 16.0645 -14.7949 C 16.0645 -0.488281 25.0488 8.54492 39.3555 8.49609 L 45.0684 8.49609 L 45.0684 26.709 C 45.0684 28.6133 46.2402 29.834 47.8516 29.834 Z M 57.4707 -45.8008 C 57.4707 -52.0996 62.4023 -56.9336 68.8477 -56.9336 C 75.1953 -56.9336 80.8105 -51.8066 80.8105 -43.75 C 80.8105 -29.834 68.8965 -23.7793 64.4043 -23.7793 C 63.1348 -23.7793 62.2559 -24.707 62.2559 -25.9766 C 62.2559 -26.9043 62.793 -27.6855 64.4043 -28.0762 C 67.2852 -28.8574 73.0469 -32.3242 75 -38.0859 L 74.5117 -38.0859 C 72.9004 -36.0352 70.459 -35.1074 67.7734 -35.1074 C 61.6699 -35.1074 57.4707 -39.7461 57.4707 -45.8008 Z M 88.4277 -45.8008 C 88.4277 -52.0996 93.3105 -56.9336 99.8047 -56.9336 C 106.25 -56.9336 111.768 -51.8066 111.768 -43.75 C 111.768 -29.834 99.8535 -23.7793 95.3613 -23.7793 C 94.1406 -23.7793 93.2129 -24.707 93.2129 -25.9766 C 93.2129 -26.9043 93.75 -27.6855 95.3613 -28.0762 C 98.2422 -28.8574 104.004 -32.3242 106.055 -38.0859 L 105.469 -38.0859 C 103.857 -36.0352 101.416 -35.1074 98.6816 -35.1074 C 92.627 -35.1074 88.4277 -39.7461 88.4277 -45.8008 Z"/>
  </g>
  <g id="Ultralight-L" transform="matrix(1 0 0 1 477.607 1556)">
   <path d="M 46.582 28.8086 C 47.5098 28.8086 48.291 28.2227 48.9746 27.7344 L 71.9238 8.30078 L 126.074 8.30078 C 139.453 8.30078 148.145 -0.585938 148.145 -13.8184 L 148.145 -69.8242 C 148.145 -83.0078 139.453 -91.8945 126.074 -91.8945 L 38.1348 -91.8945 C 24.8047 -91.8945 16.0645 -83.2031 16.0645 -69.8242 L 16.0645 -13.8184 C 16.0645 -0.439453 24.8047 8.30078 38.1348 8.30078 L 44.4824 8.30078 L 44.4824 26.4648 C 44.4824 27.9297 45.4102 28.8086 46.582 28.8086 Z M 57.959 -45.5078 C 57.959 -51.4648 62.6953 -56.25 68.9453 -56.25 C 74.8535 -56.25 80.4688 -51.416 80.4688 -43.5059 C 80.4688 -30.0781 68.75 -24.3652 64.6973 -24.3652 C 63.5742 -24.3652 62.793 -25.2441 62.793 -26.3672 C 62.793 -27.1973 63.2812 -27.9297 64.6973 -28.2715 C 67.2852 -28.9551 73.291 -32.4219 75.1465 -38.3789 L 74.707 -38.3789 C 73.0957 -36.2793 70.7031 -35.2539 67.9688 -35.2539 C 62.1094 -35.2539 57.959 -39.6484 57.959 -45.5078 Z M 88.1836 -45.5078 C 88.1836 -51.4648 92.8711 -56.25 99.1211 -56.25 C 105.127 -56.25 110.645 -51.416 110.645 -43.5059 C 110.645 -30.0781 98.9258 -24.3652 94.873 -24.3652 C 93.8477 -24.3652 92.9688 -25.2441 92.9688 -26.3672 C 92.9688 -27.1973 93.457 -27.9297 94.9219 -28.2715 C 97.5098 -28.9551 103.467 -32.4219 105.42 -38.3789 L 104.883 -38.3789 C 103.271 -36.2793 100.879 -35.2539 98.1445 -35.2539 C 92.334 -35.2539 88.1836 -39.6484 88.1836 -45.5078 Z"/>
  </g>
  <g id="Black-M" transform="matrix(1 0 0 1 2865.58 1126)">
   <path d="M 42.7246 23.3887 C 45.3125 23.3887 47.5586 22.5586 50.6836 19.7754 L 70.2637 2.97852 L 97.4609 2.97852 C 112.793 2.97852 123.193 -7.42188 123.193 -22.7539 L 123.193 -63.2812 C 123.193 -78.6133 112.793 -89.0137 97.4609 -89.0137 L 38.1836 -89.0137 C 22.8516 -89.0137 12.4512 -78.6133 12.4512 -63.2812 L 12.4512 -22.7539 C 12.4512 -7.42188 24.1211 2.97852 36.2793 2.97852 L 36.6211 2.97852 L 36.6211 16.7969 C 36.6211 20.8984 38.9648 23.3887 42.7246 23.3887 Z M 41.6016 -46.6309 C 41.6016 -53.5156 46.4844 -58.4961 53.418 -58.4961 C 61.6699 -58.4961 66.4551 -51.8066 66.4551 -43.5059 C 66.4551 -33.5938 57.5195 -25.3418 50.6836 -25.3418 C 48.9746 -25.3418 47.5098 -26.2207 47.5098 -27.8809 C 47.5098 -29.1992 48.4375 -30.127 49.707 -30.3711 C 55.6152 -31.543 59.1797 -35.0586 59.8633 -38.2324 L 58.4961 -38.2324 C 56.9336 -36.4746 54.5898 -35.4492 51.4648 -35.4492 C 45.8008 -35.4492 41.6016 -40.0879 41.6016 -46.6309 Z M 69.9707 -46.6309 C 69.9707 -53.5156 74.9023 -58.4961 81.7871 -58.4961 C 90.0879 -58.4961 94.873 -51.8066 94.873 -43.5059 C 94.873 -33.5938 85.8887 -25.3418 79.1016 -25.3418 C 77.3926 -25.3418 75.9766 -26.2207 75.9766 -27.8809 C 75.9766 -29.1992 76.9043 -30.127 78.125 -30.3711 C 84.0332 -31.543 87.5977 -35.0586 88.2324 -38.2324 L 86.8652 -38.2324 C 85.3516 -36.4746 83.0078 -35.4492 79.8828 -35.4492 C 74.2188 -35.4492 69.9707 -40.0879 69.9707 -46.6309 Z"/>
  </g>
  <g id="Heavy-M" transform="matrix(1 0 0 1 2569.23 1126)">
   <path d="M 42.4316 22.3145 C 44.873 22.3145 46.875 21.3867 49.8047 18.7988 L 68.9453 2.14844 L 97.5098 2.14844 C 112.646 2.14844 122.461 -7.71484 122.461 -22.8027 L 122.461 -62.5488 C 122.461 -77.6367 112.646 -87.5 97.5098 -87.5 L 37.4023 -87.5 C 22.2656 -87.5 12.4512 -77.6367 12.4512 -62.5488 L 12.4512 -22.8027 C 12.4512 -7.71484 23.2422 2.14844 35.9375 2.14844 L 36.7188 2.14844 L 36.7188 16.0645 C 36.7188 19.9219 38.916 22.3145 42.4316 22.3145 Z M 41.8457 -46.1426 C 41.8457 -52.7832 46.6309 -57.6172 53.3203 -57.6172 C 61.1816 -57.6172 65.8691 -51.2695 65.8691 -43.3105 C 65.8691 -32.8125 56.6895 -25.0977 50.293 -25.0977 C 48.584 -25.0977 47.2656 -25.9766 47.2656 -27.5879 C 47.2656 -28.8574 48.0957 -29.7363 49.4629 -30.0781 C 54.7852 -31.2012 58.3496 -34.4727 59.3262 -37.8418 L 58.1543 -37.8418 C 56.6895 -36.1328 54.4434 -35.2539 51.5625 -35.2539 C 45.8984 -35.2539 41.8457 -39.8438 41.8457 -46.1426 Z M 69.8242 -46.1426 C 69.8242 -52.7832 74.6582 -57.6172 81.2988 -57.6172 C 89.209 -57.6172 93.8477 -51.2695 93.8477 -43.3105 C 93.8477 -32.8125 84.6191 -25.0977 78.2227 -25.0977 C 76.6113 -25.0977 75.293 -25.9766 75.293 -27.5879 C 75.293 -28.8574 76.123 -29.7363 77.4902 -30.0781 C 82.7637 -31.2012 86.377 -34.4727 87.3047 -37.8418 L 86.1328 -37.8418 C 84.7168 -36.1328 82.4219 -35.2539 79.5898 -35.2539 C 73.9258 -35.2539 69.8242 -39.8438 69.8242 -46.1426 Z"/>
  </g>
  <g id="Bold-M" transform="matrix(1 0 0 1 2272.94 1126)">
   <path d="M 42.0898 21.0449 C 44.3359 21.0449 46.1426 20.1172 48.877 17.6758 L 67.4805 1.2207 L 97.5586 1.2207 C 112.5 1.26953 121.631 -8.00781 121.631 -22.8027 L 121.631 -61.7676 C 121.631 -76.5625 112.5 -85.791 97.5586 -85.791 L 36.4746 -85.791 C 21.582 -85.791 12.4512 -76.6113 12.4512 -61.7676 L 12.4512 -22.8027 C 12.4512 -7.95898 22.2168 1.2207 35.5469 1.2207 L 36.8652 1.2207 L 36.8652 15.2344 C 36.8652 18.7988 38.8184 21.0449 42.0898 21.0449 Z M 42.1387 -45.6055 C 42.1387 -52.002 46.8262 -56.543 53.2715 -56.543 C 60.5957 -56.543 65.1855 -50.6348 65.1855 -43.1152 C 65.1855 -31.9336 55.7129 -24.8047 49.8047 -24.8047 C 48.1934 -24.8047 46.9727 -25.7324 46.9727 -27.2461 C 46.9727 -28.4668 47.7051 -29.3457 49.2676 -29.6875 C 53.8086 -30.7617 57.4707 -33.7891 58.7402 -37.4023 L 57.8125 -37.4023 C 56.3965 -35.6934 54.248 -35.0098 51.6113 -35.0098 C 45.9961 -35.0098 42.1387 -39.5508 42.1387 -45.6055 Z M 69.6777 -45.6055 C 69.6777 -52.002 74.4141 -56.543 80.7617 -56.543 C 88.1836 -56.543 92.7246 -50.6348 92.7246 -43.1152 C 92.7246 -31.9336 83.2031 -24.8047 77.2949 -24.8047 C 75.7324 -24.8047 74.5117 -25.7324 74.5117 -27.2461 C 74.5117 -28.4668 75.2441 -29.3457 76.8066 -29.6875 C 81.3965 -30.7617 85.0098 -33.7891 86.2793 -37.4023 L 85.3516 -37.4023 C 83.9355 -35.6934 81.7383 -35.0098 79.1992 -35.0098 C 73.5352 -35.0098 69.6777 -39.5508 69.6777 -45.6055 Z"/>
  </g>
  <g id="Semibold-M" transform="matrix(1 0 0 1 1976.52 1126)">
   <path d="M 41.8457 20.2148 C 43.9941 20.2148 45.6543 19.2383 48.1934 16.9434 L 66.4551 0.585938 L 97.6074 0.585938 C 112.402 0.634766 121.045 -8.20312 121.045 -22.8027 L 121.045 -61.2305 C 121.045 -75.8301 112.402 -84.668 97.6074 -84.668 L 35.8887 -84.668 C 21.0938 -84.668 12.4512 -75.8789 12.4512 -61.2305 L 12.4512 -22.8027 C 12.4512 -8.1543 21.4844 0.585938 35.2539 0.585938 L 36.9141 0.585938 L 36.9141 14.6973 C 36.9141 18.0664 38.7695 20.2148 41.8457 20.2148 Z M 42.334 -45.2148 C 42.334 -51.4648 46.9727 -55.8594 53.2227 -55.8594 C 60.2051 -55.8594 64.7461 -50.2441 64.7461 -43.0176 C 64.7461 -31.2988 55.0293 -24.6094 49.4629 -24.6094 C 47.9004 -24.6094 46.7773 -25.5859 46.7773 -27.002 C 46.7773 -28.1738 47.4121 -29.0527 49.0723 -29.4434 C 53.1738 -30.4688 56.8359 -33.3008 58.3496 -37.0605 L 57.6172 -37.0605 C 56.2012 -35.4004 54.1016 -34.8633 51.709 -34.8633 C 46.0938 -34.8633 42.334 -39.3555 42.334 -45.2148 Z M 69.5312 -45.2148 C 69.5312 -51.4648 74.2188 -55.8594 80.4199 -55.8594 C 87.4512 -55.8594 91.9434 -50.2441 91.9434 -43.0176 C 91.9434 -31.2988 82.2266 -24.6094 76.6602 -24.6094 C 75.1465 -24.6094 74.0234 -25.5859 74.0234 -27.002 C 74.0234 -28.1738 74.6582 -29.0527 76.3184 -29.4434 C 80.4199 -30.4688 84.082 -33.3008 85.5469 -37.0605 L 84.8145 -37.0605 C 83.4473 -35.4004 81.2988 -34.8633 78.9062 -34.8633 C 73.291 -34.8633 69.5312 -39.3555 69.5312 -45.2148 Z"/>
  </g>
  <g id="Medium-M" transform="matrix(1 0 0 1 1680.03 1126)">
   <path d="M 41.6992 19.5312 C 43.75 19.5312 45.2637 18.5547 47.7051 16.3574 L 65.7227 0.0976562 L 97.6562 0.146484 C 112.354 0.146484 120.605 -8.34961 120.605 -22.8516 L 120.605 -60.791 C 120.605 -75.293 112.354 -83.7891 97.6562 -83.7891 L 35.4004 -83.7891 C 20.752 -83.7891 12.4512 -75.293 12.4512 -60.791 L 12.4512 -22.8516 C 12.4512 -8.30078 20.9961 0.146484 35.0586 0.0976562 L 37.0117 0.0976562 L 37.0117 14.2578 C 37.0117 17.4805 38.7207 19.5312 41.6992 19.5312 Z M 42.4805 -44.9219 C 42.4805 -51.0254 47.0703 -55.3223 53.1738 -55.3223 C 59.9121 -55.3223 64.3555 -49.9023 64.3555 -42.9199 C 64.3555 -30.8105 54.541 -24.4629 49.1699 -24.4629 C 47.7051 -24.4629 46.6309 -25.4395 46.6309 -26.8066 C 46.6309 -27.9785 47.2168 -28.8086 48.9746 -29.2969 C 52.6855 -30.2246 56.3965 -32.959 58.0078 -36.8652 L 57.4219 -36.8652 C 56.0547 -35.2051 54.0039 -34.7168 51.7578 -34.7168 C 46.1426 -34.7168 42.4805 -39.1602 42.4805 -44.9219 Z M 69.4824 -44.9219 C 69.4824 -51.0254 74.0723 -55.3223 80.127 -55.3223 C 86.9141 -55.3223 91.3574 -49.9023 91.3574 -42.9199 C 91.3574 -30.8105 81.4941 -24.4629 76.1719 -24.4629 C 74.707 -24.4629 73.584 -25.4395 73.584 -26.8066 C 73.584 -27.9785 74.2188 -28.8086 75.9277 -29.2969 C 79.6875 -30.2246 83.3496 -32.959 85.0098 -36.8652 L 84.375 -36.8652 C 83.0566 -35.2051 80.957 -34.7168 78.7109 -34.7168 C 73.1445 -34.7168 69.4824 -39.1602 69.4824 -44.9219 Z"/>
  </g>
  <g id="Regular-M" transform="matrix(1 0 0 1 1383.58 1126)">
   <path d="M 41.4551 18.7012 C 43.3594 18.7012 44.7754 17.7246 47.0703 15.5762 L 64.6973 -0.537109 L 97.7051 -0.488281 C 112.256 -0.439453 120.068 -8.54492 120.068 -22.8516 L 120.068 -60.2539 C 120.068 -74.5605 112.256 -82.6172 97.7051 -82.6172 L 34.8145 -82.6172 C 20.2637 -82.6172 12.4512 -74.6094 12.4512 -60.2539 L 12.4512 -22.8516 C 12.4512 -8.49609 20.2637 -0.488281 34.8145 -0.537109 L 37.1094 -0.537109 L 37.1094 13.6719 C 37.1094 16.6992 38.6719 18.7012 41.4551 18.7012 Z M 42.6758 -44.5801 C 42.6758 -50.4883 47.2168 -54.5898 53.125 -54.5898 C 59.5703 -54.5898 63.916 -49.4629 63.916 -42.7734 C 63.916 -30.2246 53.8574 -24.2676 48.877 -24.2676 C 47.4609 -24.2676 46.4355 -25.293 46.4355 -26.5625 C 46.4355 -27.7344 46.9238 -28.5156 48.8281 -29.0527 C 52.0508 -29.9316 55.7617 -32.4707 57.6172 -36.5234 L 57.1777 -36.5234 C 55.9082 -34.9121 53.8574 -34.5703 51.8066 -34.5703 C 46.2402 -34.5703 42.6758 -38.9648 42.6758 -44.5801 Z M 69.3359 -44.5801 C 69.3359 -50.4883 73.877 -54.5898 79.7852 -54.5898 C 86.2305 -54.5898 90.5762 -49.4629 90.5762 -42.7734 C 90.5762 -30.2246 80.5176 -24.2676 75.5371 -24.2676 C 74.1211 -24.2676 73.0957 -25.293 73.0957 -26.5625 C 73.0957 -27.7344 73.584 -28.5156 75.4883 -29.0527 C 78.7109 -29.9316 82.4219 -32.4707 84.2773 -36.5234 L 83.8379 -36.5234 C 82.5684 -34.9121 80.5176 -34.5703 78.4668 -34.5703 C 72.9004 -34.5703 69.3359 -38.9648 69.3359 -44.5801 Z"/>
  </g>
  <g id="Light-M" transform="matrix(1 0 0 1 1087.68 1126)">
   <path d="M 39.7949 17.3828 C 41.3574 17.3828 42.4805 16.5527 44.2383 14.9414 L 61.9141 -0.830078 L 97.7051 -0.830078 C 110.938 -0.78125 118.457 -8.49609 118.457 -21.5332 L 118.457 -60.791 C 118.457 -73.877 110.938 -81.543 97.7051 -81.543 L 33.2031 -81.543 C 19.9707 -81.543 12.4512 -73.9258 12.4512 -60.791 L 12.4512 -21.5332 C 12.4512 -8.44727 19.9707 -0.830078 33.2031 -0.830078 L 36.2793 -0.830078 L 36.2793 13.3301 C 36.2793 15.7715 37.5977 17.3828 39.7949 17.3828 Z M 43.3594 -44.1406 C 43.3594 -49.6582 47.6562 -53.6621 53.2227 -53.6621 C 59.082 -53.6621 63.4277 -48.9258 63.4277 -42.4316 C 63.4277 -30.5176 53.7109 -25.0488 49.2676 -25.0488 C 47.998 -25.0488 47.1191 -25.9766 47.1191 -27.0996 C 47.1191 -28.125 47.6074 -28.8574 49.2188 -29.2969 C 52.0996 -30.0781 56.1035 -32.666 57.8125 -36.9141 L 57.4219 -36.9141 C 56.1035 -35.2539 54.1504 -34.7656 52.0508 -34.7656 C 46.8262 -34.7656 43.3594 -38.8672 43.3594 -44.1406 Z M 69.043 -44.1406 C 69.043 -49.6582 73.291 -53.6621 78.8574 -53.6621 C 84.7656 -53.6621 89.0625 -48.9258 89.0625 -42.4316 C 89.0625 -30.5176 79.3457 -25.0488 74.9023 -25.0488 C 73.6816 -25.0488 72.7539 -25.9766 72.7539 -27.0996 C 72.7539 -28.125 73.2422 -28.8574 74.8535 -29.2969 C 77.7344 -30.0781 81.7383 -32.666 83.4961 -36.9141 L 83.0566 -36.9141 C 81.7871 -35.2539 79.7852 -34.7656 77.7344 -34.7656 C 72.4609 -34.7656 69.043 -38.8672 69.043 -44.1406 Z"/>
  </g>
  <g id="Thin-M" transform="matrix(1 0 0 1 792.042 1126)">
   <path d="M 37.5977 15.625 C 38.6719 15.625 39.502 14.9902 40.5273 14.1113 L 58.252 -1.2207 L 97.7051 -1.2207 C 109.229 -1.2207 116.309 -8.44727 116.309 -19.8242 L 116.309 -61.5234 C 116.309 -72.9004 109.229 -80.127 97.7051 -80.127 L 31.0547 -80.127 C 19.5312 -80.127 12.4512 -72.998 12.4512 -61.5234 L 12.4512 -19.8242 C 12.4512 -8.34961 19.5312 -1.2207 31.0547 -1.2207 L 35.2051 -1.2207 L 35.2051 12.8906 C 35.2051 14.5508 36.1816 15.625 37.5977 15.625 Z M 44.2871 -43.5547 C 44.2871 -48.5352 48.1934 -52.3926 53.3203 -52.3926 C 58.4473 -52.3926 62.793 -48.2422 62.793 -41.9434 C 62.793 -30.957 53.4668 -26.123 49.8047 -26.123 C 48.7305 -26.123 48.0469 -26.8555 48.0469 -27.8809 C 48.0469 -28.6621 48.4375 -29.248 49.7559 -29.6387 C 52.1484 -30.2734 56.4941 -32.9102 58.0566 -37.3535 L 57.666 -37.3535 C 56.4453 -35.7422 54.541 -35.0586 52.4414 -35.0586 C 47.6074 -35.0586 44.2871 -38.7695 44.2871 -43.5547 Z M 68.6035 -43.5547 C 68.6035 -48.5352 72.5098 -52.3926 77.6367 -52.3926 C 82.8125 -52.3926 87.1094 -48.2422 87.1094 -41.9434 C 87.1094 -30.957 77.7832 -26.123 74.1211 -26.123 C 73.0957 -26.123 72.3633 -26.8555 72.3633 -27.8809 C 72.3633 -28.6621 72.7539 -29.248 74.0723 -29.6387 C 76.4648 -30.2734 80.8105 -32.9102 82.4219 -37.3535 L 81.9824 -37.3535 C 80.7617 -35.7422 78.8574 -35.0586 76.7578 -35.0586 C 71.9238 -35.0586 68.6035 -38.7695 68.6035 -43.5547 Z"/>
  </g>
  <g id="Ultralight-M" transform="matrix(1 0 0 1 495.893 1126)">
   <path d="M 36.4746 14.6973 C 37.2559 14.6973 37.9395 14.209 38.5742 13.6719 L 56.3477 -1.41602 L 97.7051 -1.41602 C 108.35 -1.41602 115.186 -8.39844 115.186 -18.9453 L 115.186 -61.9141 C 115.186 -72.4121 108.35 -79.3945 97.7051 -79.3945 L 29.9316 -79.3945 C 19.2871 -79.3945 12.4512 -72.5586 12.4512 -61.9141 L 12.4512 -18.9453 C 12.4512 -8.25195 19.2871 -1.41602 29.9316 -1.41602 L 34.668 -1.41602 L 34.668 12.6465 C 34.668 13.916 35.4492 14.6973 36.4746 14.6973 Z M 44.7754 -43.2617 C 44.7754 -47.998 48.4863 -51.709 53.418 -51.709 C 58.1055 -51.709 62.4512 -47.9004 62.4512 -41.6992 C 62.4512 -31.1523 53.3203 -26.6602 50.0488 -26.6602 C 49.1211 -26.6602 48.5352 -27.3438 48.5352 -28.2715 C 48.5352 -28.9062 48.877 -29.4922 50.0488 -29.7852 C 52.1484 -30.3223 56.7383 -33.0078 58.2031 -37.5977 L 57.8125 -37.5977 C 56.5918 -35.9863 54.7363 -35.2051 52.5879 -35.2051 C 47.998 -35.2051 44.7754 -38.6719 44.7754 -43.2617 Z M 68.4082 -43.2617 C 68.4082 -47.998 72.1191 -51.709 77.0508 -51.709 C 81.7871 -51.709 86.084 -47.9004 86.084 -41.6992 C 86.084 -31.1523 76.9531 -26.6602 73.6816 -26.6602 C 72.8027 -26.6602 72.1191 -27.3438 72.1191 -28.2715 C 72.1191 -28.9062 72.5098 -29.4922 73.6816 -29.7852 C 75.7812 -30.3223 80.3223 -33.0078 81.8848 -37.5977 L 81.4453 -37.5977 C 80.2246 -35.9863 78.3691 -35.2051 76.2207 -35.2051 C 71.6309 -35.2051 68.4082 -38.6719 68.4082 -43.2617 Z"/>
  </g>
  <g id="Black-S" transform="matrix(1 0 0 1 2880.28 696)">
   <path d="M 33.4961 10.6445 C 35.498 10.6445 37.2559 9.96094 39.6973 7.8125 L 54.9805 -5.37109 L 76.3672 -5.37109 C 88.3789 -5.37109 96.4844 -13.4766 96.4844 -25.4883 L 96.4844 -57.1289 C 96.4844 -69.1406 88.3789 -77.2461 76.3672 -77.2461 L 29.8828 -77.2461 C 17.8711 -77.2461 9.76562 -69.1406 9.76562 -57.1289 L 9.76562 -25.4883 C 9.76562 -13.4766 18.8477 -5.37109 28.418 -5.37109 L 28.7109 -5.37109 L 28.7109 5.46875 C 28.7109 8.69141 30.5664 10.6445 33.4961 10.6445 Z M 32.6172 -44.1406 C 32.6172 -49.5117 36.4258 -53.418 41.8457 -53.418 C 48.291 -53.418 52.0508 -48.1934 52.0508 -41.6992 C 52.0508 -33.8867 45.0195 -27.4414 39.6973 -27.4414 C 38.3301 -27.4414 37.207 -28.125 37.207 -29.4434 C 37.207 -30.4688 37.9395 -31.2012 38.916 -31.3965 C 43.5059 -32.3242 46.2891 -35.0586 46.875 -37.5488 L 45.8008 -37.5488 C 44.5801 -36.1816 42.7734 -35.4004 40.332 -35.4004 C 35.8887 -35.4004 32.6172 -39.0137 32.6172 -44.1406 Z M 54.834 -44.1406 C 54.834 -49.5117 58.6914 -53.418 64.0625 -53.418 C 70.5566 -53.418 74.2676 -48.1934 74.2676 -41.6992 C 74.2676 -33.8867 67.2363 -27.4414 61.9141 -27.4414 C 60.5957 -27.4414 59.4727 -28.125 59.4727 -29.4434 C 59.4727 -30.4688 60.2051 -31.2012 61.1816 -31.3965 C 65.7715 -32.3242 68.5547 -35.0586 69.0918 -37.5488 L 68.0176 -37.5488 C 66.8457 -36.1816 64.9902 -35.4004 62.5977 -35.4004 C 58.1543 -35.4004 54.834 -39.0137 54.834 -44.1406 Z"/>
  </g>
  <g id="Heavy-S" transform="matrix(1 0 0 1 2583.76 696)">
   <path d="M 33.4473 9.96094 C 35.4004 9.96094 37.0117 9.22852 39.3555 7.12891 L 54.2969 -5.95703 L 76.416 -5.95703 C 88.4277 -5.95703 96.0938 -13.6719 96.0938 -25.6348 L 96.0938 -56.543 C 96.0938 -68.5059 88.4277 -76.2207 76.416 -76.2207 L 29.4434 -76.2207 C 17.4316 -76.2207 9.76562 -68.5059 9.76562 -56.543 L 9.76562 -25.6348 C 9.76562 -13.6719 18.2129 -5.95703 28.3203 -5.95703 L 28.9062 -5.95703 L 28.9062 4.93164 C 28.9062 8.05664 30.6152 9.96094 33.4473 9.96094 Z M 32.7148 -43.7988 C 32.7148 -49.0723 36.5234 -52.832 41.7969 -52.832 C 47.9492 -52.832 51.6602 -47.8516 51.6602 -41.6016 C 51.6602 -33.252 44.3848 -27.1484 39.3066 -27.1484 C 37.9883 -27.1484 36.9141 -27.8809 36.9141 -29.1504 C 36.9141 -30.1758 37.5977 -30.8594 38.7207 -31.1523 C 42.8711 -32.0312 45.6543 -34.5703 46.4355 -37.207 L 45.5566 -37.207 C 44.3848 -35.8398 42.627 -35.2051 40.3809 -35.2051 C 35.8887 -35.2051 32.7148 -38.8184 32.7148 -43.7988 Z M 54.7363 -43.7988 C 54.7363 -49.0723 58.5449 -52.832 63.8184 -52.832 C 70.0195 -52.832 73.6816 -47.8516 73.6816 -41.6016 C 73.6816 -33.252 66.4062 -27.1484 61.3281 -27.1484 C 60.0586 -27.1484 58.9844 -27.8809 58.9844 -29.1504 C 58.9844 -30.1758 59.668 -30.8594 60.791 -31.1523 C 64.9414 -32.0312 67.6758 -34.5703 68.457 -37.207 L 67.5781 -37.207 C 66.4062 -35.8398 64.6484 -35.2051 62.4023 -35.2051 C 57.959 -35.2051 54.7363 -38.8184 54.7363 -43.7988 Z"/>
  </g>
  <g id="Bold-S" transform="matrix(1 0 0 1 2287.27 696)">
   <path d="M 33.3984 9.13086 C 35.2539 9.13086 36.7188 8.39844 38.9648 6.34766 L 53.5156 -6.64062 L 76.4648 -6.64062 C 88.4766 -6.5918 95.6543 -13.916 95.6543 -25.8301 L 95.6543 -55.8594 C 95.6543 -67.7734 88.4766 -75.0488 76.4648 -75.0488 L 28.9551 -75.0488 C 16.9434 -75.0488 9.76562 -67.7734 9.76562 -55.8594 L 9.76562 -25.8301 C 9.76562 -13.916 17.4316 -6.64062 28.2227 -6.64062 L 29.1016 -6.64062 L 29.1016 4.3457 C 29.1016 7.32422 30.7129 9.13086 33.3984 9.13086 Z M 32.8613 -43.457 C 32.8613 -48.5352 36.6211 -52.1484 41.6992 -52.1484 C 47.6074 -52.1484 51.1719 -47.4121 51.1719 -41.5039 C 51.1719 -32.5195 43.6523 -26.8555 38.916 -26.8555 C 37.5977 -26.8555 36.6211 -27.6367 36.6211 -28.8086 C 36.6211 -29.834 37.207 -30.5176 38.4766 -30.8105 C 42.1387 -31.6895 44.9219 -34.0332 45.9473 -36.8164 L 45.2637 -36.8164 C 44.1406 -35.498 42.4316 -35.0098 40.3809 -35.0098 C 35.8887 -35.0098 32.8613 -38.623 32.8613 -43.457 Z M 54.6875 -43.457 C 54.6875 -48.5352 58.4473 -52.1484 63.5254 -52.1484 C 69.4336 -52.1484 72.998 -47.4121 72.998 -41.5039 C 72.998 -32.5195 65.4785 -26.8555 60.6934 -26.8555 C 59.4238 -26.8555 58.4473 -27.6367 58.4473 -28.8086 C 58.4473 -29.834 59.0332 -30.5176 60.3027 -30.8105 C 63.9648 -31.6895 66.748 -34.0332 67.7734 -36.8164 L 67.041 -36.8164 C 65.9668 -35.498 64.209 -35.0098 62.207 -35.0098 C 57.7148 -35.0098 54.6875 -38.623 54.6875 -43.457 Z"/>
  </g>
  <g id="Semibold-S" transform="matrix(1 0 0 1 1990.7 696)">
   <path d="M 33.3496 8.59375 C 35.1562 8.59375 36.5234 7.8125 38.7207 5.81055 L 52.9785 -7.08008 L 76.5137 -7.08008 C 88.5254 -7.03125 95.3613 -14.0625 95.3613 -25.9277 L 95.3613 -55.3711 C 95.3613 -67.2852 88.5254 -74.2676 76.5137 -74.2676 L 28.6621 -74.2676 C 16.6504 -74.2676 9.76562 -67.2852 9.76562 -55.3711 L 9.76562 -25.9277 C 9.76562 -14.0625 16.9434 -7.08008 28.1738 -7.08008 L 29.248 -7.08008 L 29.248 3.95508 C 29.248 6.78711 30.7617 8.59375 33.3496 8.59375 Z M 32.959 -43.2129 C 32.959 -48.1934 36.6699 -51.709 41.6504 -51.709 C 47.3633 -51.709 50.8789 -47.1191 50.8789 -41.4062 C 50.8789 -32.0312 43.1641 -26.6113 38.623 -26.6113 C 37.3535 -26.6113 36.4258 -27.4414 36.4258 -28.5645 C 36.4258 -29.5898 36.9629 -30.2734 38.3301 -30.6152 C 41.6504 -31.4453 44.4336 -33.6426 45.6543 -36.5723 L 45.0684 -36.5723 C 43.9941 -35.2539 42.2852 -34.8633 40.4297 -34.8633 C 35.9375 -34.8633 32.959 -38.4766 32.959 -43.2129 Z M 54.5898 -43.2129 C 54.5898 -48.1934 58.3496 -51.709 63.2812 -51.709 C 68.9941 -51.709 72.5098 -47.1191 72.5098 -41.4062 C 72.5098 -32.0312 64.7949 -26.6113 60.2539 -26.6113 C 59.0332 -26.6113 58.0566 -27.4414 58.0566 -28.5645 C 58.0566 -29.5898 58.5938 -30.2734 60.0098 -30.6152 C 63.2812 -31.4453 66.0645 -33.6426 67.2852 -36.5723 L 66.6992 -36.5723 C 65.625 -35.2539 63.9648 -34.8633 62.1094 -34.8633 C 57.5684 -34.8633 54.5898 -38.4766 54.5898 -43.2129 Z"/>
  </g>
  <g id="Medium-S" transform="matrix(1 0 0 1 1694.09 696)">
   <path d="M 33.3496 8.20312 C 35.0586 8.20312 36.377 7.37305 38.4766 5.41992 L 52.5879 -7.4707 L 76.5137 -7.42188 C 88.5254 -7.37305 95.166 -14.209 95.166 -26.0254 L 95.166 -55.0293 C 95.166 -66.8945 88.5254 -73.6816 76.5137 -73.6816 L 28.418 -73.6816 C 16.4062 -73.6816 9.76562 -66.8945 9.76562 -55.0293 L 9.76562 -26.0254 C 9.76562 -14.209 16.5527 -7.42188 28.125 -7.4707 L 29.3457 -7.4707 L 29.3457 3.66211 C 29.3457 6.39648 30.8105 8.20312 33.3496 8.20312 Z M 33.0078 -43.0176 C 33.0078 -47.9492 36.7188 -51.3184 41.6016 -51.3184 C 47.168 -51.3184 50.6348 -46.9238 50.6348 -41.3574 C 50.6348 -31.6406 42.7734 -26.4648 38.3789 -26.4648 C 37.1582 -26.4648 36.2305 -27.2949 36.2305 -28.418 C 36.2305 -29.3945 36.7188 -30.0781 38.1836 -30.4688 C 41.2598 -31.25 44.043 -33.3496 45.3613 -36.3281 L 44.9219 -36.3281 C 43.8477 -35.0586 42.1875 -34.7656 40.4297 -34.7656 C 35.9375 -34.7656 33.0078 -38.3789 33.0078 -43.0176 Z M 54.541 -43.0176 C 54.541 -47.9492 58.252 -51.3184 63.1348 -51.3184 C 68.7012 -51.3184 72.168 -46.9238 72.168 -41.3574 C 72.168 -31.6406 64.3066 -26.4648 59.9121 -26.4648 C 58.6914 -26.4648 57.8125 -27.2949 57.8125 -28.418 C 57.8125 -29.3945 58.3008 -30.0781 59.7656 -30.4688 C 62.793 -31.25 65.5762 -33.3496 66.8945 -36.3281 L 66.4551 -36.3281 C 65.3809 -35.0586 63.7207 -34.7656 61.9629 -34.7656 C 57.4707 -34.7656 54.541 -38.3789 54.541 -43.0176 Z"/>
  </g>
  <g id="Regular-S" transform="matrix(1 0 0 1 1397.53 696)">
   <path d="M 33.3008 7.66602 C 35.0098 7.66602 36.1816 6.78711 38.2324 4.88281 L 52.0508 -7.91016 L 76.5625 -7.86133 C 88.5742 -7.8125 94.873 -14.3555 94.873 -26.1719 L 94.873 -54.5898 C 94.873 -66.4062 88.5742 -72.9004 76.5625 -72.9004 L 28.0762 -72.9004 C 16.0645 -72.9004 9.76562 -66.4062 9.76562 -54.5898 L 9.76562 -26.1719 C 9.76562 -14.3555 16.0645 -7.86133 28.0762 -7.91016 L 29.4434 -7.91016 L 29.4434 3.27148 C 29.4434 5.9082 30.8594 7.66602 33.3008 7.66602 Z M 33.1055 -42.7734 C 33.1055 -47.5586 36.7676 -50.8789 41.5527 -50.8789 C 46.875 -50.8789 50.293 -46.6309 50.293 -41.3086 C 50.293 -31.1523 42.2852 -26.2695 38.0859 -26.2695 C 36.9141 -26.2695 36.0352 -27.0996 36.0352 -28.1738 C 36.0352 -29.1504 36.4746 -29.834 38.0371 -30.2734 C 40.7715 -31.0059 43.5547 -33.0078 45.0684 -36.084 L 44.7266 -36.084 C 43.7012 -34.8145 42.0898 -34.6191 40.4785 -34.6191 C 35.9375 -34.6191 33.1055 -38.2324 33.1055 -42.7734 Z M 54.4922 -42.7734 C 54.4922 -47.5586 58.1543 -50.8789 62.9395 -50.8789 C 68.2617 -50.8789 71.6797 -46.6309 71.6797 -41.3086 C 71.6797 -31.1523 63.6719 -26.2695 59.4727 -26.2695 C 58.3008 -26.2695 57.4219 -27.0996 57.4219 -28.1738 C 57.4219 -29.1504 57.8613 -29.834 59.4238 -30.2734 C 62.1582 -31.0059 64.9414 -33.0078 66.4062 -36.084 L 66.0645 -36.084 C 65.0879 -34.8145 63.4766 -34.6191 61.8652 -34.6191 C 57.3242 -34.6191 54.4922 -38.2324 54.4922 -42.7734 Z"/>
  </g>
  <g id="Light-S" transform="matrix(1 0 0 1 1101.55 696)">
   <path d="M 31.8359 6.49414 C 33.2031 6.49414 34.1797 5.76172 35.7422 4.3457 L 49.6094 -8.1543 L 76.5625 -8.1543 C 87.4023 -8.10547 93.4082 -14.3066 93.4082 -25 L 93.4082 -55.0781 C 93.4082 -65.7715 87.4023 -71.9238 76.5625 -71.9238 L 26.6113 -71.9238 C 15.7715 -71.9238 9.76562 -65.8203 9.76562 -55.0781 L 9.76562 -25 C 9.76562 -14.2578 15.7715 -8.1543 26.6113 -8.1543 L 28.7598 -8.1543 L 28.7598 2.97852 C 28.7598 5.07812 29.8828 6.49414 31.8359 6.49414 Z M 33.7402 -42.3828 C 33.7402 -46.8262 37.1582 -50.0488 41.6504 -50.0488 C 46.4844 -50.0488 49.9023 -46.1914 49.9023 -41.0156 C 49.9023 -31.4453 42.1387 -26.9531 38.4277 -26.9531 C 37.4023 -26.9531 36.6699 -27.6855 36.6699 -28.6621 C 36.6699 -29.4922 37.0605 -30.127 38.4277 -30.4688 C 40.8203 -31.1523 43.8477 -33.1543 45.2148 -36.377 L 44.9219 -36.377 C 43.8965 -35.1074 42.334 -34.8145 40.7227 -34.8145 C 36.4746 -34.8145 33.7402 -38.1348 33.7402 -42.3828 Z M 54.1992 -42.3828 C 54.1992 -46.8262 57.666 -50.0488 62.1582 -50.0488 C 66.9922 -50.0488 70.3613 -46.1914 70.3613 -41.0156 C 70.3613 -31.4453 62.6465 -26.9531 58.9355 -26.9531 C 57.9102 -26.9531 57.1289 -27.6855 57.1289 -28.6621 C 57.1289 -29.4922 57.5195 -30.127 58.8867 -30.4688 C 61.2793 -31.1523 64.3066 -33.1543 65.7227 -36.377 L 65.3809 -36.377 C 64.3555 -35.1074 62.793 -34.8145 61.1816 -34.8145 C 56.9336 -34.8145 54.1992 -38.1348 54.1992 -42.3828 Z"/>
  </g>
  <g id="Thin-S" transform="matrix(1 0 0 1 805.763 696)">
   <path d="M 29.8828 4.93164 C 30.8105 4.93164 31.4941 4.44336 32.4707 3.61328 L 46.3379 -8.49609 L 76.5625 -8.49609 C 85.9375 -8.49609 91.5527 -14.2578 91.5527 -23.4863 L 91.5527 -55.7129 C 91.5527 -64.9414 85.9375 -70.6543 76.5625 -70.6543 L 24.7559 -70.6543 C 15.3809 -70.6543 9.76562 -64.9902 9.76562 -55.7129 L 9.76562 -23.4863 C 9.76562 -14.1602 15.3809 -8.49609 24.7559 -8.49609 L 27.7832 -8.49609 L 27.7832 2.53906 C 27.7832 4.00391 28.6133 4.93164 29.8828 4.93164 Z M 34.5215 -41.8945 C 34.5215 -45.8984 37.6465 -48.9258 41.748 -48.9258 C 45.8984 -48.9258 49.3164 -45.5566 49.3164 -40.5762 C 49.3164 -31.7871 41.9434 -27.8809 38.916 -27.8809 C 38.0371 -27.8809 37.4512 -28.5156 37.4512 -29.2969 C 37.4512 -29.9805 37.793 -30.4688 38.916 -30.7617 C 40.8203 -31.2988 44.1895 -33.3496 45.459 -36.8164 L 45.166 -36.8164 C 44.1406 -35.5469 42.6758 -35.0586 41.0156 -35.0586 C 37.1582 -35.0586 34.5215 -38.0371 34.5215 -41.8945 Z M 53.8574 -41.8945 C 53.8574 -45.8984 56.9824 -48.9258 61.084 -48.9258 C 65.2344 -48.9258 68.6523 -45.5566 68.6523 -40.5762 C 68.6523 -31.7871 61.2305 -27.8809 58.2031 -27.8809 C 57.4219 -27.8809 56.7871 -28.5156 56.7871 -29.2969 C 56.7871 -29.9805 57.1289 -30.4688 58.2031 -30.7617 C 60.1562 -31.2988 63.5254 -33.3496 64.7949 -36.8164 L 64.4531 -36.8164 C 63.4766 -35.5469 61.9629 -35.0586 60.3027 -35.0586 C 56.4453 -35.0586 53.8574 -38.0371 53.8574 -41.8945 Z"/>
  </g>
  <g id="Ultralight-S" transform="matrix(1 0 0 1 509.54 696)">
   <path d="M 28.9062 4.15039 C 29.5898 4.15039 30.127 3.71094 30.7617 3.22266 L 44.6777 -8.69141 L 76.5625 -8.69141 C 85.1562 -8.69141 90.5762 -14.209 90.5762 -22.7051 L 90.5762 -56.0059 C 90.5762 -64.502 85.1562 -70.0195 76.5625 -70.0195 L 23.7793 -70.0195 C 15.1855 -70.0195 9.76562 -64.5996 9.76562 -56.0059 L 9.76562 -22.7051 C 9.76562 -14.1113 15.1855 -8.69141 23.7793 -8.69141 L 27.2949 -8.69141 L 27.2949 2.34375 C 27.2949 3.4668 27.9785 4.15039 28.9062 4.15039 Z M 34.9609 -41.6016 C 34.9609 -45.3613 37.9395 -48.3398 41.8457 -48.3398 C 45.6055 -48.3398 49.0234 -45.2148 49.0234 -40.3809 C 49.0234 -31.9824 41.8457 -28.3691 39.1602 -28.3691 C 38.3789 -28.3691 37.8906 -28.9062 37.8906 -29.6387 C 37.8906 -30.2246 38.1836 -30.6641 39.1602 -30.9082 C 40.8691 -31.3965 44.3848 -33.4473 45.5566 -37.0117 L 45.2637 -37.0117 C 44.2871 -35.7422 42.8223 -35.1562 41.1621 -35.1562 C 37.5 -35.1562 34.9609 -37.9395 34.9609 -41.6016 Z M 53.6621 -41.6016 C 53.6621 -45.3613 56.6406 -48.3398 60.5469 -48.3398 C 64.3555 -48.3398 67.7246 -45.2148 67.7246 -40.3809 C 67.7246 -31.9824 60.498 -28.3691 57.8613 -28.3691 C 57.1289 -28.3691 56.5918 -28.9062 56.5918 -29.6387 C 56.5918 -30.2246 56.8848 -30.6641 57.8613 -30.9082 C 59.5703 -31.3965 63.0859 -33.4473 64.3066 -37.0117 L 63.9648 -37.0117 C 62.9883 -35.7422 61.5234 -35.1562 59.8633 -35.1562 C 56.2012 -35.1562 53.6621 -37.9395 53.6621 -41.6016 Z"/>
  </g>
 </g>
</svg>
