<?xml version="1.0" encoding="UTF-8"?>
<!--Generator: Apple Native CoreSVG 123-->
<!DOCTYPE svg
PUBLIC "-//W3C//DTD SVG 1.1//EN"
       "http://www.w3.org/Graphics/SVG/1.1/DTD/svg11.dtd">
<svg version="1.1" xmlns="http://www.w3.org/2000/svg" xmlns:xlink="http://www.w3.org/1999/xlink" width="3300" height="2200">
 <!--glyph: "uni1002D9.medium", point size: 100.000000, font version: "Version 15.0d7e11", template writer version: "5"-->
 <g id="Notes">
  <rect height="2200" id="artboard" style="fill:white;opacity:1" width="3300" x="0" y="0"/>
  <line id="" style="fill:none;stroke:black;opacity:1;stroke-width:0.5;" x1="263" x2="3036" y1="292" y2="292"/>
  <text style="stroke:none;fill:black;font-family:-apple-system,&quot;SF Pro Display&quot;,&quot;SF Pro Text&quot;,Helvetica,sans-serif;font-weight:bold;" transform="matrix(1 0 0 1 263 322)">Weight/Scale Variations</text>
  <text style="stroke:none;fill:black;font-family:-apple-system,&quot;SF Pro Display&quot;,&quot;SF Pro Text&quot;,Helvetica,sans-serif;text-anchor:middle;" transform="matrix(1 0 0 1 559.711 322)">Ultralight</text>
  <text style="stroke:none;fill:black;font-family:-apple-system,&quot;SF Pro Display&quot;,&quot;SF Pro Text&quot;,Helvetica,sans-serif;text-anchor:middle;" transform="matrix(1 0 0 1 856.422 322)">Thin</text>
  <text style="stroke:none;fill:black;font-family:-apple-system,&quot;SF Pro Display&quot;,&quot;SF Pro Text&quot;,Helvetica,sans-serif;text-anchor:middle;" transform="matrix(1 0 0 1 1153.13 322)">Light</text>
  <text style="stroke:none;fill:black;font-family:-apple-system,&quot;SF Pro Display&quot;,&quot;SF Pro Text&quot;,Helvetica,sans-serif;text-anchor:middle;" transform="matrix(1 0 0 1 1449.84 322)">Regular</text>
  <text style="stroke:none;fill:black;font-family:-apple-system,&quot;SF Pro Display&quot;,&quot;SF Pro Text&quot;,Helvetica,sans-serif;text-anchor:middle;" transform="matrix(1 0 0 1 1746.56 322)">Medium</text>
  <text style="stroke:none;fill:black;font-family:-apple-system,&quot;SF Pro Display&quot;,&quot;SF Pro Text&quot;,Helvetica,sans-serif;text-anchor:middle;" transform="matrix(1 0 0 1 2043.27 322)">Semibold</text>
  <text style="stroke:none;fill:black;font-family:-apple-system,&quot;SF Pro Display&quot;,&quot;SF Pro Text&quot;,Helvetica,sans-serif;text-anchor:middle;" transform="matrix(1 0 0 1 2339.98 322)">Bold</text>
  <text style="stroke:none;fill:black;font-family:-apple-system,&quot;SF Pro Display&quot;,&quot;SF Pro Text&quot;,Helvetica,sans-serif;text-anchor:middle;" transform="matrix(1 0 0 1 2636.69 322)">Heavy</text>
  <text style="stroke:none;fill:black;font-family:-apple-system,&quot;SF Pro Display&quot;,&quot;SF Pro Text&quot;,Helvetica,sans-serif;text-anchor:middle;" transform="matrix(1 0 0 1 2933.4 322)">Black</text>
  <line id="" style="fill:none;stroke:black;opacity:1;stroke-width:0.5;" x1="263" x2="3036" y1="1903" y2="1903"/>
  <g id="" transform="matrix(1 0 0 1 263 1933)">
   <path d="M 9.24805 0.830078 C 13.5547 0.830078 17.1387 -2.74414 17.1387 -7.05078 C 17.1387 -11.3574 13.5449 -14.9316 9.23828 -14.9316 C 4.94141 -14.9316 1.36719 -11.3574 1.36719 -7.05078 C 1.36719 -2.74414 4.95117 0.830078 9.24805 0.830078 Z M 9.24805 -0.654297 C 5.70312 -0.654297 2.87109 -3.49609 2.87109 -7.05078 C 2.87109 -10.6055 5.69336 -13.4473 9.23828 -13.4473 C 12.793 -13.4473 15.6348 -10.6055 15.6445 -7.05078 C 15.6543 -3.49609 12.8027 -0.654297 9.24805 -0.654297 Z M 9.22852 -3.42773 C 9.69727 -3.42773 9.9707 -3.74023 9.9707 -4.25781 L 9.9707 -6.31836 L 12.1973 -6.31836 C 12.6953 -6.31836 13.0371 -6.57227 13.0371 -7.04102 C 13.0371 -7.51953 12.7148 -7.7832 12.1973 -7.7832 L 9.9707 -7.7832 L 9.9707 -10.0098 C 9.9707 -10.5273 9.69727 -10.8496 9.22852 -10.8496 C 8.75977 -10.8496 8.50586 -10.5078 8.50586 -10.0098 L 8.50586 -7.7832 L 6.29883 -7.7832 C 5.78125 -7.7832 5.44922 -7.51953 5.44922 -7.04102 C 5.44922 -6.57227 5.80078 -6.31836 6.29883 -6.31836 L 8.50586 -6.31836 L 8.50586 -4.25781 C 8.50586 -3.75977 8.75977 -3.42773 9.22852 -3.42773 Z"/>
  </g>
  <g id="" transform="matrix(1 0 0 1 281.506 1933)">
   <path d="M 11.709 2.91016 C 17.1582 2.91016 21.6699 -1.60156 21.6699 -7.05078 C 21.6699 -12.4902 17.1484 -17.0117 11.6992 -17.0117 C 6.25977 -17.0117 1.74805 -12.4902 1.74805 -7.05078 C 1.74805 -1.60156 6.26953 2.91016 11.709 2.91016 Z M 11.709 1.25 C 7.09961 1.25 3.41797 -2.44141 3.41797 -7.05078 C 3.41797 -11.6504 7.08984 -15.3516 11.6992 -15.3516 C 16.3086 -15.3516 20 -11.6504 20.0098 -7.05078 C 20.0195 -2.44141 16.3184 1.25 11.709 1.25 Z M 11.6895 -2.41211 C 12.207 -2.41211 12.5195 -2.77344 12.5195 -3.33984 L 12.5195 -6.23047 L 15.5762 -6.23047 C 16.123 -6.23047 16.5039 -6.51367 16.5039 -7.03125 C 16.5039 -7.55859 16.1426 -7.86133 15.5762 -7.86133 L 12.5195 -7.86133 L 12.5195 -10.9277 C 12.5195 -11.5039 12.207 -11.8555 11.6895 -11.8555 C 11.1719 -11.8555 10.8789 -11.4844 10.8789 -10.9277 L 10.8789 -7.86133 L 7.83203 -7.86133 C 7.26562 -7.86133 6.89453 -7.55859 6.89453 -7.03125 C 6.89453 -6.51367 7.28516 -6.23047 7.83203 -6.23047 L 10.8789 -6.23047 L 10.8789 -3.33984 C 10.8789 -2.79297 11.1719 -2.41211 11.6895 -2.41211 Z"/>
  </g>
  <g id="" transform="matrix(1 0 0 1 304.924 1933)">
   <path d="M 14.9707 5.67383 C 21.9336 5.67383 27.6953 -0.078125 27.6953 -7.04102 C 27.6953 -14.0039 21.9238 -19.7559 14.9609 -19.7559 C 8.00781 -19.7559 2.25586 -14.0039 2.25586 -7.04102 C 2.25586 -0.078125 8.01758 5.67383 14.9707 5.67383 Z M 14.9707 3.85742 C 8.93555 3.85742 4.08203 -1.00586 4.08203 -7.04102 C 4.08203 -13.0762 8.92578 -17.9395 14.9609 -17.9395 C 21.0059 -17.9395 25.8594 -13.0762 25.8691 -7.04102 C 25.8789 -1.00586 21.0156 3.85742 14.9707 3.85742 Z M 14.9512 -1.06445 C 15.5176 -1.06445 15.8691 -1.45508 15.8691 -2.06055 L 15.8691 -6.13281 L 20.1074 -6.13281 C 20.6934 -6.13281 21.1133 -6.46484 21.1133 -7.02148 C 21.1133 -7.59766 20.7227 -7.93945 20.1074 -7.93945 L 15.8691 -7.93945 L 15.8691 -12.1875 C 15.8691 -12.8027 15.5176 -13.1934 14.9512 -13.1934 C 14.3848 -13.1934 14.0625 -12.7832 14.0625 -12.1875 L 14.0625 -7.93945 L 9.83398 -7.93945 C 9.21875 -7.93945 8.80859 -7.59766 8.80859 -7.02148 C 8.80859 -6.46484 9.23828 -6.13281 9.83398 -6.13281 L 14.0625 -6.13281 L 14.0625 -2.06055 C 14.0625 -1.47461 14.3848 -1.06445 14.9512 -1.06445 Z"/>
  </g>
  <text style="stroke:none;fill:black;font-family:-apple-system,&quot;SF Pro Display&quot;,&quot;SF Pro Text&quot;,Helvetica,sans-serif;font-weight:bold;" transform="matrix(1 0 0 1 263 1953)">Design Variations</text>
  <text style="stroke:none;fill:black;font-family:-apple-system,&quot;SF Pro Display&quot;,&quot;SF Pro Text&quot;,Helvetica,sans-serif;" transform="matrix(1 0 0 1 263 1971)">Symbols are supported in up to nine weights and three scales.</text>
  <text style="stroke:none;fill:black;font-family:-apple-system,&quot;SF Pro Display&quot;,&quot;SF Pro Text&quot;,Helvetica,sans-serif;" transform="matrix(1 0 0 1 263 1989)">For optimal layout with text and other symbols, vertically align</text>
  <text style="stroke:none;fill:black;font-family:-apple-system,&quot;SF Pro Display&quot;,&quot;SF Pro Text&quot;,Helvetica,sans-serif;" transform="matrix(1 0 0 1 263 2007)">symbols with the adjacent text.</text>
  <rect height="14" id="" style="fill:#00AEEF;stroke:none;opacity:0.4;" width="3" x="776" y="1919"/>
  <g id="" transform="matrix(1 0 0 1 779 1933)">
   <path d="M 10.5273 0 L 12.373 0 L 7.17773 -14.0918 L 5.43945 -14.0918 L 0.244141 0 L 2.08984 0 L 3.50586 -4.0332 L 9.11133 -4.0332 Z M 6.2793 -11.9531 L 6.33789 -11.9531 L 8.59375 -5.52734 L 4.02344 -5.52734 Z"/>
  </g>
  <rect height="14" id="" style="fill:#00AEEF;stroke:none;opacity:0.4;" width="3" x="791.617" y="1919"/>
  <text style="stroke:none;fill:black;font-family:-apple-system,&quot;SF Pro Display&quot;,&quot;SF Pro Text&quot;,Helvetica,sans-serif;font-weight:bold;" transform="matrix(1 0 0 1 776 1953)">Margins</text>
  <text style="stroke:none;fill:black;font-family:-apple-system,&quot;SF Pro Display&quot;,&quot;SF Pro Text&quot;,Helvetica,sans-serif;" transform="matrix(1 0 0 1 776 1971)">Leading and trailing margins on the left and right side of each symbol</text>
  <text style="stroke:none;fill:black;font-family:-apple-system,&quot;SF Pro Display&quot;,&quot;SF Pro Text&quot;,Helvetica,sans-serif;" transform="matrix(1 0 0 1 776 1989)">can be adjusted by modifying the width of the blue rectangles.</text>
  <text style="stroke:none;fill:black;font-family:-apple-system,&quot;SF Pro Display&quot;,&quot;SF Pro Text&quot;,Helvetica,sans-serif;" transform="matrix(1 0 0 1 776 2007)">Modifications are automatically applied proportionally to all</text>
  <text style="stroke:none;fill:black;font-family:-apple-system,&quot;SF Pro Display&quot;,&quot;SF Pro Text&quot;,Helvetica,sans-serif;" transform="matrix(1 0 0 1 776 2025)">scales and weights.</text>
  <g id="" transform="matrix(1 0 0 1 1289 1933)">
   <path d="M 2.83203 3.11523 L 4.375 4.6582 C 5.22461 5.48828 6.19141 5.41992 7.06055 4.46289 L 17.2754 -6.66016 C 17.7051 -6.36719 18.0957 -6.37695 18.5645 -6.47461 L 19.6094 -6.68945 L 20.3027 -5.99609 L 20.2539 -5.47852 C 20.1855 -4.95117 20.3516 -4.53125 20.8496 -4.0332 L 21.6602 -3.22266 C 22.168 -2.71484 22.8223 -2.68555 23.3008 -3.16406 L 26.5527 -6.41602 C 27.0312 -6.89453 27.0117 -7.54883 26.5039 -8.05664 L 25.6836 -8.87695 C 25.1855 -9.375 24.7754 -9.55078 24.2383 -9.47266 L 23.7109 -9.41406 L 23.0566 -10.0781 L 23.3398 -11.2207 C 23.4863 -11.7871 23.3398 -12.2559 22.7148 -12.8613 L 20.3027 -15.2539 C 16.7578 -18.7793 12.2266 -18.6719 9.11133 -15.5371 C 8.69141 -15.1074 8.64258 -14.5215 8.91602 -14.0918 C 9.15039 -13.7207 9.62891 -13.4961 10.2734 -13.6621 C 11.7871 -14.043 13.3008 -13.9258 14.7852 -12.9199 L 14.1602 -11.3379 C 13.9258 -10.752 13.9453 -10.2734 14.1797 -9.83398 L 3.01758 0.439453 C 2.08008 1.30859 1.97266 2.25586 2.83203 3.11523 Z M 10.6738 -15.1465 C 13.3398 -17.1387 16.6504 -16.8262 19.0527 -14.4141 L 21.6797 -11.8066 C 21.9141 -11.5723 21.9434 -11.3867 21.8848 -11.0938 L 21.5039 -9.53125 L 23.0762 -7.95898 L 24.043 -8.04688 C 24.3262 -8.07617 24.4141 -8.05664 24.6387 -7.83203 L 25.2637 -7.20703 L 22.5098 -4.46289 L 21.8848 -5.07812 C 21.6602 -5.30273 21.6406 -5.40039 21.6699 -5.68359 L 21.7578 -6.64062 L 20.1953 -8.20312 L 18.5742 -7.89062 C 18.291 -7.83203 18.1445 -7.83203 17.9102 -8.07617 L 15.7324 -10.2539 C 15.5078 -10.4883 15.4785 -10.625 15.6055 -10.9473 L 16.5527 -13.2227 C 14.9512 -14.7559 12.8418 -15.6055 10.8008 -14.9512 C 10.7129 -14.9219 10.6445 -14.9414 10.6152 -14.9805 C 10.5859 -15.0293 10.5859 -15.0781 10.6738 -15.1465 Z M 4.10156 2.41211 C 3.61328 1.91406 3.78906 1.61133 4.12109 1.30859 L 15.0781 -8.80859 L 16.3086 -7.57812 L 6.15234 3.34961 C 5.84961 3.68164 5.46875 3.7793 5.06836 3.37891 Z"/>
  </g>
  <text style="stroke:none;fill:black;font-family:-apple-system,&quot;SF Pro Display&quot;,&quot;SF Pro Text&quot;,Helvetica,sans-serif;font-weight:bold;" transform="matrix(1 0 0 1 1289 1953)">Exporting</text>
  <text style="stroke:none;fill:black;font-family:-apple-system,&quot;SF Pro Display&quot;,&quot;SF Pro Text&quot;,Helvetica,sans-serif;" transform="matrix(1 0 0 1 1289 1971)">Symbols should be outlined when exporting to ensure the</text>
  <text style="stroke:none;fill:black;font-family:-apple-system,&quot;SF Pro Display&quot;,&quot;SF Pro Text&quot;,Helvetica,sans-serif;" transform="matrix(1 0 0 1 1289 1989)">design is preserved when submitting to Xcode.</text>
  <text id="template-version" style="stroke:none;fill:black;font-family:-apple-system,&quot;SF Pro Display&quot;,&quot;SF Pro Text&quot;,Helvetica,sans-serif;text-anchor:end;" transform="matrix(1 0 0 1 3036 1933)">Template v.1.0</text>
  <text style="stroke:none;fill:black;font-family:-apple-system,&quot;SF Pro Display&quot;,&quot;SF Pro Text&quot;,Helvetica,sans-serif;text-anchor:end;" transform="matrix(1 0 0 1 3036 1951)">Generated from bell</text>
  <text style="stroke:none;fill:black;font-family:-apple-system,&quot;SF Pro Display&quot;,&quot;SF Pro Text&quot;,Helvetica,sans-serif;text-anchor:end;" transform="matrix(1 0 0 1 3036 1969)">Typeset at 100 points</text>
  <text style="stroke:none;fill:black;font-family:-apple-system,&quot;SF Pro Display&quot;,&quot;SF Pro Text&quot;,Helvetica,sans-serif;" transform="matrix(1 0 0 1 263 726)">Small</text>
  <text style="stroke:none;fill:black;font-family:-apple-system,&quot;SF Pro Display&quot;,&quot;SF Pro Text&quot;,Helvetica,sans-serif;" transform="matrix(1 0 0 1 263 1156)">Medium</text>
  <text style="stroke:none;fill:black;font-family:-apple-system,&quot;SF Pro Display&quot;,&quot;SF Pro Text&quot;,Helvetica,sans-serif;" transform="matrix(1 0 0 1 263 1586)">Large</text>
 </g>
 <g id="Guides">
  <g id="H-reference" style="fill:#27AAE1;stroke:none;" transform="matrix(1 0 0 1 339 696)">
   <path d="M 54.9316 0 L 57.666 0 L 30.5664 -70.459 L 28.0762 -70.459 L 0.976562 0 L 3.66211 0 L 12.9395 -24.4629 L 45.7031 -24.4629 Z M 29.1992 -67.0898 L 29.4434 -67.0898 L 44.8242 -26.709 L 13.8184 -26.709 Z"/>
  </g>
  <line id="Baseline-S" style="fill:none;stroke:#27AAE1;opacity:1;stroke-width:0.577;" x1="263" x2="3036" y1="696" y2="696"/>
  <line id="Capline-S" style="fill:none;stroke:#27AAE1;opacity:1;stroke-width:0.577;" x1="263" x2="3036" y1="625.541" y2="625.541"/>
  <g id="H-reference" style="fill:#27AAE1;stroke:none;" transform="matrix(1 0 0 1 339 1126)">
   <path d="M 54.9316 0 L 57.666 0 L 30.5664 -70.459 L 28.0762 -70.459 L 0.976562 0 L 3.66211 0 L 12.9395 -24.4629 L 45.7031 -24.4629 Z M 29.1992 -67.0898 L 29.4434 -67.0898 L 44.8242 -26.709 L 13.8184 -26.709 Z"/>
  </g>
  <line id="Baseline-M" style="fill:none;stroke:#27AAE1;opacity:1;stroke-width:0.577;" x1="263" x2="3036" y1="1126" y2="1126"/>
  <line id="Capline-M" style="fill:none;stroke:#27AAE1;opacity:1;stroke-width:0.577;" x1="263" x2="3036" y1="1055.54" y2="1055.54"/>
  <g id="H-reference" style="fill:#27AAE1;stroke:none;" transform="matrix(1 0 0 1 339 1556)">
   <path d="M 54.9316 0 L 57.666 0 L 30.5664 -70.459 L 28.0762 -70.459 L 0.976562 0 L 3.66211 0 L 12.9395 -24.4629 L 45.7031 -24.4629 Z M 29.1992 -67.0898 L 29.4434 -67.0898 L 44.8242 -26.709 L 13.8184 -26.709 Z"/>
  </g>
  <line id="Baseline-L" style="fill:none;stroke:#27AAE1;opacity:1;stroke-width:0.577;" x1="263" x2="3036" y1="1556" y2="1556"/>
  <line id="Capline-L" style="fill:none;stroke:#27AAE1;opacity:1;stroke-width:0.577;" x1="263" x2="3036" y1="1485.54" y2="1485.54"/>
  <rect height="119.336" id="left-margin" style="fill:#00AEEF;stroke:none;opacity:0.4;" width="10.3516" x="1393.42" y="1030.79"/>
  <rect height="119.336" id="right-margin" style="fill:#00AEEF;stroke:none;opacity:0.4;" width="10.3516" x="1495.91" y="1030.79"/>
 </g>
 <g id="Symbols">
  <g id="Black-L" transform="matrix(1 0 0 1 2855.96 1556)">
   <path d="M 24.8047 8.59375 L 47.9492 8.59375 C 48.4863 20.6055 59.6191 32.959 77.4414 32.959 C 95.2637 32.959 106.396 20.6055 106.885 8.59375 L 130.078 8.59375 C 138.77 8.59375 144.434 3.27148 144.434 -4.73633 C 144.434 -12.7441 139.062 -18.7988 132.568 -23.9258 C 127.295 -28.0273 126.318 -35.4492 124.609 -48.4863 C 122.559 -69.6777 113.965 -85.5957 98.3398 -91.2598 C 94.9707 -100.146 87.207 -105.957 77.4414 -105.957 C 67.627 -105.957 59.9121 -100.146 56.543 -91.2598 C 40.918 -85.5957 32.3242 -69.6777 30.2734 -48.4863 C 28.5156 -35.4492 27.5879 -28.0273 22.3145 -23.9258 C 15.8203 -18.7988 10.4492 -12.7441 10.4492 -4.73633 C 10.4492 3.27148 16.1133 8.59375 24.8047 8.59375 Z M 35.5469 -10.1074 L 35.5469 -10.791 C 38.8672 -12.3535 42.041 -14.4531 44.4824 -17.5781 C 47.9492 -22.1191 49.8535 -33.8379 50.7324 -44.5312 C 52.002 -64.209 58.8867 -71.875 66.8945 -73.9746 C 68.2617 -74.3164 69.0918 -74.9512 69.3848 -77.0508 C 69.9707 -82.9102 72.9004 -86.1816 77.4414 -86.1816 C 81.9336 -86.1816 84.9121 -82.9102 85.498 -77.0508 C 85.791 -74.9512 86.6211 -74.3164 87.9883 -73.9746 C 95.9961 -71.875 102.881 -64.209 104.15 -44.5312 C 105.029 -33.8379 107.031 -22.1191 110.4 -17.5781 C 112.744 -14.4531 115.43 -12.3535 118.75 -10.791 L 118.75 -10.1074 Z M 77.4414 18.3594 C 71.8262 18.3594 67.627 14.3555 67.2363 8.59375 L 87.6465 8.59375 C 87.2559 14.3555 83.0566 18.3594 77.4414 18.3594 Z"/>
  </g>
  <g id="Heavy-L" transform="matrix(1 0 0 1 2560.35 1556)">
   <path d="M 24.1699 8.10547 L 48.6328 8.10547 C 49.1211 20.0684 59.7168 31.8848 76.3672 31.8848 C 92.9688 31.8848 103.613 20.0684 104.102 8.10547 L 128.564 8.10547 C 136.377 8.10547 141.406 3.41797 141.406 -3.66211 C 141.406 -11.2793 135.84 -17.1875 129.639 -22.4609 C 124.512 -26.8066 123.584 -34.9121 122.021 -47.0215 C 120.264 -68.5547 112.207 -84.2773 96.4355 -89.9414 C 93.4082 -98.6816 85.9375 -104.639 76.3672 -104.639 C 66.748 -104.639 59.2773 -98.6816 56.25 -89.9414 C 40.4785 -84.2773 32.4219 -68.5547 30.6641 -47.0215 C 29.1504 -34.9121 28.2227 -26.8066 23.0957 -22.4609 C 16.8457 -17.1875 11.2793 -11.2793 11.2793 -3.66211 C 11.2793 3.41797 16.3086 8.10547 24.1699 8.10547 Z M 32.9102 -8.10547 L 32.9102 -8.83789 C 35.6445 -10.498 39.0625 -13.1348 41.6992 -16.4062 C 45.6055 -21.2402 47.4121 -32.5684 48.291 -43.7988 C 49.5117 -64.6973 56.543 -72.6562 65.2344 -75 C 66.6992 -75.3418 67.5781 -76.0254 67.8223 -77.9785 C 68.3594 -84.0332 71.4844 -87.6465 76.3672 -87.6465 C 81.2012 -87.6465 84.375 -84.0332 84.9121 -77.9785 C 85.1562 -76.0254 86.0352 -75.3418 87.4512 -75 C 96.1426 -72.6562 103.223 -64.6973 104.395 -43.7988 C 105.322 -32.5684 107.178 -21.2402 110.986 -16.4062 C 113.623 -13.1348 116.602 -10.498 119.385 -8.83789 L 119.385 -8.10547 Z M 76.3672 18.9453 C 70.2637 18.9453 65.7227 14.5508 65.332 8.10547 L 87.4023 8.10547 C 86.9629 14.5508 82.4707 18.9453 76.3672 18.9453 Z"/>
  </g>
  <g id="Bold-L" transform="matrix(1 0 0 1 2264.83 1556)">
   <path d="M 23.4375 7.56836 L 49.3164 7.56836 C 49.8047 19.4824 59.8633 30.7129 75.1465 30.7129 C 90.4297 30.7129 100.488 19.5312 100.928 7.56836 L 126.855 7.56836 C 133.74 7.56836 138.086 3.56445 138.086 -2.44141 C 138.086 -9.61914 132.275 -15.4297 126.367 -20.8008 C 121.338 -25.3906 120.508 -34.3262 119.189 -45.3125 C 117.773 -67.2852 110.254 -82.8613 94.3359 -88.4766 C 91.6992 -97.0703 84.5215 -103.125 75.1465 -103.125 C 65.7715 -103.125 58.5938 -97.0703 55.957 -88.4766 C 39.9902 -82.8613 32.5195 -67.2852 31.1035 -45.3125 C 29.7852 -34.3262 28.9551 -25.3906 23.9258 -20.8008 C 18.0176 -15.4297 12.207 -9.61914 12.207 -2.44141 C 12.207 3.56445 16.5527 7.56836 23.4375 7.56836 Z M 29.9316 -5.85938 L 29.9316 -6.5918 C 32.0312 -8.49609 35.6934 -11.6211 38.623 -15.1367 C 43.0176 -20.2637 44.6777 -31.1523 45.5566 -42.9688 C 46.6797 -65.2344 53.9062 -73.5352 63.3789 -76.0742 C 64.9414 -76.4648 65.8203 -77.1973 66.0645 -79.1016 C 66.5527 -85.2539 69.873 -89.2578 75.1465 -89.2578 C 80.4199 -89.2578 83.7402 -85.2539 84.2285 -79.1016 C 84.4238 -77.1973 85.3516 -76.4648 86.9141 -76.0742 C 96.3379 -73.5352 103.564 -65.2344 104.688 -42.9688 C 105.615 -31.1523 107.324 -20.2637 111.67 -15.1367 C 114.551 -11.6211 117.92 -8.49609 120.068 -6.5918 L 120.068 -5.85938 Z M 75.1465 19.6289 C 68.5059 19.6289 63.5742 14.7949 63.1836 7.56836 L 87.1094 7.56836 C 86.8164 14.6973 81.8848 19.6289 75.1465 19.6289 Z"/>
  </g>
  <g id="Semibold-L" transform="matrix(1 0 0 1 1968.95 1556)">
   <path d="M 22.9492 7.17773 L 49.8535 7.17773 C 50.1953 18.9941 59.9121 29.8828 74.3164 29.8828 C 88.623 29.8828 98.291 19.1406 98.7793 7.17773 L 125.684 7.17773 C 131.885 7.17773 135.791 3.66211 135.791 -1.61133 C 135.791 -8.49609 129.834 -14.209 124.121 -19.6289 C 119.189 -24.4141 118.359 -33.8867 117.236 -44.1406 C 116.016 -66.4062 108.936 -81.8359 92.8711 -87.4512 C 90.4785 -95.9473 83.5449 -102.1 74.3164 -102.1 C 65.0879 -102.1 58.1055 -95.9473 55.7617 -87.4512 C 39.6973 -81.8359 32.6172 -66.4062 31.3965 -44.1406 C 30.2734 -33.8867 29.4434 -24.4141 24.5117 -19.6289 C 18.7988 -14.209 12.8418 -8.49609 12.8418 -1.61133 C 12.8418 3.66211 16.748 7.17773 22.9492 7.17773 Z M 27.9297 -4.3457 L 27.9297 -5.0293 C 29.5898 -7.08008 33.3496 -10.5957 36.5234 -14.209 C 41.2109 -19.5801 42.7734 -30.1758 43.7012 -42.3828 C 44.7754 -65.625 52.0996 -74.1699 62.1094 -76.8555 C 63.7207 -77.2461 64.6484 -78.0273 64.8438 -79.834 C 65.2832 -86.1328 68.7988 -90.3809 74.3164 -90.3809 C 79.834 -90.3809 83.3496 -86.1328 83.7891 -79.834 C 83.9355 -78.0273 84.8633 -77.2461 86.5234 -76.8555 C 96.4844 -74.1699 103.857 -65.625 104.883 -42.3828 C 105.811 -30.1758 107.422 -19.5801 112.109 -14.209 C 115.234 -10.5957 118.848 -7.08008 120.508 -5.0293 L 120.508 -4.3457 Z M 74.3164 20.0684 C 67.2852 20.0684 62.1582 14.9902 61.7188 7.17773 L 86.9141 7.17773 C 86.5723 14.8926 81.3965 20.0684 74.3164 20.0684 Z"/>
  </g>
  <g id="Medium-L" transform="matrix(1 0 0 1 1672.87 1556)">
   <path d="M 22.5586 6.88477 L 50.1953 6.88477 C 50.6348 18.75 60.0098 29.2969 73.6816 29.2969 C 87.2559 29.2969 96.6797 18.8477 97.1191 6.88477 L 124.756 6.88477 C 130.469 6.88477 134.033 3.75977 134.033 -0.976562 C 134.033 -7.61719 127.93 -13.2812 122.412 -18.7988 C 117.529 -23.7305 116.748 -33.5938 115.723 -43.3105 C 114.697 -65.7715 107.91 -81.1035 91.748 -86.6699 C 89.5996 -95.1172 82.7637 -101.318 73.6816 -101.318 C 64.5508 -101.318 57.7637 -95.1172 55.6152 -86.6699 C 39.4043 -81.1035 32.666 -65.7715 31.5918 -43.3105 C 30.6152 -33.5938 29.834 -23.7305 24.9512 -18.7988 C 19.3848 -13.2812 13.3301 -7.61719 13.3301 -0.976562 C 13.3301 3.75977 16.8457 6.88477 22.5586 6.88477 Z M 26.3672 -3.17383 L 26.3672 -3.90625 C 27.6855 -6.00586 31.5918 -9.81445 34.9121 -13.5742 C 39.8438 -19.0918 41.3574 -29.4434 42.2852 -41.9434 C 43.3105 -65.918 50.7324 -74.6094 61.1328 -77.4414 C 62.793 -77.832 63.7695 -78.6133 63.916 -80.3711 C 64.3066 -86.7676 67.9199 -91.2598 73.6816 -91.2598 C 79.3945 -91.2598 83.0078 -86.7676 83.4473 -80.3711 C 83.5938 -78.6133 84.5215 -77.832 86.2305 -77.4414 C 96.582 -74.6094 104.053 -65.918 105.078 -41.9434 C 105.957 -29.4434 107.52 -19.0918 112.451 -13.5742 C 115.723 -9.81445 119.531 -6.00586 120.898 -3.90625 L 120.898 -3.17383 Z M 73.6816 20.4102 C 66.3574 20.4102 61.0352 15.1367 60.5957 6.88477 L 86.7676 6.88477 C 86.377 15.0879 81.0059 20.4102 73.6816 20.4102 Z"/>
  </g>
  <g id="Regular-L" transform="matrix(1 0 0 1 1376.99 1556)">
   <path d="M 22.0703 6.54297 L 86.5723 6.54297 C 86.084 15.2832 80.5664 20.8984 72.8516 20.8984 C 65.1367 20.8984 59.6191 15.2832 59.1309 6.54297 L 50.7324 6.54297 C 51.1719 18.4082 60.2051 28.4668 72.8516 28.4668 C 85.498 28.4668 94.5312 18.457 94.9707 6.54297 L 123.584 6.54297 C 128.662 6.54297 131.738 3.85742 131.738 -0.146484 C 131.738 -6.49414 125.488 -12.0605 120.166 -17.627 C 115.381 -22.7539 114.648 -33.2031 113.818 -42.1387 C 112.988 -64.8926 106.592 -80.127 90.332 -85.6445 C 88.3789 -93.9941 81.7871 -100.293 72.8516 -100.293 C 63.916 -100.293 57.2754 -93.9941 55.3711 -85.6445 C 39.1113 -80.127 32.7148 -64.8926 31.8848 -42.1387 C 31.0547 -33.2031 30.3223 -22.7539 25.5371 -17.627 C 20.166 -12.0605 13.9648 -6.49414 13.9648 -0.146484 C 13.9648 3.85742 17.041 6.54297 22.0703 6.54297 Z M 24.3652 -1.61133 L 24.3652 -2.34375 C 25.2441 -4.63867 29.2969 -8.83789 32.8125 -12.6465 C 38.0859 -18.4082 39.502 -28.4668 40.4297 -41.3574 C 41.4062 -66.2598 48.9746 -75.2441 59.8633 -78.1738 C 61.6211 -78.6133 62.5977 -79.4434 62.6953 -81.1035 C 63.0859 -87.6465 66.8457 -92.334 72.8516 -92.334 C 78.8574 -92.334 82.6172 -87.6465 82.959 -81.1035 C 83.1055 -79.4434 84.082 -78.6133 85.8398 -78.1738 C 96.7285 -75.2441 104.297 -66.2598 105.273 -41.3574 C 106.201 -28.4668 107.617 -18.4082 112.891 -12.6465 C 116.406 -8.83789 120.459 -4.63867 121.338 -2.34375 L 121.338 -1.61133 Z"/>
  </g>
  <g id="Light-L" transform="matrix(1 0 0 1 1080.26 1556)">
   <path d="M 20.9961 6.25 L 86.8652 6.25 C 86.4258 15.332 80.7129 21.1914 72.9004 21.1914 C 65.0391 21.1914 59.3262 15.332 58.8867 6.25 L 52.3926 6.25 C 52.7344 17.8223 61.084 27.0508 72.9004 27.0508 C 84.668 27.0508 93.0176 17.8711 93.3594 6.25 L 124.756 6.25 C 128.613 6.25 131.006 4.10156 131.006 0.878906 C 131.006 -5.51758 125 -10.9375 119.824 -16.5527 C 114.209 -22.7051 114.014 -35.1562 112.646 -46.4355 C 111.328 -66.3574 104.98 -80.4688 89.3555 -85.2539 C 87.7441 -93.7988 81.3477 -99.8535 72.9004 -99.8535 C 64.4043 -99.8535 58.0078 -93.7988 56.3965 -85.2539 C 40.7715 -80.4688 34.4238 -66.3574 33.1055 -46.4355 C 31.7871 -35.1562 31.543 -22.7051 25.9277 -16.5527 C 20.752 -10.9375 14.7461 -5.51758 14.7461 0.878906 C 14.7461 4.10156 17.1387 6.25 20.9961 6.25 Z M 22.6074 -0.0488281 L 22.6074 -0.78125 C 23.1445 -3.66211 27.6367 -8.49609 31.3965 -12.5 C 37.6953 -19.2383 38.1836 -32.0312 39.6484 -45.6543 C 41.2109 -66.9922 47.9492 -76.2207 58.9844 -79.1992 C 60.9375 -79.7363 62.0605 -80.5176 62.2559 -82.373 C 62.8418 -88.8184 66.6504 -93.7012 72.9004 -93.7012 C 79.1016 -93.7012 82.9102 -88.8184 83.4961 -82.373 C 83.6914 -80.5176 84.8145 -79.7363 86.7676 -79.1992 C 97.8027 -76.2207 104.541 -66.9922 106.104 -45.6543 C 107.568 -32.0312 108.057 -19.2383 114.355 -12.5 C 118.115 -8.49609 122.607 -3.66211 123.145 -0.78125 L 123.145 -0.0488281 Z"/>
  </g>
  <g id="Thin-L" transform="matrix(1 0 0 1 783.497 1556)">
   <path d="M 19.5801 5.85938 L 87.3047 5.85938 C 86.8164 15.3809 80.9082 21.582 72.9004 21.582 C 64.9414 21.582 59.0332 15.3809 58.5449 5.85938 L 54.6387 5.85938 C 54.834 17.041 62.3047 25.1953 72.9004 25.1953 C 83.4961 25.1953 90.9668 17.041 91.2109 5.85938 L 126.27 5.85938 C 128.516 5.85938 130.029 4.39453 130.029 2.19727 C 130.029 -4.24805 124.316 -9.52148 119.385 -15.0879 C 112.646 -22.6074 113.135 -37.793 111.133 -52.0996 C 109.131 -68.3105 102.832 -80.957 88.0859 -84.7656 C 86.8164 -93.5547 80.8105 -99.2676 72.9004 -99.2676 C 65.0391 -99.2676 58.9844 -93.5547 57.7637 -84.7656 C 42.9688 -80.957 36.7188 -68.3105 34.7168 -52.0996 C 32.7148 -37.793 33.1543 -22.6074 26.4648 -15.0879 C 21.4844 -9.52148 15.7715 -4.24805 15.7715 2.19727 C 15.7715 4.39453 17.334 5.85938 19.5801 5.85938 Z M 20.3125 2.00195 L 20.3125 1.31836 C 20.4102 -2.34375 25.4395 -8.05664 29.4922 -12.3047 C 37.207 -20.3613 36.4258 -36.6699 38.623 -51.3672 C 40.918 -67.9688 46.582 -77.5391 57.8125 -80.5664 C 60.0586 -81.2012 61.377 -82.0312 61.6699 -84.0332 C 62.5488 -90.332 66.4062 -95.459 72.9004 -95.459 C 79.4434 -95.459 83.3008 -90.332 84.1797 -84.0332 C 84.4727 -82.0312 85.791 -81.2012 88.0371 -80.5664 C 99.2676 -77.5391 104.932 -67.9688 107.227 -51.3672 C 109.424 -36.6699 108.643 -20.3613 116.309 -12.3047 C 120.41 -8.05664 125.439 -2.34375 125.537 1.31836 L 125.537 2.00195 Z"/>
  </g>
  <g id="Ultralight-L" transform="matrix(1 0 0 1 486.786 1556)">
   <path d="M 18.8477 5.66406 L 87.5 5.66406 C 87.0117 15.4297 81.0059 21.7773 72.9492 21.7773 C 64.8438 21.7773 58.8379 15.4297 58.3496 5.66406 L 55.8105 5.66406 C 55.9082 16.6504 62.9395 24.2676 72.9492 24.2676 C 82.959 24.2676 89.9414 16.6504 90.0879 5.66406 L 127.002 5.66406 C 128.467 5.66406 129.541 4.54102 129.541 2.83203 C 129.541 -3.61328 123.975 -8.78906 119.141 -14.3066 C 111.865 -22.5586 112.695 -39.1113 110.352 -55.0293 C 108.008 -69.2871 101.758 -81.25 87.4023 -84.5215 C 86.377 -93.457 80.5176 -98.9746 72.9492 -98.9746 C 65.3809 -98.9746 59.4727 -93.457 58.4473 -84.5215 C 44.1406 -81.25 37.8418 -69.2871 35.5469 -55.0293 C 33.2031 -39.1113 33.9844 -22.5586 26.7578 -14.3066 C 21.875 -8.78906 16.3086 -3.61328 16.3086 2.83203 C 16.3086 4.54102 17.3828 5.66406 18.8477 5.66406 Z M 19.1406 3.02734 L 19.1406 2.39258 C 18.9941 -1.66016 24.2676 -7.8125 28.5645 -12.207 C 36.9141 -20.8984 35.498 -39.0625 38.0859 -54.2969 C 40.7715 -68.5059 45.8984 -78.2227 57.1777 -81.2988 C 59.6191 -81.9336 61.0352 -82.7637 61.377 -84.9121 C 62.4023 -91.1621 66.2598 -96.3379 72.9492 -96.3379 C 79.5898 -96.3379 83.4961 -91.1621 84.5215 -84.9121 C 84.8633 -82.7637 86.2793 -81.9336 88.6719 -81.2988 C 100 -78.2227 105.078 -68.5059 107.764 -54.2969 C 110.352 -39.0625 108.936 -20.8984 117.334 -12.207 C 121.582 -7.8125 126.855 -1.66016 126.758 2.39258 L 126.758 3.02734 Z"/>
  </g>
  <g id="Black-M" transform="matrix(1 0 0 1 2871.9 1126)">
   <path d="M 19.5312 -0.732422 L 37.207 -0.732422 C 37.5977 8.39844 46.5332 18.2617 61.5234 18.2617 C 76.4648 18.2617 85.4004 8.39844 85.791 -0.732422 L 103.467 -0.732422 C 110.742 -0.732422 115.576 -5.46875 115.576 -12.5488 C 115.576 -19.2871 111.816 -24.0234 106.494 -27.8809 C 101.855 -31.2988 101.318 -37.1582 99.3652 -49.8047 C 97.168 -64.2578 89.7949 -76.1719 78.2715 -80.2734 C 75.3906 -87.4023 69.0918 -91.6016 61.5234 -91.6016 C 53.9062 -91.6016 47.6562 -87.4023 44.7754 -80.2734 C 33.2031 -76.1719 25.8789 -64.2578 23.6328 -49.8047 C 21.7285 -37.1582 21.1914 -31.2988 16.5039 -27.8809 C 11.1816 -24.0234 7.42188 -19.2871 7.42188 -12.5488 C 7.42188 -5.46875 12.2559 -0.732422 19.5312 -0.732422 Z M 30.1758 -17.6758 L 30.1758 -18.1641 C 33.3496 -19.3848 35.791 -20.752 37.4512 -23.0469 C 40.1367 -26.6602 41.2109 -37.7441 42.1875 -45.752 C 43.6035 -57.4219 48.2422 -63.0859 53.6133 -64.502 C 54.6875 -64.7461 55.3711 -65.1855 55.6641 -66.9922 C 56.3477 -71.2891 58.3496 -73.4863 61.5234 -73.4863 C 64.6484 -73.4863 66.6992 -71.2891 67.334 -66.9922 C 67.6758 -65.1855 68.3594 -64.7461 69.3848 -64.502 C 74.7559 -63.0859 79.4434 -57.4219 80.8594 -45.752 C 81.7871 -37.7441 83.0078 -26.6602 85.5469 -23.0469 C 87.1582 -20.752 89.0137 -19.3848 92.1875 -18.1641 L 92.1875 -17.6758 Z M 61.5234 5.61523 C 57.7637 5.61523 54.8828 2.92969 54.5898 -0.732422 L 68.457 -0.732422 C 68.1641 2.92969 65.2344 5.61523 61.5234 5.61523 Z"/>
  </g>
  <g id="Heavy-M" transform="matrix(1 0 0 1 2576.39 1126)">
   <path d="M 19.0918 -1.2207 L 37.5 -1.2207 C 37.8418 8.00781 46.4355 17.4805 60.3027 17.4805 C 74.1699 17.4805 82.7637 8.00781 83.1543 -1.2207 L 101.514 -1.2207 C 108.154 -1.2207 112.5 -5.37109 112.5 -11.6211 C 112.5 -17.9199 108.447 -22.6074 103.369 -26.5625 C 99.0723 -29.9316 98.4375 -36.084 96.875 -47.0703 C 95.1172 -62.6465 88.3301 -74.6582 76.416 -78.9062 C 73.8281 -85.8398 67.8223 -90.2832 60.3027 -90.2832 C 52.7832 -90.2832 46.7773 -85.8398 44.1895 -78.9062 C 32.2754 -74.6582 25.4883 -62.6465 23.7305 -47.0703 C 22.168 -36.084 21.5332 -29.9316 17.2363 -26.5625 C 12.1582 -22.6074 8.10547 -17.9199 8.10547 -11.6211 C 8.10547 -5.37109 12.4512 -1.2207 19.0918 -1.2207 Z M 27.7344 -15.8691 L 27.7344 -16.3574 C 30.3711 -17.6758 32.9102 -19.3848 34.8145 -21.8262 C 37.6465 -25.4883 38.916 -35.4492 39.6973 -43.7988 C 40.8691 -57.7637 45.9473 -63.6719 52.0508 -65.2832 C 53.125 -65.5762 53.8086 -66.0156 54.0527 -67.7246 C 54.5898 -72.2168 56.8359 -74.707 60.3027 -74.707 C 63.7695 -74.707 66.0156 -72.2168 66.5527 -67.7246 C 66.7969 -66.0156 67.4805 -65.5762 68.6035 -65.2832 C 74.6582 -63.6719 79.7363 -57.7637 80.9082 -43.7988 C 81.7383 -35.4492 83.0566 -25.4883 85.8398 -21.8262 C 87.6465 -19.3848 89.7461 -17.6758 92.3828 -16.3574 L 92.3828 -15.8691 Z M 60.3027 6.20117 C 56.0547 6.20117 52.832 3.125 52.5391 -1.2207 L 68.0664 -1.2207 C 67.7734 3.125 64.5508 6.20117 60.3027 6.20117 Z"/>
  </g>
  <g id="Bold-M" transform="matrix(1 0 0 1 2281.02 1126)">
   <path d="M 18.6035 -1.70898 L 37.793 -1.70898 C 38.1348 7.51953 46.2891 16.6016 58.9844 16.6016 C 71.6309 16.6016 79.7852 7.56836 80.1758 -1.70898 L 99.3164 -1.70898 C 105.225 -1.70898 109.033 -5.27344 109.033 -10.5469 C 109.033 -16.4062 104.688 -20.9473 99.9023 -25.0488 C 95.9473 -28.4668 95.2637 -34.8633 94.0918 -43.9941 C 92.8223 -60.8398 86.6699 -72.998 74.3652 -77.3926 C 72.1191 -84.1309 66.3574 -88.7695 58.9844 -88.7695 C 51.5625 -88.7695 45.8008 -84.1309 43.5547 -77.3926 C 31.25 -72.998 25.0977 -60.8398 23.8281 -43.9941 C 22.6562 -34.8633 21.9727 -28.4668 18.0176 -25.0488 C 13.2324 -20.9473 8.88672 -16.4062 8.88672 -10.5469 C 8.88672 -5.27344 12.6953 -1.70898 18.6035 -1.70898 Z M 25 -13.8672 L 25 -14.4043 C 27.0508 -15.7227 29.6875 -17.8711 31.8359 -20.4102 C 34.9121 -24.2188 36.2793 -32.8613 36.9629 -41.6504 C 37.8906 -58.1543 43.4082 -64.3555 50.2441 -66.2109 C 51.416 -66.5039 52.0508 -66.9922 52.2461 -68.5547 C 52.6367 -73.2422 55.127 -76.123 58.9844 -76.123 C 62.793 -76.123 65.2832 -73.2422 65.6738 -68.5547 C 65.8691 -66.9922 66.5527 -66.5039 67.6758 -66.2109 C 74.5605 -64.3555 80.0293 -58.1543 80.957 -41.6504 C 81.6406 -32.8613 83.0566 -24.2188 86.084 -20.4102 C 88.1836 -17.8711 90.5762 -15.7227 92.5781 -14.4043 L 92.5781 -13.8672 Z M 58.9844 6.83594 C 54.1504 6.83594 50.5859 3.41797 50.2441 -1.70898 L 67.6758 -1.70898 C 67.334 3.41797 63.7695 6.83594 58.9844 6.83594 Z"/>
  </g>
  <g id="Semibold-M" transform="matrix(1 0 0 1 1985.23 1126)">
   <path d="M 18.3105 -2.09961 L 37.9883 -2.09961 C 38.2324 7.08008 46.1426 16.0156 58.0566 16.0156 C 69.873 16.0156 77.7344 7.27539 78.125 -2.09961 L 97.8027 -2.09961 C 103.223 -2.09961 106.641 -5.17578 106.641 -9.86328 C 106.641 -15.332 102.1 -19.8242 97.5098 -24.0234 C 93.7988 -27.3926 93.0664 -33.9844 92.1875 -41.8457 C 91.2109 -59.5703 85.498 -71.8262 72.998 -76.3184 C 70.9473 -82.959 65.3809 -87.7441 58.0566 -87.7441 C 50.6836 -87.7441 45.1172 -82.959 43.1152 -76.3184 C 30.5664 -71.8262 24.8535 -59.5703 23.877 -41.8457 C 23.0469 -33.9844 22.2656 -27.3926 18.5547 -24.0234 C 14.0137 -19.8242 9.42383 -15.332 9.42383 -9.86328 C 9.42383 -5.17578 12.8418 -2.09961 18.3105 -2.09961 Z M 23.1445 -12.5 L 23.1445 -13.0371 C 24.7559 -14.4043 27.4902 -16.7969 29.7852 -19.4824 C 33.0078 -23.291 34.4727 -31.1035 35.0586 -40.1367 C 35.791 -58.3984 41.6016 -64.8438 49.0234 -66.8457 C 50.1953 -67.1387 50.8789 -67.6758 51.0254 -69.0918 C 51.3184 -73.9258 53.9551 -77.0508 58.0566 -77.0508 C 62.1094 -77.0508 64.7461 -73.9258 65.0391 -69.0918 C 65.1855 -67.6758 65.8691 -67.1387 67.041 -66.8457 C 74.4629 -64.8438 80.2734 -58.3984 81.0059 -40.1367 C 81.5918 -31.1035 83.1055 -23.291 86.2793 -19.4824 C 88.5742 -16.7969 91.1133 -14.4043 92.7246 -13.0371 L 92.7246 -12.5 Z M 58.0566 7.32422 C 52.832 7.32422 49.0234 3.56445 48.6816 -2.09961 L 67.3828 -2.09961 C 67.1387 3.51562 63.3301 7.32422 58.0566 7.32422 Z"/>
  </g>
  <g id="Medium-M" transform="matrix(1 0 0 1 1689.23 1126)">
   <path d="M 18.0176 -2.34375 L 38.1348 -2.34375 C 38.4766 6.93359 46.0938 15.5273 57.3242 15.5273 C 68.5059 15.5273 76.1719 7.03125 76.5625 -2.34375 L 96.6309 -2.34375 C 101.709 -2.34375 104.834 -5.12695 104.834 -9.32617 C 104.834 -14.5508 100.098 -18.9941 95.6543 -23.2422 C 92.1875 -26.6113 91.3574 -33.3496 90.7227 -40.2344 C 90.0391 -58.6426 84.6191 -70.9473 71.9238 -75.5371 C 70.0195 -82.0312 64.5996 -86.9629 57.3242 -86.9629 C 50.0488 -86.9629 44.6289 -82.0312 42.7734 -75.5371 C 30.0293 -70.9473 24.6582 -58.6426 23.9258 -40.2344 C 23.291 -33.3496 22.4609 -26.6113 18.9941 -23.2422 C 14.5508 -18.9941 9.81445 -14.5508 9.81445 -9.32617 C 9.81445 -5.12695 12.9395 -2.34375 18.0176 -2.34375 Z M 21.7285 -11.4258 L 21.7285 -12.0117 C 22.998 -13.4277 25.8301 -16.0156 28.2227 -18.75 C 31.5918 -22.6074 33.1543 -29.7363 33.6426 -39.0137 C 34.2285 -58.5938 40.2832 -65.1855 48.0957 -67.2852 C 49.3164 -67.627 49.9512 -68.2129 50.0488 -69.5312 C 50.293 -74.4629 53.0762 -77.7832 57.3242 -77.7832 C 61.6211 -77.7832 64.3555 -74.4629 64.5996 -69.5312 C 64.6973 -68.2129 65.3809 -67.627 66.5527 -67.2852 C 74.4141 -65.1855 80.4199 -58.5938 81.0059 -39.0137 C 81.543 -29.7363 83.1055 -22.6074 86.4258 -18.75 C 88.8184 -16.0156 91.5527 -13.4277 92.8223 -12.0117 L 92.8223 -11.4258 Z M 57.3242 7.66602 C 51.8066 7.66602 47.8516 3.71094 47.5098 -2.34375 L 67.1875 -2.34375 C 66.8945 3.66211 62.8906 7.66602 57.3242 7.66602 Z"/>
  </g>
  <g id="Regular-M" transform="matrix(1 0 0 1 1393.42 1126)">
   <path d="M 17.7246 -2.68555 L 66.8945 -2.68555 C 66.5039 3.90625 62.3047 8.10547 56.3965 8.10547 C 50.5371 8.10547 46.2891 3.90625 45.9473 -2.68555 L 38.3301 -2.68555 C 38.7207 6.68945 46.0938 14.9414 56.3965 14.9414 C 66.748 14.9414 74.1211 6.73828 74.5117 -2.68555 L 95.1172 -2.68555 C 99.707 -2.68555 102.49 -5.07812 102.49 -8.59375 C 102.49 -13.4766 97.5098 -17.8711 93.3105 -22.2168 C 90.0879 -25.5859 89.209 -32.5195 88.8184 -38.1348 C 88.4766 -57.373 83.4961 -69.8242 70.5078 -74.5117 C 68.8477 -80.8594 63.623 -85.9375 56.3965 -85.9375 C 49.2188 -85.9375 43.9453 -80.8594 42.334 -74.5117 C 29.3457 -69.8242 24.3652 -57.373 24.0234 -38.1348 C 23.6328 -32.5195 22.7539 -25.5859 19.5312 -22.2168 C 15.2832 -17.8711 10.3516 -13.4766 10.3516 -8.59375 C 10.3516 -5.07812 13.0859 -2.68555 17.7246 -2.68555 Z M 19.8242 -10.0586 L 19.8242 -10.6445 C 20.7031 -12.1094 23.6328 -14.9414 26.1719 -17.8223 C 29.6875 -21.7285 31.3477 -27.9785 31.7871 -37.5488 C 32.1777 -58.8379 38.5254 -65.6738 46.875 -67.9199 C 48.0957 -68.2129 48.7793 -68.8477 48.8281 -70.0684 C 48.9746 -75.1953 51.9043 -78.7598 56.3965 -78.7598 C 60.9375 -78.7598 63.8184 -75.1953 64.0137 -70.0684 C 64.0625 -68.8477 64.6973 -68.2129 65.918 -67.9199 C 74.3164 -65.6738 80.6641 -58.8379 81.0547 -37.5488 C 81.4941 -27.9785 83.1543 -21.7285 86.6211 -17.8223 C 89.209 -14.9414 92.0898 -12.1094 92.9688 -10.6445 L 92.9688 -10.0586 Z"/>
  </g>
  <g id="Light-M" transform="matrix(1 0 0 1 1096.69 1126)">
   <path d="M 16.748 -2.97852 L 67.1875 -2.97852 C 66.7969 3.95508 62.4512 8.34961 56.4453 8.34961 C 50.4395 8.34961 46.0938 3.95508 45.7031 -2.97852 L 39.8438 -2.97852 C 40.1367 6.15234 46.9238 13.6719 56.4453 13.6719 C 65.9668 13.6719 72.7539 6.20117 73.0469 -2.97852 L 96.1426 -2.97852 C 99.6582 -2.97852 101.855 -4.88281 101.855 -7.71484 C 101.855 -12.6465 97.0703 -16.8945 92.9688 -21.2402 C 89.0137 -25.5371 88.623 -34.3262 87.793 -41.9922 C 87.0117 -58.6914 82.0801 -70.1172 69.6777 -74.1699 C 68.2617 -80.7129 63.2324 -85.498 56.4453 -85.498 C 49.6582 -85.498 44.6289 -80.7129 43.2617 -74.1699 C 30.8105 -70.1172 25.9277 -58.6914 25.0977 -41.9922 C 24.2676 -34.3262 23.877 -25.5371 19.9219 -21.2402 C 15.8203 -16.8945 11.084 -12.6465 11.084 -7.71484 C 11.084 -4.88281 13.2324 -2.97852 16.748 -2.97852 Z M 18.2617 -8.69141 L 18.2617 -9.22852 C 18.8477 -11.1816 22.1191 -14.6484 24.9512 -17.6758 C 29.3457 -22.4609 30.1758 -31.1523 31.0547 -41.4062 C 31.9824 -59.5215 37.5977 -66.5527 46.0938 -68.8477 C 47.5098 -69.2383 48.291 -69.873 48.4375 -71.1914 C 48.7793 -76.2207 51.709 -79.9316 56.4453 -79.9316 C 61.1816 -79.9316 64.1113 -76.2207 64.4531 -71.1914 C 64.5996 -69.873 65.3809 -69.2383 66.7969 -68.8477 C 75.293 -66.5527 80.9082 -59.5215 81.8359 -41.4062 C 82.7148 -31.1523 83.5449 -22.4609 87.9395 -17.6758 C 90.7715 -14.6484 94.043 -11.1816 94.6289 -9.22852 L 94.6289 -8.69141 Z"/>
  </g>
  <g id="Thin-M" transform="matrix(1 0 0 1 799.928 1126)">
   <path d="M 15.4785 -3.32031 L 67.5293 -3.32031 C 67.1875 4.00391 62.6465 8.69141 56.4941 8.69141 C 50.3418 8.69141 45.8008 4.00391 45.4102 -3.32031 L 41.8457 -3.32031 C 42.041 5.46875 47.998 12.0117 56.4941 12.0117 C 64.9414 12.0117 70.9473 5.46875 71.1426 -3.32031 L 97.5098 -3.32031 C 99.6094 -3.32031 100.977 -4.58984 100.977 -6.54297 C 100.977 -11.4746 96.4844 -15.625 92.5781 -19.9219 C 87.6465 -25.4395 87.8418 -36.6699 86.4258 -47.0703 C 85.0586 -60.4492 80.1758 -70.5566 68.5059 -73.7305 C 67.4805 -80.4688 62.7441 -85.0098 56.4941 -85.0098 C 50.2441 -85.0098 45.5078 -80.4688 44.4824 -73.7305 C 32.8125 -70.5566 27.9297 -60.4492 26.5137 -47.0703 C 25.1465 -36.6699 25.3418 -25.4395 20.3613 -19.9219 C 16.5039 -15.625 12.0117 -11.4746 12.0117 -6.54297 C 12.0117 -4.58984 13.3789 -3.32031 15.4785 -3.32031 Z M 16.2109 -6.83594 L 16.2109 -7.37305 C 16.4062 -10.0098 20.166 -14.2578 23.2422 -17.5293 C 28.9062 -23.4375 28.5645 -35.3516 30.127 -46.4844 C 31.7383 -60.4004 36.377 -67.7246 45.0195 -70.0684 C 46.7285 -70.5566 47.7051 -71.1426 47.9004 -72.7051 C 48.5352 -77.6367 51.5137 -81.4941 56.4941 -81.4941 C 61.4746 -81.4941 64.4531 -77.6367 65.0879 -72.7051 C 65.2832 -71.1426 66.2598 -70.5566 67.9199 -70.0684 C 76.6113 -67.7246 81.2012 -60.4004 82.8125 -46.4844 C 84.375 -35.3516 84.082 -23.4375 89.6973 -17.5293 C 92.8223 -14.2578 96.582 -10.0098 96.7773 -7.37305 L 96.7773 -6.83594 Z"/>
  </g>
  <g id="Ultralight-M" transform="matrix(1 0 0 1 503.193 1126)">
   <path d="M 14.8438 -3.4668 L 67.7246 -3.4668 C 67.3828 4.00391 62.7441 8.88672 56.4941 8.88672 C 50.293 8.88672 45.6543 4.00391 45.2637 -3.4668 L 42.8711 -3.4668 C 43.0176 5.07812 48.584 11.1816 56.4941 11.1816 C 64.4531 11.1816 70.0195 5.07812 70.1172 -3.4668 L 98.1934 -3.4668 C 99.5605 -3.4668 100.537 -4.44336 100.537 -5.9082 C 100.537 -10.8887 96.1914 -14.9414 92.3828 -19.2383 C 86.9141 -25.3906 87.4512 -37.8418 85.7422 -49.6582 C 84.0332 -61.3281 79.1992 -70.8008 67.9199 -73.4863 C 67.0898 -80.3711 62.4512 -84.7168 56.4941 -84.7168 C 50.5371 -84.7168 45.9473 -80.3711 45.1172 -73.4863 C 33.8379 -70.8008 29.0039 -61.3281 27.2949 -49.6582 C 25.5859 -37.8418 26.0742 -25.3906 20.6543 -19.2383 C 16.8457 -14.9414 12.5 -10.8887 12.5 -5.9082 C 12.5 -4.44336 13.4277 -3.4668 14.8438 -3.4668 Z M 15.1855 -5.9082 L 15.1855 -6.39648 C 15.1367 -9.42383 19.1406 -14.0625 22.4121 -17.4316 C 28.7109 -23.9746 27.7832 -37.5 29.6875 -49.1211 C 31.6406 -60.8398 35.791 -68.3594 44.4824 -70.7031 C 46.3379 -71.1914 47.3633 -71.8262 47.6562 -73.4863 C 48.3887 -78.3203 51.3672 -82.3242 56.4941 -82.3242 C 61.6211 -82.3242 64.6484 -78.3203 65.3809 -73.4863 C 65.625 -71.8262 66.6992 -71.1914 68.5059 -70.7031 C 77.2461 -68.3594 81.3965 -60.8398 83.3496 -49.1211 C 85.2539 -37.5 84.3262 -23.9746 90.625 -17.4316 C 93.8477 -14.0625 97.8516 -9.42383 97.8516 -6.39648 L 97.8516 -5.9082 Z"/>
  </g>
  <g id="Black-S" transform="matrix(1 0 0 1 2885.3 696)">
   <path d="M 15.2832 -8.25195 L 29.1504 -8.25195 C 29.4922 -1.07422 36.4746 6.64062 48.0957 6.64062 C 59.7656 6.64062 66.748 -1.07422 67.041 -8.25195 L 80.9082 -8.25195 C 86.5723 -8.25195 90.332 -11.9141 90.332 -17.3828 C 90.332 -22.6562 87.3535 -26.3672 83.2031 -29.3945 C 79.5898 -32.0312 79.1504 -36.6211 77.6855 -46.3867 C 75.9766 -57.8125 70.2637 -67.1875 61.1816 -70.4102 C 58.9355 -75.9766 54.0527 -79.2969 48.0957 -79.2969 C 42.1387 -79.2969 37.2559 -75.9766 35.0098 -70.4102 C 25.9277 -67.1875 20.2148 -57.8125 18.5059 -46.3867 C 17.041 -36.6211 16.6016 -32.0312 12.9883 -29.3945 C 8.83789 -26.3672 5.85938 -22.6562 5.85938 -17.3828 C 5.85938 -11.9141 9.61914 -8.25195 15.2832 -8.25195 Z M 23.4863 -21.3379 L 23.4863 -21.7285 C 25.9277 -22.7051 27.832 -23.7793 29.1504 -25.5859 C 31.25 -28.418 32.1289 -36.9629 32.8613 -43.2617 C 33.9355 -52.6367 37.6465 -57.0801 41.8945 -58.2031 C 42.7246 -58.3984 43.2617 -58.7402 43.5059 -60.1562 C 43.9941 -63.5254 45.6055 -65.2832 48.0957 -65.2832 C 50.5859 -65.2832 52.1973 -63.5254 52.6855 -60.1562 C 52.9297 -58.7402 53.4668 -58.3984 54.2969 -58.2031 C 58.5449 -57.0801 62.2559 -52.6367 63.3301 -43.2617 C 64.0625 -36.9629 65.0391 -28.418 67.041 -25.5859 C 68.3105 -23.7793 69.7754 -22.7051 72.2168 -21.7285 L 72.2168 -21.3379 Z M 48.0957 -3.17383 C 45.1172 -3.17383 42.8223 -5.32227 42.5781 -8.25195 L 53.6133 -8.25195 C 53.3691 -5.32227 51.0742 -3.17383 48.0957 -3.17383 Z"/>
  </g>
  <g id="Heavy-S" transform="matrix(1 0 0 1 2589.52 696)">
   <path d="M 15.0391 -8.59375 L 29.1992 -8.59375 C 29.4922 -1.31836 36.2793 6.20117 47.168 6.20117 C 58.1055 6.20117 64.8438 -1.31836 65.1367 -8.59375 L 79.2969 -8.59375 C 84.5703 -8.59375 88.0371 -11.8652 88.0371 -16.7969 C 88.0371 -21.6797 84.8145 -25.3418 80.8594 -28.4668 C 77.5879 -31.0059 77.0508 -35.5957 75.8789 -43.8477 C 74.5605 -56.4453 69.2871 -66.0156 59.8633 -69.3848 C 57.8125 -74.8047 53.125 -78.3203 47.168 -78.3203 C 41.2598 -78.3203 36.5234 -74.8047 34.4727 -69.3848 C 25.0488 -66.0156 19.7754 -56.4453 18.457 -43.8477 C 17.334 -35.5957 16.748 -31.0059 13.4766 -28.4668 C 9.52148 -25.3418 6.29883 -21.6797 6.29883 -16.7969 C 6.29883 -11.8652 9.76562 -8.59375 15.0391 -8.59375 Z M 21.7773 -20.1172 L 21.7773 -20.5566 C 23.8281 -21.4844 25.7812 -22.7539 27.2461 -24.6582 C 29.3945 -27.4414 30.4688 -34.8633 31.0547 -41.3574 C 31.8848 -52.832 35.9863 -57.4707 40.7715 -58.7402 C 41.6016 -58.9355 42.1387 -59.2773 42.334 -60.5957 C 42.6758 -64.1113 44.4336 -66.1133 47.168 -66.1133 C 49.9023 -66.1133 51.6602 -64.1113 52.0508 -60.5957 C 52.1973 -59.2773 52.7344 -58.9355 53.5645 -58.7402 C 58.3496 -57.4707 62.4512 -52.832 63.2812 -41.3574 C 63.8672 -34.8633 65.0391 -27.4414 67.0898 -24.6582 C 68.5059 -22.7539 70.1172 -21.4844 72.168 -20.5566 L 72.168 -20.1172 Z M 47.168 -2.7832 C 43.8477 -2.7832 41.3086 -5.17578 41.0645 -8.59375 L 53.2715 -8.59375 C 53.0273 -5.12695 50.4883 -2.7832 47.168 -2.7832 Z"/>
  </g>
  <g id="Bold-S" transform="matrix(1 0 0 1 2293.84 696)">
   <path d="M 14.7949 -8.93555 L 29.1992 -8.93555 C 29.541 -1.61133 36.084 5.66406 46.1426 5.66406 C 56.2012 5.66406 62.7441 -1.5625 63.0371 -8.93555 L 77.4902 -8.93555 C 82.373 -8.93555 85.4492 -11.8164 85.4492 -16.1133 C 85.4492 -20.6543 81.9824 -24.2188 78.2227 -27.4414 C 75.3418 -29.8828 74.6582 -34.4238 73.877 -41.0156 C 72.998 -54.8828 68.2129 -64.6973 58.4473 -68.2617 C 56.5918 -73.5352 52.0508 -77.1973 46.1426 -77.1973 C 40.2344 -77.1973 35.6934 -73.5352 33.8379 -68.2617 C 24.0723 -64.6973 19.2871 -54.8828 18.4082 -41.0156 C 17.627 -34.4238 16.9434 -29.8828 14.0625 -27.4414 C 10.3027 -24.2188 6.83594 -20.6543 6.83594 -16.1133 C 6.83594 -11.8164 9.91211 -8.93555 14.7949 -8.93555 Z M 19.873 -18.75 L 19.873 -19.1895 C 21.5332 -20.1172 23.5352 -21.6309 25.1465 -23.6328 C 27.3438 -26.3672 28.6133 -32.5195 29.0527 -39.209 C 29.6387 -53.0273 34.1309 -57.8613 39.502 -59.2773 C 40.332 -59.5215 40.8691 -59.9121 40.9668 -61.084 C 41.2598 -64.7949 43.1641 -66.9922 46.1426 -66.9922 C 49.1211 -66.9922 51.0254 -64.7949 51.3184 -61.084 C 51.416 -59.9121 51.9043 -59.5215 52.7832 -59.2773 C 58.1543 -57.8613 62.6465 -53.0273 63.2324 -39.209 C 63.623 -32.5195 64.9902 -26.3672 67.1387 -23.6328 C 68.7012 -21.6309 70.5078 -20.1172 72.1191 -19.1895 L 72.1191 -18.75 Z M 46.1426 -2.29492 C 42.3828 -2.29492 39.5996 -4.98047 39.3555 -8.93555 L 52.9297 -8.93555 C 52.7832 -5.07812 50 -2.29492 46.1426 -2.29492 Z"/>
  </g>
  <g id="Semibold-S" transform="matrix(1 0 0 1 1997.83 696)">
   <path d="M 14.6484 -9.17969 L 29.248 -9.17969 C 29.4922 -1.9043 35.8398 5.32227 45.4102 5.32227 C 54.9316 5.32227 61.2793 -1.75781 61.6211 -9.17969 L 76.2207 -9.17969 C 80.8105 -9.17969 83.6914 -11.7676 83.6914 -15.625 C 83.6914 -19.9219 80.0293 -23.4863 76.416 -26.7578 C 73.7793 -29.1016 72.998 -33.6426 72.5098 -39.0625 C 71.9238 -53.8086 67.4316 -63.7695 57.4219 -67.5293 C 55.7129 -72.6074 51.3184 -76.4648 45.4102 -76.4648 C 39.5508 -76.4648 35.1074 -72.6074 33.4473 -67.5293 C 23.4375 -63.7695 18.9453 -53.8086 18.3594 -39.0625 C 17.8223 -33.6426 17.0898 -29.1016 14.4531 -26.7578 C 10.791 -23.4863 7.17773 -19.9219 7.17773 -15.625 C 7.17773 -11.7676 10.0098 -9.17969 14.6484 -9.17969 Z M 18.6035 -17.8223 L 18.6035 -18.2617 C 19.9219 -19.1895 21.9727 -20.8496 23.6816 -22.9004 C 25.9277 -25.5859 27.3438 -30.8594 27.6367 -37.7441 C 28.0273 -53.1738 32.8613 -58.1543 38.623 -59.7168 C 39.502 -59.9121 39.9902 -60.3516 40.0391 -61.4258 C 40.2344 -65.2344 42.2852 -67.627 45.4102 -67.627 C 48.584 -67.627 50.6348 -65.2344 50.7812 -61.4258 C 50.8789 -60.3516 51.3672 -59.9121 52.1973 -59.7168 C 58.0078 -58.1543 62.793 -53.1738 63.1836 -37.7441 C 63.4766 -30.8594 64.9902 -25.5859 67.1875 -22.9004 C 68.8477 -20.8496 70.752 -19.1895 72.1191 -18.2617 L 72.1191 -17.8223 Z M 45.4102 -2.00195 C 41.3574 -2.00195 38.4277 -4.83398 38.1348 -9.17969 L 52.6855 -9.17969 C 52.4902 -4.88281 49.5117 -2.00195 45.4102 -2.00195 Z"/>
  </g>
  <g id="Medium-S" transform="matrix(1 0 0 1 1701.66 696)">
   <path d="M 14.502 -9.375 L 29.248 -9.375 C 29.541 -2.00195 35.791 5.0293 44.873 5.0293 C 53.9551 5.0293 60.1562 -1.9043 60.498 -9.375 L 75.2441 -9.375 C 79.6875 -9.375 82.373 -11.7188 82.373 -15.2832 C 82.373 -19.3359 78.5645 -22.9004 75.0488 -26.2207 C 72.6074 -28.5156 71.7773 -33.0566 71.4355 -37.5977 C 71.0938 -53.0273 66.8457 -63.0859 56.6406 -66.9434 C 55.0781 -71.9727 50.7324 -75.8789 44.873 -75.8789 C 39.0137 -75.8789 34.668 -71.9727 33.1055 -66.9434 C 22.9004 -63.0859 18.7012 -53.0273 18.3105 -37.5977 C 18.0176 -33.0566 17.1875 -28.5156 14.7461 -26.2207 C 11.2305 -22.9004 7.42188 -19.3359 7.42188 -15.2832 C 7.42188 -11.7188 10.1074 -9.375 14.502 -9.375 Z M 17.5781 -17.1387 L 17.5781 -17.5781 C 18.7012 -18.457 20.8008 -20.2637 22.5586 -22.3633 C 24.8535 -25.0488 26.416 -29.6387 26.6113 -36.6211 C 26.8555 -53.2715 31.8848 -58.3496 37.9883 -60.0098 C 38.8184 -60.2051 39.3066 -60.6445 39.3555 -61.6699 C 39.4531 -65.5762 41.6016 -68.1152 44.873 -68.1152 C 48.1445 -68.1152 50.293 -65.5762 50.3906 -61.6699 C 50.4883 -60.6445 50.9277 -60.2051 51.8066 -60.0098 C 57.9102 -58.3496 62.9395 -53.2715 63.1836 -36.6211 C 63.3789 -29.6387 64.9414 -25.0488 67.1875 -22.3633 C 68.9941 -20.2637 70.9473 -18.457 72.0703 -17.5781 L 72.0703 -17.1387 Z M 44.873 -1.75781 C 40.625 -1.75781 37.5488 -4.73633 37.2559 -9.375 L 52.4902 -9.375 C 52.2949 -4.78516 49.1699 -1.75781 44.873 -1.75781 Z"/>
  </g>
  <g id="Regular-S" transform="matrix(1 0 0 1 1405.66 696)">
   <path d="M 14.3555 -9.61914 L 52.2949 -9.61914 C 52.002 -4.58984 48.7305 -1.41602 44.1895 -1.41602 C 39.5996 -1.41602 36.377 -4.58984 36.084 -9.61914 L 29.2969 -9.61914 C 29.6387 -2.14844 35.6934 4.6875 44.1895 4.6875 C 52.6367 4.6875 58.6914 -2.09961 59.082 -9.61914 L 74.0234 -9.61914 C 78.1738 -9.61914 80.6152 -11.6699 80.6152 -14.7949 C 80.6152 -18.6035 76.6113 -22.1191 73.2422 -25.5371 C 71.0449 -27.7344 70.166 -32.2754 70.0684 -35.6445 C 70.0195 -51.9531 66.1133 -62.1582 55.6641 -66.1621 C 54.248 -71.0449 50.0488 -75.1465 44.1895 -75.1465 C 38.3301 -75.1465 34.1309 -71.0449 32.7148 -66.1621 C 22.2656 -62.1582 18.3594 -51.9531 18.2617 -35.6445 C 18.2129 -32.2754 17.2852 -27.7344 15.1367 -25.5371 C 11.7188 -22.1191 7.76367 -18.6035 7.76367 -14.7949 C 7.76367 -11.6699 10.2051 -9.61914 14.3555 -9.61914 Z M 16.3086 -16.2109 L 16.3086 -16.6504 C 17.1387 -17.5293 19.2383 -19.4824 21.1426 -21.6797 C 23.4375 -24.2676 25.1465 -28.0273 25.2441 -35.1562 C 25.293 -53.418 30.6152 -58.6426 37.1094 -60.4004 C 37.9883 -60.5957 38.4277 -61.084 38.4277 -62.0117 C 38.4766 -66.0156 40.7227 -68.75 44.1895 -68.75 C 47.6074 -68.75 49.9023 -66.0156 49.9023 -62.0117 C 49.9023 -61.084 50.3906 -60.5957 51.2207 -60.4004 C 57.7637 -58.6426 63.0859 -53.418 63.1348 -35.1562 C 63.2324 -28.0273 64.9414 -24.2676 67.2363 -21.6797 C 69.1406 -19.4824 71.2402 -17.5293 72.0703 -16.6504 L 72.0703 -16.2109 Z"/>
  </g>
  <g id="Light-S" transform="matrix(1 0 0 1 1108.92 696)">
   <path d="M 13.4766 -9.86328 L 52.5391 -9.86328 C 52.2461 -4.54102 48.877 -1.17188 44.2383 -1.17188 C 39.5508 -1.17188 36.1816 -4.54102 35.8887 -9.86328 L 30.6152 -9.86328 C 30.9082 -2.58789 36.4258 3.56445 44.2383 3.56445 C 52.002 3.56445 57.5195 -2.58789 57.8125 -9.86328 L 74.9512 -9.86328 C 78.125 -9.86328 80.0293 -11.5234 80.0293 -14.0137 C 80.0293 -17.8711 76.2207 -21.2402 72.9492 -24.6582 C 70.166 -27.6855 69.6289 -33.8379 69.1895 -39.0625 C 68.7012 -53.125 64.8438 -62.4512 54.9316 -65.8691 C 53.7109 -70.8984 49.707 -74.8047 44.2383 -74.8047 C 38.7207 -74.8047 34.7168 -70.8984 33.5449 -65.8691 C 23.584 -62.4512 19.7266 -53.125 19.2383 -39.0625 C 18.7988 -33.8379 18.2617 -27.6855 15.4785 -24.6582 C 12.207 -21.2402 8.39844 -17.8711 8.39844 -14.0137 C 8.39844 -11.5234 10.3027 -9.86328 13.4766 -9.86328 Z M 14.9414 -14.9414 L 14.9414 -15.4297 C 15.4785 -16.748 17.9199 -19.2383 20.0195 -21.5332 C 23.1445 -24.9512 24.0723 -30.8105 24.6094 -38.5742 C 25.1465 -54.0039 29.7852 -59.4238 36.4258 -61.2305 C 37.4512 -61.4746 38.0371 -61.9629 38.0859 -62.9883 C 38.3301 -66.9434 40.5762 -69.7754 44.2383 -69.7754 C 47.8516 -69.7754 50.0977 -66.9434 50.3418 -62.9883 C 50.3906 -61.9629 50.9766 -61.4746 52.002 -61.2305 C 58.6426 -59.4238 63.2812 -54.0039 63.8184 -38.5742 C 64.3555 -30.8105 65.2832 -24.9512 68.4082 -21.5332 C 70.5078 -19.2383 72.9492 -16.748 73.4863 -15.4297 L 73.4863 -14.9414 Z"/>
  </g>
  <g id="Thin-S" transform="matrix(1 0 0 1 812.16 696)">
   <path d="M 12.4023 -10.1562 L 52.8809 -10.1562 C 52.5879 -4.54102 49.0723 -0.878906 44.2383 -0.878906 C 39.4531 -0.878906 35.9375 -4.54102 35.6445 -10.1562 L 32.4219 -10.1562 C 32.5684 -3.22266 37.4023 2.09961 44.2383 2.09961 C 51.0742 2.09961 55.957 -3.22266 56.1035 -10.1562 L 76.123 -10.1562 C 78.0762 -10.1562 79.2969 -11.2793 79.2969 -12.9883 C 79.2969 -16.8457 75.7324 -20.1172 72.6074 -23.4863 C 68.9453 -27.5879 68.9941 -35.8887 68.0176 -43.5547 C 66.9922 -54.6387 63.1836 -62.8418 53.9062 -65.4785 C 53.0273 -70.752 49.2676 -74.3164 44.2383 -74.3164 C 39.2578 -74.3164 35.498 -70.752 34.6191 -65.4785 C 25.3418 -62.8418 21.5332 -54.6387 20.5078 -43.5547 C 19.5312 -35.8887 19.5801 -27.5879 15.8691 -23.4863 C 12.793 -20.1172 9.22852 -16.8457 9.22852 -12.9883 C 9.22852 -11.2793 10.4492 -10.1562 12.4023 -10.1562 Z M 13.1348 -13.3301 L 13.1348 -13.7695 C 13.3301 -15.7227 16.2109 -18.8965 18.5547 -21.3867 C 22.7539 -25.8301 22.7051 -34.5215 23.7793 -43.1152 C 24.9512 -54.7852 28.7598 -60.4492 35.498 -62.3047 C 36.7676 -62.6465 37.5 -63.1348 37.6465 -64.3066 C 38.0859 -68.1641 40.3809 -71.1914 44.2383 -71.1914 C 48.0957 -71.1914 50.4395 -68.1641 50.8789 -64.3066 C 51.0254 -63.1348 51.7578 -62.6465 53.0273 -62.3047 C 59.7656 -60.4492 63.5742 -54.7852 64.6973 -43.1152 C 65.8203 -34.5215 65.7715 -25.8301 69.9707 -21.3867 C 72.3145 -18.8965 75.1953 -15.7227 75.3906 -13.7695 L 75.3906 -13.3301 Z"/>
  </g>
  <g id="Ultralight-S" transform="matrix(1 0 0 1 515.424 696)">
   <path d="M 11.8164 -10.3027 L 53.0273 -10.3027 C 52.7344 -4.49219 49.1699 -0.732422 44.2871 -0.732422 C 39.4043 -0.732422 35.8398 -4.49219 35.5469 -10.3027 L 33.3496 -10.3027 C 33.4473 -3.56445 37.9395 1.36719 44.2871 1.36719 C 50.6348 1.36719 55.127 -3.51562 55.2246 -10.3027 L 76.7578 -10.3027 C 78.0273 -10.3027 78.9062 -11.1816 78.9062 -12.4512 C 78.9062 -16.3086 75.4395 -19.5312 72.4609 -22.9004 C 68.3105 -27.5391 68.6523 -36.9629 67.3828 -45.8496 C 66.1133 -55.4199 62.3047 -63.0371 53.418 -65.2832 C 52.6855 -70.6055 49.0234 -74.0723 44.2871 -74.0723 C 39.5508 -74.0723 35.8887 -70.6055 35.1562 -65.2832 C 26.2695 -63.0371 22.4609 -55.4199 21.1914 -45.8496 C 19.9219 -36.9629 20.2637 -27.5391 16.1133 -22.9004 C 13.1348 -19.5312 9.66797 -16.3086 9.66797 -12.4512 C 9.66797 -11.1816 10.5469 -10.3027 11.8164 -10.3027 Z M 12.1582 -12.5 L 12.1582 -12.8906 C 12.207 -15.1855 15.2832 -18.7012 17.8223 -21.2891 C 22.5586 -26.2695 21.9727 -36.4258 23.3887 -45.4102 C 24.8535 -55.1758 28.2227 -60.9863 35.0098 -62.8418 C 36.4258 -63.2324 37.207 -63.7207 37.4023 -64.9902 C 37.9883 -68.7988 40.332 -71.9238 44.2871 -71.9238 C 48.2422 -71.9238 50.5859 -68.7988 51.1719 -64.9902 C 51.3672 -63.7207 52.1484 -63.2324 53.5645 -62.8418 C 60.3516 -60.9863 63.7207 -55.1758 65.1855 -45.4102 C 66.6016 -36.4258 66.0156 -26.2695 70.752 -21.2891 C 73.291 -18.7012 76.3672 -15.1855 76.3672 -12.8906 L 76.3672 -12.5 Z"/>
  </g>
 </g>
</svg>
