<?xml version="1.0" encoding="UTF-8"?>
<!--Generator: Apple Native CoreSVG 123-->
<!DOCTYPE svg
PUBLIC "-//W3C//DTD SVG 1.1//EN"
       "http://www.w3.org/Graphics/SVG/1.1/DTD/svg11.dtd">
<svg version="1.1" xmlns="http://www.w3.org/2000/svg" xmlns:xlink="http://www.w3.org/1999/xlink" width="3300" height="2200">
 <!--glyph: "uni1002B1.medium", point size: 100.000000, font version: "Version 15.0d7e11", template writer version: "5"-->
 <g id="Notes">
  <rect height="2200" id="artboard" style="fill:white;opacity:1" width="3300" x="0" y="0"/>
  <line id="" style="fill:none;stroke:black;opacity:1;stroke-width:0.5;" x1="263" x2="3036" y1="292" y2="292"/>
  <text style="stroke:none;fill:black;font-family:-apple-system,&quot;SF Pro Display&quot;,&quot;SF Pro Text&quot;,Helvetica,sans-serif;font-weight:bold;" transform="matrix(1 0 0 1 263 322)">Weight/Scale Variations</text>
  <text style="stroke:none;fill:black;font-family:-apple-system,&quot;SF Pro Display&quot;,&quot;SF Pro Text&quot;,Helvetica,sans-serif;text-anchor:middle;" transform="matrix(1 0 0 1 559.711 322)">Ultralight</text>
  <text style="stroke:none;fill:black;font-family:-apple-system,&quot;SF Pro Display&quot;,&quot;SF Pro Text&quot;,Helvetica,sans-serif;text-anchor:middle;" transform="matrix(1 0 0 1 856.422 322)">Thin</text>
  <text style="stroke:none;fill:black;font-family:-apple-system,&quot;SF Pro Display&quot;,&quot;SF Pro Text&quot;,Helvetica,sans-serif;text-anchor:middle;" transform="matrix(1 0 0 1 1153.13 322)">Light</text>
  <text style="stroke:none;fill:black;font-family:-apple-system,&quot;SF Pro Display&quot;,&quot;SF Pro Text&quot;,Helvetica,sans-serif;text-anchor:middle;" transform="matrix(1 0 0 1 1449.84 322)">Regular</text>
  <text style="stroke:none;fill:black;font-family:-apple-system,&quot;SF Pro Display&quot;,&quot;SF Pro Text&quot;,Helvetica,sans-serif;text-anchor:middle;" transform="matrix(1 0 0 1 1746.56 322)">Medium</text>
  <text style="stroke:none;fill:black;font-family:-apple-system,&quot;SF Pro Display&quot;,&quot;SF Pro Text&quot;,Helvetica,sans-serif;text-anchor:middle;" transform="matrix(1 0 0 1 2043.27 322)">Semibold</text>
  <text style="stroke:none;fill:black;font-family:-apple-system,&quot;SF Pro Display&quot;,&quot;SF Pro Text&quot;,Helvetica,sans-serif;text-anchor:middle;" transform="matrix(1 0 0 1 2339.98 322)">Bold</text>
  <text style="stroke:none;fill:black;font-family:-apple-system,&quot;SF Pro Display&quot;,&quot;SF Pro Text&quot;,Helvetica,sans-serif;text-anchor:middle;" transform="matrix(1 0 0 1 2636.69 322)">Heavy</text>
  <text style="stroke:none;fill:black;font-family:-apple-system,&quot;SF Pro Display&quot;,&quot;SF Pro Text&quot;,Helvetica,sans-serif;text-anchor:middle;" transform="matrix(1 0 0 1 2933.4 322)">Black</text>
  <line id="" style="fill:none;stroke:black;opacity:1;stroke-width:0.5;" x1="263" x2="3036" y1="1903" y2="1903"/>
  <g id="" transform="matrix(1 0 0 1 263 1933)">
   <path d="M 9.24805 0.830078 C 13.5547 0.830078 17.1387 -2.74414 17.1387 -7.05078 C 17.1387 -11.3574 13.5449 -14.9316 9.23828 -14.9316 C 4.94141 -14.9316 1.36719 -11.3574 1.36719 -7.05078 C 1.36719 -2.74414 4.95117 0.830078 9.24805 0.830078 Z M 9.24805 -0.654297 C 5.70312 -0.654297 2.87109 -3.49609 2.87109 -7.05078 C 2.87109 -10.6055 5.69336 -13.4473 9.23828 -13.4473 C 12.793 -13.4473 15.6348 -10.6055 15.6445 -7.05078 C 15.6543 -3.49609 12.8027 -0.654297 9.24805 -0.654297 Z M 9.22852 -3.42773 C 9.69727 -3.42773 9.9707 -3.74023 9.9707 -4.25781 L 9.9707 -6.31836 L 12.1973 -6.31836 C 12.6953 -6.31836 13.0371 -6.57227 13.0371 -7.04102 C 13.0371 -7.51953 12.7148 -7.7832 12.1973 -7.7832 L 9.9707 -7.7832 L 9.9707 -10.0098 C 9.9707 -10.5273 9.69727 -10.8496 9.22852 -10.8496 C 8.75977 -10.8496 8.50586 -10.5078 8.50586 -10.0098 L 8.50586 -7.7832 L 6.29883 -7.7832 C 5.78125 -7.7832 5.44922 -7.51953 5.44922 -7.04102 C 5.44922 -6.57227 5.80078 -6.31836 6.29883 -6.31836 L 8.50586 -6.31836 L 8.50586 -4.25781 C 8.50586 -3.75977 8.75977 -3.42773 9.22852 -3.42773 Z"/>
  </g>
  <g id="" transform="matrix(1 0 0 1 281.506 1933)">
   <path d="M 11.709 2.91016 C 17.1582 2.91016 21.6699 -1.60156 21.6699 -7.05078 C 21.6699 -12.4902 17.1484 -17.0117 11.6992 -17.0117 C 6.25977 -17.0117 1.74805 -12.4902 1.74805 -7.05078 C 1.74805 -1.60156 6.26953 2.91016 11.709 2.91016 Z M 11.709 1.25 C 7.09961 1.25 3.41797 -2.44141 3.41797 -7.05078 C 3.41797 -11.6504 7.08984 -15.3516 11.6992 -15.3516 C 16.3086 -15.3516 20 -11.6504 20.0098 -7.05078 C 20.0195 -2.44141 16.3184 1.25 11.709 1.25 Z M 11.6895 -2.41211 C 12.207 -2.41211 12.5195 -2.77344 12.5195 -3.33984 L 12.5195 -6.23047 L 15.5762 -6.23047 C 16.123 -6.23047 16.5039 -6.51367 16.5039 -7.03125 C 16.5039 -7.55859 16.1426 -7.86133 15.5762 -7.86133 L 12.5195 -7.86133 L 12.5195 -10.9277 C 12.5195 -11.5039 12.207 -11.8555 11.6895 -11.8555 C 11.1719 -11.8555 10.8789 -11.4844 10.8789 -10.9277 L 10.8789 -7.86133 L 7.83203 -7.86133 C 7.26562 -7.86133 6.89453 -7.55859 6.89453 -7.03125 C 6.89453 -6.51367 7.28516 -6.23047 7.83203 -6.23047 L 10.8789 -6.23047 L 10.8789 -3.33984 C 10.8789 -2.79297 11.1719 -2.41211 11.6895 -2.41211 Z"/>
  </g>
  <g id="" transform="matrix(1 0 0 1 304.924 1933)">
   <path d="M 14.9707 5.67383 C 21.9336 5.67383 27.6953 -0.078125 27.6953 -7.04102 C 27.6953 -14.0039 21.9238 -19.7559 14.9609 -19.7559 C 8.00781 -19.7559 2.25586 -14.0039 2.25586 -7.04102 C 2.25586 -0.078125 8.01758 5.67383 14.9707 5.67383 Z M 14.9707 3.85742 C 8.93555 3.85742 4.08203 -1.00586 4.08203 -7.04102 C 4.08203 -13.0762 8.92578 -17.9395 14.9609 -17.9395 C 21.0059 -17.9395 25.8594 -13.0762 25.8691 -7.04102 C 25.8789 -1.00586 21.0156 3.85742 14.9707 3.85742 Z M 14.9512 -1.06445 C 15.5176 -1.06445 15.8691 -1.45508 15.8691 -2.06055 L 15.8691 -6.13281 L 20.1074 -6.13281 C 20.6934 -6.13281 21.1133 -6.46484 21.1133 -7.02148 C 21.1133 -7.59766 20.7227 -7.93945 20.1074 -7.93945 L 15.8691 -7.93945 L 15.8691 -12.1875 C 15.8691 -12.8027 15.5176 -13.1934 14.9512 -13.1934 C 14.3848 -13.1934 14.0625 -12.7832 14.0625 -12.1875 L 14.0625 -7.93945 L 9.83398 -7.93945 C 9.21875 -7.93945 8.80859 -7.59766 8.80859 -7.02148 C 8.80859 -6.46484 9.23828 -6.13281 9.83398 -6.13281 L 14.0625 -6.13281 L 14.0625 -2.06055 C 14.0625 -1.47461 14.3848 -1.06445 14.9512 -1.06445 Z"/>
  </g>
  <text style="stroke:none;fill:black;font-family:-apple-system,&quot;SF Pro Display&quot;,&quot;SF Pro Text&quot;,Helvetica,sans-serif;font-weight:bold;" transform="matrix(1 0 0 1 263 1953)">Design Variations</text>
  <text style="stroke:none;fill:black;font-family:-apple-system,&quot;SF Pro Display&quot;,&quot;SF Pro Text&quot;,Helvetica,sans-serif;" transform="matrix(1 0 0 1 263 1971)">Symbols are supported in up to nine weights and three scales.</text>
  <text style="stroke:none;fill:black;font-family:-apple-system,&quot;SF Pro Display&quot;,&quot;SF Pro Text&quot;,Helvetica,sans-serif;" transform="matrix(1 0 0 1 263 1989)">For optimal layout with text and other symbols, vertically align</text>
  <text style="stroke:none;fill:black;font-family:-apple-system,&quot;SF Pro Display&quot;,&quot;SF Pro Text&quot;,Helvetica,sans-serif;" transform="matrix(1 0 0 1 263 2007)">symbols with the adjacent text.</text>
  <rect height="14" id="" style="fill:#00AEEF;stroke:none;opacity:0.4;" width="3" x="776" y="1919"/>
  <g id="" transform="matrix(1 0 0 1 779 1933)">
   <path d="M 10.5273 0 L 12.373 0 L 7.17773 -14.0918 L 5.43945 -14.0918 L 0.244141 0 L 2.08984 0 L 3.50586 -4.0332 L 9.11133 -4.0332 Z M 6.2793 -11.9531 L 6.33789 -11.9531 L 8.59375 -5.52734 L 4.02344 -5.52734 Z"/>
  </g>
  <rect height="14" id="" style="fill:#00AEEF;stroke:none;opacity:0.4;" width="3" x="791.617" y="1919"/>
  <text style="stroke:none;fill:black;font-family:-apple-system,&quot;SF Pro Display&quot;,&quot;SF Pro Text&quot;,Helvetica,sans-serif;font-weight:bold;" transform="matrix(1 0 0 1 776 1953)">Margins</text>
  <text style="stroke:none;fill:black;font-family:-apple-system,&quot;SF Pro Display&quot;,&quot;SF Pro Text&quot;,Helvetica,sans-serif;" transform="matrix(1 0 0 1 776 1971)">Leading and trailing margins on the left and right side of each symbol</text>
  <text style="stroke:none;fill:black;font-family:-apple-system,&quot;SF Pro Display&quot;,&quot;SF Pro Text&quot;,Helvetica,sans-serif;" transform="matrix(1 0 0 1 776 1989)">can be adjusted by modifying the width of the blue rectangles.</text>
  <text style="stroke:none;fill:black;font-family:-apple-system,&quot;SF Pro Display&quot;,&quot;SF Pro Text&quot;,Helvetica,sans-serif;" transform="matrix(1 0 0 1 776 2007)">Modifications are automatically applied proportionally to all</text>
  <text style="stroke:none;fill:black;font-family:-apple-system,&quot;SF Pro Display&quot;,&quot;SF Pro Text&quot;,Helvetica,sans-serif;" transform="matrix(1 0 0 1 776 2025)">scales and weights.</text>
  <g id="" transform="matrix(1 0 0 1 1289 1933)">
   <path d="M 2.83203 3.11523 L 4.375 4.6582 C 5.22461 5.48828 6.19141 5.41992 7.06055 4.46289 L 17.2754 -6.66016 C 17.7051 -6.36719 18.0957 -6.37695 18.5645 -6.47461 L 19.6094 -6.68945 L 20.3027 -5.99609 L 20.2539 -5.47852 C 20.1855 -4.95117 20.3516 -4.53125 20.8496 -4.0332 L 21.6602 -3.22266 C 22.168 -2.71484 22.8223 -2.68555 23.3008 -3.16406 L 26.5527 -6.41602 C 27.0312 -6.89453 27.0117 -7.54883 26.5039 -8.05664 L 25.6836 -8.87695 C 25.1855 -9.375 24.7754 -9.55078 24.2383 -9.47266 L 23.7109 -9.41406 L 23.0566 -10.0781 L 23.3398 -11.2207 C 23.4863 -11.7871 23.3398 -12.2559 22.7148 -12.8613 L 20.3027 -15.2539 C 16.7578 -18.7793 12.2266 -18.6719 9.11133 -15.5371 C 8.69141 -15.1074 8.64258 -14.5215 8.91602 -14.0918 C 9.15039 -13.7207 9.62891 -13.4961 10.2734 -13.6621 C 11.7871 -14.043 13.3008 -13.9258 14.7852 -12.9199 L 14.1602 -11.3379 C 13.9258 -10.752 13.9453 -10.2734 14.1797 -9.83398 L 3.01758 0.439453 C 2.08008 1.30859 1.97266 2.25586 2.83203 3.11523 Z M 10.6738 -15.1465 C 13.3398 -17.1387 16.6504 -16.8262 19.0527 -14.4141 L 21.6797 -11.8066 C 21.9141 -11.5723 21.9434 -11.3867 21.8848 -11.0938 L 21.5039 -9.53125 L 23.0762 -7.95898 L 24.043 -8.04688 C 24.3262 -8.07617 24.4141 -8.05664 24.6387 -7.83203 L 25.2637 -7.20703 L 22.5098 -4.46289 L 21.8848 -5.07812 C 21.6602 -5.30273 21.6406 -5.40039 21.6699 -5.68359 L 21.7578 -6.64062 L 20.1953 -8.20312 L 18.5742 -7.89062 C 18.291 -7.83203 18.1445 -7.83203 17.9102 -8.07617 L 15.7324 -10.2539 C 15.5078 -10.4883 15.4785 -10.625 15.6055 -10.9473 L 16.5527 -13.2227 C 14.9512 -14.7559 12.8418 -15.6055 10.8008 -14.9512 C 10.7129 -14.9219 10.6445 -14.9414 10.6152 -14.9805 C 10.5859 -15.0293 10.5859 -15.0781 10.6738 -15.1465 Z M 4.10156 2.41211 C 3.61328 1.91406 3.78906 1.61133 4.12109 1.30859 L 15.0781 -8.80859 L 16.3086 -7.57812 L 6.15234 3.34961 C 5.84961 3.68164 5.46875 3.7793 5.06836 3.37891 Z"/>
  </g>
  <text style="stroke:none;fill:black;font-family:-apple-system,&quot;SF Pro Display&quot;,&quot;SF Pro Text&quot;,Helvetica,sans-serif;font-weight:bold;" transform="matrix(1 0 0 1 1289 1953)">Exporting</text>
  <text style="stroke:none;fill:black;font-family:-apple-system,&quot;SF Pro Display&quot;,&quot;SF Pro Text&quot;,Helvetica,sans-serif;" transform="matrix(1 0 0 1 1289 1971)">Symbols should be outlined when exporting to ensure the</text>
  <text style="stroke:none;fill:black;font-family:-apple-system,&quot;SF Pro Display&quot;,&quot;SF Pro Text&quot;,Helvetica,sans-serif;" transform="matrix(1 0 0 1 1289 1989)">design is preserved when submitting to Xcode.</text>
  <text id="template-version" style="stroke:none;fill:black;font-family:-apple-system,&quot;SF Pro Display&quot;,&quot;SF Pro Text&quot;,Helvetica,sans-serif;text-anchor:end;" transform="matrix(1 0 0 1 3036 1933)">Template v.1.0</text>
  <text style="stroke:none;fill:black;font-family:-apple-system,&quot;SF Pro Display&quot;,&quot;SF Pro Text&quot;,Helvetica,sans-serif;text-anchor:end;" transform="matrix(1 0 0 1 3036 1951)">Generated from mic.fill</text>
  <text style="stroke:none;fill:black;font-family:-apple-system,&quot;SF Pro Display&quot;,&quot;SF Pro Text&quot;,Helvetica,sans-serif;text-anchor:end;" transform="matrix(1 0 0 1 3036 1969)">Typeset at 100 points</text>
  <text style="stroke:none;fill:black;font-family:-apple-system,&quot;SF Pro Display&quot;,&quot;SF Pro Text&quot;,Helvetica,sans-serif;" transform="matrix(1 0 0 1 263 726)">Small</text>
  <text style="stroke:none;fill:black;font-family:-apple-system,&quot;SF Pro Display&quot;,&quot;SF Pro Text&quot;,Helvetica,sans-serif;" transform="matrix(1 0 0 1 263 1156)">Medium</text>
  <text style="stroke:none;fill:black;font-family:-apple-system,&quot;SF Pro Display&quot;,&quot;SF Pro Text&quot;,Helvetica,sans-serif;" transform="matrix(1 0 0 1 263 1586)">Large</text>
 </g>
 <g id="Guides">
  <g id="H-reference" style="fill:#27AAE1;stroke:none;" transform="matrix(1 0 0 1 339 696)">
   <path d="M 54.9316 0 L 57.666 0 L 30.5664 -70.459 L 28.0762 -70.459 L 0.976562 0 L 3.66211 0 L 12.9395 -24.4629 L 45.7031 -24.4629 Z M 29.1992 -67.0898 L 29.4434 -67.0898 L 44.8242 -26.709 L 13.8184 -26.709 Z"/>
  </g>
  <line id="Baseline-S" style="fill:none;stroke:#27AAE1;opacity:1;stroke-width:0.577;" x1="263" x2="3036" y1="696" y2="696"/>
  <line id="Capline-S" style="fill:none;stroke:#27AAE1;opacity:1;stroke-width:0.577;" x1="263" x2="3036" y1="625.541" y2="625.541"/>
  <g id="H-reference" style="fill:#27AAE1;stroke:none;" transform="matrix(1 0 0 1 339 1126)">
   <path d="M 54.9316 0 L 57.666 0 L 30.5664 -70.459 L 28.0762 -70.459 L 0.976562 0 L 3.66211 0 L 12.9395 -24.4629 L 45.7031 -24.4629 Z M 29.1992 -67.0898 L 29.4434 -67.0898 L 44.8242 -26.709 L 13.8184 -26.709 Z"/>
  </g>
  <line id="Baseline-M" style="fill:none;stroke:#27AAE1;opacity:1;stroke-width:0.577;" x1="263" x2="3036" y1="1126" y2="1126"/>
  <line id="Capline-M" style="fill:none;stroke:#27AAE1;opacity:1;stroke-width:0.577;" x1="263" x2="3036" y1="1055.54" y2="1055.54"/>
  <g id="H-reference" style="fill:#27AAE1;stroke:none;" transform="matrix(1 0 0 1 339 1556)">
   <path d="M 54.9316 0 L 57.666 0 L 30.5664 -70.459 L 28.0762 -70.459 L 0.976562 0 L 3.66211 0 L 12.9395 -24.4629 L 45.7031 -24.4629 Z M 29.1992 -67.0898 L 29.4434 -67.0898 L 44.8242 -26.709 L 13.8184 -26.709 Z"/>
  </g>
  <line id="Baseline-L" style="fill:none;stroke:#27AAE1;opacity:1;stroke-width:0.577;" x1="263" x2="3036" y1="1556" y2="1556"/>
  <line id="Capline-L" style="fill:none;stroke:#27AAE1;opacity:1;stroke-width:0.577;" x1="263" x2="3036" y1="1485.54" y2="1485.54"/>
  <rect height="119.336" id="left-margin" style="fill:#00AEEF;stroke:none;opacity:0.4;" width="14.8438" x="1400.06" y="1030.79"/>
  <rect height="119.336" id="right-margin" style="fill:#00AEEF;stroke:none;opacity:0.4;" width="14.8438" x="1484.78" y="1030.79"/>
 </g>
 <g id="Symbols">
  <g id="Black-L" transform="matrix(1 0 0 1 2858.16 1556)">
   <path d="M 75.2441 -18.4082 C 88.7207 -18.4082 101.123 -28.6621 101.123 -44.4336 L 101.123 -86.5723 C 101.123 -102.295 88.7207 -112.646 75.2441 -112.646 C 61.7188 -112.646 49.2188 -102.344 49.2188 -86.6211 L 49.2188 -44.4336 C 49.2188 -28.6621 61.7188 -18.4082 75.2441 -18.4082 Z M 17.6758 -41.7969 C 17.6758 -11.5723 38.2324 7.86133 65.8691 11.4258 L 65.8691 18.0664 L 43.7988 18.0664 C 38.3301 18.0664 33.5449 22.5098 33.5449 27.9785 C 33.5449 33.3008 38.3301 37.8418 43.7988 37.8418 L 106.738 37.8418 C 112.207 37.8418 116.992 33.3008 116.992 27.9785 C 116.992 22.5098 112.207 18.0664 106.738 18.0664 L 84.6191 18.0664 L 84.6191 11.4258 C 112.256 7.86133 132.812 -11.5723 132.812 -41.7969 L 132.812 -53.3203 C 132.812 -58.7402 128.32 -62.9395 122.754 -62.9395 C 117.236 -62.9395 112.598 -58.7402 112.598 -53.3203 L 112.598 -42.3828 C 112.598 -20.8984 96.3867 -7.22656 75.2441 -7.22656 C 54.1016 -7.22656 37.9395 -20.8984 37.9395 -42.3828 L 37.9395 -53.3203 C 37.9395 -58.7402 33.252 -62.9395 27.7344 -62.9395 C 22.2168 -62.9395 17.6758 -58.7402 17.6758 -53.3203 Z"/>
  </g>
  <g id="Heavy-L" transform="matrix(1 0 0 1 2564.33 1556)">
   <path d="M 72.3633 -18.6523 C 85.5957 -18.6523 97.0215 -28.6621 97.0215 -43.7988 L 97.0215 -85.9375 C 97.0215 -101.074 85.5957 -111.182 72.3633 -111.182 C 59.082 -111.182 47.6074 -101.123 47.6074 -85.9863 L 47.6074 -43.7988 C 47.6074 -28.6621 59.082 -18.6523 72.3633 -18.6523 Z M 17.9688 -41.4551 C 17.9688 -12.6953 37.5 6.20117 64.2578 9.27734 L 64.2578 18.2129 L 41.6504 18.2129 C 36.9629 18.2129 32.8613 22.0215 32.8613 26.7578 C 32.8613 31.3965 36.9629 35.2539 41.6504 35.2539 L 103.076 35.2539 C 107.764 35.2539 111.865 31.3965 111.865 26.7578 C 111.865 22.0215 107.764 18.2129 103.076 18.2129 L 80.4688 18.2129 L 80.4688 9.27734 C 107.227 6.20117 126.758 -12.6953 126.758 -41.4551 L 126.758 -53.2227 C 126.758 -57.9102 122.852 -61.5234 118.066 -61.5234 C 113.33 -61.5234 109.326 -57.9102 109.326 -53.2227 L 109.326 -41.9922 C 109.326 -20.5566 93.6523 -6.68945 72.3633 -6.68945 C 51.0742 -6.68945 35.4004 -20.5566 35.4004 -41.9922 L 35.4004 -53.2227 C 35.4004 -57.9102 31.3965 -61.5234 26.6602 -61.5234 C 21.875 -61.5234 17.9688 -57.9102 17.9688 -53.2227 Z"/>
  </g>
  <g id="Bold-L" transform="matrix(1 0 0 1 2270.86 1556)">
   <path d="M 69.1406 -18.9453 C 82.0801 -18.9453 92.3828 -28.7109 92.3828 -43.1152 L 92.3828 -85.2539 C 92.3828 -99.707 82.0801 -109.521 69.1406 -109.521 C 56.1523 -109.521 45.8008 -99.707 45.8008 -85.3027 L 45.8008 -43.1152 C 45.8008 -28.7109 56.1523 -18.9453 69.1406 -18.9453 Z M 18.3594 -41.1133 C 18.3594 -13.916 36.6211 4.29688 62.4023 6.93359 L 62.4023 18.4082 L 39.3066 18.4082 C 35.4492 18.4082 32.1289 21.5332 32.1289 25.3906 C 32.1289 29.1992 35.4492 32.373 39.3066 32.373 L 98.9258 32.373 C 102.783 32.373 106.104 29.1992 106.104 25.3906 C 106.104 21.5332 102.783 18.4082 98.9258 18.4082 L 75.8301 18.4082 L 75.8301 6.93359 C 101.611 4.29688 119.922 -13.916 119.922 -41.1133 L 119.922 -53.125 C 119.922 -56.9824 116.748 -59.9609 112.842 -59.9609 C 108.936 -59.9609 105.713 -56.9824 105.713 -53.125 L 105.713 -41.5527 C 105.713 -20.166 90.5762 -6.15234 69.1406 -6.15234 C 47.7051 -6.15234 32.5195 -20.166 32.5195 -41.5527 L 32.5195 -53.125 C 32.5195 -56.9824 29.2969 -59.9609 25.3906 -59.9609 C 21.5332 -59.9609 18.3594 -56.9824 18.3594 -53.125 Z"/>
  </g>
  <g id="Semibold-L" transform="matrix(1 0 0 1 1976.37 1556)">
   <path d="M 66.8945 -19.1406 C 79.6387 -19.1406 89.209 -28.7109 89.209 -42.6758 L 89.209 -84.8145 C 89.209 -98.7305 79.6387 -108.35 66.8945 -108.35 C 54.1504 -108.35 44.5312 -98.7793 44.5312 -84.8145 L 44.5312 -42.6758 C 44.5312 -28.7109 54.1504 -19.1406 66.8945 -19.1406 Z M 18.5547 -40.8691 C 18.5547 -14.7949 36.0352 2.97852 61.1328 5.32227 L 61.1328 18.5059 L 37.6953 18.5059 C 34.4238 18.5059 31.6406 21.1426 31.6406 24.4629 C 31.6406 27.6855 34.4238 30.3711 37.6953 30.3711 L 96.0938 30.3711 C 99.3652 30.3711 102.148 27.6855 102.148 24.4629 C 102.148 21.1426 99.3652 18.5059 96.0938 18.5059 L 72.6562 18.5059 L 72.6562 5.32227 C 97.7539 2.97852 115.234 -14.7949 115.234 -40.8691 L 115.234 -53.0273 C 115.234 -56.2988 112.549 -58.8867 109.229 -58.8867 C 105.908 -58.8867 103.223 -56.2988 103.223 -53.0273 L 103.223 -41.2598 C 103.223 -19.9219 88.4277 -5.71289 66.8945 -5.71289 C 45.3613 -5.71289 30.5664 -19.9219 30.5664 -41.2598 L 30.5664 -53.0273 C 30.5664 -56.2988 27.8809 -58.8867 24.5605 -58.8867 C 21.2402 -58.8867 18.5547 -56.2988 18.5547 -53.0273 Z"/>
  </g>
  <g id="Medium-L" transform="matrix(1 0 0 1 1681.35 1556)">
   <path d="M 65.1855 -19.2871 C 77.7832 -19.2871 86.7676 -28.7109 86.7676 -42.2852 L 86.7676 -84.4238 C 86.7676 -98.0469 77.7832 -107.52 65.1855 -107.52 C 52.5879 -107.52 43.6035 -98.0469 43.6035 -84.4727 L 43.6035 -42.2852 C 43.6035 -28.7109 52.5879 -19.2871 65.1855 -19.2871 Z M 18.75 -40.6738 C 18.75 -15.4297 35.5957 2.00195 60.1562 4.10156 L 60.1562 18.6035 L 36.4746 18.6035 C 33.5938 18.6035 31.25 20.8984 31.25 23.7305 C 31.25 26.5625 33.5938 28.8574 36.4746 28.8574 L 93.9453 28.8574 C 96.7773 28.8574 99.1211 26.5625 99.1211 23.7305 C 99.1211 20.8984 96.7773 18.6035 93.9453 18.6035 L 70.2148 18.6035 L 70.2148 4.10156 C 94.8242 2.00195 111.67 -15.4297 111.67 -40.6738 L 111.67 -52.9785 C 111.67 -55.8105 109.326 -58.0566 106.494 -58.0566 C 103.613 -58.0566 101.318 -55.8105 101.318 -52.9785 L 101.318 -41.0156 C 101.318 -19.7266 86.8164 -5.41992 65.1855 -5.41992 C 43.5547 -5.41992 29.1016 -19.7266 29.1016 -41.0156 L 29.1016 -52.9785 C 29.1016 -55.8105 26.7578 -58.0566 23.9258 -58.0566 C 21.0449 -58.0566 18.75 -55.8105 18.75 -52.9785 Z"/>
  </g>
  <g id="Regular-L" transform="matrix(1 0 0 1 1386.86 1556)">
   <path d="M 62.9883 -19.4336 C 75.3906 -19.4336 83.5938 -28.7109 83.5938 -41.8457 L 83.5938 -83.9844 C 83.5938 -97.0703 75.3906 -106.396 62.9883 -106.396 C 50.6348 -106.396 42.3828 -97.0703 42.3828 -83.9844 L 42.3828 -41.8457 C 42.3828 -28.7109 50.6348 -19.4336 62.9883 -19.4336 Z M 18.9941 -40.4297 C 18.9941 -16.3086 35.0098 0.732422 58.9355 2.49023 L 58.9355 18.75 L 34.8633 18.75 C 32.5684 18.75 30.7617 20.5566 30.7617 22.8027 C 30.7617 25.0488 32.5684 26.9043 34.8633 26.9043 L 91.1621 26.9043 C 93.4082 26.9043 95.2148 25.0488 95.2148 22.8027 C 95.2148 20.5566 93.4082 18.75 91.1621 18.75 L 67.0898 18.75 L 67.0898 2.49023 C 90.9668 0.732422 106.982 -16.3086 106.982 -40.4297 L 106.982 -52.9297 C 106.982 -55.1758 105.176 -56.9824 102.93 -56.9824 C 100.635 -56.9824 98.8281 -55.1758 98.8281 -52.9297 L 98.8281 -40.7227 C 98.8281 -19.4336 84.7168 -5.0293 62.9883 -5.0293 C 41.2598 -5.0293 27.1484 -19.4336 27.1484 -40.7227 L 27.1484 -52.9297 C 27.1484 -55.1758 25.3418 -56.9824 23.0957 -56.9824 C 20.8008 -56.9824 18.9941 -55.1758 18.9941 -52.9297 Z"/>
  </g>
  <g id="Light-L" transform="matrix(1 0 0 1 1091.81 1556)">
   <path d="M 61.3281 -20.3613 C 73.4863 -20.3613 81.3965 -29.5898 81.3965 -42.1875 L 81.3965 -84.375 C 81.3965 -96.9727 73.4863 -106.201 61.3281 -106.201 C 49.1699 -106.201 41.2598 -96.9727 41.2598 -84.375 L 41.2598 -42.1875 C 41.2598 -29.5898 49.1699 -20.3613 61.3281 -20.3613 Z M 18.7988 -40.2344 C 18.7988 -16.9434 34.4727 -0.341797 58.2031 1.02539 L 58.2031 19.4824 L 33.2031 19.4824 C 31.4453 19.4824 30.0293 20.8496 30.0293 22.6074 C 30.0293 24.3652 31.4453 25.7812 33.2031 25.7812 L 89.502 25.7812 C 91.2109 25.7812 92.627 24.3652 92.627 22.6074 C 92.627 20.8496 91.2109 19.4824 89.502 19.4824 L 64.502 19.4824 L 64.502 1.02539 C 88.1836 -0.341797 103.857 -16.9434 103.857 -40.2344 L 103.857 -52.3438 C 103.857 -54.1016 102.441 -55.5176 100.684 -55.5176 C 98.9746 -55.5176 97.5586 -54.1016 97.5586 -52.3438 L 97.5586 -40.4297 C 97.5586 -19.3848 83.3496 -4.88281 61.3281 -4.88281 C 39.3066 -4.88281 25.0977 -19.3848 25.0977 -40.4297 L 25.0977 -52.3438 C 25.0977 -54.1016 23.7305 -55.5176 21.9727 -55.5176 C 20.2148 -55.5176 18.7988 -54.1016 18.7988 -52.3438 Z"/>
  </g>
  <g id="Thin-L" transform="matrix(1 0 0 1 797.291 1556)">
   <path d="M 59.1309 -21.582 C 70.9473 -21.582 78.4668 -30.7129 78.4668 -42.6758 L 78.4668 -84.8633 C 78.4668 -96.8262 70.9473 -105.957 59.1309 -105.957 C 47.3145 -105.957 39.7949 -96.8262 39.7949 -84.8633 L 39.7949 -42.6758 C 39.7949 -30.7129 47.3145 -21.582 59.1309 -21.582 Z M 18.5547 -39.9902 C 18.5547 -17.7734 33.7402 -1.70898 57.2266 -0.830078 L 57.2266 20.459 L 31.0059 20.459 C 29.9316 20.459 29.0527 21.2891 29.0527 22.3633 C 29.0527 23.4375 29.9316 24.3164 31.0059 24.3164 L 87.3047 24.3164 C 88.3301 24.3164 89.209 23.4375 89.209 22.3633 C 89.209 21.2891 88.3301 20.459 87.3047 20.459 L 61.084 20.459 L 61.084 -0.830078 C 84.5215 -1.70898 99.707 -17.7734 99.707 -39.9902 L 99.707 -51.6113 C 99.707 -52.6855 98.8281 -53.5645 97.7539 -53.5645 C 96.7285 -53.5645 95.8496 -52.6855 95.8496 -51.6113 L 95.8496 -40.0391 C 95.8496 -19.3359 81.4941 -4.58984 59.1309 -4.58984 C 36.8164 -4.58984 22.4609 -19.3359 22.4609 -40.0391 L 22.4609 -51.6113 C 22.4609 -52.6855 21.582 -53.5645 20.5078 -53.5645 C 19.4336 -53.5645 18.5547 -52.6855 18.5547 -51.6113 Z"/>
  </g>
  <g id="Ultralight-L" transform="matrix(1 0 0 1 501.703 1556)">
   <path d="M 58.0078 -22.2168 C 69.6777 -22.2168 76.9531 -31.2988 76.9531 -42.9688 L 76.9531 -85.1074 C 76.9531 -96.7773 69.6777 -105.811 58.0078 -105.811 C 46.3379 -105.811 39.0625 -96.7773 39.0625 -85.1074 L 39.0625 -42.9688 C 39.0625 -31.2988 46.3379 -22.2168 58.0078 -22.2168 Z M 18.457 -39.8926 C 18.457 -18.1641 33.3496 -2.39258 56.6895 -1.80664 L 56.6895 20.9473 L 29.8828 20.9473 C 29.1504 20.9473 28.5645 21.5332 28.5645 22.2656 C 28.5645 22.9492 29.1504 23.5352 29.8828 23.5352 L 86.1816 23.5352 C 86.8652 23.5352 87.4512 22.9492 87.4512 22.2656 C 87.4512 21.5332 86.8652 20.9473 86.1816 20.9473 L 59.3262 20.9473 L 59.3262 -1.80664 C 82.666 -2.39258 97.5586 -18.1641 97.5586 -39.8926 L 97.5586 -51.2695 C 97.5586 -51.9531 96.9727 -52.5391 96.2891 -52.5391 C 95.5566 -52.5391 94.9707 -51.9531 94.9707 -51.2695 L 94.9707 -39.8438 C 94.9707 -19.3359 80.5176 -4.49219 58.0078 -4.49219 C 35.498 -4.49219 21.0449 -19.3359 21.0449 -39.8438 L 21.0449 -51.2695 C 21.0449 -51.9531 20.459 -52.5391 19.7754 -52.5391 C 19.043 -52.5391 18.457 -51.9531 18.457 -51.2695 Z"/>
  </g>
  <g id="Black-M" transform="matrix(1 0 0 1 2872.07 1126)">
   <path d="M 61.3281 -22.3633 C 72.0215 -22.3633 82.7637 -30.5664 82.7637 -43.4082 L 82.7637 -76.0254 C 82.7637 -88.8184 72.0215 -97.1191 61.3281 -97.1191 C 50.5859 -97.1191 39.6973 -88.8672 39.6973 -76.123 L 39.6973 -43.4082 C 39.6973 -30.5664 50.5859 -22.3633 61.3281 -22.3633 Z M 13.1836 -40.625 C 13.1836 -15.7227 30.3711 -0.0976562 52.8809 2.97852 L 52.8809 6.25 L 35.8887 6.25 C 30.9082 6.25 26.4648 10.3027 26.4648 15.2832 C 26.4648 20.166 30.9082 24.3164 35.8887 24.3164 L 86.7676 24.3164 C 91.7969 24.3164 96.1914 20.166 96.1914 15.2832 C 96.1914 10.3027 91.7969 6.25 86.7676 6.25 L 69.7754 6.25 L 69.7754 2.97852 C 92.334 -0.0976562 109.473 -15.7227 109.473 -40.625 L 109.473 -49.0723 C 109.473 -54.0039 105.322 -57.7637 100.293 -57.7637 C 95.2148 -57.7637 90.918 -54.0039 90.918 -49.0723 L 90.918 -41.1621 C 90.918 -24.5605 77.6855 -14.1113 61.3281 -14.1113 C 45.0195 -14.1113 31.7383 -24.5605 31.7383 -41.1621 L 31.7383 -49.0723 C 31.7383 -54.0039 27.4414 -57.7637 22.4121 -57.7637 C 17.334 -57.7637 13.1836 -54.0039 13.1836 -49.0723 Z"/>
  </g>
  <g id="Heavy-M" transform="matrix(1 0 0 1 2578.07 1126)">
   <path d="M 58.5938 -22.4121 C 69.043 -22.4121 78.8086 -30.3711 78.8086 -42.627 L 78.8086 -75.293 C 78.8086 -87.5 69.043 -95.5566 58.5938 -95.5566 C 48.0957 -95.5566 38.2324 -87.5488 38.2324 -75.3418 L 38.2324 -42.627 C 38.2324 -30.3711 48.0957 -22.4121 58.5938 -22.4121 Z M 13.5742 -40.332 C 13.5742 -16.7969 29.6875 -1.66016 51.2695 1.07422 L 51.2695 6.25 L 34.0332 6.25 C 29.7363 6.25 25.9766 9.7168 25.9766 14.0137 C 25.9766 18.2129 29.7363 21.7773 34.0332 21.7773 L 83.2031 21.7773 C 87.5 21.7773 91.2598 18.2129 91.2598 14.0137 C 91.2598 9.7168 87.5 6.25 83.2031 6.25 L 65.918 6.25 L 65.918 1.07422 C 87.5488 -1.66016 103.662 -16.7969 103.662 -40.332 L 103.662 -49.1211 C 103.662 -53.3691 100.098 -56.6406 95.752 -56.6406 C 91.4062 -56.6406 87.7441 -53.3691 87.7441 -49.1211 L 87.7441 -40.8203 C 87.7441 -24.2188 75.0488 -13.623 58.5938 -13.623 C 42.1875 -13.623 29.4922 -24.2188 29.4922 -40.8203 L 29.4922 -49.1211 C 29.4922 -53.3691 25.8301 -56.6406 21.4844 -56.6406 C 17.1387 -56.6406 13.5742 -53.3691 13.5742 -49.1211 Z"/>
  </g>
  <g id="Bold-M" transform="matrix(1 0 0 1 2284.41 1126)">
   <path d="M 55.5664 -22.4121 C 65.7715 -22.4121 74.4141 -30.127 74.4141 -41.748 L 74.4141 -74.4141 C 74.4141 -86.0352 65.7715 -93.7988 55.5664 -93.7988 C 45.3125 -93.7988 36.6211 -86.0352 36.6211 -74.4629 L 36.6211 -41.748 C 36.6211 -30.127 45.3125 -22.4121 55.5664 -22.4121 Z M 14.0137 -39.9902 C 14.0137 -17.9688 28.9062 -3.41797 49.5117 -1.12305 L 49.5117 6.20117 L 31.9336 6.20117 C 28.418 6.20117 25.3906 9.0332 25.3906 12.5488 C 25.3906 16.0156 28.418 18.9453 31.9336 18.9453 L 79.1992 18.9453 C 82.7148 18.9453 85.7422 16.0156 85.7422 12.5488 C 85.7422 9.0332 82.7148 6.20117 79.1992 6.20117 L 61.6211 6.20117 L 61.6211 -1.12305 C 82.2266 -3.41797 97.1191 -17.9688 97.1191 -39.9902 L 97.1191 -49.1699 C 97.1191 -52.6367 94.1895 -55.3711 90.6738 -55.3711 C 87.1094 -55.3711 84.1309 -52.6367 84.1309 -49.1699 L 84.1309 -40.3809 C 84.1309 -23.7793 72.0703 -13.0371 55.5664 -13.0371 C 39.0625 -13.0371 27.002 -23.7793 27.002 -40.3809 L 27.002 -49.1699 C 27.002 -52.6367 24.0234 -55.3711 20.459 -55.3711 C 16.8945 -55.3711 14.0137 -52.6367 14.0137 -49.1699 Z"/>
  </g>
  <g id="Semibold-M" transform="matrix(1 0 0 1 1989.8 1126)">
   <path d="M 53.4668 -22.4609 C 63.4766 -22.4609 71.3867 -29.9805 71.3867 -41.1621 L 71.3867 -73.8281 C 71.3867 -85.0098 63.4766 -92.5781 53.4668 -92.5781 C 43.4082 -92.5781 35.4492 -85.0098 35.4492 -73.8281 L 35.4492 -41.1621 C 35.4492 -29.9805 43.4082 -22.4609 53.4668 -22.4609 Z M 14.3066 -39.7949 C 14.3066 -18.7988 28.3691 -4.63867 48.2422 -2.58789 L 48.2422 6.20117 L 30.4688 6.20117 C 27.4902 6.20117 25 8.59375 25 11.5723 C 25 14.502 27.4902 16.9434 30.4688 16.9434 L 76.416 16.9434 C 79.3945 16.9434 81.9336 14.502 81.9336 11.5723 C 81.9336 8.59375 79.3945 6.20117 76.416 6.20117 L 58.6426 6.20117 L 58.6426 -2.58789 C 78.5156 -4.63867 92.5781 -18.7988 92.5781 -39.7949 L 92.5781 -49.2188 C 92.5781 -52.1484 90.1855 -54.4922 87.1582 -54.4922 C 84.1309 -54.4922 81.6895 -52.1484 81.6895 -49.2188 L 81.6895 -40.1367 C 81.6895 -23.5352 70.0195 -12.6465 53.4668 -12.6465 C 36.8652 -12.6465 25.2441 -23.5352 25.2441 -40.1367 L 25.2441 -49.2188 C 25.2441 -52.1484 22.7539 -54.4922 19.7754 -54.4922 C 16.748 -54.4922 14.3066 -52.1484 14.3066 -49.2188 Z"/>
  </g>
  <g id="Medium-M" transform="matrix(1 0 0 1 1694.7 1126)">
   <path d="M 51.8555 -22.4609 C 61.7676 -22.4609 69.0918 -29.8828 69.0918 -40.7227 L 69.0918 -73.3887 C 69.0918 -84.2285 61.7676 -91.6504 51.8555 -91.6504 C 41.9434 -91.6504 34.6191 -84.2285 34.6191 -73.3887 L 34.6191 -40.7227 C 34.6191 -29.8828 41.9434 -22.4609 51.8555 -22.4609 Z M 14.5508 -39.5996 C 14.5508 -19.3848 27.9785 -5.56641 47.3145 -3.71094 L 47.3145 6.20117 L 29.3945 6.20117 C 26.8066 6.20117 24.6582 8.25195 24.6582 10.8398 C 24.6582 13.3789 26.8066 15.4785 29.3945 15.4785 L 74.3164 15.4785 C 76.9043 15.4785 79.0527 13.3789 79.0527 10.8398 C 79.0527 8.25195 76.9043 6.20117 74.3164 6.20117 L 56.3965 6.20117 L 56.3965 -3.71094 C 75.7324 -5.56641 89.1602 -19.3848 89.1602 -39.5996 L 89.1602 -49.2188 C 89.1602 -51.8066 87.1094 -53.8086 84.5215 -53.8086 C 81.9336 -53.8086 79.7852 -51.8066 79.7852 -49.2188 L 79.7852 -39.9414 C 79.7852 -23.291 68.5059 -12.3535 51.8555 -12.3535 C 35.2051 -12.3535 23.9258 -23.291 23.9258 -39.9414 L 23.9258 -49.2188 C 23.9258 -51.8066 21.8262 -53.8086 19.2383 -53.8086 C 16.6504 -53.8086 14.5508 -51.8066 14.5508 -49.2188 Z"/>
  </g>
  <g id="Regular-M" transform="matrix(1 0 0 1 1400.06 1126)">
   <path d="M 49.8047 -22.4609 C 59.5215 -22.4609 66.0645 -29.7363 66.0645 -40.1367 L 66.0645 -72.8027 C 66.0645 -83.252 59.5215 -90.4785 49.8047 -90.4785 C 40.0391 -90.4785 33.4961 -83.252 33.4961 -72.8027 L 33.4961 -40.1367 C 33.4961 -29.7363 40.0391 -22.4609 49.8047 -22.4609 Z M 14.8438 -39.3555 C 14.8438 -20.2148 27.4902 -6.78711 46.0938 -5.22461 L 46.0938 6.15234 L 27.9785 6.15234 C 25.9277 6.15234 24.2676 7.8125 24.2676 9.86328 C 24.2676 11.9141 25.9277 13.5254 27.9785 13.5254 L 71.582 13.5254 C 73.6328 13.5254 75.293 11.9141 75.293 9.86328 C 75.293 7.8125 73.6328 6.15234 71.582 6.15234 L 53.4668 6.15234 L 53.4668 -5.22461 C 72.1191 -6.78711 84.7168 -20.2148 84.7168 -39.3555 L 84.7168 -49.2676 C 84.7168 -51.3184 83.1055 -52.9297 81.0547 -52.9297 C 79.0039 -52.9297 77.3438 -51.3184 77.3438 -49.2676 L 77.3438 -39.6484 C 77.3438 -22.998 66.5039 -11.9629 49.8047 -11.9629 C 33.0566 -11.9629 22.2168 -22.998 22.2168 -39.6484 L 22.2168 -49.2676 C 22.2168 -51.3184 20.6055 -52.9297 18.5059 -52.9297 C 16.4551 -52.9297 14.8438 -51.3184 14.8438 -49.2676 Z"/>
  </g>
  <g id="Light-M" transform="matrix(1 0 0 1 1104.84 1126)">
   <path d="M 48.291 -23.291 C 57.8125 -23.291 64.1113 -30.4688 64.1113 -40.4785 L 64.1113 -73.1445 C 64.1113 -83.1543 57.8125 -90.2832 48.291 -90.2832 C 38.7695 -90.2832 32.4707 -83.1543 32.4707 -73.1445 L 32.4707 -40.4785 C 32.4707 -30.4688 38.7695 -23.291 48.291 -23.291 Z M 14.6973 -39.209 C 14.6973 -20.752 26.9531 -7.71484 45.459 -6.49414 L 45.459 6.83594 L 26.4648 6.83594 C 24.9023 6.83594 23.6328 8.10547 23.6328 9.66797 C 23.6328 11.2793 24.9023 12.5488 26.4648 12.5488 L 70.1172 12.5488 C 71.6797 12.5488 72.9492 11.2793 72.9492 9.66797 C 72.9492 8.10547 71.6797 6.83594 70.1172 6.83594 L 51.1719 6.83594 L 51.1719 -6.49414 C 69.6289 -7.71484 81.8848 -20.752 81.8848 -39.209 L 81.8848 -48.7305 C 81.8848 -50.3418 80.6152 -51.6113 79.0527 -51.6113 C 77.4414 -51.6113 76.1719 -50.3418 76.1719 -48.7305 L 76.1719 -39.4043 C 76.1719 -22.998 65.2344 -11.7676 48.291 -11.7676 C 31.3477 -11.7676 20.4102 -22.998 20.4102 -39.4043 L 20.4102 -48.7305 C 20.4102 -50.3418 19.1406 -51.6113 17.5293 -51.6113 C 15.9668 -51.6113 14.6973 -50.3418 14.6973 -48.7305 Z"/>
  </g>
  <g id="Thin-M" transform="matrix(1 0 0 1 810.109 1126)">
   <path d="M 46.3379 -24.4141 C 55.5664 -24.4141 61.4746 -31.4941 61.4746 -40.918 L 61.4746 -73.584 C 61.4746 -83.0078 55.5664 -90.0879 46.3379 -90.0879 C 37.1094 -90.0879 31.2012 -83.0078 31.2012 -73.584 L 31.2012 -40.918 C 31.2012 -31.4941 37.1094 -24.4141 46.3379 -24.4141 Z M 14.4531 -38.9648 C 14.4531 -21.5332 26.3184 -8.93555 44.5801 -8.1543 L 44.5801 7.71484 L 24.5117 7.71484 C 23.5352 7.71484 22.7539 8.49609 22.7539 9.47266 C 22.7539 10.4492 23.5352 11.2305 24.5117 11.2305 L 68.1152 11.2305 C 69.0918 11.2305 69.873 10.4492 69.873 9.47266 C 69.873 8.49609 69.0918 7.71484 68.1152 7.71484 L 48.0957 7.71484 L 48.0957 -8.1543 C 66.3086 -8.93555 78.1738 -21.5332 78.1738 -38.9648 L 78.1738 -48.0957 C 78.1738 -49.0723 77.3926 -49.8535 76.416 -49.8535 C 75.4395 -49.8535 74.6582 -49.0723 74.6582 -48.0957 L 74.6582 -39.0625 C 74.6582 -22.9492 63.5742 -11.5723 46.3379 -11.5723 C 29.0527 -11.5723 17.9688 -22.9492 17.9688 -39.0625 L 17.9688 -48.0957 C 17.9688 -49.0723 17.1875 -49.8535 16.2109 -49.8535 C 15.2344 -49.8535 14.4531 -49.0723 14.4531 -48.0957 Z"/>
  </g>
  <g id="Ultralight-M" transform="matrix(1 0 0 1 514.399 1126)">
   <path d="M 45.3125 -24.9512 C 54.3945 -24.9512 60.1074 -31.9824 60.1074 -41.1133 L 60.1074 -73.7793 C 60.1074 -82.9102 54.3945 -89.9902 45.3125 -89.9902 C 36.2305 -89.9902 30.5176 -82.9102 30.5176 -73.7793 L 30.5176 -41.1133 C 30.5176 -31.9824 36.2305 -24.9512 45.3125 -24.9512 Z M 14.3555 -38.8672 C 14.3555 -21.875 25.9766 -9.57031 44.0918 -9.0332 L 44.0918 8.1543 L 23.4863 8.1543 C 22.8516 8.1543 22.3145 8.69141 22.3145 9.375 C 22.3145 10.0098 22.8516 10.5469 23.4863 10.5469 L 67.1387 10.5469 C 67.7734 10.5469 68.3105 10.0098 68.3105 9.375 C 68.3105 8.69141 67.7734 8.1543 67.1387 8.1543 L 46.5332 8.1543 L 46.5332 -9.0332 C 64.6484 -9.57031 76.2695 -21.875 76.2695 -38.8672 L 76.2695 -47.7539 C 76.2695 -48.4375 75.7324 -48.9746 75.0488 -48.9746 C 74.4141 -48.9746 73.877 -48.4375 73.877 -47.7539 L 73.877 -38.8672 C 73.877 -22.9004 62.6953 -11.4258 45.3125 -11.4258 C 27.9297 -11.4258 16.748 -22.9004 16.748 -38.8672 L 16.748 -47.7539 C 16.748 -48.4375 16.2109 -48.9746 15.5273 -48.9746 C 14.8926 -48.9746 14.3555 -48.4375 14.3555 -47.7539 Z"/>
  </g>
  <g id="Black-S" transform="matrix(1 0 0 1 2885.55 696)">
   <path d="M 47.8516 -25.1465 C 56.2012 -25.1465 64.5508 -31.543 64.5508 -41.5527 L 64.5508 -67.1387 C 64.5508 -77.0996 56.2012 -83.5938 47.8516 -83.5938 C 39.4531 -83.5938 31.0059 -77.1484 31.0059 -67.1875 L 31.0059 -41.5527 C 31.0059 -31.543 39.4531 -25.1465 47.8516 -25.1465 Z M 10.3516 -39.4531 C 10.3516 -20.0195 23.7305 -7.8125 41.3086 -5.41992 L 41.3086 -2.73438 L 27.9785 -2.73438 C 24.1211 -2.73438 20.7031 0.390625 20.7031 4.24805 C 20.7031 8.00781 24.1211 11.2305 27.9785 11.2305 L 67.7246 11.2305 C 71.582 11.2305 75 8.00781 75 4.24805 C 75 0.390625 71.582 -2.73438 67.7246 -2.73438 L 54.3945 -2.73438 L 54.3945 -5.41992 C 71.9727 -7.8125 85.3516 -20.0195 85.3516 -39.4531 L 85.3516 -46.0938 C 85.3516 -49.9023 82.1289 -52.832 78.2227 -52.832 C 74.3164 -52.832 70.9961 -49.9023 70.9961 -46.0938 L 70.9961 -39.8438 C 70.9961 -26.8555 60.6445 -18.6523 47.8516 -18.6523 C 35.0586 -18.6523 24.707 -26.8555 24.707 -39.8438 L 24.707 -46.0938 C 24.707 -49.9023 21.3867 -52.832 17.4805 -52.832 C 13.5742 -52.832 10.3516 -49.9023 10.3516 -46.0938 Z"/>
  </g>
  <g id="Heavy-S" transform="matrix(1 0 0 1 2590.77 696)">
   <path d="M 45.9473 -25.0488 C 54.1504 -25.0488 61.7676 -31.2988 61.7676 -40.918 L 61.7676 -66.5039 C 61.7676 -76.123 54.1504 -82.4219 45.9473 -82.4219 C 37.6953 -82.4219 29.9805 -76.123 29.9805 -66.5527 L 29.9805 -40.918 C 29.9805 -31.2988 37.6953 -25.0488 45.9473 -25.0488 Z M 10.6445 -39.2578 C 10.6445 -20.752 23.2422 -8.93555 40.1367 -6.73828 L 40.1367 -2.83203 L 26.709 -2.83203 C 23.3398 -2.83203 20.3613 -0.0976562 20.3613 3.27148 C 20.3613 6.5918 23.3398 9.375 26.709 9.375 L 65.1367 9.375 C 68.5059 9.375 71.4844 6.5918 71.4844 3.27148 C 71.4844 -0.0976562 68.5059 -2.83203 65.1367 -2.83203 L 51.709 -2.83203 L 51.709 -6.73828 C 68.6035 -8.93555 81.2012 -20.752 81.2012 -39.2578 L 81.2012 -46.1914 C 81.2012 -49.5117 78.3691 -52.0996 74.9512 -52.0996 C 71.5332 -52.0996 68.6523 -49.5117 68.6523 -46.1914 L 68.6523 -39.5996 C 68.6523 -26.5625 58.7402 -18.2617 45.9473 -18.2617 C 33.1055 -18.2617 23.1934 -26.5625 23.1934 -39.5996 L 23.1934 -46.1914 C 23.1934 -49.5117 20.3125 -52.0996 16.8945 -52.0996 C 13.4766 -52.0996 10.6445 -49.5117 10.6445 -46.1914 Z"/>
  </g>
  <g id="Bold-S" transform="matrix(1 0 0 1 2296.2 696)">
   <path d="M 43.75 -25 C 51.8066 -25 58.6426 -31.0547 58.6426 -40.2344 L 58.6426 -65.8203 C 58.6426 -75 51.8066 -81.1035 43.75 -81.1035 C 35.6934 -81.1035 28.8574 -75 28.8574 -65.8691 L 28.8574 -40.2344 C 28.8574 -31.0547 35.6934 -25 43.75 -25 Z M 11.0352 -39.0137 C 11.0352 -21.582 22.7051 -10.1562 38.8672 -8.25195 L 38.8672 -2.92969 L 25.293 -2.92969 C 22.4609 -2.92969 20.0195 -0.634766 20.0195 2.19727 C 20.0195 5.0293 22.4609 7.32422 25.293 7.32422 L 62.2559 7.32422 C 65.0879 7.32422 67.5293 5.0293 67.5293 2.19727 C 67.5293 -0.634766 65.0879 -2.92969 62.2559 -2.92969 L 48.6816 -2.92969 L 48.6816 -8.25195 C 64.7949 -10.1562 76.5137 -21.582 76.5137 -39.0137 L 76.5137 -46.2891 C 76.5137 -49.0723 74.1699 -51.2695 71.3379 -51.2695 C 68.457 -51.2695 66.0645 -49.0723 66.0645 -46.2891 L 66.0645 -39.3555 C 66.0645 -26.2695 56.6406 -17.8711 43.75 -17.8711 C 30.9082 -17.8711 21.4844 -26.2695 21.4844 -39.3555 L 21.4844 -46.2891 C 21.4844 -49.0723 19.0918 -51.2695 16.2109 -51.2695 C 13.3301 -51.2695 11.0352 -49.0723 11.0352 -46.2891 Z"/>
  </g>
  <g id="Semibold-S" transform="matrix(1 0 0 1 2000.98 696)">
   <path d="M 42.2852 -24.9512 C 50.1953 -24.9512 56.4453 -30.8594 56.4453 -39.7461 L 56.4453 -65.332 C 56.4453 -74.2188 50.1953 -80.1758 42.2852 -80.1758 C 34.3262 -80.1758 28.0762 -74.2188 28.0762 -65.3809 L 28.0762 -39.7461 C 28.0762 -30.8594 34.3262 -24.9512 42.2852 -24.9512 Z M 11.2305 -38.8184 C 11.2305 -22.168 22.3633 -10.9863 37.9395 -9.27734 L 37.9395 -2.97852 L 24.3164 -2.97852 C 21.8262 -2.97852 19.7754 -1.02539 19.7754 1.46484 C 19.7754 3.90625 21.8262 5.9082 24.3164 5.9082 L 60.2539 5.9082 C 62.7441 5.9082 64.7949 3.90625 64.7949 1.46484 C 64.7949 -1.02539 62.7441 -2.97852 60.2539 -2.97852 L 46.6309 -2.97852 L 46.6309 -9.27734 C 62.207 -10.9863 73.3398 -22.168 73.3398 -38.8184 L 73.3398 -46.3379 C 73.3398 -48.7793 71.2891 -50.7324 68.7988 -50.7324 C 66.3086 -50.7324 64.2578 -48.7793 64.2578 -46.3379 L 64.2578 -39.1602 C 64.2578 -26.0742 55.2246 -17.5781 42.2852 -17.5781 C 29.3457 -17.5781 20.3125 -26.0742 20.3125 -39.1602 L 20.3125 -46.3379 C 20.3125 -48.7793 18.2617 -50.7324 15.7715 -50.7324 C 13.2812 -50.7324 11.2305 -48.7793 11.2305 -46.3379 Z"/>
  </g>
  <g id="Medium-S" transform="matrix(1 0 0 1 1705.39 696)">
   <path d="M 41.1621 -24.9023 C 48.9746 -24.9023 54.834 -30.7129 54.834 -39.4043 L 54.834 -64.9902 C 54.834 -73.6328 48.9746 -79.4922 41.1621 -79.4922 C 33.3008 -79.4922 27.4414 -73.6328 27.4414 -64.9902 L 27.4414 -39.4043 C 27.4414 -30.7129 33.3008 -24.9023 41.1621 -24.9023 Z M 11.4258 -38.7207 C 11.4258 -22.6074 22.0703 -11.6699 37.3047 -10.0586 L 37.3047 -3.02734 L 23.584 -3.02734 C 21.3867 -3.02734 19.5801 -1.26953 19.5801 0.927734 C 19.5801 3.07617 21.3867 4.83398 23.584 4.83398 L 58.7402 4.83398 C 60.9375 4.83398 62.7441 3.07617 62.7441 0.927734 C 62.7441 -1.26953 60.9375 -3.02734 58.7402 -3.02734 L 45.0195 -3.02734 L 45.0195 -10.0586 C 60.2051 -11.6699 70.8984 -22.6074 70.8984 -38.7207 L 70.8984 -46.3867 C 70.8984 -48.584 69.0918 -50.293 66.8945 -50.293 C 64.6973 -50.293 62.8906 -48.584 62.8906 -46.3867 L 62.8906 -39.0137 C 62.8906 -25.8789 54.1016 -17.334 41.1621 -17.334 C 28.2227 -17.334 19.4336 -25.8789 19.4336 -39.0137 L 19.4336 -46.3867 C 19.4336 -48.584 17.627 -50.293 15.4297 -50.293 C 13.1836 -50.293 11.4258 -48.584 11.4258 -46.3867 Z"/>
  </g>
  <g id="Regular-S" transform="matrix(1 0 0 1 1410.15 696)">
   <path d="M 39.6973 -24.8535 C 47.4121 -24.8535 52.6855 -30.5176 52.6855 -38.916 L 52.6855 -64.502 C 52.6855 -72.9004 47.4121 -78.5645 39.6973 -78.5645 C 31.9336 -78.5645 26.6602 -72.9004 26.6602 -64.502 L 26.6602 -38.916 C 26.6602 -30.5176 31.9336 -24.8535 39.6973 -24.8535 Z M 11.6699 -38.5254 C 11.6699 -23.1934 21.7285 -12.5 36.377 -11.084 L 36.377 -3.125 L 22.6074 -3.125 C 20.752 -3.125 19.2871 -1.66016 19.2871 0.146484 C 19.2871 2.00195 20.752 3.4668 22.6074 3.4668 L 56.7871 3.4668 C 58.5938 3.4668 60.0586 2.00195 60.0586 0.146484 C 60.0586 -1.66016 58.5938 -3.125 56.7871 -3.125 L 42.9688 -3.125 L 42.9688 -11.084 C 57.666 -12.5 67.7246 -23.1934 67.7246 -38.5254 L 67.7246 -46.4355 C 67.7246 -48.291 66.2598 -49.7559 64.4043 -49.7559 C 62.5977 -49.7559 61.1328 -48.291 61.1328 -46.4355 L 61.1328 -38.8184 C 61.1328 -25.6836 52.6855 -17.041 39.6973 -17.041 C 26.709 -17.041 18.2617 -25.6836 18.2617 -38.8184 L 18.2617 -46.4355 C 18.2617 -48.291 16.7969 -49.7559 14.9414 -49.7559 C 13.1348 -49.7559 11.6699 -48.291 11.6699 -46.4355 Z"/>
  </g>
  <g id="Light-S" transform="matrix(1 0 0 1 1114.75 696)">
   <path d="M 38.3789 -25.5859 C 45.8984 -25.5859 50.9277 -31.2012 50.9277 -39.209 L 50.9277 -64.7949 C 50.9277 -72.8027 45.8984 -78.418 38.3789 -78.418 C 30.8594 -78.418 25.8301 -72.8027 25.8301 -64.7949 L 25.8301 -39.209 C 25.8301 -31.2012 30.8594 -25.5859 38.3789 -25.5859 Z M 11.5234 -38.3789 C 11.5234 -23.6816 21.2891 -13.3301 35.8398 -12.207 L 35.8398 -2.53906 L 21.2891 -2.53906 C 19.873 -2.53906 18.75 -1.41602 18.75 0 C 18.75 1.46484 19.873 2.58789 21.2891 2.58789 L 55.4688 2.58789 C 56.8848 2.58789 58.0078 1.46484 58.0078 0 C 58.0078 -1.41602 56.8848 -2.53906 55.4688 -2.53906 L 40.918 -2.53906 L 40.918 -12.207 C 55.4688 -13.3301 65.2344 -23.6816 65.2344 -38.3789 L 65.2344 -45.9961 C 65.2344 -47.4609 64.1113 -48.584 62.6465 -48.584 C 61.2305 -48.584 60.1074 -47.4609 60.1074 -45.9961 L 60.1074 -38.5742 C 60.1074 -25.6348 51.5625 -16.8945 38.3789 -16.8945 C 25.1953 -16.8945 16.6504 -25.6348 16.6504 -38.5742 L 16.6504 -45.9961 C 16.6504 -47.4609 15.5273 -48.584 14.1113 -48.584 C 12.6465 -48.584 11.5234 -47.4609 11.5234 -45.9961 Z"/>
  </g>
  <g id="Thin-S" transform="matrix(1 0 0 1 819.777 696)">
   <path d="M 36.6699 -26.5137 C 43.9453 -26.5137 48.6328 -32.0801 48.6328 -39.5996 L 48.6328 -65.1855 C 48.6328 -72.7051 43.9453 -78.2715 36.6699 -78.2715 C 29.3457 -78.2715 24.6582 -72.7051 24.6582 -65.1855 L 24.6582 -39.5996 C 24.6582 -32.0801 29.3457 -26.5137 36.6699 -26.5137 Z M 11.377 -38.2324 C 11.377 -24.3164 20.752 -14.4043 35.0586 -13.7207 L 35.0586 -1.75781 L 19.5801 -1.75781 C 18.7012 -1.75781 17.9688 -1.07422 17.9688 -0.146484 C 17.9688 0.732422 18.7012 1.41602 19.5801 1.41602 L 53.7598 1.41602 C 54.6387 1.41602 55.3223 0.732422 55.3223 -0.146484 C 55.3223 -1.07422 54.6387 -1.75781 53.7598 -1.75781 L 38.2324 -1.75781 L 38.2324 -13.7207 C 52.5879 -14.4043 61.9629 -24.3164 61.9629 -38.2324 L 61.9629 -45.459 C 61.9629 -46.3379 61.2305 -47.0215 60.3516 -47.0215 C 59.4727 -47.0215 58.7891 -46.3379 58.7891 -45.459 L 58.7891 -38.2812 C 58.7891 -25.6348 50.0977 -16.748 36.6699 -16.748 C 23.1934 -16.748 14.5508 -25.6348 14.5508 -38.2812 L 14.5508 -45.459 C 14.5508 -46.3379 13.8184 -47.0215 12.9395 -47.0215 C 12.0605 -47.0215 11.377 -46.3379 11.377 -45.459 Z"/>
  </g>
  <g id="Ultralight-S" transform="matrix(1 0 0 1 523.945 696)">
   <path d="M 35.7422 -27.0508 C 42.9199 -27.0508 47.4609 -32.5684 47.4609 -39.7949 L 47.4609 -65.3809 C 47.4609 -72.6074 42.9199 -78.125 35.7422 -78.125 C 28.6133 -78.125 24.0723 -72.6074 24.0723 -65.3809 L 24.0723 -39.7949 C 24.0723 -32.5684 28.6133 -27.0508 35.7422 -27.0508 Z M 11.2793 -38.0859 C 11.2793 -24.6582 20.459 -14.9414 34.668 -14.4531 L 34.668 -1.36719 L 18.6523 -1.36719 C 18.0664 -1.36719 17.5781 -0.878906 17.5781 -0.292969 C 17.5781 0.341797 18.0664 0.830078 18.6523 0.830078 L 52.832 0.830078 C 53.4668 0.830078 53.9551 0.341797 53.9551 -0.292969 C 53.9551 -0.878906 53.4668 -1.36719 52.832 -1.36719 L 36.8652 -1.36719 L 36.8652 -14.4531 C 51.0742 -14.9414 60.2539 -24.6582 60.2539 -38.0859 L 60.2539 -45.1172 C 60.2539 -45.752 59.7656 -46.2402 59.1797 -46.2402 C 58.5449 -46.2402 58.0566 -45.752 58.0566 -45.1172 L 58.0566 -38.1348 C 58.0566 -25.5859 49.3652 -16.6016 35.7422 -16.6016 C 22.168 -16.6016 13.4277 -25.5859 13.4277 -38.1348 L 13.4277 -45.1172 C 13.4277 -45.752 12.9395 -46.2402 12.3535 -46.2402 C 11.7676 -46.2402 11.2793 -45.752 11.2793 -45.1172 Z"/>
  </g>
 </g>
</svg>
