<?xml version="1.0" encoding="UTF-8"?>
<!--Generator: Apple Native CoreSVG 123-->
<!DOCTYPE svg
PUBLIC "-//W3C//DTD SVG 1.1//EN"
       "http://www.w3.org/Graphics/SVG/1.1/DTD/svg11.dtd">
<svg version="1.1" xmlns="http://www.w3.org/2000/svg" xmlns:xlink="http://www.w3.org/1999/xlink" width="3300" height="2200">
 <!--glyph: "uni100250.medium", point size: 100.000000, font version: "Version 15.0d7e11", template writer version: "5"-->
 <g id="Notes">
  <rect height="2200" id="artboard" style="fill:white;opacity:1" width="3300" x="0" y="0"/>
  <line id="" style="fill:none;stroke:black;opacity:1;stroke-width:0.5;" x1="263" x2="3036" y1="292" y2="292"/>
  <text style="stroke:none;fill:black;font-family:-apple-system,&quot;SF Pro Display&quot;,&quot;SF Pro Text&quot;,Helvetica,sans-serif;font-weight:bold;" transform="matrix(1 0 0 1 263 322)">Weight/Scale Variations</text>
  <text style="stroke:none;fill:black;font-family:-apple-system,&quot;SF Pro Display&quot;,&quot;SF Pro Text&quot;,Helvetica,sans-serif;text-anchor:middle;" transform="matrix(1 0 0 1 559.711 322)">Ultralight</text>
  <text style="stroke:none;fill:black;font-family:-apple-system,&quot;SF Pro Display&quot;,&quot;SF Pro Text&quot;,Helvetica,sans-serif;text-anchor:middle;" transform="matrix(1 0 0 1 856.422 322)">Thin</text>
  <text style="stroke:none;fill:black;font-family:-apple-system,&quot;SF Pro Display&quot;,&quot;SF Pro Text&quot;,Helvetica,sans-serif;text-anchor:middle;" transform="matrix(1 0 0 1 1153.13 322)">Light</text>
  <text style="stroke:none;fill:black;font-family:-apple-system,&quot;SF Pro Display&quot;,&quot;SF Pro Text&quot;,Helvetica,sans-serif;text-anchor:middle;" transform="matrix(1 0 0 1 1449.84 322)">Regular</text>
  <text style="stroke:none;fill:black;font-family:-apple-system,&quot;SF Pro Display&quot;,&quot;SF Pro Text&quot;,Helvetica,sans-serif;text-anchor:middle;" transform="matrix(1 0 0 1 1746.56 322)">Medium</text>
  <text style="stroke:none;fill:black;font-family:-apple-system,&quot;SF Pro Display&quot;,&quot;SF Pro Text&quot;,Helvetica,sans-serif;text-anchor:middle;" transform="matrix(1 0 0 1 2043.27 322)">Semibold</text>
  <text style="stroke:none;fill:black;font-family:-apple-system,&quot;SF Pro Display&quot;,&quot;SF Pro Text&quot;,Helvetica,sans-serif;text-anchor:middle;" transform="matrix(1 0 0 1 2339.98 322)">Bold</text>
  <text style="stroke:none;fill:black;font-family:-apple-system,&quot;SF Pro Display&quot;,&quot;SF Pro Text&quot;,Helvetica,sans-serif;text-anchor:middle;" transform="matrix(1 0 0 1 2636.69 322)">Heavy</text>
  <text style="stroke:none;fill:black;font-family:-apple-system,&quot;SF Pro Display&quot;,&quot;SF Pro Text&quot;,Helvetica,sans-serif;text-anchor:middle;" transform="matrix(1 0 0 1 2933.4 322)">Black</text>
  <line id="" style="fill:none;stroke:black;opacity:1;stroke-width:0.5;" x1="263" x2="3036" y1="1903" y2="1903"/>
  <g id="" transform="matrix(1 0 0 1 263 1933)">
   <path d="M 9.24805 0.830078 C 13.5547 0.830078 17.1387 -2.74414 17.1387 -7.05078 C 17.1387 -11.3574 13.5449 -14.9316 9.23828 -14.9316 C 4.94141 -14.9316 1.36719 -11.3574 1.36719 -7.05078 C 1.36719 -2.74414 4.95117 0.830078 9.24805 0.830078 Z M 9.24805 -0.654297 C 5.70312 -0.654297 2.87109 -3.49609 2.87109 -7.05078 C 2.87109 -10.6055 5.69336 -13.4473 9.23828 -13.4473 C 12.793 -13.4473 15.6348 -10.6055 15.6445 -7.05078 C 15.6543 -3.49609 12.8027 -0.654297 9.24805 -0.654297 Z M 9.22852 -3.42773 C 9.69727 -3.42773 9.9707 -3.74023 9.9707 -4.25781 L 9.9707 -6.31836 L 12.1973 -6.31836 C 12.6953 -6.31836 13.0371 -6.57227 13.0371 -7.04102 C 13.0371 -7.51953 12.7148 -7.7832 12.1973 -7.7832 L 9.9707 -7.7832 L 9.9707 -10.0098 C 9.9707 -10.5273 9.69727 -10.8496 9.22852 -10.8496 C 8.75977 -10.8496 8.50586 -10.5078 8.50586 -10.0098 L 8.50586 -7.7832 L 6.29883 -7.7832 C 5.78125 -7.7832 5.44922 -7.51953 5.44922 -7.04102 C 5.44922 -6.57227 5.80078 -6.31836 6.29883 -6.31836 L 8.50586 -6.31836 L 8.50586 -4.25781 C 8.50586 -3.75977 8.75977 -3.42773 9.22852 -3.42773 Z"/>
  </g>
  <g id="" transform="matrix(1 0 0 1 281.506 1933)">
   <path d="M 11.709 2.91016 C 17.1582 2.91016 21.6699 -1.60156 21.6699 -7.05078 C 21.6699 -12.4902 17.1484 -17.0117 11.6992 -17.0117 C 6.25977 -17.0117 1.74805 -12.4902 1.74805 -7.05078 C 1.74805 -1.60156 6.26953 2.91016 11.709 2.91016 Z M 11.709 1.25 C 7.09961 1.25 3.41797 -2.44141 3.41797 -7.05078 C 3.41797 -11.6504 7.08984 -15.3516 11.6992 -15.3516 C 16.3086 -15.3516 20 -11.6504 20.0098 -7.05078 C 20.0195 -2.44141 16.3184 1.25 11.709 1.25 Z M 11.6895 -2.41211 C 12.207 -2.41211 12.5195 -2.77344 12.5195 -3.33984 L 12.5195 -6.23047 L 15.5762 -6.23047 C 16.123 -6.23047 16.5039 -6.51367 16.5039 -7.03125 C 16.5039 -7.55859 16.1426 -7.86133 15.5762 -7.86133 L 12.5195 -7.86133 L 12.5195 -10.9277 C 12.5195 -11.5039 12.207 -11.8555 11.6895 -11.8555 C 11.1719 -11.8555 10.8789 -11.4844 10.8789 -10.9277 L 10.8789 -7.86133 L 7.83203 -7.86133 C 7.26562 -7.86133 6.89453 -7.55859 6.89453 -7.03125 C 6.89453 -6.51367 7.28516 -6.23047 7.83203 -6.23047 L 10.8789 -6.23047 L 10.8789 -3.33984 C 10.8789 -2.79297 11.1719 -2.41211 11.6895 -2.41211 Z"/>
  </g>
  <g id="" transform="matrix(1 0 0 1 304.924 1933)">
   <path d="M 14.9707 5.67383 C 21.9336 5.67383 27.6953 -0.078125 27.6953 -7.04102 C 27.6953 -14.0039 21.9238 -19.7559 14.9609 -19.7559 C 8.00781 -19.7559 2.25586 -14.0039 2.25586 -7.04102 C 2.25586 -0.078125 8.01758 5.67383 14.9707 5.67383 Z M 14.9707 3.85742 C 8.93555 3.85742 4.08203 -1.00586 4.08203 -7.04102 C 4.08203 -13.0762 8.92578 -17.9395 14.9609 -17.9395 C 21.0059 -17.9395 25.8594 -13.0762 25.8691 -7.04102 C 25.8789 -1.00586 21.0156 3.85742 14.9707 3.85742 Z M 14.9512 -1.06445 C 15.5176 -1.06445 15.8691 -1.45508 15.8691 -2.06055 L 15.8691 -6.13281 L 20.1074 -6.13281 C 20.6934 -6.13281 21.1133 -6.46484 21.1133 -7.02148 C 21.1133 -7.59766 20.7227 -7.93945 20.1074 -7.93945 L 15.8691 -7.93945 L 15.8691 -12.1875 C 15.8691 -12.8027 15.5176 -13.1934 14.9512 -13.1934 C 14.3848 -13.1934 14.0625 -12.7832 14.0625 -12.1875 L 14.0625 -7.93945 L 9.83398 -7.93945 C 9.21875 -7.93945 8.80859 -7.59766 8.80859 -7.02148 C 8.80859 -6.46484 9.23828 -6.13281 9.83398 -6.13281 L 14.0625 -6.13281 L 14.0625 -2.06055 C 14.0625 -1.47461 14.3848 -1.06445 14.9512 -1.06445 Z"/>
  </g>
  <text style="stroke:none;fill:black;font-family:-apple-system,&quot;SF Pro Display&quot;,&quot;SF Pro Text&quot;,Helvetica,sans-serif;font-weight:bold;" transform="matrix(1 0 0 1 263 1953)">Design Variations</text>
  <text style="stroke:none;fill:black;font-family:-apple-system,&quot;SF Pro Display&quot;,&quot;SF Pro Text&quot;,Helvetica,sans-serif;" transform="matrix(1 0 0 1 263 1971)">Symbols are supported in up to nine weights and three scales.</text>
  <text style="stroke:none;fill:black;font-family:-apple-system,&quot;SF Pro Display&quot;,&quot;SF Pro Text&quot;,Helvetica,sans-serif;" transform="matrix(1 0 0 1 263 1989)">For optimal layout with text and other symbols, vertically align</text>
  <text style="stroke:none;fill:black;font-family:-apple-system,&quot;SF Pro Display&quot;,&quot;SF Pro Text&quot;,Helvetica,sans-serif;" transform="matrix(1 0 0 1 263 2007)">symbols with the adjacent text.</text>
  <rect height="14" id="" style="fill:#00AEEF;stroke:none;opacity:0.4;" width="3" x="776" y="1919"/>
  <g id="" transform="matrix(1 0 0 1 779 1933)">
   <path d="M 10.5273 0 L 12.373 0 L 7.17773 -14.0918 L 5.43945 -14.0918 L 0.244141 0 L 2.08984 0 L 3.50586 -4.0332 L 9.11133 -4.0332 Z M 6.2793 -11.9531 L 6.33789 -11.9531 L 8.59375 -5.52734 L 4.02344 -5.52734 Z"/>
  </g>
  <rect height="14" id="" style="fill:#00AEEF;stroke:none;opacity:0.4;" width="3" x="791.617" y="1919"/>
  <text style="stroke:none;fill:black;font-family:-apple-system,&quot;SF Pro Display&quot;,&quot;SF Pro Text&quot;,Helvetica,sans-serif;font-weight:bold;" transform="matrix(1 0 0 1 776 1953)">Margins</text>
  <text style="stroke:none;fill:black;font-family:-apple-system,&quot;SF Pro Display&quot;,&quot;SF Pro Text&quot;,Helvetica,sans-serif;" transform="matrix(1 0 0 1 776 1971)">Leading and trailing margins on the left and right side of each symbol</text>
  <text style="stroke:none;fill:black;font-family:-apple-system,&quot;SF Pro Display&quot;,&quot;SF Pro Text&quot;,Helvetica,sans-serif;" transform="matrix(1 0 0 1 776 1989)">can be adjusted by modifying the width of the blue rectangles.</text>
  <text style="stroke:none;fill:black;font-family:-apple-system,&quot;SF Pro Display&quot;,&quot;SF Pro Text&quot;,Helvetica,sans-serif;" transform="matrix(1 0 0 1 776 2007)">Modifications are automatically applied proportionally to all</text>
  <text style="stroke:none;fill:black;font-family:-apple-system,&quot;SF Pro Display&quot;,&quot;SF Pro Text&quot;,Helvetica,sans-serif;" transform="matrix(1 0 0 1 776 2025)">scales and weights.</text>
  <g id="" transform="matrix(1 0 0 1 1289 1933)">
   <path d="M 2.83203 3.11523 L 4.375 4.6582 C 5.22461 5.48828 6.19141 5.41992 7.06055 4.46289 L 17.2754 -6.66016 C 17.7051 -6.36719 18.0957 -6.37695 18.5645 -6.47461 L 19.6094 -6.68945 L 20.3027 -5.99609 L 20.2539 -5.47852 C 20.1855 -4.95117 20.3516 -4.53125 20.8496 -4.0332 L 21.6602 -3.22266 C 22.168 -2.71484 22.8223 -2.68555 23.3008 -3.16406 L 26.5527 -6.41602 C 27.0312 -6.89453 27.0117 -7.54883 26.5039 -8.05664 L 25.6836 -8.87695 C 25.1855 -9.375 24.7754 -9.55078 24.2383 -9.47266 L 23.7109 -9.41406 L 23.0566 -10.0781 L 23.3398 -11.2207 C 23.4863 -11.7871 23.3398 -12.2559 22.7148 -12.8613 L 20.3027 -15.2539 C 16.7578 -18.7793 12.2266 -18.6719 9.11133 -15.5371 C 8.69141 -15.1074 8.64258 -14.5215 8.91602 -14.0918 C 9.15039 -13.7207 9.62891 -13.4961 10.2734 -13.6621 C 11.7871 -14.043 13.3008 -13.9258 14.7852 -12.9199 L 14.1602 -11.3379 C 13.9258 -10.752 13.9453 -10.2734 14.1797 -9.83398 L 3.01758 0.439453 C 2.08008 1.30859 1.97266 2.25586 2.83203 3.11523 Z M 10.6738 -15.1465 C 13.3398 -17.1387 16.6504 -16.8262 19.0527 -14.4141 L 21.6797 -11.8066 C 21.9141 -11.5723 21.9434 -11.3867 21.8848 -11.0938 L 21.5039 -9.53125 L 23.0762 -7.95898 L 24.043 -8.04688 C 24.3262 -8.07617 24.4141 -8.05664 24.6387 -7.83203 L 25.2637 -7.20703 L 22.5098 -4.46289 L 21.8848 -5.07812 C 21.6602 -5.30273 21.6406 -5.40039 21.6699 -5.68359 L 21.7578 -6.64062 L 20.1953 -8.20312 L 18.5742 -7.89062 C 18.291 -7.83203 18.1445 -7.83203 17.9102 -8.07617 L 15.7324 -10.2539 C 15.5078 -10.4883 15.4785 -10.625 15.6055 -10.9473 L 16.5527 -13.2227 C 14.9512 -14.7559 12.8418 -15.6055 10.8008 -14.9512 C 10.7129 -14.9219 10.6445 -14.9414 10.6152 -14.9805 C 10.5859 -15.0293 10.5859 -15.0781 10.6738 -15.1465 Z M 4.10156 2.41211 C 3.61328 1.91406 3.78906 1.61133 4.12109 1.30859 L 15.0781 -8.80859 L 16.3086 -7.57812 L 6.15234 3.34961 C 5.84961 3.68164 5.46875 3.7793 5.06836 3.37891 Z"/>
  </g>
  <text style="stroke:none;fill:black;font-family:-apple-system,&quot;SF Pro Display&quot;,&quot;SF Pro Text&quot;,Helvetica,sans-serif;font-weight:bold;" transform="matrix(1 0 0 1 1289 1953)">Exporting</text>
  <text style="stroke:none;fill:black;font-family:-apple-system,&quot;SF Pro Display&quot;,&quot;SF Pro Text&quot;,Helvetica,sans-serif;" transform="matrix(1 0 0 1 1289 1971)">Symbols should be outlined when exporting to ensure the</text>
  <text style="stroke:none;fill:black;font-family:-apple-system,&quot;SF Pro Display&quot;,&quot;SF Pro Text&quot;,Helvetica,sans-serif;" transform="matrix(1 0 0 1 1289 1989)">design is preserved when submitting to Xcode.</text>
  <text id="template-version" style="stroke:none;fill:black;font-family:-apple-system,&quot;SF Pro Display&quot;,&quot;SF Pro Text&quot;,Helvetica,sans-serif;text-anchor:end;" transform="matrix(1 0 0 1 3036 1933)">Template v.1.0</text>
  <text style="stroke:none;fill:black;font-family:-apple-system,&quot;SF Pro Display&quot;,&quot;SF Pro Text&quot;,Helvetica,sans-serif;text-anchor:end;" transform="matrix(1 0 0 1 3036 1951)">Generated from arrowshape.turn.up.right</text>
  <text style="stroke:none;fill:black;font-family:-apple-system,&quot;SF Pro Display&quot;,&quot;SF Pro Text&quot;,Helvetica,sans-serif;text-anchor:end;" transform="matrix(1 0 0 1 3036 1969)">Typeset at 100 points</text>
  <text style="stroke:none;fill:black;font-family:-apple-system,&quot;SF Pro Display&quot;,&quot;SF Pro Text&quot;,Helvetica,sans-serif;" transform="matrix(1 0 0 1 263 726)">Small</text>
  <text style="stroke:none;fill:black;font-family:-apple-system,&quot;SF Pro Display&quot;,&quot;SF Pro Text&quot;,Helvetica,sans-serif;" transform="matrix(1 0 0 1 263 1156)">Medium</text>
  <text style="stroke:none;fill:black;font-family:-apple-system,&quot;SF Pro Display&quot;,&quot;SF Pro Text&quot;,Helvetica,sans-serif;" transform="matrix(1 0 0 1 263 1586)">Large</text>
 </g>
 <g id="Guides">
  <g id="H-reference" style="fill:#27AAE1;stroke:none;" transform="matrix(1 0 0 1 339 696)">
   <path d="M 54.9316 0 L 57.666 0 L 30.5664 -70.459 L 28.0762 -70.459 L 0.976562 0 L 3.66211 0 L 12.9395 -24.4629 L 45.7031 -24.4629 Z M 29.1992 -67.0898 L 29.4434 -67.0898 L 44.8242 -26.709 L 13.8184 -26.709 Z"/>
  </g>
  <line id="Baseline-S" style="fill:none;stroke:#27AAE1;opacity:1;stroke-width:0.577;" x1="263" x2="3036" y1="696" y2="696"/>
  <line id="Capline-S" style="fill:none;stroke:#27AAE1;opacity:1;stroke-width:0.577;" x1="263" x2="3036" y1="625.541" y2="625.541"/>
  <g id="H-reference" style="fill:#27AAE1;stroke:none;" transform="matrix(1 0 0 1 339 1126)">
   <path d="M 54.9316 0 L 57.666 0 L 30.5664 -70.459 L 28.0762 -70.459 L 0.976562 0 L 3.66211 0 L 12.9395 -24.4629 L 45.7031 -24.4629 Z M 29.1992 -67.0898 L 29.4434 -67.0898 L 44.8242 -26.709 L 13.8184 -26.709 Z"/>
  </g>
  <line id="Baseline-M" style="fill:none;stroke:#27AAE1;opacity:1;stroke-width:0.577;" x1="263" x2="3036" y1="1126" y2="1126"/>
  <line id="Capline-M" style="fill:none;stroke:#27AAE1;opacity:1;stroke-width:0.577;" x1="263" x2="3036" y1="1055.54" y2="1055.54"/>
  <g id="H-reference" style="fill:#27AAE1;stroke:none;" transform="matrix(1 0 0 1 339 1556)">
   <path d="M 54.9316 0 L 57.666 0 L 30.5664 -70.459 L 28.0762 -70.459 L 0.976562 0 L 3.66211 0 L 12.9395 -24.4629 L 45.7031 -24.4629 Z M 29.1992 -67.0898 L 29.4434 -67.0898 L 44.8242 -26.709 L 13.8184 -26.709 Z"/>
  </g>
  <line id="Baseline-L" style="fill:none;stroke:#27AAE1;opacity:1;stroke-width:0.577;" x1="263" x2="3036" y1="1556" y2="1556"/>
  <line id="Capline-L" style="fill:none;stroke:#27AAE1;opacity:1;stroke-width:0.577;" x1="263" x2="3036" y1="1485.54" y2="1485.54"/>
  <rect height="119.336" id="left-margin" style="fill:#00AEEF;stroke:none;opacity:0.4;" width="8.74023" x="1387.86" y="1030.79"/>
  <rect height="119.336" id="right-margin" style="fill:#00AEEF;stroke:none;opacity:0.4;" width="9.96094" x="1501.87" y="1030.79"/>
 </g>
 <g id="Symbols">
  <g id="Black-L" transform="matrix(1 0 0 1 2851.76 1556)">
   <path d="M 83.7402 26.416 C 88.2324 26.416 91.6504 24.6582 95.9961 20.7031 L 146.436 -25.9766 C 148.975 -28.418 150.439 -32.1289 150.439 -35.2051 C 150.439 -38.4277 149.072 -41.9434 146.484 -44.3848 L 95.9961 -90.918 C 91.2109 -95.166 88.0371 -96.7773 83.7891 -96.7773 C 76.8066 -96.7773 71.5332 -91.3574 71.5332 -84.4727 L 71.5332 -66.2109 L 70.8496 -66.2109 C 32.2754 -66.2109 11.2793 -40.9668 11.2793 1.95312 C 11.2793 17.5293 15.5762 25.2441 23.2422 25.2441 C 28.4668 25.2441 32.4219 23.0469 35.7422 16.6016 C 42.4316 4.73633 52.2949 -3.71094 70.8496 -3.71094 L 71.5332 -3.71094 L 71.5332 14.209 C 71.5332 21.1426 76.8066 26.416 83.7402 26.416 Z M 89.0625 1.36719 C 88.4277 1.36719 87.9395 0.878906 87.9395 0.146484 L 87.9395 -19.6777 C 87.9395 -21.0449 87.3535 -21.6797 85.9375 -21.6797 L 78.8086 -21.6797 C 52.9785 -21.6797 36.6699 -16.0645 28.8086 -1.02539 C 28.6133 -0.683594 28.4668 -0.537109 28.2715 -0.537109 C 28.0273 -0.537109 27.8809 -0.683594 27.8809 -1.02539 C 28.3203 -30.6641 45.4102 -48.7305 78.8086 -48.7305 L 85.9375 -48.7305 C 87.3535 -48.7305 87.9395 -49.3164 87.9395 -50.7324 L 87.9395 -70.6543 C 87.9395 -71.3867 88.4277 -71.8262 89.0625 -71.8262 C 89.3555 -71.8262 89.6973 -71.7285 89.9902 -71.4844 L 127.295 -36.1328 C 127.686 -35.7422 127.783 -35.5469 127.783 -35.2051 C 127.783 -34.9121 127.686 -34.6191 127.295 -34.2285 L 89.9902 0.927734 C 89.6973 1.2207 89.3555 1.36719 89.0625 1.36719 Z"/>
  </g>
  <g id="Heavy-L" transform="matrix(1 0 0 1 2555.63 1556)">
   <path d="M 83.9844 25.293 C 88.0859 25.293 91.2109 23.6328 95.166 20.0684 L 145.41 -26.6113 C 147.949 -29.0527 149.268 -32.4219 149.268 -35.2051 C 149.268 -38.1836 147.998 -41.3574 145.459 -43.8477 L 95.166 -90.332 C 90.8203 -94.1406 87.9395 -95.752 84.0332 -95.752 C 77.7832 -95.752 73.0469 -90.8691 73.0469 -84.668 L 73.0469 -64.9414 L 72.0703 -64.9414 C 32.2754 -64.9414 11.2793 -39.1602 11.2793 4.83398 C 11.2793 17.8711 15.1855 24.4141 21.7773 24.4141 C 26.3672 24.4141 29.9805 22.5586 33.0078 16.7969 C 40.5762 2.88086 51.8555 -5.12695 72.0703 -5.12695 L 73.0469 -5.12695 L 73.0469 14.4043 C 73.0469 20.6055 77.7832 25.293 83.9844 25.293 Z M 88.7207 3.4668 C 88.1348 3.4668 87.6953 2.97852 87.6953 2.29492 L 87.6953 -18.7988 C 87.6953 -20.2148 87.0605 -20.8008 85.6445 -20.8008 L 78.418 -20.8008 C 51.5625 -20.8008 34.5703 -14.1602 26.7578 1.36719 C 26.6113 1.75781 26.4648 1.9043 26.2207 1.9043 C 25.9277 1.9043 25.7812 1.75781 25.7812 1.36719 C 26.3672 -29.1992 42.9688 -49.6094 78.418 -49.6094 L 85.6445 -49.6094 C 87.0605 -49.6094 87.6953 -50.2441 87.6953 -51.6602 L 87.6953 -72.9492 C 87.6953 -73.6328 88.1348 -74.0723 88.7207 -74.0723 C 89.1113 -74.0723 89.4531 -73.9258 89.7461 -73.6328 L 129.053 -36.377 C 129.541 -35.8887 129.688 -35.5957 129.688 -35.2051 C 129.688 -34.9121 129.541 -34.5703 129.053 -34.082 L 89.7461 2.97852 C 89.4043 3.32031 89.0625 3.4668 88.7207 3.4668 Z"/>
  </g>
  <g id="Bold-L" transform="matrix(1 0 0 1 2259.58 1556)">
   <path d="M 84.2285 24.0234 C 87.8906 24.0234 90.6738 22.5098 94.2383 19.3359 L 144.287 -27.3438 C 146.826 -29.7852 147.9 -32.7637 147.9 -35.2539 C 147.9 -37.8906 146.875 -40.7227 144.287 -43.2129 L 94.2383 -89.6484 C 90.332 -93.0664 87.8418 -94.5801 84.3262 -94.5801 C 78.8086 -94.5801 74.8047 -90.2832 74.8047 -84.9121 L 74.8047 -63.4766 L 73.4375 -63.4766 C 32.2754 -63.4766 11.2793 -37.207 11.2793 8.00781 C 11.2793 18.2617 14.7949 23.4375 20.166 23.4375 C 24.0723 23.4375 27.2949 21.9727 29.9316 16.9434 C 38.4766 0.78125 51.3672 -6.73828 73.4375 -6.73828 L 74.8047 -6.73828 L 74.8047 14.5996 C 74.8047 19.9707 78.8086 24.0234 84.2285 24.0234 Z M 88.3789 5.81055 C 87.793 5.81055 87.3535 5.37109 87.3535 4.6875 L 87.3535 -17.8223 C 87.3535 -19.1895 86.7676 -19.8242 85.3516 -19.8242 L 78.0273 -19.8242 C 50 -19.8242 32.1777 -12.0117 24.5117 4.05273 C 24.3164 4.44336 24.1699 4.6875 23.877 4.6875 C 23.584 4.6875 23.3887 4.44336 23.3887 4.05273 C 24.1211 -27.5879 40.2832 -50.6348 78.0273 -50.6348 L 85.3516 -50.6348 C 86.7676 -50.6348 87.3535 -51.2207 87.3535 -52.6367 L 87.3535 -75.5371 C 87.3535 -76.1719 87.793 -76.5625 88.3789 -76.5625 C 88.7695 -76.5625 89.1113 -76.3672 89.4531 -76.0742 L 131.055 -36.6211 C 131.592 -36.084 131.787 -35.6934 131.787 -35.2539 C 131.787 -34.8633 131.641 -34.4727 131.055 -33.9355 L 89.4531 5.27344 C 89.0625 5.61523 88.7207 5.81055 88.3789 5.81055 Z"/>
  </g>
  <g id="Semibold-L" transform="matrix(1 0 0 1 1963.34 1556)">
   <path d="M 84.4238 23.1934 C 87.7441 23.1934 90.332 21.7285 93.6035 18.8477 L 143.506 -27.832 C 146.045 -30.2734 147.021 -32.959 147.021 -35.3027 C 147.021 -37.6953 146.045 -40.2832 143.506 -42.7734 L 93.6035 -89.209 C 89.9902 -92.2852 87.793 -93.75 84.4727 -93.75 C 79.541 -93.75 76.0254 -89.8926 76.0254 -85.0586 L 76.0254 -62.4512 L 74.4141 -62.4512 C 32.3242 -62.4512 11.2793 -35.791 11.2793 10.2539 C 11.2793 18.5059 14.5508 22.8027 19.0918 22.8027 C 22.4609 22.8027 25.4395 21.6309 27.7832 17.0898 C 37.0605 -0.683594 51.0254 -7.86133 74.4141 -7.86133 L 76.0254 -7.86133 L 76.0254 14.7461 C 76.0254 19.5312 79.541 23.1934 84.4238 23.1934 Z M 88.1348 7.42188 C 87.5488 7.42188 87.1582 6.98242 87.1582 6.34766 L 87.1582 -17.1387 C 87.1582 -18.5547 86.5234 -19.1406 85.1074 -19.1406 L 77.7344 -19.1406 C 48.877 -19.1406 30.5664 -10.5469 22.9492 5.85938 C 22.7539 6.29883 22.6074 6.5918 22.2656 6.5918 C 21.9727 6.5918 21.7773 6.34766 21.7773 5.9082 C 22.6074 -26.4648 38.4277 -51.3184 77.7344 -51.3184 L 85.1074 -51.3184 C 86.5234 -51.3184 87.1582 -51.9043 87.1582 -53.3203 L 87.1582 -77.2949 C 87.1582 -77.8809 87.5488 -78.3203 88.1348 -78.3203 C 88.5742 -78.3203 88.916 -78.0762 89.2578 -77.7832 L 132.422 -36.8164 C 133.057 -36.1816 133.252 -35.7422 133.252 -35.3027 C 133.252 -34.8633 133.057 -34.4238 132.422 -33.7891 L 89.2578 6.83594 C 88.8672 7.22656 88.4766 7.42188 88.1348 7.42188 Z"/>
  </g>
  <g id="Medium-L" transform="matrix(1 0 0 1 1666.97 1556)">
   <path d="M 84.5703 22.5098 C 87.6465 22.5098 90.0879 21.1426 93.1152 18.5059 L 142.871 -28.2227 C 145.41 -30.6641 146.338 -33.1543 146.338 -35.3027 C 146.338 -37.5488 145.459 -39.9414 142.92 -42.4805 L 93.1152 -88.8672 C 89.7461 -91.6992 87.6953 -93.1641 84.6191 -93.1641 C 80.127 -93.1641 76.9043 -89.5996 76.9043 -85.2051 L 76.9043 -61.6699 L 75.0977 -61.6699 C 32.3242 -61.6699 11.2793 -34.7656 11.2793 11.9141 C 11.2793 18.7012 14.3066 22.3145 18.2129 22.3145 C 21.2402 22.3145 24.0234 21.3379 26.1719 17.1387 C 35.9375 -1.75781 50.7812 -8.69141 75.0977 -8.69141 L 76.9043 -8.69141 L 76.9043 14.8438 C 76.9043 19.2383 80.127 22.5098 84.5703 22.5098 Z M 87.9395 8.64258 C 87.3535 8.64258 86.9629 8.20312 86.9629 7.61719 L 86.9629 -16.6016 C 86.9629 -18.0176 86.377 -18.6035 84.9609 -18.6035 L 77.4902 -18.6035 C 48.0469 -18.6035 29.2969 -9.42383 21.7773 7.27539 C 21.582 7.71484 21.3867 8.00781 21.0938 8.00781 C 20.7031 8.00781 20.5566 7.76367 20.5566 7.27539 C 21.4355 -25.5859 37.0605 -51.8555 77.4902 -51.8555 L 84.9609 -51.8555 C 86.377 -51.8555 86.9629 -52.4414 86.9629 -53.8574 L 86.9629 -78.6133 C 86.9629 -79.248 87.3535 -79.6387 87.9395 -79.6387 C 88.4277 -79.6387 88.7695 -79.3457 89.1113 -79.0527 L 133.447 -36.9141 C 134.131 -36.2793 134.375 -35.791 134.375 -35.3027 C 134.375 -34.8145 134.131 -34.375 133.447 -33.6914 L 89.1113 8.05664 C 88.6719 8.44727 88.2812 8.64258 87.9395 8.64258 Z"/>
  </g>
  <g id="Regular-L" transform="matrix(1 0 0 1 1370.69 1556)">
   <path d="M 84.7168 21.6797 C 87.5488 21.6797 89.7461 20.3613 92.4805 18.0176 L 142.09 -28.7109 C 144.629 -31.1523 145.41 -33.3496 145.41 -35.3516 C 145.41 -37.4023 144.678 -39.5508 142.09 -42.041 L 92.4805 -88.3789 C 89.4531 -90.9668 87.6465 -92.3828 84.8145 -92.3828 C 80.8105 -92.3828 78.125 -89.209 78.125 -85.3516 L 78.125 -60.6934 L 76.0742 -60.6934 C 32.3242 -60.6934 11.2793 -33.3984 11.2793 14.1113 C 11.2793 18.9453 14.0625 21.6797 17.1387 21.6797 C 19.6777 21.6797 22.168 20.9473 24.1211 17.2852 C 34.5215 -3.22266 50.4395 -9.81445 76.0742 -9.81445 L 78.125 -9.81445 L 78.125 14.9414 C 78.125 18.7988 80.8105 21.6797 84.7168 21.6797 Z M 87.6953 10.2539 C 87.1094 10.2539 86.7676 9.81445 86.7676 9.22852 L 86.7676 -15.9668 C 86.7676 -17.334 86.1816 -17.9688 84.7656 -17.9688 L 77.1973 -17.9688 C 46.9727 -17.9688 27.6855 -7.95898 20.2637 9.08203 C 20.0195 9.57031 19.8242 9.91211 19.4824 9.91211 C 19.1406 9.91211 18.9453 9.61914 18.9453 9.13086 C 19.9219 -24.4629 35.2051 -52.5391 77.1973 -52.5391 L 84.7656 -52.5391 C 86.1816 -52.5391 86.7676 -53.125 86.7676 -54.541 L 86.7676 -80.3711 C 86.7676 -80.957 87.1582 -81.3477 87.6953 -81.3477 C 88.1836 -81.3477 88.5742 -81.0547 88.9648 -80.7129 L 134.814 -37.1094 C 135.547 -36.377 135.791 -35.8887 135.791 -35.3516 C 135.791 -34.8145 135.596 -34.3262 134.814 -33.5938 L 88.916 9.61914 C 88.4766 10.0586 88.0859 10.2539 87.6953 10.2539 Z"/>
  </g>
  <g id="Light-L" transform="matrix(1 0 0 1 1075.13 1556)">
   <path d="M 83.6426 20.5078 C 86.084 20.5078 87.9883 19.3359 90.1367 17.4316 L 139.648 -28.9062 C 142.432 -31.5918 143.115 -33.5449 143.115 -35.4492 C 143.115 -37.3535 142.48 -39.3066 139.648 -41.9922 L 90.1367 -88.1348 C 87.793 -90.1367 86.1328 -91.4062 83.7402 -91.4062 C 80.2734 -91.4062 78.0762 -88.7207 78.0762 -85.4004 L 78.0762 -59.5215 L 75.6836 -59.5215 C 34.1797 -59.5215 11.2793 -34.668 11.2793 14.1602 C 11.2793 18.2129 13.623 20.5078 16.3086 20.5078 C 18.6035 20.5078 20.6055 19.7266 22.2168 16.5039 C 31.8848 -3.80859 48.4375 -10.9863 75.6836 -10.9863 L 78.0762 -10.9863 L 78.0762 14.6973 C 78.0762 18.0176 80.2734 20.5078 83.6426 20.5078 Z M 85.6934 12.0117 C 85.0586 12.0117 84.668 11.5723 84.668 10.8887 L 84.668 -15.4297 C 84.668 -16.748 84.1797 -17.2852 82.8125 -17.2852 L 76.5625 -17.2852 C 45.8496 -17.2852 26.6602 -7.71484 18.8477 10.8887 C 18.5547 11.4746 18.3594 11.9629 17.8711 11.9629 C 17.3828 11.9629 17.1875 11.6211 17.1875 11.0352 C 17.7734 -27.832 36.2305 -53.2227 76.5625 -53.2227 L 82.8125 -53.2227 C 84.1797 -53.2227 84.668 -53.7598 84.668 -55.0781 L 84.668 -82.0801 C 84.668 -82.7148 85.1074 -83.1543 85.7422 -83.1543 C 86.3281 -83.1543 86.7188 -82.7637 87.1582 -82.373 L 134.375 -37.9395 C 135.449 -36.9141 135.84 -36.1816 135.84 -35.4492 C 135.84 -34.668 135.498 -33.9844 134.375 -32.9102 L 87.1094 11.2793 C 86.5234 11.8164 86.1328 12.0117 85.6934 12.0117 Z"/>
  </g>
  <g id="Thin-L" transform="matrix(1 0 0 1 779.933 1556)">
   <path d="M 82.2266 18.9941 C 84.1309 18.9941 85.6934 18.0176 87.1094 16.6992 L 136.426 -29.1504 C 139.551 -32.1289 140.088 -33.8379 140.088 -35.5469 C 140.088 -37.3047 139.648 -38.9648 136.426 -41.9434 L 87.1094 -87.793 C 85.6445 -89.1113 84.1797 -90.1367 82.2754 -90.1367 C 79.4922 -90.1367 78.0273 -88.0371 78.0273 -85.4492 L 78.0273 -58.0078 L 75.2441 -58.0078 C 36.5723 -58.0078 11.2793 -36.2793 11.2793 14.2578 C 11.2793 17.1875 13.0371 18.9941 15.2344 18.9941 C 17.2363 18.9941 18.5547 18.0664 19.7266 15.4297 C 28.3691 -4.58984 45.8008 -12.5 75.2441 -12.5 L 78.0273 -12.5 L 78.0273 14.3555 C 78.0273 16.9434 79.4922 18.9941 82.2266 18.9941 Z M 83.0566 14.3555 C 82.3242 14.3555 81.9336 13.8184 81.9336 13.0371 L 81.9336 -14.6973 C 81.9336 -15.918 81.543 -16.3574 80.2734 -16.3574 L 75.6836 -16.3574 C 44.2871 -16.3574 25.293 -7.37305 16.9922 13.2324 C 16.6504 14.0137 16.3574 14.6973 15.7715 14.6973 C 15.0879 14.6973 14.8438 14.209 14.8438 13.5742 C 14.9902 -32.2266 37.5488 -54.1504 75.6836 -54.1504 L 80.2734 -54.1504 C 81.543 -54.1504 81.9336 -54.5898 81.9336 -55.8105 L 81.9336 -84.375 C 81.9336 -85.0586 82.4219 -85.5469 83.1055 -85.5469 C 83.8379 -85.5469 84.2773 -85.1074 84.8145 -84.6191 L 133.789 -39.0625 C 135.352 -37.5977 135.889 -36.6211 135.889 -35.5469 C 135.889 -34.5215 135.449 -33.5449 133.789 -32.0312 L 84.7656 13.4277 C 83.9844 14.1602 83.4961 14.3555 83.0566 14.3555 Z"/>
  </g>
  <g id="Ultralight-L" transform="matrix(1 0 0 1 484.003 1556)">
   <path d="M 81.4941 18.2129 C 83.1543 18.2129 84.5215 17.334 85.5469 16.3574 L 134.814 -29.2969 C 138.086 -32.4219 138.525 -33.9844 138.525 -35.6445 C 138.525 -37.2559 138.184 -38.8184 134.814 -41.9434 L 85.5469 -87.5977 C 84.5703 -88.5742 83.1543 -89.502 81.4941 -89.502 C 79.1016 -89.502 77.9785 -87.6953 77.9785 -85.4492 L 77.9785 -57.2754 L 75 -57.2754 C 37.8418 -57.2754 11.2793 -37.1094 11.2793 14.3066 C 11.2793 16.6992 12.7441 18.2129 14.6973 18.2129 C 16.5527 18.2129 17.5293 17.2363 18.457 14.8926 C 26.5625 -4.98047 44.4824 -13.2812 75 -13.2812 L 77.9785 -13.2812 L 77.9785 14.1602 C 77.9785 16.4062 79.1016 18.2129 81.4941 18.2129 Z M 81.6895 15.5762 C 80.957 15.5762 80.5664 14.9902 80.5664 14.1602 L 80.5664 -14.3555 C 80.5664 -15.5273 80.1758 -15.918 79.0039 -15.918 L 75.1953 -15.918 C 43.5547 -15.918 24.6094 -7.17773 16.0156 14.4531 C 15.6738 15.2832 15.332 16.0645 14.6973 16.0645 C 13.916 16.0645 13.6719 15.5762 13.6719 14.8926 C 13.5254 -34.5215 38.1836 -54.6387 75.1953 -54.6387 L 79.0039 -54.6387 C 80.1758 -54.6387 80.5664 -55.0293 80.5664 -56.2012 L 80.5664 -85.5469 C 80.5664 -86.2793 81.0547 -86.7676 81.7871 -86.7676 C 82.5195 -86.7676 83.0566 -86.2793 83.6426 -85.7422 L 133.496 -39.6484 C 135.303 -37.9395 135.938 -36.8164 135.938 -35.6445 C 135.938 -34.4238 135.4 -33.3008 133.496 -31.5918 L 83.5449 14.5508 C 82.666 15.332 82.1777 15.5762 81.6895 15.5762 Z"/>
  </g>
  <g id="Black-M" transform="matrix(1 0 0 1 2869.95 1126)">
   <path d="M 64.0137 13.4277 C 67.8223 13.4277 70.7031 11.9629 74.2676 8.64258 L 113.574 -27.2949 C 115.674 -29.2969 116.943 -32.5684 116.943 -35.2051 C 116.943 -38.0371 115.771 -41.0645 113.623 -43.0664 L 74.2676 -79.0527 C 70.4102 -82.5684 67.5781 -83.8379 64.0137 -83.8379 C 57.959 -83.8379 53.3203 -79.1504 53.3203 -73.1445 L 53.3203 -60.4004 L 53.0762 -60.4004 C 25.9277 -60.4004 8.74023 -42.7246 8.74023 -10.2539 C 8.74023 4.78516 12.3047 12.1582 19.4824 12.1582 C 24.3164 12.1582 27.5391 9.91211 30.3711 4.3457 C 33.9844 -2.05078 40.0391 -9.47266 53.0762 -9.47266 L 53.3203 -9.47266 L 53.3203 2.73438 C 53.3203 8.78906 57.959 13.4277 64.0137 13.4277 Z M 68.3594 -8.74023 C 67.8711 -8.74023 67.4316 -9.17969 67.4316 -9.81445 L 67.4316 -24.0723 C 67.4316 -25.0977 66.9922 -25.5371 65.9668 -25.5371 L 61.2305 -25.5371 C 42.3828 -25.5371 30.7129 -22.8027 24.2676 -10.9375 C 24.1699 -10.6934 24.0234 -10.5957 23.8281 -10.5957 C 23.6328 -10.5957 23.5352 -10.6934 23.5352 -10.9375 C 23.4863 -35.4492 38.9648 -44.873 61.2305 -44.873 L 65.9668 -44.873 C 66.9922 -44.873 67.4316 -45.2637 67.4316 -46.3379 L 67.4316 -60.498 C 67.4316 -61.1328 67.8711 -61.5234 68.3594 -61.5234 C 68.6523 -61.5234 68.8965 -61.4746 69.1406 -61.2793 L 95.9961 -36.084 C 96.3867 -35.6934 96.5332 -35.498 96.5332 -35.2051 C 96.5332 -34.9609 96.3867 -34.7168 95.9961 -34.3262 L 69.1406 -9.13086 C 68.8965 -8.88672 68.6523 -8.74023 68.3594 -8.74023 Z"/>
  </g>
  <g id="Heavy-M" transform="matrix(1 0 0 1 2573.58 1126)">
   <path d="M 64.5508 12.5 C 68.0176 12.5 70.6543 11.1328 73.9746 8.10547 L 113.086 -27.9297 C 115.137 -29.8828 116.26 -32.8125 116.26 -35.2051 C 116.26 -37.7441 115.186 -40.4785 113.135 -42.4316 L 73.9746 -78.4668 C 70.3613 -81.6895 67.8711 -82.9102 64.5508 -82.9102 C 59.1309 -82.9102 55.0293 -78.7598 55.0293 -73.3398 L 55.0293 -59.2773 L 54.4922 -59.2773 C 25.4883 -59.2773 8.74023 -40.4785 8.74023 -7.12891 C 8.74023 5.37109 12.0117 11.5234 18.1641 11.5234 C 22.3145 11.5234 25.3418 9.7168 27.8809 4.6875 C 32.666 -3.95508 40.0879 -10.7422 54.4922 -10.7422 L 55.0293 -10.7422 L 55.0293 2.97852 C 55.0293 8.34961 59.1309 12.5 64.5508 12.5 Z M 68.5547 -6.93359 C 68.0664 -6.93359 67.6758 -7.32422 67.6758 -7.91016 L 67.6758 -23.2422 C 67.6758 -24.3164 67.2363 -24.7559 66.1621 -24.7559 L 60.9863 -24.7559 C 41.1133 -24.7559 28.6621 -20.8008 22.4609 -8.83789 C 22.3145 -8.54492 22.168 -8.39844 21.9727 -8.39844 C 21.7773 -8.39844 21.6797 -8.54492 21.6797 -8.83789 C 21.875 -32.959 36.084 -45.6543 60.9863 -45.6543 L 66.1621 -45.6543 C 67.2363 -45.6543 67.6758 -46.0938 67.6758 -47.168 L 67.6758 -62.5488 C 67.6758 -63.1348 68.0664 -63.5254 68.5547 -63.5254 C 68.7988 -63.5254 69.0918 -63.4277 69.3359 -63.2324 L 98.0469 -36.1328 C 98.4375 -35.7422 98.584 -35.5469 98.584 -35.2051 C 98.584 -34.9609 98.4375 -34.7168 98.0469 -34.3262 L 69.3359 -7.27539 C 69.043 -7.03125 68.7988 -6.93359 68.5547 -6.93359 Z"/>
  </g>
  <g id="Bold-M" transform="matrix(1 0 0 1 2277.26 1126)">
   <path d="M 65.1367 11.4746 C 68.2617 11.4746 70.6055 10.2051 73.6328 7.51953 L 112.549 -28.6621 C 114.502 -30.5664 115.479 -33.1055 115.479 -35.2539 C 115.479 -37.4512 114.551 -39.8926 112.549 -41.7969 L 73.6328 -77.832 C 70.3125 -80.7129 68.1641 -81.9336 65.1855 -81.9336 C 60.4492 -81.9336 56.9336 -78.2715 56.9336 -73.584 L 56.9336 -58.0078 L 56.1035 -58.0078 C 25 -58.0078 8.74023 -37.9395 8.74023 -3.66211 C 8.74023 6.00586 11.7188 10.8398 16.6016 10.8398 C 20.0684 10.8398 22.8027 9.47266 25.0488 5.12695 C 31.1523 -6.05469 40.1367 -12.1582 56.1035 -12.1582 L 56.9336 -12.1582 L 56.9336 3.27148 C 56.9336 7.91016 60.4492 11.4746 65.1367 11.4746 Z M 68.75 -4.88281 C 68.2617 -4.88281 67.9199 -5.22461 67.9199 -5.76172 L 67.9199 -22.3145 C 67.9199 -23.4375 67.4316 -23.877 66.3574 -23.877 L 60.6934 -23.877 C 39.6973 -23.877 26.3672 -18.5547 20.3613 -6.44531 C 20.2637 -6.15234 20.1172 -6.00586 19.9219 -6.00586 C 19.7266 -6.00586 19.5801 -6.15234 19.5801 -6.44531 C 20.0684 -30.2246 32.8125 -46.5332 60.6934 -46.5332 L 66.3574 -46.5332 C 67.4316 -46.5332 67.9199 -47.0215 67.9199 -48.0957 L 67.9199 -64.8926 C 67.9199 -65.3809 68.2617 -65.7227 68.75 -65.7227 C 69.043 -65.7227 69.2871 -65.625 69.5312 -65.3809 L 100.342 -36.1328 C 100.732 -35.7422 100.879 -35.5469 100.879 -35.2539 C 100.879 -34.9609 100.732 -34.7168 100.342 -34.3262 L 69.5312 -5.27344 C 69.2383 -4.98047 68.9941 -4.88281 68.75 -4.88281 Z"/>
  </g>
  <g id="Semibold-M" transform="matrix(1 0 0 1 1980.82 1126)">
   <path d="M 65.5273 10.7422 C 68.4082 10.7422 70.6055 9.57031 73.3887 7.08008 L 112.158 -29.1504 C 114.062 -31.0059 114.941 -33.3008 114.941 -35.2539 C 114.941 -37.2559 114.111 -39.4531 112.207 -41.3086 L 73.3887 -77.3926 C 70.2637 -80.0293 68.4082 -81.25 65.625 -81.25 C 61.377 -81.25 58.252 -77.9297 58.252 -73.7793 L 58.252 -57.1289 L 57.2266 -57.1289 C 24.6582 -57.1289 8.74023 -36.1816 8.74023 -1.2207 C 8.74023 6.44531 11.5234 10.3516 15.5762 10.3516 C 18.5059 10.3516 21.0938 9.32617 23.1445 5.41992 C 30.0781 -7.51953 40.1855 -13.1348 57.2266 -13.1348 L 58.252 -13.1348 L 58.252 3.4668 C 58.252 7.61719 61.377 10.7422 65.5273 10.7422 Z M 68.8477 -3.4668 C 68.4082 -3.4668 68.1152 -3.80859 68.1152 -4.29688 L 68.1152 -21.6797 C 68.1152 -22.8027 67.627 -23.291 66.5039 -23.291 L 60.5469 -23.291 C 38.7207 -23.291 24.8047 -16.9922 18.9453 -4.78516 C 18.7988 -4.49219 18.7012 -4.3457 18.5059 -4.3457 C 18.3105 -4.3457 18.1641 -4.49219 18.1641 -4.78516 C 18.7988 -28.3203 30.6152 -47.168 60.5469 -47.168 L 66.5039 -47.168 C 67.627 -47.168 68.1152 -47.6562 68.1152 -48.7305 L 68.1152 -66.4551 C 68.1152 -66.9434 68.4082 -67.2363 68.8965 -67.2363 C 69.1895 -67.2363 69.4336 -67.0898 69.6777 -66.8945 L 101.953 -36.1816 C 102.344 -35.791 102.441 -35.5469 102.441 -35.2539 C 102.441 -34.9609 102.344 -34.7168 101.953 -34.3262 L 69.6777 -3.85742 C 69.3848 -3.61328 69.1406 -3.4668 68.8477 -3.4668 Z"/>
  </g>
  <g id="Medium-M" transform="matrix(1 0 0 1 1684.3 1126)">
   <path d="M 65.8691 10.2051 C 68.5059 10.2051 70.5566 9.08203 73.1934 6.73828 L 111.865 -29.541 C 113.77 -31.3965 114.551 -33.4473 114.551 -35.2539 C 114.551 -37.1094 113.77 -39.1113 111.914 -40.9668 L 73.1934 -77.0508 C 70.2637 -79.541 68.5547 -80.7129 65.9668 -80.7129 C 62.0605 -80.7129 59.2285 -77.6855 59.2285 -73.877 L 59.2285 -56.4941 L 58.0566 -56.4941 C 24.3652 -56.4941 8.74023 -34.8633 8.74023 0.585938 C 8.74023 6.73828 11.3281 10.0098 14.7949 10.0098 C 17.334 10.0098 19.7754 9.17969 21.6797 5.61523 C 29.2969 -8.64258 40.1855 -13.8672 58.0566 -13.8672 L 59.2285 -13.8672 L 59.2285 3.61328 C 59.2285 7.42188 62.0605 10.2051 65.8691 10.2051 Z M 68.9453 -2.39258 C 68.5547 -2.39258 68.2617 -2.68555 68.2617 -3.17383 L 68.2617 -21.2402 C 68.2617 -22.3145 67.7246 -22.8516 66.6504 -22.8516 L 60.4004 -22.8516 C 37.9883 -22.8516 23.6328 -15.7715 17.8711 -3.56445 C 17.7246 -3.22266 17.627 -3.07617 17.4316 -3.07617 C 17.2363 -3.07617 17.0898 -3.22266 17.0898 -3.56445 C 17.8711 -26.8555 28.9062 -47.6074 60.4004 -47.6074 L 66.6504 -47.6074 C 67.7246 -47.6074 68.2617 -48.1445 68.2617 -49.2188 L 68.2617 -67.6758 C 68.2617 -68.1152 68.5547 -68.4082 68.9941 -68.4082 C 69.2871 -68.4082 69.5312 -68.2617 69.7754 -68.0176 L 103.125 -36.1816 C 103.516 -35.791 103.662 -35.5469 103.662 -35.2539 C 103.662 -34.9609 103.516 -34.7168 103.125 -34.3262 L 69.7754 -2.7832 C 69.4824 -2.53906 69.2383 -2.39258 68.9453 -2.39258 Z"/>
  </g>
  <g id="Regular-M" transform="matrix(1 0 0 1 1387.86 1126)">
   <path d="M 66.2598 9.52148 C 68.6523 9.52148 70.5078 8.44727 72.998 6.34766 L 111.523 -30.0293 C 113.33 -31.8359 114.014 -33.6426 114.014 -35.2539 C 114.014 -36.9141 113.33 -38.7207 111.523 -40.5273 L 72.998 -76.5625 C 70.2148 -78.8574 68.75 -80.0781 66.3574 -80.0781 C 62.9883 -80.0781 60.5469 -77.3438 60.5469 -74.0723 L 60.5469 -55.6152 L 59.1309 -55.6152 C 24.0234 -55.6152 8.74023 -33.1055 8.74023 2.97852 C 8.74023 7.17773 11.1328 9.52148 13.7207 9.52148 C 15.8203 9.52148 18.0664 9.0332 19.7266 5.9082 C 28.2715 -10.0586 40.2344 -14.8438 59.1309 -14.8438 L 60.5469 -14.8438 L 60.5469 3.80859 C 60.5469 7.08008 62.9883 9.52148 66.2598 9.52148 Z M 69.0918 -0.976562 C 68.6523 -0.976562 68.4082 -1.26953 68.4082 -1.70898 L 68.4082 -20.6055 C 68.4082 -21.7285 67.9199 -22.2168 66.7969 -22.2168 L 60.2051 -22.2168 C 37.0605 -22.2168 22.0703 -14.2578 16.5039 -1.9043 C 16.3574 -1.5625 16.2109 -1.41602 16.0156 -1.41602 C 15.8203 -1.41602 15.6738 -1.61133 15.6738 -1.95312 C 16.6504 -25 26.709 -48.2422 60.2051 -48.2422 L 66.7969 -48.2422 C 67.9199 -48.2422 68.4082 -48.7305 68.4082 -49.8535 L 68.4082 -69.2383 C 68.4082 -69.6289 68.7012 -69.9219 69.0918 -69.9219 C 69.4336 -69.9219 69.6777 -69.7266 69.9219 -69.5312 L 104.688 -36.1816 C 105.078 -35.8398 105.225 -35.5469 105.225 -35.2539 C 105.225 -34.9609 105.078 -34.7168 104.688 -34.3262 L 69.9219 -1.41602 C 69.6289 -1.12305 69.3848 -0.976562 69.0918 -0.976562 Z"/>
  </g>
  <g id="Light-M" transform="matrix(1 0 0 1 1092.17 1126)">
   <path d="M 65.332 8.49609 C 67.3828 8.49609 68.9453 7.51953 70.8984 5.85938 L 109.326 -30.2246 C 111.377 -32.2266 111.963 -33.8379 111.963 -35.3516 C 111.963 -36.8652 111.426 -38.4766 109.326 -40.4785 L 70.8984 -76.3672 C 68.7988 -78.1738 67.4316 -79.1992 65.3809 -79.1992 C 62.4512 -79.1992 60.498 -76.9043 60.498 -74.0723 L 60.498 -54.5898 L 58.8379 -54.5898 C 25.6836 -54.5898 8.74023 -34.2285 8.74023 3.02734 C 8.74023 6.49414 10.7422 8.49609 12.9883 8.49609 C 14.8926 8.49609 16.6504 7.91016 18.0664 5.22461 C 25.8789 -10.5957 38.4277 -15.918 58.8379 -15.918 L 60.498 -15.918 L 60.498 3.56445 C 60.498 6.39648 62.4512 8.49609 65.332 8.49609 Z M 67.2852 0.585938 C 66.8457 0.585938 66.5527 0.244141 66.5527 -0.244141 L 66.5527 -20.1172 C 66.5527 -21.1914 66.1133 -21.6309 65.0391 -21.6309 L 59.6191 -21.6309 C 36.0352 -21.6309 21.1426 -14.0137 15.2344 -0.292969 C 15.0391 0.146484 14.8926 0.439453 14.5996 0.439453 C 14.2578 0.439453 14.1113 0.195312 14.1113 -0.244141 C 14.7461 -27.9785 27.6367 -48.877 59.6191 -48.877 L 65.0391 -48.877 C 66.1133 -48.877 66.5527 -49.3164 66.5527 -50.3906 L 66.5527 -70.8008 C 66.5527 -71.2402 66.8457 -71.5332 67.334 -71.5332 C 67.7246 -71.5332 68.0176 -71.2891 68.3594 -71.0449 L 104.346 -36.9629 C 105.029 -36.2793 105.273 -35.8398 105.273 -35.3516 C 105.273 -34.8633 105.029 -34.4238 104.346 -33.7402 L 68.3105 0.0976562 C 67.9199 0.439453 67.627 0.585938 67.2852 0.585938 Z"/>
  </g>
  <g id="Thin-M" transform="matrix(1 0 0 1 796.828 1126)">
   <path d="M 64.0625 7.12891 C 65.625 7.12891 66.8945 6.29883 68.1641 5.17578 L 106.445 -30.4688 C 108.789 -32.7148 109.229 -34.082 109.229 -35.4492 C 109.229 -36.8164 108.838 -38.1836 106.445 -40.4785 L 68.1641 -76.0254 C 66.8457 -77.1973 65.6738 -78.0762 64.0625 -78.0762 C 61.7676 -78.0762 60.498 -76.3184 60.498 -74.1211 L 60.498 -53.2227 L 58.3984 -53.2227 C 27.832 -53.2227 8.74023 -35.6934 8.74023 3.07617 C 8.74023 5.61523 10.2051 7.12891 12.0605 7.12891 C 13.6719 7.12891 14.8438 6.44531 15.8203 4.24805 C 22.7539 -11.3281 36.084 -17.2852 58.3984 -17.2852 L 60.498 -17.2852 L 60.498 3.27148 C 60.498 5.41992 61.7676 7.12891 64.0625 7.12891 Z M 64.9414 2.68555 C 64.4043 2.68555 64.1113 2.29492 64.1113 1.70898 L 64.1113 -19.4824 C 64.1113 -20.459 63.7695 -20.8008 62.793 -20.8008 L 58.8379 -20.8008 C 34.668 -20.8008 19.9219 -13.7207 13.5742 1.80664 C 13.3301 2.39258 13.1348 2.88086 12.6953 2.88086 C 12.207 2.88086 12.0117 2.53906 12.0117 2.05078 C 12.207 -31.9824 28.8086 -49.707 58.8379 -49.707 L 62.793 -49.707 C 63.7695 -49.707 64.1113 -50.0488 64.1113 -51.0254 L 64.1113 -72.8027 C 64.1113 -73.3398 64.4531 -73.6816 64.9902 -73.6816 C 65.4785 -73.6816 65.8691 -73.3887 66.2598 -73.0469 L 103.809 -37.9883 C 104.932 -36.9141 105.322 -36.2305 105.322 -35.4492 C 105.322 -34.7168 104.98 -34.0332 103.809 -32.959 L 66.2109 2.00195 C 65.625 2.53906 65.2832 2.68555 64.9414 2.68555 Z"/>
  </g>
  <g id="Ultralight-M" transform="matrix(1 0 0 1 500.8 1126)">
   <path d="M 63.3789 6.44531 C 64.7461 6.44531 65.8691 5.71289 66.748 4.83398 L 104.98 -30.6152 C 107.471 -32.959 107.812 -34.2285 107.812 -35.498 C 107.812 -36.8164 107.52 -38.0371 104.98 -40.4297 L 66.748 -75.8789 C 65.8691 -76.709 64.7461 -77.4902 63.3789 -77.4902 C 61.4258 -77.4902 60.4492 -75.9766 60.4492 -74.1699 L 60.4492 -52.5391 L 58.2031 -52.5391 C 28.9551 -52.5391 8.74023 -36.4258 8.74023 3.125 C 8.74023 5.12695 9.96094 6.44531 11.5723 6.44531 C 13.0371 6.44531 13.8672 5.66406 14.6973 3.75977 C 21.1426 -11.6699 34.8633 -17.9688 58.2031 -17.9688 L 60.4492 -17.9688 L 60.4492 3.125 C 60.4492 4.98047 61.4258 6.44531 63.3789 6.44531 Z M 63.7207 3.75977 C 63.1348 3.75977 62.8418 3.32031 62.8418 2.73438 L 62.8418 -19.1406 C 62.8418 -20.0684 62.5488 -20.4102 61.6211 -20.4102 L 58.4473 -20.4102 C 33.9844 -20.4102 19.2871 -13.5742 12.6953 2.92969 C 12.4512 3.51562 12.207 4.10156 11.7188 4.10156 C 11.1328 4.10156 10.9375 3.71094 10.9375 3.22266 C 10.9375 -33.9844 29.3945 -50.1465 58.4473 -50.1465 L 61.6211 -50.1465 C 62.5488 -50.1465 62.8418 -50.4395 62.8418 -51.3672 L 62.8418 -73.877 C 62.8418 -74.4141 63.2324 -74.8047 63.7695 -74.8047 C 64.3555 -74.8047 64.7461 -74.4141 65.1855 -74.0234 L 103.564 -38.4766 C 104.883 -37.207 105.322 -36.377 105.322 -35.498 C 105.322 -34.6191 104.932 -33.7891 103.564 -32.5684 L 65.0879 3.02734 C 64.4531 3.61328 64.1113 3.75977 63.7207 3.75977 Z"/>
  </g>
  <g id="Black-S" transform="matrix(1 0 0 1 2883.69 696)">
   <path d="M 50.1953 2.83203 C 53.1738 2.83203 55.4199 1.70898 58.2031 -0.878906 L 88.9648 -29.0527 C 90.625 -30.6152 91.6016 -33.1543 91.6016 -35.2051 C 91.6016 -37.4023 90.6738 -39.7461 89.0137 -41.3086 L 58.2031 -69.5312 C 55.1758 -72.2656 52.9785 -73.2422 50.1953 -73.2422 C 45.5078 -73.2422 41.8945 -69.6289 41.8945 -64.9414 L 41.8945 -54.8828 L 41.6992 -54.8828 C 20.2637 -54.8828 6.83594 -40.918 6.83594 -15.4297 C 6.83594 -3.80859 9.61914 1.85547 15.1855 1.85547 C 18.8965 1.85547 21.4355 0.146484 23.6328 -4.19922 C 26.5625 -9.375 31.3965 -15.1367 41.6992 -15.1367 L 41.8945 -15.1367 L 41.8945 -5.46875 C 41.8945 -0.78125 45.5078 2.83203 50.1953 2.83203 Z M 53.6133 -14.3555 C 53.2227 -14.3555 52.8809 -14.6973 52.8809 -15.1855 L 52.8809 -26.416 C 52.8809 -27.2461 52.5391 -27.5879 51.709 -27.5879 L 47.9492 -27.5879 C 33.1055 -27.5879 23.9258 -25.3418 18.8965 -16.0645 C 18.7988 -15.8691 18.7012 -15.7715 18.5547 -15.7715 C 18.4082 -15.7715 18.3105 -15.8691 18.3105 -16.0645 C 18.3105 -35.1562 30.2734 -42.8223 47.9492 -42.8223 L 51.709 -42.8223 C 52.5391 -42.8223 52.8809 -43.1641 52.8809 -43.9941 L 52.8809 -55.1758 C 52.8809 -55.6641 53.2227 -55.957 53.6133 -55.957 C 53.8086 -55.957 54.0039 -55.9082 54.1992 -55.7617 L 75.3906 -35.8887 C 75.6836 -35.5957 75.7812 -35.4492 75.7812 -35.2051 C 75.7812 -35.0098 75.6836 -34.8145 75.3906 -34.5215 L 54.1992 -14.6484 C 54.0039 -14.4531 53.8086 -14.3555 53.6133 -14.3555 Z"/>
  </g>
  <g id="Heavy-S" transform="matrix(1 0 0 1 2587.13 696)">
   <path d="M 50.7324 2.24609 C 53.4668 2.24609 55.5664 1.17188 58.2031 -1.2207 L 88.8184 -29.541 C 90.4297 -31.0547 91.3086 -33.3496 91.3086 -35.2051 C 91.3086 -37.207 90.4297 -39.3555 88.8672 -40.8691 L 58.2031 -69.0918 C 55.3223 -71.6797 53.3203 -72.6562 50.7324 -72.6562 C 46.4844 -72.6562 43.2129 -69.3359 43.2129 -65.0879 L 43.2129 -54.1504 L 42.8223 -54.1504 C 19.7266 -54.1504 6.83594 -39.0625 6.83594 -13.0371 C 6.83594 -3.32031 9.47266 1.51367 14.209 1.51367 C 17.4805 1.51367 19.873 0.0976562 21.9238 -3.85742 C 25.7812 -10.7422 31.6406 -16.0156 42.8223 -16.0156 L 43.2129 -16.0156 L 43.2129 -5.22461 C 43.2129 -1.02539 46.4844 2.24609 50.7324 2.24609 Z M 53.9551 -13.1348 C 53.5645 -13.1348 53.2715 -13.4277 53.2715 -13.8672 L 53.2715 -25.8301 C 53.2715 -26.709 52.8809 -27.0508 52.0508 -27.0508 L 47.8516 -27.0508 C 32.2754 -27.0508 22.4609 -23.8281 17.627 -14.5996 C 17.5293 -14.4043 17.4316 -14.3066 17.2852 -14.3066 C 17.1875 -14.3066 17.0898 -14.4043 17.0898 -14.6484 C 17.2852 -32.959 27.9785 -43.3594 47.8516 -43.3594 L 52.0508 -43.3594 C 52.8809 -43.3594 53.2715 -43.75 53.2715 -44.5801 L 53.2715 -56.5918 C 53.2715 -57.0312 53.5645 -57.2754 53.9551 -57.2754 C 54.1504 -57.2754 54.3457 -57.2266 54.541 -57.0801 L 77.002 -35.8398 C 77.2461 -35.5469 77.3438 -35.4492 77.3438 -35.2051 C 77.3438 -35.0098 77.2461 -34.8633 77.002 -34.5703 L 54.541 -13.4277 C 54.3457 -13.2324 54.1504 -13.1348 53.9551 -13.1348 Z"/>
  </g>
  <g id="Bold-S" transform="matrix(1 0 0 1 2290.59 696)">
   <path d="M 51.2695 1.5625 C 53.8086 1.5625 55.7129 0.585938 58.2031 -1.66016 L 88.7207 -30.0781 C 90.1855 -31.4941 90.9668 -33.5449 90.9668 -35.2051 C 90.9668 -36.9629 90.1855 -38.916 88.7207 -40.332 L 58.2031 -68.6523 C 55.4688 -70.9961 53.7598 -72.0215 51.3184 -72.0215 C 47.5586 -72.0215 44.6777 -69.043 44.6777 -65.2832 L 44.6777 -53.2715 L 44.0918 -53.2715 C 19.1406 -53.2715 6.83594 -36.9629 6.83594 -10.3516 C 6.83594 -2.73438 9.27734 1.07422 13.1348 1.07422 C 15.8691 1.07422 18.1152 0.0488281 19.9707 -3.41797 C 24.9512 -12.3047 31.8848 -16.9434 44.0918 -16.9434 L 44.6777 -16.9434 L 44.6777 -4.98047 C 44.6777 -1.26953 47.5586 1.5625 51.2695 1.5625 Z M 54.2969 -11.7676 C 53.9551 -11.7676 53.7109 -12.0605 53.7109 -12.4512 L 53.7109 -25.1953 C 53.7109 -26.0742 53.3203 -26.4648 52.4414 -26.4648 L 47.7051 -26.4648 C 31.2988 -26.4648 20.8496 -22.1191 16.2109 -12.9883 C 16.1133 -12.793 16.0156 -12.6953 15.918 -12.6953 C 15.7715 -12.6953 15.6738 -12.793 15.6738 -13.0371 C 16.1133 -30.4688 25.3906 -43.9941 47.7051 -43.9941 L 52.4414 -43.9941 C 53.3203 -43.9941 53.7109 -44.3359 53.7109 -45.2148 L 53.7109 -58.1543 C 53.7109 -58.5449 53.9551 -58.7891 54.2969 -58.7891 C 54.4922 -58.7891 54.6875 -58.6914 54.8828 -58.5449 L 78.8086 -35.7422 C 79.0039 -35.5469 79.1016 -35.4004 79.1016 -35.2051 C 79.1016 -35.0586 79.0039 -34.9121 78.8086 -34.668 L 54.8828 -12.0605 C 54.6875 -11.8652 54.4922 -11.7676 54.2969 -11.7676 Z"/>
  </g>
  <g id="Semibold-S" transform="matrix(1 0 0 1 1994 696)">
   <path d="M 51.709 1.12305 C 54.0527 1.12305 55.8105 0.146484 58.2031 -1.95312 L 88.623 -30.4199 C 90.0391 -31.8359 90.7227 -33.6914 90.7227 -35.2051 C 90.7227 -36.8164 90.0391 -38.5742 88.623 -39.9902 L 58.2031 -68.3105 C 55.5664 -70.5566 54.0527 -71.5332 51.7578 -71.5332 C 48.291 -71.5332 45.7031 -68.7988 45.7031 -65.4297 L 45.7031 -52.6855 L 44.9707 -52.6855 C 18.75 -52.6855 6.83594 -35.5469 6.83594 -8.54492 C 6.83594 -2.34375 9.13086 0.830078 12.4023 0.830078 C 14.7461 0.830078 16.9434 0.0488281 18.6035 -3.125 C 24.3652 -13.3789 32.0801 -17.627 44.9707 -17.627 L 45.7031 -17.627 L 45.7031 -4.83398 C 45.7031 -1.41602 48.291 1.12305 51.709 1.12305 Z M 54.541 -10.8398 C 54.248 -10.8398 54.0039 -11.084 54.0039 -11.4258 L 54.0039 -24.7559 C 54.0039 -25.6348 53.5645 -26.0742 52.6855 -26.0742 L 47.6074 -26.0742 C 30.6641 -26.0742 19.6777 -20.9473 15.2344 -11.8652 C 15.1367 -11.6699 15.0391 -11.5723 14.9414 -11.5723 C 14.7949 -11.5723 14.6973 -11.6699 14.6973 -11.9141 C 15.332 -28.7598 23.584 -44.3848 47.6074 -44.3848 L 52.6855 -44.3848 C 53.5645 -44.3848 54.0039 -44.7754 54.0039 -45.6543 L 54.0039 -59.2285 C 54.0039 -59.6191 54.248 -59.8145 54.541 -59.8145 C 54.7852 -59.8145 54.9805 -59.7168 55.127 -59.5703 L 80.0293 -35.6934 C 80.2246 -35.498 80.3223 -35.4004 80.3223 -35.2051 C 80.3223 -35.0586 80.2246 -34.9121 80.0293 -34.7168 L 55.127 -11.084 C 54.9316 -10.9375 54.7363 -10.8398 54.541 -10.8398 Z"/>
  </g>
  <g id="Medium-S" transform="matrix(1 0 0 1 1697.39 696)">
   <path d="M 52.002 0.78125 C 54.1992 0.78125 55.9082 -0.146484 58.2031 -2.14844 L 88.5254 -30.7129 C 89.8926 -32.0801 90.5273 -33.7891 90.5273 -35.2051 C 90.5273 -36.7188 89.8926 -38.3789 88.5254 -39.7461 L 58.2031 -68.0664 C 55.6152 -70.2148 54.248 -71.1914 52.0508 -71.1914 C 48.8281 -71.1914 46.4355 -68.6523 46.4355 -65.5273 L 46.4355 -52.2461 L 45.6055 -52.2461 C 18.4082 -52.2461 6.83594 -34.4727 6.83594 -7.12891 C 6.83594 -2.05078 9.0332 0.585938 11.8652 0.585938 C 13.916 0.585938 16.0156 0 17.627 -2.92969 C 23.877 -14.209 32.2266 -18.1152 45.6055 -18.1152 L 46.4355 -18.1152 L 46.4355 -4.6875 C 46.4355 -1.5625 48.8281 0.78125 52.002 0.78125 Z M 54.7363 -10.1074 C 54.4434 -10.1074 54.1992 -10.3516 54.1992 -10.6934 L 54.1992 -24.4141 C 54.1992 -25.3418 53.8086 -25.7324 52.8809 -25.7324 L 47.5586 -25.7324 C 30.1758 -25.7324 18.8477 -20.0684 14.502 -11.0352 C 14.4043 -10.791 14.3066 -10.7422 14.209 -10.7422 C 14.0625 -10.7422 13.9648 -10.8398 13.9648 -11.084 C 14.7461 -27.4414 22.2656 -44.7266 47.5586 -44.7266 L 52.8809 -44.7266 C 53.8086 -44.7266 54.1992 -45.1172 54.1992 -45.9961 L 54.1992 -60.0586 C 54.1992 -60.4004 54.4434 -60.5957 54.7363 -60.5957 C 54.9316 -60.5957 55.1758 -60.498 55.3223 -60.3516 L 81.0059 -35.6445 C 81.1523 -35.498 81.25 -35.3516 81.25 -35.2051 C 81.25 -35.0586 81.1523 -34.9609 81.0059 -34.7656 L 55.3223 -10.4004 C 55.127 -10.2051 54.9316 -10.1074 54.7363 -10.1074 Z"/>
  </g>
  <g id="Regular-S" transform="matrix(1 0 0 1 1400.8 696)">
   <path d="M 52.3926 0.341797 C 54.4434 0.341797 56.0059 -0.585938 58.1543 -2.44141 L 88.4277 -31.1035 C 89.7461 -32.373 90.2832 -33.9355 90.2832 -35.2051 C 90.2832 -36.5723 89.7461 -38.0371 88.4277 -39.4043 L 58.1543 -67.7246 C 55.7129 -69.7754 54.541 -70.752 52.4902 -70.752 C 49.5605 -70.752 47.4609 -68.457 47.4609 -65.625 L 47.4609 -51.709 L 46.4844 -51.709 C 18.0176 -51.709 6.83594 -33.0566 6.83594 -5.32227 C 6.83594 -1.66016 8.93555 0.341797 11.1328 0.341797 C 12.8418 0.341797 14.8438 -0.0488281 16.3086 -2.63672 C 23.291 -15.2832 32.373 -18.75 46.4844 -18.75 L 47.4609 -18.75 L 47.4609 -4.54102 C 47.4609 -1.70898 49.5605 0.341797 52.3926 0.341797 Z M 54.9805 -9.17969 C 54.6875 -9.17969 54.4922 -9.375 54.4922 -9.66797 L 54.4922 -23.9746 C 54.4922 -24.9023 54.0527 -25.3418 53.1738 -25.3418 L 47.4609 -25.3418 C 29.541 -25.3418 17.7246 -18.8965 13.5254 -9.91211 C 13.4277 -9.7168 13.3789 -9.61914 13.2324 -9.61914 C 13.1348 -9.61914 13.0371 -9.7168 13.0371 -10.0098 C 13.9648 -25.7812 20.5078 -45.1172 47.4609 -45.1172 L 53.1738 -45.1172 C 54.0527 -45.1172 54.4922 -45.5566 54.4922 -46.4844 L 54.4922 -61.1328 C 54.4922 -61.4258 54.6875 -61.6211 54.9805 -61.6211 C 55.2246 -61.6211 55.4199 -61.5234 55.5664 -61.377 L 82.2266 -35.5957 C 82.373 -35.4492 82.4219 -35.3516 82.4219 -35.2051 C 82.4219 -35.1074 82.373 -34.9609 82.2266 -34.8145 L 55.5664 -9.42383 C 55.4199 -9.27734 55.1758 -9.17969 54.9805 -9.17969 Z"/>
  </g>
  <g id="Light-S" transform="matrix(1 0 0 1 1104.99 696)">
   <path d="M 51.5625 -0.585938 C 53.2715 -0.585938 54.6387 -1.36719 56.3477 -2.88086 L 86.4746 -31.25 C 87.9883 -32.7148 88.4766 -34.082 88.4766 -35.3027 C 88.4766 -36.5234 88.0371 -37.8418 86.4746 -39.3555 L 56.3477 -67.5293 C 54.4434 -69.1406 53.3203 -70.0195 51.6113 -70.0195 C 49.1211 -70.0195 47.4121 -68.0176 47.4121 -65.6738 L 47.4121 -50.7812 L 46.1914 -50.7812 C 19.4824 -50.7812 6.83594 -34.0332 6.83594 -5.27344 C 6.83594 -2.24609 8.59375 -0.585938 10.4492 -0.585938 C 12.0117 -0.585938 13.5742 -1.02539 14.7949 -3.27148 C 21.1914 -15.7227 30.8105 -19.6777 46.1914 -19.6777 L 47.4121 -19.6777 L 47.4121 -4.73633 C 47.4121 -2.34375 49.1211 -0.585938 51.5625 -0.585938 Z M 53.418 -7.76367 C 53.0762 -7.76367 52.832 -8.00781 52.832 -8.39844 L 52.832 -23.584 C 52.832 -24.4141 52.4902 -24.8047 51.6113 -24.8047 L 46.9238 -24.8047 C 28.6133 -24.8047 16.8945 -18.7012 12.4023 -8.49609 C 12.2559 -8.20312 12.1582 -8.00781 11.9629 -8.00781 C 11.7676 -8.00781 11.6211 -8.1543 11.6211 -8.44727 C 12.2559 -28.418 21.2891 -45.6543 46.9238 -45.6543 L 51.6113 -45.6543 C 52.4902 -45.6543 52.832 -46.0449 52.832 -46.9238 L 52.832 -62.5 C 52.832 -62.8418 53.0762 -63.0859 53.418 -63.0859 C 53.7109 -63.0859 53.9551 -62.8906 54.1504 -62.6953 L 81.8848 -36.2793 C 82.3242 -35.8887 82.4707 -35.5957 82.4707 -35.3027 C 82.4707 -35.0098 82.3242 -34.7168 81.8848 -34.2773 L 54.1504 -8.1543 C 53.8574 -7.86133 53.6621 -7.76367 53.418 -7.76367 Z"/>
  </g>
  <g id="Thin-S" transform="matrix(1 0 0 1 809.474 696)">
   <path d="M 50.4395 -1.75781 C 51.7578 -1.75781 52.832 -2.44141 53.9062 -3.41797 L 83.9355 -31.4453 C 85.7422 -33.1543 86.084 -34.2773 86.084 -35.4004 C 86.084 -36.5234 85.7422 -37.5977 83.9355 -39.3555 L 53.9062 -67.2852 C 52.7344 -68.3105 51.7578 -68.9941 50.4395 -68.9941 C 48.5352 -68.9941 47.4121 -67.5293 47.4121 -65.6738 L 47.4121 -49.6094 L 45.8496 -49.6094 C 21.3867 -49.6094 6.83594 -35.3027 6.83594 -5.22461 C 6.83594 -3.07617 8.10547 -1.75781 9.61914 -1.75781 C 10.9375 -1.75781 11.9629 -2.29492 12.8418 -4.10156 C 18.4082 -16.3574 28.7109 -20.8984 45.8496 -20.8984 L 47.4121 -20.8984 L 47.4121 -4.98047 C 47.4121 -3.17383 48.5352 -1.75781 50.4395 -1.75781 Z M 51.3184 -5.9082 C 50.9277 -5.9082 50.6836 -6.20117 50.6836 -6.64062 L 50.6836 -22.998 C 50.6836 -23.7793 50.3906 -24.0723 49.6094 -24.0723 L 46.2402 -24.0723 C 27.4414 -24.0723 15.8203 -18.457 10.9375 -6.5918 C 10.791 -6.20117 10.5957 -5.85938 10.3027 -5.85938 C 9.96094 -5.85938 9.81445 -6.10352 9.81445 -6.44531 C 10.0586 -31.9336 22.3145 -46.3867 46.2402 -46.3867 L 49.6094 -46.3867 C 50.3906 -46.3867 50.6836 -46.6797 50.6836 -47.4609 L 50.6836 -64.3066 C 50.6836 -64.6973 50.9766 -64.9414 51.3672 -64.9414 C 51.7578 -64.9414 52.002 -64.6973 52.2949 -64.4531 L 81.4453 -37.1582 C 82.2266 -36.4258 82.4707 -35.9375 82.4707 -35.4004 C 82.4707 -34.8633 82.2754 -34.375 81.4453 -33.5938 L 52.2461 -6.39648 C 51.8555 -6.05469 51.6113 -5.9082 51.3184 -5.9082 Z"/>
  </g>
  <g id="Ultralight-S" transform="matrix(1 0 0 1 513.373 696)">
   <path d="M 49.8535 -2.39258 C 50.9766 -2.39258 51.8555 -2.97852 52.6855 -3.75977 L 82.6172 -31.543 C 84.5703 -33.3984 84.8633 -34.375 84.8633 -35.4492 C 84.8633 -36.4746 84.5703 -37.5 82.6172 -39.3066 L 52.6855 -67.1387 C 51.8555 -67.8711 50.9766 -68.457 49.8535 -68.457 C 48.1934 -68.457 47.3633 -67.2363 47.3633 -65.7227 L 47.3633 -48.9746 L 45.6543 -48.9746 C 22.3633 -48.9746 6.83594 -35.9863 6.83594 -5.17578 C 6.83594 -3.4668 7.86133 -2.39258 9.17969 -2.39258 C 10.4004 -2.39258 11.1328 -2.97852 11.8164 -4.54102 C 16.9922 -16.6992 27.6367 -21.5332 45.6543 -21.5332 L 47.3633 -21.5332 L 47.3633 -5.12695 C 47.3633 -3.61328 48.1934 -2.39258 49.8535 -2.39258 Z M 50.2441 -4.93164 C 49.8047 -4.93164 49.5605 -5.27344 49.5605 -5.76172 L 49.5605 -22.7051 C 49.5605 -23.4863 49.3164 -23.7305 48.584 -23.7305 L 45.8984 -23.7305 C 26.8066 -23.7305 15.2832 -18.3105 10.2051 -5.66406 C 10.0098 -5.17578 9.81445 -4.73633 9.42383 -4.73633 C 8.98438 -4.73633 8.83789 -5.0293 8.83789 -5.41992 C 8.88672 -33.7402 22.8516 -46.7773 45.8984 -46.7773 L 48.584 -46.7773 C 49.3164 -46.7773 49.5605 -47.0215 49.5605 -47.8027 L 49.5605 -65.2344 C 49.5605 -65.6738 49.8535 -65.918 50.293 -65.918 C 50.7324 -65.918 51.0254 -65.6738 51.3184 -65.3809 L 81.2012 -37.6465 C 82.1777 -36.7188 82.5195 -36.084 82.5195 -35.4492 C 82.5195 -34.7656 82.2266 -34.1797 81.2012 -33.252 L 51.3184 -5.51758 C 50.8301 -5.07812 50.5371 -4.93164 50.2441 -4.93164 Z"/>
  </g>
 </g>
</svg>
