<?xml version="1.0" encoding="UTF-8"?>
<!--Generator: Apple Native CoreSVG 123-->
<!DOCTYPE svg
PUBLIC "-//W3C//DTD SVG 1.1//EN"
       "http://www.w3.org/Graphics/SVG/1.1/DTD/svg11.dtd">
<svg version="1.1" xmlns="http://www.w3.org/2000/svg" xmlns:xlink="http://www.w3.org/1999/xlink" width="3300" height="2200">
 <!--glyph: "uni10021F.medium", point size: 100.000000, font version: "Version 15.0d7e11", template writer version: "5"-->
 <g id="Notes">
  <rect height="2200" id="artboard" style="fill:white;opacity:1" width="3300" x="0" y="0"/>
  <line id="" style="fill:none;stroke:black;opacity:1;stroke-width:0.5;" x1="263" x2="3036" y1="292" y2="292"/>
  <text style="stroke:none;fill:black;font-family:-apple-system,&quot;SF Pro Display&quot;,&quot;SF Pro Text&quot;,Helvetica,sans-serif;font-weight:bold;" transform="matrix(1 0 0 1 263 322)">Weight/Scale Variations</text>
  <text style="stroke:none;fill:black;font-family:-apple-system,&quot;SF Pro Display&quot;,&quot;SF Pro Text&quot;,Helvetica,sans-serif;text-anchor:middle;" transform="matrix(1 0 0 1 559.711 322)">Ultralight</text>
  <text style="stroke:none;fill:black;font-family:-apple-system,&quot;SF Pro Display&quot;,&quot;SF Pro Text&quot;,Helvetica,sans-serif;text-anchor:middle;" transform="matrix(1 0 0 1 856.422 322)">Thin</text>
  <text style="stroke:none;fill:black;font-family:-apple-system,&quot;SF Pro Display&quot;,&quot;SF Pro Text&quot;,Helvetica,sans-serif;text-anchor:middle;" transform="matrix(1 0 0 1 1153.13 322)">Light</text>
  <text style="stroke:none;fill:black;font-family:-apple-system,&quot;SF Pro Display&quot;,&quot;SF Pro Text&quot;,Helvetica,sans-serif;text-anchor:middle;" transform="matrix(1 0 0 1 1449.84 322)">Regular</text>
  <text style="stroke:none;fill:black;font-family:-apple-system,&quot;SF Pro Display&quot;,&quot;SF Pro Text&quot;,Helvetica,sans-serif;text-anchor:middle;" transform="matrix(1 0 0 1 1746.56 322)">Medium</text>
  <text style="stroke:none;fill:black;font-family:-apple-system,&quot;SF Pro Display&quot;,&quot;SF Pro Text&quot;,Helvetica,sans-serif;text-anchor:middle;" transform="matrix(1 0 0 1 2043.27 322)">Semibold</text>
  <text style="stroke:none;fill:black;font-family:-apple-system,&quot;SF Pro Display&quot;,&quot;SF Pro Text&quot;,Helvetica,sans-serif;text-anchor:middle;" transform="matrix(1 0 0 1 2339.98 322)">Bold</text>
  <text style="stroke:none;fill:black;font-family:-apple-system,&quot;SF Pro Display&quot;,&quot;SF Pro Text&quot;,Helvetica,sans-serif;text-anchor:middle;" transform="matrix(1 0 0 1 2636.69 322)">Heavy</text>
  <text style="stroke:none;fill:black;font-family:-apple-system,&quot;SF Pro Display&quot;,&quot;SF Pro Text&quot;,Helvetica,sans-serif;text-anchor:middle;" transform="matrix(1 0 0 1 2933.4 322)">Black</text>
  <line id="" style="fill:none;stroke:black;opacity:1;stroke-width:0.5;" x1="263" x2="3036" y1="1903" y2="1903"/>
  <g id="" transform="matrix(1 0 0 1 263 1933)">
   <path d="M 9.24805 0.830078 C 13.5547 0.830078 17.1387 -2.74414 17.1387 -7.05078 C 17.1387 -11.3574 13.5449 -14.9316 9.23828 -14.9316 C 4.94141 -14.9316 1.36719 -11.3574 1.36719 -7.05078 C 1.36719 -2.74414 4.95117 0.830078 9.24805 0.830078 Z M 9.24805 -0.654297 C 5.70312 -0.654297 2.87109 -3.49609 2.87109 -7.05078 C 2.87109 -10.6055 5.69336 -13.4473 9.23828 -13.4473 C 12.793 -13.4473 15.6348 -10.6055 15.6445 -7.05078 C 15.6543 -3.49609 12.8027 -0.654297 9.24805 -0.654297 Z M 9.22852 -3.42773 C 9.69727 -3.42773 9.9707 -3.74023 9.9707 -4.25781 L 9.9707 -6.31836 L 12.1973 -6.31836 C 12.6953 -6.31836 13.0371 -6.57227 13.0371 -7.04102 C 13.0371 -7.51953 12.7148 -7.7832 12.1973 -7.7832 L 9.9707 -7.7832 L 9.9707 -10.0098 C 9.9707 -10.5273 9.69727 -10.8496 9.22852 -10.8496 C 8.75977 -10.8496 8.50586 -10.5078 8.50586 -10.0098 L 8.50586 -7.7832 L 6.29883 -7.7832 C 5.78125 -7.7832 5.44922 -7.51953 5.44922 -7.04102 C 5.44922 -6.57227 5.80078 -6.31836 6.29883 -6.31836 L 8.50586 -6.31836 L 8.50586 -4.25781 C 8.50586 -3.75977 8.75977 -3.42773 9.22852 -3.42773 Z"/>
  </g>
  <g id="" transform="matrix(1 0 0 1 281.506 1933)">
   <path d="M 11.709 2.91016 C 17.1582 2.91016 21.6699 -1.60156 21.6699 -7.05078 C 21.6699 -12.4902 17.1484 -17.0117 11.6992 -17.0117 C 6.25977 -17.0117 1.74805 -12.4902 1.74805 -7.05078 C 1.74805 -1.60156 6.26953 2.91016 11.709 2.91016 Z M 11.709 1.25 C 7.09961 1.25 3.41797 -2.44141 3.41797 -7.05078 C 3.41797 -11.6504 7.08984 -15.3516 11.6992 -15.3516 C 16.3086 -15.3516 20 -11.6504 20.0098 -7.05078 C 20.0195 -2.44141 16.3184 1.25 11.709 1.25 Z M 11.6895 -2.41211 C 12.207 -2.41211 12.5195 -2.77344 12.5195 -3.33984 L 12.5195 -6.23047 L 15.5762 -6.23047 C 16.123 -6.23047 16.5039 -6.51367 16.5039 -7.03125 C 16.5039 -7.55859 16.1426 -7.86133 15.5762 -7.86133 L 12.5195 -7.86133 L 12.5195 -10.9277 C 12.5195 -11.5039 12.207 -11.8555 11.6895 -11.8555 C 11.1719 -11.8555 10.8789 -11.4844 10.8789 -10.9277 L 10.8789 -7.86133 L 7.83203 -7.86133 C 7.26562 -7.86133 6.89453 -7.55859 6.89453 -7.03125 C 6.89453 -6.51367 7.28516 -6.23047 7.83203 -6.23047 L 10.8789 -6.23047 L 10.8789 -3.33984 C 10.8789 -2.79297 11.1719 -2.41211 11.6895 -2.41211 Z"/>
  </g>
  <g id="" transform="matrix(1 0 0 1 304.924 1933)">
   <path d="M 14.9707 5.67383 C 21.9336 5.67383 27.6953 -0.078125 27.6953 -7.04102 C 27.6953 -14.0039 21.9238 -19.7559 14.9609 -19.7559 C 8.00781 -19.7559 2.25586 -14.0039 2.25586 -7.04102 C 2.25586 -0.078125 8.01758 5.67383 14.9707 5.67383 Z M 14.9707 3.85742 C 8.93555 3.85742 4.08203 -1.00586 4.08203 -7.04102 C 4.08203 -13.0762 8.92578 -17.9395 14.9609 -17.9395 C 21.0059 -17.9395 25.8594 -13.0762 25.8691 -7.04102 C 25.8789 -1.00586 21.0156 3.85742 14.9707 3.85742 Z M 14.9512 -1.06445 C 15.5176 -1.06445 15.8691 -1.45508 15.8691 -2.06055 L 15.8691 -6.13281 L 20.1074 -6.13281 C 20.6934 -6.13281 21.1133 -6.46484 21.1133 -7.02148 C 21.1133 -7.59766 20.7227 -7.93945 20.1074 -7.93945 L 15.8691 -7.93945 L 15.8691 -12.1875 C 15.8691 -12.8027 15.5176 -13.1934 14.9512 -13.1934 C 14.3848 -13.1934 14.0625 -12.7832 14.0625 -12.1875 L 14.0625 -7.93945 L 9.83398 -7.93945 C 9.21875 -7.93945 8.80859 -7.59766 8.80859 -7.02148 C 8.80859 -6.46484 9.23828 -6.13281 9.83398 -6.13281 L 14.0625 -6.13281 L 14.0625 -2.06055 C 14.0625 -1.47461 14.3848 -1.06445 14.9512 -1.06445 Z"/>
  </g>
  <text style="stroke:none;fill:black;font-family:-apple-system,&quot;SF Pro Display&quot;,&quot;SF Pro Text&quot;,Helvetica,sans-serif;font-weight:bold;" transform="matrix(1 0 0 1 263 1953)">Design Variations</text>
  <text style="stroke:none;fill:black;font-family:-apple-system,&quot;SF Pro Display&quot;,&quot;SF Pro Text&quot;,Helvetica,sans-serif;" transform="matrix(1 0 0 1 263 1971)">Symbols are supported in up to nine weights and three scales.</text>
  <text style="stroke:none;fill:black;font-family:-apple-system,&quot;SF Pro Display&quot;,&quot;SF Pro Text&quot;,Helvetica,sans-serif;" transform="matrix(1 0 0 1 263 1989)">For optimal layout with text and other symbols, vertically align</text>
  <text style="stroke:none;fill:black;font-family:-apple-system,&quot;SF Pro Display&quot;,&quot;SF Pro Text&quot;,Helvetica,sans-serif;" transform="matrix(1 0 0 1 263 2007)">symbols with the adjacent text.</text>
  <rect height="14" id="" style="fill:#00AEEF;stroke:none;opacity:0.4;" width="3" x="776" y="1919"/>
  <g id="" transform="matrix(1 0 0 1 779 1933)">
   <path d="M 10.5273 0 L 12.373 0 L 7.17773 -14.0918 L 5.43945 -14.0918 L 0.244141 0 L 2.08984 0 L 3.50586 -4.0332 L 9.11133 -4.0332 Z M 6.2793 -11.9531 L 6.33789 -11.9531 L 8.59375 -5.52734 L 4.02344 -5.52734 Z"/>
  </g>
  <rect height="14" id="" style="fill:#00AEEF;stroke:none;opacity:0.4;" width="3" x="791.617" y="1919"/>
  <text style="stroke:none;fill:black;font-family:-apple-system,&quot;SF Pro Display&quot;,&quot;SF Pro Text&quot;,Helvetica,sans-serif;font-weight:bold;" transform="matrix(1 0 0 1 776 1953)">Margins</text>
  <text style="stroke:none;fill:black;font-family:-apple-system,&quot;SF Pro Display&quot;,&quot;SF Pro Text&quot;,Helvetica,sans-serif;" transform="matrix(1 0 0 1 776 1971)">Leading and trailing margins on the left and right side of each symbol</text>
  <text style="stroke:none;fill:black;font-family:-apple-system,&quot;SF Pro Display&quot;,&quot;SF Pro Text&quot;,Helvetica,sans-serif;" transform="matrix(1 0 0 1 776 1989)">can be adjusted by modifying the width of the blue rectangles.</text>
  <text style="stroke:none;fill:black;font-family:-apple-system,&quot;SF Pro Display&quot;,&quot;SF Pro Text&quot;,Helvetica,sans-serif;" transform="matrix(1 0 0 1 776 2007)">Modifications are automatically applied proportionally to all</text>
  <text style="stroke:none;fill:black;font-family:-apple-system,&quot;SF Pro Display&quot;,&quot;SF Pro Text&quot;,Helvetica,sans-serif;" transform="matrix(1 0 0 1 776 2025)">scales and weights.</text>
  <g id="" transform="matrix(1 0 0 1 1289 1933)">
   <path d="M 2.83203 3.11523 L 4.375 4.6582 C 5.22461 5.48828 6.19141 5.41992 7.06055 4.46289 L 17.2754 -6.66016 C 17.7051 -6.36719 18.0957 -6.37695 18.5645 -6.47461 L 19.6094 -6.68945 L 20.3027 -5.99609 L 20.2539 -5.47852 C 20.1855 -4.95117 20.3516 -4.53125 20.8496 -4.0332 L 21.6602 -3.22266 C 22.168 -2.71484 22.8223 -2.68555 23.3008 -3.16406 L 26.5527 -6.41602 C 27.0312 -6.89453 27.0117 -7.54883 26.5039 -8.05664 L 25.6836 -8.87695 C 25.1855 -9.375 24.7754 -9.55078 24.2383 -9.47266 L 23.7109 -9.41406 L 23.0566 -10.0781 L 23.3398 -11.2207 C 23.4863 -11.7871 23.3398 -12.2559 22.7148 -12.8613 L 20.3027 -15.2539 C 16.7578 -18.7793 12.2266 -18.6719 9.11133 -15.5371 C 8.69141 -15.1074 8.64258 -14.5215 8.91602 -14.0918 C 9.15039 -13.7207 9.62891 -13.4961 10.2734 -13.6621 C 11.7871 -14.043 13.3008 -13.9258 14.7852 -12.9199 L 14.1602 -11.3379 C 13.9258 -10.752 13.9453 -10.2734 14.1797 -9.83398 L 3.01758 0.439453 C 2.08008 1.30859 1.97266 2.25586 2.83203 3.11523 Z M 10.6738 -15.1465 C 13.3398 -17.1387 16.6504 -16.8262 19.0527 -14.4141 L 21.6797 -11.8066 C 21.9141 -11.5723 21.9434 -11.3867 21.8848 -11.0938 L 21.5039 -9.53125 L 23.0762 -7.95898 L 24.043 -8.04688 C 24.3262 -8.07617 24.4141 -8.05664 24.6387 -7.83203 L 25.2637 -7.20703 L 22.5098 -4.46289 L 21.8848 -5.07812 C 21.6602 -5.30273 21.6406 -5.40039 21.6699 -5.68359 L 21.7578 -6.64062 L 20.1953 -8.20312 L 18.5742 -7.89062 C 18.291 -7.83203 18.1445 -7.83203 17.9102 -8.07617 L 15.7324 -10.2539 C 15.5078 -10.4883 15.4785 -10.625 15.6055 -10.9473 L 16.5527 -13.2227 C 14.9512 -14.7559 12.8418 -15.6055 10.8008 -14.9512 C 10.7129 -14.9219 10.6445 -14.9414 10.6152 -14.9805 C 10.5859 -15.0293 10.5859 -15.0781 10.6738 -15.1465 Z M 4.10156 2.41211 C 3.61328 1.91406 3.78906 1.61133 4.12109 1.30859 L 15.0781 -8.80859 L 16.3086 -7.57812 L 6.15234 3.34961 C 5.84961 3.68164 5.46875 3.7793 5.06836 3.37891 Z"/>
  </g>
  <text style="stroke:none;fill:black;font-family:-apple-system,&quot;SF Pro Display&quot;,&quot;SF Pro Text&quot;,Helvetica,sans-serif;font-weight:bold;" transform="matrix(1 0 0 1 1289 1953)">Exporting</text>
  <text style="stroke:none;fill:black;font-family:-apple-system,&quot;SF Pro Display&quot;,&quot;SF Pro Text&quot;,Helvetica,sans-serif;" transform="matrix(1 0 0 1 1289 1971)">Symbols should be outlined when exporting to ensure the</text>
  <text style="stroke:none;fill:black;font-family:-apple-system,&quot;SF Pro Display&quot;,&quot;SF Pro Text&quot;,Helvetica,sans-serif;" transform="matrix(1 0 0 1 1289 1989)">design is preserved when submitting to Xcode.</text>
  <text id="template-version" style="stroke:none;fill:black;font-family:-apple-system,&quot;SF Pro Display&quot;,&quot;SF Pro Text&quot;,Helvetica,sans-serif;text-anchor:end;" transform="matrix(1 0 0 1 3036 1933)">Template v.1.0</text>
  <text style="stroke:none;fill:black;font-family:-apple-system,&quot;SF Pro Display&quot;,&quot;SF Pro Text&quot;,Helvetica,sans-serif;text-anchor:end;" transform="matrix(1 0 0 1 3036 1951)">Generated from paperplane</text>
  <text style="stroke:none;fill:black;font-family:-apple-system,&quot;SF Pro Display&quot;,&quot;SF Pro Text&quot;,Helvetica,sans-serif;text-anchor:end;" transform="matrix(1 0 0 1 3036 1969)">Typeset at 100 points</text>
  <text style="stroke:none;fill:black;font-family:-apple-system,&quot;SF Pro Display&quot;,&quot;SF Pro Text&quot;,Helvetica,sans-serif;" transform="matrix(1 0 0 1 263 726)">Small</text>
  <text style="stroke:none;fill:black;font-family:-apple-system,&quot;SF Pro Display&quot;,&quot;SF Pro Text&quot;,Helvetica,sans-serif;" transform="matrix(1 0 0 1 263 1156)">Medium</text>
  <text style="stroke:none;fill:black;font-family:-apple-system,&quot;SF Pro Display&quot;,&quot;SF Pro Text&quot;,Helvetica,sans-serif;" transform="matrix(1 0 0 1 263 1586)">Large</text>
 </g>
 <g id="Guides">
  <g id="H-reference" style="fill:#27AAE1;stroke:none;" transform="matrix(1 0 0 1 339 696)">
   <path d="M 54.9316 0 L 57.666 0 L 30.5664 -70.459 L 28.0762 -70.459 L 0.976562 0 L 3.66211 0 L 12.9395 -24.4629 L 45.7031 -24.4629 Z M 29.1992 -67.0898 L 29.4434 -67.0898 L 44.8242 -26.709 L 13.8184 -26.709 Z"/>
  </g>
  <line id="Baseline-S" style="fill:none;stroke:#27AAE1;opacity:1;stroke-width:0.577;" x1="263" x2="3036" y1="696" y2="696"/>
  <line id="Capline-S" style="fill:none;stroke:#27AAE1;opacity:1;stroke-width:0.577;" x1="263" x2="3036" y1="625.541" y2="625.541"/>
  <g id="H-reference" style="fill:#27AAE1;stroke:none;" transform="matrix(1 0 0 1 339 1126)">
   <path d="M 54.9316 0 L 57.666 0 L 30.5664 -70.459 L 28.0762 -70.459 L 0.976562 0 L 3.66211 0 L 12.9395 -24.4629 L 45.7031 -24.4629 Z M 29.1992 -67.0898 L 29.4434 -67.0898 L 44.8242 -26.709 L 13.8184 -26.709 Z"/>
  </g>
  <line id="Baseline-M" style="fill:none;stroke:#27AAE1;opacity:1;stroke-width:0.577;" x1="263" x2="3036" y1="1126" y2="1126"/>
  <line id="Capline-M" style="fill:none;stroke:#27AAE1;opacity:1;stroke-width:0.577;" x1="263" x2="3036" y1="1055.54" y2="1055.54"/>
  <g id="H-reference" style="fill:#27AAE1;stroke:none;" transform="matrix(1 0 0 1 339 1556)">
   <path d="M 54.9316 0 L 57.666 0 L 30.5664 -70.459 L 28.0762 -70.459 L 0.976562 0 L 3.66211 0 L 12.9395 -24.4629 L 45.7031 -24.4629 Z M 29.1992 -67.0898 L 29.4434 -67.0898 L 44.8242 -26.709 L 13.8184 -26.709 Z"/>
  </g>
  <line id="Baseline-L" style="fill:none;stroke:#27AAE1;opacity:1;stroke-width:0.577;" x1="263" x2="3036" y1="1556" y2="1556"/>
  <line id="Capline-L" style="fill:none;stroke:#27AAE1;opacity:1;stroke-width:0.577;" x1="263" x2="3036" y1="1485.54" y2="1485.54"/>
  <rect height="119.336" id="left-margin" style="fill:#00AEEF;stroke:none;opacity:0.4;" width="9.96094" x="1388.74" y="1030.79"/>
  <rect height="119.336" id="right-margin" style="fill:#00AEEF;stroke:none;opacity:0.4;" width="9.96094" x="1500.99" y="1030.79"/>
 </g>
 <g id="Symbols">
  <g id="Black-L" transform="matrix(1 0 0 1 2851.27 1556)">
   <path d="M 94.9219 37.5977 C 100.928 37.5977 104.98 33.3984 107.373 27.1484 L 149.854 -84.0332 C 150.83 -86.6699 151.367 -89.0625 151.367 -91.1621 C 151.367 -97.0215 147.51 -100.83 141.65 -100.83 C 139.502 -100.83 137.109 -100.342 134.57 -99.3164 L 23.1934 -56.7871 C 17.1875 -54.4922 12.8906 -50.4395 12.8906 -44.4336 C 12.8906 -37.5488 17.7246 -34.2285 24.5117 -32.2266 L 69.5801 -19.0918 L 82.666 25.7324 C 84.668 32.6172 88.0371 37.5977 94.9219 37.5977 Z M 75.8301 -37.1582 L 49.8535 -45.1172 C 49.4629 -45.2637 49.2676 -45.5078 49.2676 -45.8984 C 49.2676 -46.1914 49.4629 -46.4844 49.8047 -46.582 L 91.9922 -63.4277 C 98.7793 -66.1621 105.42 -69.0918 114.453 -73.1934 C 108.594 -68.457 101.758 -62.6953 96.582 -57.6172 Z M 96.3867 1.2207 C 96.0449 1.2207 95.8008 0.976562 95.7031 0.585938 L 87.6465 -25.3418 L 108.154 -46.0449 C 112.891 -50.9277 119.189 -58.3008 123.73 -64.0137 C 119.629 -54.9316 116.65 -48.291 113.965 -41.5039 L 97.0703 0.634766 C 96.9727 1.02539 96.7285 1.2207 96.3867 1.2207 Z"/>
  </g>
  <g id="Heavy-L" transform="matrix(1 0 0 1 2555.51 1556)">
   <path d="M 94.043 36.6699 C 99.5605 36.6699 103.369 32.666 105.664 26.5625 L 147.949 -84.082 C 148.975 -86.6699 149.463 -89.0625 149.463 -91.0645 C 149.463 -96.4355 145.996 -99.9023 140.674 -99.9023 C 138.574 -99.9023 136.23 -99.3652 133.691 -98.3887 L 22.7539 -56.0059 C 16.9922 -53.8086 12.8906 -50.0488 12.8906 -44.4336 C 12.8906 -37.9883 17.5293 -35.0098 24.0234 -33.0566 L 69.3848 -19.8242 L 82.5684 25.2441 C 84.4727 31.8848 87.5 36.6699 94.043 36.6699 Z M 74.707 -35.5469 L 44.3359 -44.8242 C 43.7012 -45.0195 43.4082 -45.3125 43.4082 -45.7031 C 43.4082 -46.0938 43.6523 -46.4355 44.2383 -46.582 L 97.8516 -67.5781 C 104.004 -70.0684 110.059 -72.8027 117.92 -76.3672 C 112.598 -72.0703 106.25 -66.7969 101.611 -62.2559 Z M 95.3125 6.15234 C 94.873 6.15234 94.6289 5.85938 94.4336 5.17578 L 85.1074 -25.1465 L 111.865 -52.0508 C 116.162 -56.4453 121.826 -63.1836 125.977 -68.4082 C 122.412 -60.5469 119.629 -54.4434 117.188 -48.2422 L 96.1914 5.27344 C 95.9961 5.85938 95.7031 6.15234 95.3125 6.15234 Z"/>
  </g>
  <g id="Bold-L" transform="matrix(1 0 0 1 2259.83 1556)">
   <path d="M 92.9688 35.6445 C 98.0469 35.6445 101.514 31.8359 103.809 25.9277 L 145.85 -84.1309 C 146.875 -86.7188 147.412 -89.0137 147.412 -91.0156 C 147.412 -95.8008 144.336 -98.8281 139.551 -98.8281 C 137.549 -98.8281 135.205 -98.291 132.666 -97.3145 L 22.3145 -55.127 C 16.7969 -53.0273 12.8906 -49.5605 12.8906 -44.4336 C 12.8906 -38.4277 17.2363 -35.8398 23.4863 -33.9844 L 69.1406 -20.6055 L 82.4219 24.707 C 84.2773 31.1035 86.9141 35.6445 92.9688 35.6445 Z M 73.4863 -33.7402 L 38.1836 -44.4824 C 37.207 -44.7754 36.9141 -45.0684 36.9141 -45.5078 C 36.9141 -45.9473 37.1582 -46.3379 37.9883 -46.6309 L 104.395 -72.2656 C 109.912 -74.4141 115.332 -76.9531 121.777 -79.8828 C 117.09 -76.123 111.279 -71.3867 107.324 -67.4316 Z M 94.0918 11.6699 C 93.6035 11.6699 93.3594 11.3281 93.0664 10.3516 L 82.2754 -24.9512 L 116.016 -58.7402 C 119.775 -62.5977 124.805 -68.6523 128.467 -73.291 C 125.537 -66.7969 122.998 -61.377 120.801 -55.8594 L 95.166 10.498 C 94.873 11.3281 94.5312 11.6699 94.0918 11.6699 Z"/>
  </g>
  <g id="Semibold-L" transform="matrix(1 0 0 1 1963.85 1556)">
   <path d="M 92.2852 34.9609 C 97.0215 34.9609 100.293 31.25 102.49 25.4883 L 144.434 -84.1797 C 145.41 -86.7188 145.947 -89.0137 145.947 -90.9668 C 145.947 -95.3613 143.164 -98.1445 138.77 -98.1445 C 136.816 -98.1445 134.521 -97.5586 131.982 -96.582 L 21.9727 -54.4922 C 16.6992 -52.4902 12.8906 -49.2188 12.8906 -44.4336 C 12.8906 -38.7207 17.041 -36.4258 23.0957 -34.6191 L 68.9941 -21.1914 L 82.3242 24.3164 C 84.1797 30.5664 86.5234 34.9609 92.2852 34.9609 Z M 72.6562 -32.5195 L 33.9355 -44.2383 C 32.7148 -44.5801 32.4219 -44.9219 32.4219 -45.4102 C 32.4219 -45.8984 32.7148 -46.2891 33.6914 -46.6309 L 108.887 -75.4395 C 113.965 -77.4414 118.896 -79.7852 124.414 -82.3242 C 120.166 -78.9062 114.795 -74.5605 111.23 -70.9961 Z M 93.2617 15.4785 C 92.7246 15.4785 92.4316 15.0879 92.0898 13.916 L 80.3223 -24.8047 L 118.848 -63.3789 C 122.266 -66.8457 126.855 -72.4121 130.176 -76.6602 C 127.686 -71.1426 125.293 -66.1621 123.291 -61.084 L 94.4824 14.1113 C 94.1406 15.0879 93.75 15.4785 93.2617 15.4785 Z"/>
  </g>
  <g id="Medium-L" transform="matrix(1 0 0 1 1667.67 1556)">
   <path d="M 91.748 34.4238 C 96.1914 34.4238 99.3164 30.8594 101.514 25.1465 L 143.359 -84.1797 C 144.336 -86.7188 144.873 -89.0137 144.873 -90.918 C 144.873 -95.0195 142.285 -97.5586 138.184 -97.5586 C 136.279 -97.5586 134.033 -97.0215 131.494 -96.0449 L 21.7285 -54.0527 C 16.6016 -52.0996 12.8906 -48.9746 12.8906 -44.4336 C 12.8906 -38.9648 16.8945 -36.8652 22.8516 -35.1074 L 68.8965 -21.6309 L 82.2754 24.0723 C 84.082 30.1758 86.2305 34.4238 91.748 34.4238 Z M 72.0215 -31.5918 L 30.7129 -44.043 C 29.3457 -44.4336 29.0039 -44.7754 29.0039 -45.3125 C 29.0039 -45.8496 29.3457 -46.2891 30.4688 -46.6797 L 112.305 -77.8809 C 117.041 -79.7363 121.631 -81.9824 126.416 -84.1309 C 122.51 -81.0059 117.432 -76.9531 114.16 -73.7305 Z M 92.627 18.3594 C 92.0898 18.3594 91.748 17.9199 91.3574 16.6016 L 78.8574 -24.707 L 120.996 -66.8945 C 124.17 -70.0684 128.369 -75.293 131.494 -79.248 C 129.346 -74.4141 127.051 -69.7754 125.195 -65.0391 L 93.9453 16.8457 C 93.5547 17.9688 93.1641 18.3594 92.627 18.3594 Z"/>
  </g>
  <g id="Regular-L" transform="matrix(1 0 0 1 1371.67 1556)">
   <path d="M 91.0156 33.6914 C 95.166 33.6914 98.0957 30.2734 100.244 24.707 L 141.895 -84.2285 C 142.871 -86.7676 143.457 -89.0137 143.457 -90.8691 C 143.457 -94.5801 141.162 -96.875 137.451 -96.875 C 135.596 -96.875 133.35 -96.2891 130.811 -95.3125 L 21.4355 -53.4668 C 16.4551 -51.5625 12.8906 -48.6328 12.8906 -44.4336 C 12.8906 -39.3066 16.748 -37.4512 22.4609 -35.6934 L 68.75 -22.168 L 82.1777 23.6816 C 83.9355 29.6387 85.791 33.6914 91.0156 33.6914 Z M 71.1914 -30.3711 L 26.4648 -43.7988 C 24.9512 -44.2871 24.5605 -44.6289 24.5605 -45.166 C 24.5605 -45.752 24.9023 -46.2402 26.2207 -46.6797 L 116.797 -81.0547 C 121.045 -82.7148 125.195 -84.8145 129.053 -86.5723 C 125.586 -83.7402 120.85 -80.0781 118.066 -77.2461 Z M 91.7969 22.1191 C 91.2109 22.1191 90.8691 21.6309 90.3809 20.1172 L 76.9043 -24.5605 L 123.828 -71.4844 C 126.611 -74.2676 130.42 -79.0039 133.203 -82.5684 C 131.445 -78.7109 129.297 -74.5117 127.686 -70.2148 L 93.2617 20.3613 C 92.8223 21.6797 92.3828 22.1191 91.7969 22.1191 Z"/>
  </g>
  <g id="Light-L" transform="matrix(1 0 0 1 1075.96 1556)">
   <path d="M 90.0391 32.7148 C 93.6035 32.7148 96.1426 29.9316 98.0469 25.0488 L 140.234 -85.4004 C 141.016 -87.4512 141.455 -89.209 141.455 -90.7227 C 141.455 -93.9453 139.551 -95.8496 136.328 -95.8496 C 134.814 -95.8496 133.057 -95.4102 131.006 -94.6289 L 20.2637 -52.2949 C 15.7715 -50.5859 12.8906 -48.0469 12.8906 -44.4336 C 12.8906 -40.1855 15.9668 -38.4277 21.2402 -36.8652 L 68.6035 -23.0469 L 82.373 24.0723 C 83.9355 29.4922 85.6934 32.7148 90.0391 32.7148 Z M 70.5078 -29.3457 L 24.1211 -43.0664 C 21.9238 -43.7012 21.3867 -44.1895 21.3867 -44.9219 C 21.3867 -45.7031 21.9238 -46.2891 23.6816 -46.9238 L 121.582 -84.1309 C 124.854 -85.4004 128.076 -87.0117 130.762 -88.2324 C 128.223 -86.1816 124.17 -83.0566 122.168 -81.0547 Z M 90.5273 24.2676 C 89.7949 24.2676 89.3066 23.6816 88.6719 21.5332 L 74.9023 -24.8535 L 126.66 -76.5625 C 128.613 -78.5156 131.836 -82.5684 133.887 -85.2051 C 132.666 -82.4707 131.055 -79.2969 129.785 -75.9766 L 92.5293 21.9238 C 91.8945 23.6816 91.3086 24.2676 90.5273 24.2676 Z"/>
  </g>
  <g id="Thin-L" transform="matrix(1 0 0 1 780.568 1556)">
   <path d="M 88.7695 31.3965 C 91.6016 31.3965 93.6035 29.4922 95.1172 25.4883 L 138.037 -86.9629 C 138.574 -88.3301 138.818 -89.5508 138.818 -90.5762 C 138.818 -93.0664 137.402 -94.4824 134.863 -94.4824 C 133.838 -94.4824 132.666 -94.2871 131.299 -93.75 L 18.75 -50.7812 C 14.8438 -49.2676 12.8906 -47.3145 12.8906 -44.4336 C 12.8906 -41.3086 14.9414 -39.7461 19.6777 -38.3301 L 68.4082 -24.1699 L 82.6172 24.6094 C 83.9844 29.2969 85.5469 31.3965 88.7695 31.3965 Z M 69.5801 -27.9785 L 21.0449 -42.041 C 17.8711 -42.9688 17.2363 -43.5547 17.2363 -44.5312 C 17.2363 -45.6055 17.9688 -46.3379 20.3613 -47.2656 L 127.881 -88.2324 C 129.883 -89.0137 131.885 -89.8926 133.008 -90.4297 C 131.689 -89.4043 128.516 -86.9629 127.588 -86.0352 Z M 88.8672 27.0996 C 87.8418 27.0996 87.2559 26.416 86.377 23.3398 L 72.2168 -25.1953 L 130.371 -83.252 C 131.201 -84.1309 133.691 -87.2559 134.814 -88.623 C 134.277 -87.5 133.398 -85.5469 132.617 -83.5938 L 91.5527 23.9258 C 90.6738 26.3672 89.8926 27.0996 88.8672 27.0996 Z"/>
  </g>
  <g id="Ultralight-L" transform="matrix(1 0 0 1 484.54 1556)">
   <path d="M 88.0859 30.7617 C 90.5762 30.7617 92.2852 29.2969 93.6523 25.7324 L 136.914 -87.793 C 137.354 -88.8184 137.451 -89.6973 137.451 -90.4785 C 137.451 -92.627 136.279 -93.7988 134.131 -93.7988 C 133.35 -93.7988 132.471 -93.7012 131.396 -93.2617 L 17.9688 -50 C 14.3555 -48.6328 12.8906 -46.9238 12.8906 -44.4336 C 12.8906 -41.8945 14.4043 -40.4297 18.8477 -39.1113 L 68.3594 -24.7559 L 82.7637 24.8535 C 83.9844 29.1992 85.4492 30.7617 88.0859 30.7617 Z M 69.1406 -27.2949 L 19.4336 -41.5527 C 15.8203 -42.5781 15.0879 -43.2617 15.0879 -44.3359 C 15.0879 -45.5566 15.918 -46.3867 18.6523 -47.4121 L 131.152 -90.332 C 132.422 -90.8203 133.838 -91.4062 134.18 -91.5527 C 133.496 -91.0645 130.713 -89.0137 130.371 -88.623 Z M 87.9883 28.5645 C 86.8652 28.5645 86.2305 27.7832 85.2051 24.3164 L 70.8496 -25.3906 L 132.275 -86.7188 C 132.568 -87.0117 134.619 -89.6484 135.254 -90.4297 C 135.107 -90.0879 134.57 -88.7695 134.033 -87.5 L 91.0645 25 C 90.0391 27.7344 89.1602 28.5645 87.9883 28.5645 Z"/>
  </g>
  <g id="Black-M" transform="matrix(1 0 0 1 2869.07 1126)">
   <path d="M 74.2676 21.9727 C 79.248 21.9727 82.4707 18.7988 84.2773 14.0625 L 117.725 -73.6328 C 118.408 -75.4395 118.701 -77.0996 118.701 -78.5645 C 118.701 -83.5449 115.43 -86.8164 110.498 -86.8164 C 108.936 -86.8164 107.275 -86.4746 105.566 -85.8398 L 17.8711 -52.3926 C 13.1348 -50.5859 9.96094 -47.3145 9.96094 -42.3828 C 9.96094 -36.9141 13.623 -33.9844 18.9941 -32.4219 L 54.1016 -22.168 L 64.2578 12.8418 C 65.8203 18.2129 68.8477 21.9727 74.2676 21.9727 Z M 59.8633 -38.3301 L 44.8242 -42.9199 C 44.4824 -42.9688 44.2871 -43.2617 44.2871 -43.5547 C 44.2871 -43.7988 44.4824 -44.043 44.7266 -44.1406 L 65.918 -53.125 C 71.4355 -55.3711 76.8555 -57.6172 84.9609 -61.2793 C 80.127 -57.4219 74.4629 -52.5879 70.166 -48.3887 Z M 75.4883 -12.4512 C 75.1465 -12.4512 74.9512 -12.6465 74.9023 -12.9395 L 70.2148 -27.9297 L 80.2734 -38.2324 C 84.1797 -42.2363 89.502 -48.3887 93.2129 -53.0273 C 89.5508 -44.9707 87.3047 -39.502 85.0586 -34.0332 L 76.0254 -12.8906 C 75.9766 -12.6465 75.7324 -12.4512 75.4883 -12.4512 Z"/>
  </g>
  <g id="Heavy-M" transform="matrix(1 0 0 1 2573.11 1126)">
   <path d="M 73.5352 21.1914 C 78.125 21.1914 81.2012 18.0664 83.0078 13.3301 L 116.113 -73.3887 C 116.846 -75.293 117.188 -77.002 117.188 -78.5645 C 117.188 -83.0566 114.209 -86.0352 109.717 -86.0352 C 108.105 -86.0352 106.396 -85.6934 104.541 -84.9609 L 17.7246 -51.8066 C 13.1348 -50.0488 9.96094 -46.9727 9.96094 -42.3828 C 9.96094 -37.1582 13.5742 -34.5215 18.7988 -33.0078 L 53.9062 -22.7539 L 64.1113 12.2559 C 65.625 17.4805 68.3105 21.1914 73.5352 21.1914 Z M 58.8379 -36.8164 L 39.4043 -42.7734 C 38.9648 -42.8711 38.7695 -43.1152 38.7695 -43.457 C 38.7695 -43.7012 38.9648 -43.9941 39.3066 -44.0918 L 71.0938 -56.8848 C 76.2207 -58.9355 81.25 -61.1328 88.2812 -64.3066 C 83.8379 -60.7422 78.5645 -56.2988 74.6582 -52.4414 Z M 74.6094 -7.61719 C 74.2676 -7.61719 74.0723 -7.86133 73.9746 -8.30078 L 67.9688 -27.6855 L 83.5938 -43.457 C 87.207 -47.168 92.041 -52.832 95.459 -57.1289 C 92.2852 -50.0977 90.0879 -45.0684 88.0371 -39.9414 L 75.2441 -8.20312 C 75.1465 -7.86133 74.9023 -7.61719 74.6094 -7.61719 Z"/>
  </g>
  <g id="Bold-M" transform="matrix(1 0 0 1 2277.26 1126)">
   <path d="M 72.6562 20.3613 C 76.9043 20.3613 79.7852 17.2363 81.5918 12.5488 L 114.307 -73.0957 C 115.088 -75.0977 115.479 -76.9043 115.479 -78.5156 C 115.479 -82.5684 112.891 -85.2051 108.789 -85.2051 C 107.178 -85.2051 105.371 -84.7656 103.369 -83.9844 L 17.5293 -51.1719 C 13.1348 -49.5117 9.96094 -46.6309 9.96094 -42.3828 C 9.96094 -37.4023 13.5254 -35.1562 18.5059 -33.6914 L 53.7109 -23.3887 L 63.916 11.5234 C 65.4297 16.6504 67.6758 20.3613 72.6562 20.3613 Z M 57.666 -35.1562 L 33.3008 -42.627 C 32.7637 -42.7734 32.5684 -43.0176 32.5684 -43.3105 C 32.5684 -43.6035 32.7637 -43.8965 33.2031 -44.043 L 76.8555 -61.084 C 81.543 -62.9395 86.1328 -64.9902 91.9922 -67.6758 C 87.9395 -64.4043 83.1055 -60.4492 79.6387 -57.0312 Z M 73.6816 -2.24609 C 73.3398 -2.24609 73.0957 -2.49023 72.9492 -3.02734 L 65.4785 -27.3926 L 87.3047 -49.3164 C 90.5762 -52.6367 94.873 -57.7637 97.998 -61.7188 C 95.3613 -55.8594 93.2617 -51.2695 91.3574 -46.5332 L 74.3652 -2.92969 C 74.1699 -2.44141 73.9746 -2.24609 73.6816 -2.24609 Z"/>
  </g>
  <g id="Semibold-M" transform="matrix(1 0 0 1 1981.13 1126)">
   <path d="M 72.0703 19.7754 C 76.0742 19.7754 78.8086 16.6992 80.6152 12.0117 L 113.086 -72.9004 C 113.867 -75 114.307 -76.8555 114.307 -78.4668 C 114.307 -82.2266 111.914 -84.5703 108.203 -84.5703 C 106.592 -84.5703 104.688 -84.1309 102.588 -83.3496 L 17.4316 -50.7812 C 13.1348 -49.1211 9.96094 -46.3867 9.96094 -42.3828 C 9.96094 -37.5977 13.4766 -35.5957 18.3594 -34.1309 L 53.5645 -23.8281 L 63.7695 11.0352 C 65.2832 16.1133 67.2852 19.7754 72.0703 19.7754 Z M 56.8848 -34.0332 L 29.1504 -42.5293 C 28.4668 -42.7246 28.2715 -42.9199 28.2715 -43.2617 C 28.2715 -43.5547 28.4668 -43.8477 29.0527 -44.043 L 80.8105 -63.9648 C 85.2051 -65.6738 89.502 -67.7246 94.5312 -70.0195 C 90.8203 -66.9922 86.2793 -63.2812 83.1055 -60.1562 Z M 72.998 1.51367 C 72.6562 1.51367 72.4609 1.2207 72.2656 0.585938 L 63.7207 -27.1484 L 89.8926 -53.3691 C 92.9199 -56.4453 96.8262 -61.1816 99.7559 -64.8926 C 97.4609 -59.8145 95.4102 -55.5176 93.7012 -51.0742 L 73.7305 0.683594 C 73.5352 1.2207 73.291 1.51367 72.998 1.51367 Z"/>
  </g>
  <g id="Medium-M" transform="matrix(1 0 0 1 1684.86 1126)">
   <path d="M 71.6309 19.3359 C 75.4395 19.3359 78.0762 16.2598 79.8828 11.5723 L 112.109 -72.7051 C 112.939 -74.9023 113.428 -76.8066 113.428 -78.4668 C 113.428 -81.9336 111.23 -84.1309 107.715 -84.1309 C 106.104 -84.1309 104.15 -83.6914 102.002 -82.8613 L 17.334 -50.4395 C 13.1348 -48.8281 9.96094 -46.1914 9.96094 -42.3828 C 9.96094 -37.6953 13.4277 -35.9375 18.2129 -34.5215 L 53.4668 -24.1699 L 63.6719 10.6934 C 65.1367 15.6738 66.9434 19.3359 71.6309 19.3359 Z M 56.2988 -33.1543 L 25.9766 -42.4316 C 25.2441 -42.627 25.0488 -42.8711 25.0488 -43.1641 C 25.0488 -43.5059 25.1953 -43.7988 25.8789 -43.9941 L 83.8379 -66.1621 C 87.9883 -67.7734 92.041 -69.7266 96.4844 -71.7773 C 92.9688 -68.9453 88.6719 -65.4785 85.6934 -62.5488 Z M 72.5098 4.29688 C 72.1191 4.29688 71.9238 4.00391 71.7285 3.32031 L 62.4512 -27.002 L 91.7969 -56.4453 C 94.6777 -59.3262 98.291 -63.7695 101.074 -67.334 C 99.0723 -62.8418 97.0703 -58.7402 95.4102 -54.541 L 73.291 3.41797 C 73.0469 4.05273 72.8027 4.29688 72.5098 4.29688 Z"/>
  </g>
  <g id="Regular-M" transform="matrix(1 0 0 1 1388.74 1126)">
   <path d="M 71.0938 18.75 C 74.6094 18.75 77.0996 15.7227 78.9062 11.0352 L 110.889 -72.5098 C 111.768 -74.7559 112.256 -76.7578 112.256 -78.418 C 112.256 -81.5918 110.303 -83.5449 107.129 -83.5449 C 105.469 -83.5449 103.467 -83.0566 101.221 -82.1777 L 17.2363 -50 C 13.1348 -48.4375 9.96094 -45.9473 9.96094 -42.3828 C 9.96094 -37.8906 13.3789 -36.377 18.0664 -34.9609 L 53.3203 -24.6094 L 63.5742 10.2051 C 64.9902 15.1367 66.5527 18.75 71.0938 18.75 Z M 55.5176 -32.0312 L 21.8262 -42.334 C 20.9961 -42.5781 20.8008 -42.7734 20.8008 -43.1152 C 20.8008 -43.457 20.9961 -43.7012 21.7285 -43.9941 L 87.7441 -68.9941 C 91.6504 -70.459 95.3613 -72.4121 99.0234 -74.0723 C 95.8008 -71.4355 91.748 -68.3105 89.1113 -65.625 Z M 71.8262 8.00781 C 71.4844 8.00781 71.2891 7.66602 70.9961 6.88477 L 60.6934 -26.8066 L 94.3359 -60.4004 C 96.9727 -63.0371 100.244 -67.1387 102.832 -70.459 C 101.172 -66.748 99.1699 -62.9883 97.7051 -59.0332 L 72.6562 6.98242 C 72.4121 7.71484 72.168 8.00781 71.8262 8.00781 Z"/>
  </g>
  <g id="Light-M" transform="matrix(1 0 0 1 1092.9 1126)">
   <path d="M 70.2148 17.8711 C 73.1934 17.8711 75.3418 15.4297 76.9531 11.3281 L 109.424 -73.584 C 110.107 -75.3906 110.498 -76.9531 110.498 -78.3203 C 110.498 -81.0059 108.838 -82.666 106.152 -82.666 C 104.785 -82.666 103.223 -82.2754 101.416 -81.5918 L 16.2109 -48.9746 C 12.5 -47.5586 9.96094 -45.4102 9.96094 -42.3828 C 9.96094 -38.6719 12.6953 -37.2559 16.9922 -35.9863 L 53.1738 -25.3906 L 63.7207 10.5469 C 65.0391 14.9902 66.4551 17.8711 70.2148 17.8711 Z M 54.8828 -31.1035 L 19.7266 -41.6504 C 18.3105 -42.041 17.9688 -42.3828 17.9688 -42.8711 C 17.9688 -43.3594 18.3105 -43.75 19.4336 -44.1895 L 92.041 -71.7773 C 95.0195 -72.9004 97.9492 -74.3652 100.537 -75.5371 C 98.1445 -73.6328 94.7266 -70.9473 92.8223 -69.043 Z M 70.7031 9.91211 C 70.166 9.91211 69.873 9.52148 69.4336 8.1543 L 58.8867 -27.0508 L 96.875 -64.9902 C 98.7305 -66.8457 101.514 -70.3125 103.418 -72.8027 C 102.246 -70.166 100.781 -67.2363 99.6094 -64.209 L 72.0215 8.34961 C 71.582 9.52148 71.2402 9.91211 70.7031 9.91211 Z"/>
  </g>
  <g id="Thin-M" transform="matrix(1 0 0 1 797.389 1126)">
   <path d="M 69.043 16.6992 C 71.3867 16.6992 73.0469 15.0391 74.3164 11.7188 L 107.422 -75 C 107.91 -76.2207 108.105 -77.2461 108.105 -78.1738 C 108.105 -80.2246 106.934 -81.4453 104.834 -81.4453 C 103.906 -81.4453 102.881 -81.25 101.66 -80.7617 L 14.8438 -47.6074 C 11.6699 -46.3867 9.96094 -44.7266 9.96094 -42.3828 C 9.96094 -39.6973 11.7676 -38.4277 15.5762 -37.3047 L 53.0273 -26.416 L 63.9648 11.0352 C 65.0391 14.7949 66.3086 16.6992 69.043 16.6992 Z M 54.1016 -29.8828 L 16.9434 -40.7227 C 14.6973 -41.3574 14.209 -41.7969 14.209 -42.5293 C 14.209 -43.2617 14.7461 -43.8477 16.4551 -44.4824 L 97.7051 -75.4395 C 99.5117 -76.123 101.367 -76.9531 102.539 -77.5391 C 101.27 -76.5137 98.6328 -74.4629 97.6562 -73.5352 Z M 69.1895 12.4512 C 68.457 12.4512 68.0176 11.9629 67.3828 9.76562 L 56.543 -27.3926 L 100.195 -70.9961 C 101.074 -71.9238 103.174 -74.5605 104.248 -75.8789 C 103.711 -74.6582 102.832 -72.8516 102.148 -71.0449 L 71.1426 10.2051 C 70.5078 11.9141 69.9707 12.4512 69.1895 12.4512 Z"/>
  </g>
  <g id="Ultralight-M" transform="matrix(1 0 0 1 501.288 1126)">
   <path d="M 68.457 16.1133 C 70.459 16.1133 71.875 14.8438 72.998 11.9141 L 106.396 -75.6836 C 106.787 -76.6113 106.885 -77.3926 106.885 -78.0762 C 106.885 -79.834 105.908 -80.8105 104.15 -80.8105 C 103.467 -80.8105 102.686 -80.7129 101.758 -80.3711 L 14.1602 -46.9238 C 11.2305 -45.8008 9.96094 -44.3848 9.96094 -42.3828 C 9.96094 -40.2344 11.2793 -39.0625 14.8438 -37.9883 L 52.9785 -26.9531 L 64.0625 11.2305 C 65.0391 14.6973 66.2109 16.1133 68.457 16.1133 Z M 53.6621 -29.2969 L 15.5273 -40.2832 C 12.8418 -41.0156 12.3047 -41.5527 12.3047 -42.334 C 12.3047 -43.2129 12.9395 -43.8477 14.9414 -44.6289 L 100.635 -77.2949 C 101.807 -77.7832 103.076 -78.3203 103.613 -78.5156 C 102.881 -78.0273 100.635 -76.2695 100.146 -75.8301 Z M 68.4082 13.7695 C 67.5781 13.7695 67.0898 13.1836 66.3574 10.5957 L 55.2734 -27.5391 L 101.904 -74.0723 C 102.295 -74.4629 104.004 -76.709 104.688 -77.4414 C 104.443 -76.9531 103.906 -75.7324 103.418 -74.5605 L 70.7031 11.1328 C 69.9219 13.1348 69.2871 13.7695 68.4082 13.7695 Z"/>
  </g>
  <g id="Black-S" transform="matrix(1 0 0 1 2883.03 696)">
   <path d="M 58.1543 9.52148 C 62.0117 9.52148 64.5508 7.03125 65.9668 3.32031 L 92.1387 -65.2832 C 92.6758 -66.6992 92.9199 -68.0176 92.9199 -69.1895 C 92.9199 -73.0469 90.3809 -75.5859 86.5234 -75.5859 C 85.3027 -75.5859 83.9844 -75.3418 82.6172 -74.8047 L 14.0137 -48.6328 C 10.3027 -47.2168 7.8125 -44.6777 7.8125 -40.8203 C 7.8125 -36.5723 10.6934 -34.2773 14.8926 -33.0566 L 42.3828 -25.0488 L 50.3418 2.39258 C 51.5625 6.5918 53.9062 9.52148 58.1543 9.52148 Z M 46.8262 -37.5488 L 34.7168 -41.2598 C 34.4727 -41.3086 34.3262 -41.5039 34.3262 -41.748 C 34.3262 -41.9434 34.4727 -42.1387 34.668 -42.1875 L 52.002 -49.5117 C 56.2988 -51.2695 60.5469 -53.0273 66.7969 -55.8594 C 63.0371 -52.832 58.6426 -49.0723 55.2734 -45.8008 Z M 59.082 -17.041 C 58.8379 -17.041 58.6914 -17.1875 58.6426 -17.4316 L 54.8828 -29.4922 L 63.1348 -37.9395 C 66.1621 -41.0645 70.3125 -45.8496 73.1934 -49.4629 C 70.3613 -43.2129 68.6035 -38.9648 66.8457 -34.668 L 59.5215 -17.3828 C 59.4727 -17.1875 59.2773 -17.041 59.082 -17.041 Z"/>
  </g>
  <g id="Heavy-S" transform="matrix(1 0 0 1 2586.81 696)">
   <path d="M 57.666 9.0332 C 61.3281 9.0332 63.7695 6.49414 65.2344 2.73438 L 91.0645 -64.9414 C 91.6504 -66.5039 91.9434 -67.9199 91.9434 -69.1895 C 91.9434 -72.7539 89.5996 -75.0977 86.0352 -75.0977 C 84.7656 -75.0977 83.3496 -74.8047 81.8359 -74.2188 L 14.0137 -48.3398 C 10.3516 -46.9238 7.8125 -44.4824 7.8125 -40.8203 C 7.8125 -36.6699 10.7422 -34.6191 14.8438 -33.3984 L 42.2363 -25.3906 L 50.1953 1.85547 C 51.416 6.05469 53.5156 9.0332 57.666 9.0332 Z M 46.0938 -36.5234 L 30.8105 -41.2109 C 30.5176 -41.3086 30.4199 -41.4551 30.4199 -41.6992 C 30.4199 -41.8945 30.5176 -42.0898 30.7617 -42.1387 L 55.4688 -52.0508 C 59.5703 -53.7109 63.623 -55.4688 69.1895 -58.0078 C 65.625 -55.127 61.4258 -51.6113 58.3008 -48.5352 Z M 58.5449 -13.5742 C 58.3008 -13.5742 58.2031 -13.7207 58.1055 -13.9648 L 53.3691 -29.248 L 65.3809 -41.4551 C 68.2617 -44.3848 72.1191 -48.877 74.8535 -52.3438 C 72.3145 -46.7773 70.5566 -42.7246 68.8965 -38.623 L 58.9844 -13.9648 C 58.9355 -13.7207 58.7402 -13.5742 58.5449 -13.5742 Z"/>
  </g>
  <g id="Bold-S" transform="matrix(1 0 0 1 2290.64 696)">
   <path d="M 57.1289 8.49609 C 60.5469 8.49609 62.8906 5.95703 64.3555 2.09961 L 89.8926 -64.5996 C 90.5273 -66.3086 90.8691 -67.8223 90.8691 -69.1406 C 90.8691 -72.4609 88.7695 -74.5605 85.4492 -74.5605 C 84.1309 -74.5605 82.6172 -74.2188 80.9082 -73.584 L 14.0137 -47.9492 C 10.4492 -46.6309 7.8125 -44.2871 7.8125 -40.8203 C 7.8125 -36.7676 10.7422 -34.9609 14.7949 -33.7891 L 42.0898 -25.7812 L 50.0488 1.31836 C 51.2695 5.41992 53.0273 8.49609 57.1289 8.49609 Z M 45.3125 -35.3516 L 26.416 -41.1621 C 26.123 -41.2598 26.0254 -41.4062 26.0254 -41.6504 C 26.0254 -41.7969 26.123 -41.9922 26.3672 -42.0898 L 59.3262 -54.9316 C 63.2324 -56.4453 67.041 -58.2031 71.8262 -60.4004 C 68.457 -57.666 64.5508 -54.4434 61.6699 -51.6113 Z M 57.959 -9.66797 C 57.7148 -9.66797 57.6172 -9.86328 57.5195 -10.1562 L 51.6602 -29.0039 L 67.9199 -45.3613 C 70.6543 -48.1445 74.1211 -52.2949 76.709 -55.5664 C 74.5605 -50.7324 72.8027 -46.9238 71.2402 -43.0176 L 58.3984 -10.1074 C 58.3008 -9.81445 58.1543 -9.66797 57.959 -9.66797 Z"/>
  </g>
  <g id="Semibold-S" transform="matrix(1 0 0 1 1994.29 696)">
   <path d="M 56.7383 8.10547 C 60.0586 8.10547 62.3047 5.51758 63.7695 1.66016 L 89.0625 -64.3555 C 89.7461 -66.1621 90.1367 -67.7734 90.1367 -69.1406 C 90.1367 -72.2168 88.1836 -74.1699 85.1074 -74.1699 C 83.6914 -74.1699 82.0801 -73.7793 80.3223 -73.0957 L 14.0137 -47.7051 C 10.498 -46.3867 7.8125 -44.1406 7.8125 -40.8203 C 7.8125 -36.8164 10.791 -35.2539 14.7461 -34.082 L 41.9922 -26.0742 L 49.9023 0.878906 C 51.123 5.0293 52.7344 8.10547 56.7383 8.10547 Z M 44.7754 -34.5703 L 23.3887 -41.1621 C 23.0957 -41.2598 22.9492 -41.4062 22.9492 -41.6016 C 22.9492 -41.748 23.0469 -41.9434 23.3887 -42.041 L 62.0117 -56.8848 C 65.7715 -58.3496 69.3848 -60.1074 73.6328 -62.0605 C 70.459 -59.4727 66.6992 -56.3965 63.9648 -53.7109 Z M 57.5684 -6.98242 C 57.3242 -6.98242 57.2266 -7.17773 57.1289 -7.4707 L 50.4883 -28.8086 L 69.6777 -48.0469 C 72.2656 -50.6836 75.4883 -54.5898 78.0273 -57.8125 C 76.0742 -53.5156 74.3164 -49.8535 72.8516 -46.0938 L 58.0078 -7.4707 C 57.9102 -7.12891 57.7637 -6.98242 57.5684 -6.98242 Z"/>
  </g>
  <g id="Medium-S" transform="matrix(1 0 0 1 1697.87 696)">
   <path d="M 56.4941 7.86133 C 59.6191 7.86133 61.8652 5.22461 63.3301 1.31836 L 88.4277 -64.1602 C 89.1602 -66.0645 89.5508 -67.7246 89.5508 -69.1406 C 89.5508 -72.0703 87.6953 -73.9258 84.8145 -73.9258 C 83.3984 -73.9258 81.6895 -73.4863 79.834 -72.7539 L 14.0137 -47.5586 C 10.5469 -46.2402 7.8125 -43.9941 7.8125 -40.8203 C 7.8125 -36.8652 10.791 -35.4492 14.6973 -34.2773 L 41.9434 -26.2695 L 49.8535 0.585938 C 51.0254 4.6875 52.4902 7.86133 56.4941 7.86133 Z M 44.3359 -33.9355 L 21.0938 -41.1133 C 20.8008 -41.2598 20.6543 -41.3574 20.6543 -41.5527 C 20.6543 -41.748 20.752 -41.8945 21.0938 -41.9922 L 64.0625 -58.3984 C 67.6758 -59.7656 71.1426 -61.5234 75.0488 -63.2812 C 71.9238 -60.791 68.3594 -57.9102 65.7715 -55.3223 Z M 57.2754 -4.93164 C 57.0312 -4.93164 56.9336 -5.12695 56.7871 -5.46875 L 49.6094 -28.6621 L 70.9961 -50.0977 C 73.5352 -52.6367 76.5625 -56.3965 79.0039 -59.4727 C 77.2461 -55.5664 75.4395 -52.0508 74.0723 -48.3887 L 57.666 -5.41992 C 57.5684 -5.12695 57.4219 -4.93164 57.2754 -4.93164 Z"/>
  </g>
  <g id="Regular-S" transform="matrix(1 0 0 1 1401.53 696)">
   <path d="M 56.1035 7.4707 C 59.1309 7.4707 61.2305 4.83398 62.793 0.878906 L 87.5977 -63.916 C 88.3789 -65.918 88.8184 -67.6758 88.8184 -69.1406 C 88.8184 -71.8262 87.1094 -73.5352 84.4238 -73.5352 C 82.959 -73.5352 81.2012 -73.0957 79.248 -72.3145 L 14.0137 -47.3145 C 10.5957 -45.9961 7.8125 -43.8477 7.8125 -40.8203 C 7.8125 -36.9141 10.8398 -35.6934 14.6973 -34.5215 L 41.8457 -26.5137 L 49.7559 0.195312 C 50.9277 4.29688 52.1973 7.4707 56.1035 7.4707 Z M 43.7988 -33.1543 L 18.1152 -41.1133 C 17.7734 -41.2109 17.6758 -41.3574 17.6758 -41.5039 C 17.6758 -41.6992 17.7246 -41.8457 18.1152 -41.9922 L 66.6992 -60.3516 C 70.166 -61.6699 73.4863 -63.3789 76.8555 -64.9414 C 73.9258 -62.5488 70.459 -59.8145 68.0664 -57.4219 Z M 56.8359 -2.29492 C 56.6406 -2.29492 56.543 -2.49023 56.3965 -2.83203 L 48.4375 -28.5156 L 72.7051 -52.7344 C 75.1465 -55.1758 77.9297 -58.6914 80.2734 -61.6699 C 78.7109 -58.3008 76.9531 -54.9316 75.6348 -51.3672 L 57.2754 -2.83203 C 57.1289 -2.44141 57.0312 -2.29492 56.8359 -2.29492 Z"/>
  </g>
  <g id="Light-S" transform="matrix(1 0 0 1 1105.6 696)">
   <path d="M 55.3223 6.68945 C 57.9102 6.68945 59.7168 4.58984 61.0352 1.12305 L 86.2793 -64.8926 C 86.9141 -66.4551 87.2559 -67.8711 87.2559 -69.043 C 87.2559 -71.3379 85.8398 -72.7539 83.5449 -72.7539 C 82.373 -72.7539 80.957 -72.3633 79.3945 -71.7773 L 13.0859 -46.3867 C 10.0586 -45.2148 7.8125 -43.4082 7.8125 -40.8203 C 7.8125 -37.6465 10.2051 -36.4746 13.7207 -35.4492 L 41.748 -27.2461 L 49.9023 0.488281 C 50.9277 4.15039 52.0996 6.68945 55.3223 6.68945 Z M 43.2617 -32.373 L 16.2598 -40.5273 C 15.3809 -40.7715 15.1855 -40.9668 15.1855 -41.3086 C 15.1855 -41.6504 15.3809 -41.8945 16.1133 -42.1875 L 70.459 -62.793 C 73.1445 -63.8184 75.7812 -65.1367 78.1738 -66.2598 C 75.9766 -64.502 73.0957 -62.207 71.2891 -60.4004 Z M 55.8594 -0.585938 C 55.4688 -0.585938 55.2734 -0.878906 55.0293 -1.75781 L 46.875 -28.7109 L 74.9512 -56.7871 C 76.709 -58.5449 79.0527 -61.5234 80.8105 -63.7695 C 79.6875 -61.2793 78.3691 -58.6914 77.3438 -55.957 L 56.6895 -1.61133 C 56.3965 -0.878906 56.2012 -0.585938 55.8594 -0.585938 Z"/>
  </g>
  <g id="Thin-S" transform="matrix(1 0 0 1 809.938 696)">
   <path d="M 54.2969 5.66406 C 56.2988 5.66406 57.666 4.24805 58.7402 1.46484 L 84.5703 -66.1133 C 84.9609 -67.1875 85.1562 -68.1152 85.1562 -68.8965 C 85.1562 -70.6543 84.1309 -71.6797 82.373 -71.6797 C 81.5918 -71.6797 80.6641 -71.4844 79.5898 -71.0449 L 11.9141 -45.2148 C 9.32617 -44.1895 7.8125 -42.8223 7.8125 -40.8203 C 7.8125 -38.5254 9.42383 -37.5 12.4512 -36.6211 L 41.6016 -28.125 L 50.0488 0.927734 C 50.9766 4.00391 52.002 5.66406 54.2969 5.66406 Z M 42.5293 -31.2988 L 13.8184 -39.6973 C 12.207 -40.1855 11.8652 -40.4785 11.8652 -41.0156 C 11.8652 -41.5527 12.2559 -41.9434 13.4766 -42.4316 L 75.4883 -66.0156 C 77.1484 -66.6504 78.7598 -67.4316 79.9805 -67.9688 C 78.7598 -67.041 76.5137 -65.332 75.5859 -64.4043 Z M 54.4922 1.66016 C 54.0039 1.66016 53.6621 1.26953 53.2227 -0.292969 L 44.7266 -29.0039 L 77.8809 -62.1094 C 78.7598 -62.9883 80.5176 -65.2344 81.543 -66.5039 C 80.957 -65.2832 80.1758 -63.6719 79.541 -62.0117 L 55.9082 0 C 55.4688 1.26953 55.0781 1.66016 54.4922 1.66016 Z"/>
  </g>
  <g id="Ultralight-S" transform="matrix(1 0 0 1 513.764 696)">
   <path d="M 53.7598 5.12695 C 55.4688 5.12695 56.6406 4.05273 57.5684 1.66016 L 83.6426 -66.748 C 83.9844 -67.5293 84.082 -68.2129 84.082 -68.7988 C 84.082 -70.3125 83.252 -71.1426 81.7871 -71.1426 C 81.2012 -71.1426 80.5176 -70.9961 79.6875 -70.7031 L 11.2793 -44.5801 C 8.93555 -43.6523 7.8125 -42.4805 7.8125 -40.8203 C 7.8125 -39.0137 8.98438 -38.0371 11.8164 -37.207 L 41.5039 -28.6133 L 50.1953 1.12305 C 50.9766 3.90625 51.9043 5.12695 53.7598 5.12695 Z M 42.1875 -30.7617 L 12.5488 -39.3066 C 10.5957 -39.8438 10.1562 -40.2344 10.1562 -40.8691 C 10.1562 -41.5039 10.6445 -41.9922 12.1094 -42.5293 L 78.0762 -67.6758 C 79.1504 -68.1152 80.3223 -68.6035 80.9082 -68.8965 C 80.1758 -68.3594 78.3203 -66.8945 77.832 -66.4062 Z M 53.8086 2.83203 C 53.2227 2.83203 52.832 2.39258 52.2461 0.439453 L 43.6523 -29.1504 L 79.3945 -64.8438 C 79.834 -65.2832 81.25 -67.1387 81.8848 -67.8711 C 81.6406 -67.2852 81.1523 -66.2109 80.7129 -65.0879 L 55.5176 0.830078 C 54.9316 2.34375 54.4922 2.83203 53.8086 2.83203 Z"/>
  </g>
 </g>
</svg>
