<?xml version="1.0" encoding="UTF-8"?>
<!--Generator: Apple Native CoreSVG 149-->
<!DOCTYPE svg
PUBLIC "-//W3C//DTD SVG 1.1//EN"
       "http://www.w3.org/Graphics/SVG/1.1/DTD/svg11.dtd">
<svg version="1.1" xmlns="http://www.w3.org/2000/svg" xmlns:xlink="http://www.w3.org/1999/xlink" width="3300" height="2200">
 <!--glyph: "uni10066B.medium", point size: 100.000000, font version: "Version 16.0d18e1", template writer version: "8"-->
 <g id="Notes">
  <rect height="2200" id="artboard" style="fill:white;opacity:1" width="3300" x="0" y="0"/>
  <line id="" style="fill:none;stroke:black;opacity:1;stroke-width:0.5;" x1="263" x2="3036" y1="292" y2="292"/>
  <text style="stroke:none;fill:black;font-family:-apple-system,&quot;SF Pro Display&quot;,&quot;SF Pro Text&quot;,Helvetica,sans-serif;font-weight:bold;" transform="matrix(1 0 0 1 263 322)">Weight/Scale Variations</text>
  <text style="stroke:none;fill:black;font-family:-apple-system,&quot;SF Pro Display&quot;,&quot;SF Pro Text&quot;,Helvetica,sans-serif;text-anchor:middle;" transform="matrix(1 0 0 1 559.711 322)">Ultralight</text>
  <text style="stroke:none;fill:black;font-family:-apple-system,&quot;SF Pro Display&quot;,&quot;SF Pro Text&quot;,Helvetica,sans-serif;text-anchor:middle;" transform="matrix(1 0 0 1 856.422 322)">Thin</text>
  <text style="stroke:none;fill:black;font-family:-apple-system,&quot;SF Pro Display&quot;,&quot;SF Pro Text&quot;,Helvetica,sans-serif;text-anchor:middle;" transform="matrix(1 0 0 1 1153.13 322)">Light</text>
  <text style="stroke:none;fill:black;font-family:-apple-system,&quot;SF Pro Display&quot;,&quot;SF Pro Text&quot;,Helvetica,sans-serif;text-anchor:middle;" transform="matrix(1 0 0 1 1449.84 322)">Regular</text>
  <text style="stroke:none;fill:black;font-family:-apple-system,&quot;SF Pro Display&quot;,&quot;SF Pro Text&quot;,Helvetica,sans-serif;text-anchor:middle;" transform="matrix(1 0 0 1 1746.56 322)">Medium</text>
  <text style="stroke:none;fill:black;font-family:-apple-system,&quot;SF Pro Display&quot;,&quot;SF Pro Text&quot;,Helvetica,sans-serif;text-anchor:middle;" transform="matrix(1 0 0 1 2043.27 322)">Semibold</text>
  <text style="stroke:none;fill:black;font-family:-apple-system,&quot;SF Pro Display&quot;,&quot;SF Pro Text&quot;,Helvetica,sans-serif;text-anchor:middle;" transform="matrix(1 0 0 1 2339.98 322)">Bold</text>
  <text style="stroke:none;fill:black;font-family:-apple-system,&quot;SF Pro Display&quot;,&quot;SF Pro Text&quot;,Helvetica,sans-serif;text-anchor:middle;" transform="matrix(1 0 0 1 2636.69 322)">Heavy</text>
  <text style="stroke:none;fill:black;font-family:-apple-system,&quot;SF Pro Display&quot;,&quot;SF Pro Text&quot;,Helvetica,sans-serif;text-anchor:middle;" transform="matrix(1 0 0 1 2933.4 322)">Black</text>
  <line id="" style="fill:none;stroke:black;opacity:1;stroke-width:0.5;" x1="263" x2="3036" y1="1903" y2="1903"/>
  <g id="" transform="matrix(1 0 0 1 263 1933)">
   <path d="M9.24805 0.830078C13.5547 0.830078 17.1387-2.74414 17.1387-7.05078C17.1387-11.3574 13.5449-14.9316 9.23828-14.9316C4.94141-14.9316 1.36719-11.3574 1.36719-7.05078C1.36719-2.74414 4.95117 0.830078 9.24805 0.830078ZM9.24805-0.654297C5.70312-0.654297 2.87109-3.49609 2.87109-7.05078C2.87109-10.6055 5.69336-13.4473 9.23828-13.4473C12.793-13.4473 15.6348-10.6055 15.6445-7.05078C15.6543-3.49609 12.8027-0.654297 9.24805-0.654297ZM6.39648-6.31836L8.50586-6.31836L8.50586-4.19922C8.50586-3.75977 8.79883-3.45703 9.22852-3.45703C9.67773-3.45703 9.9707-3.75977 9.9707-4.19922L9.9707-6.31836L12.0996-6.31836C12.5391-6.31836 12.8418-6.61133 12.8418-7.04102C12.8418-7.48047 12.5391-7.7832 12.0996-7.7832L9.9707-7.7832L9.9707-9.89258C9.9707-10.3418 9.67773-10.6445 9.22852-10.6445C8.79883-10.6445 8.50586-10.3418 8.50586-9.89258L8.50586-7.7832L6.39648-7.7832C5.94727-7.7832 5.64453-7.48047 5.64453-7.04102C5.64453-6.61133 5.94727-6.31836 6.39648-6.31836Z"/>
  </g>
  <g id="" transform="matrix(1 0 0 1 281.506 1933)">
   <path d="M11.709 2.91016C17.1582 2.91016 21.6699-1.61133 21.6699-7.05078C21.6699-12.5 17.1484-17.0117 11.6992-17.0117C6.25977-17.0117 1.74805-12.5 1.74805-7.05078C1.74805-1.61133 6.26953 2.91016 11.709 2.91016ZM11.709 1.25C7.09961 1.25 3.41797-2.44141 3.41797-7.05078C3.41797-11.6602 7.08984-15.3516 11.6992-15.3516C16.3086-15.3516 20-11.6602 20.0098-7.05078C20.0195-2.44141 16.3184 1.25 11.709 1.25ZM7.98828-6.23047L10.8789-6.23047L10.8789-3.32031C10.8789-2.83203 11.2109-2.5 11.6895-2.5C12.1777-2.5 12.5195-2.83203 12.5195-3.32031L12.5195-6.23047L15.4297-6.23047C15.918-6.23047 16.25-6.5625 16.25-7.04102C16.25-7.5293 15.918-7.87109 15.4297-7.87109L12.5195-7.87109L12.5195-10.7617C12.5195-11.2695 12.1777-11.6016 11.6895-11.6016C11.2109-11.6016 10.8789-11.2598 10.8789-10.7617L10.8789-7.87109L7.98828-7.87109C7.48047-7.87109 7.14844-7.5293 7.14844-7.04102C7.14844-6.5625 7.49023-6.23047 7.98828-6.23047Z"/>
  </g>
  <g id="" transform="matrix(1 0 0 1 304.924 1933)">
   <path d="M14.9707 5.66406C21.9336 5.66406 27.6953-0.0976562 27.6953-7.05078C27.6953-14.0137 21.9238-19.7754 14.9609-19.7754C8.00781-19.7754 2.25586-14.0137 2.25586-7.05078C2.25586-0.0976562 8.01758 5.66406 14.9707 5.66406ZM14.9707 3.84766C8.93555 3.84766 4.08203-1.01562 4.08203-7.05078C4.08203-13.0957 8.92578-17.9492 14.9609-17.9492C21.0059-17.9492 25.8594-13.0957 25.8691-7.05078C25.8789-1.01562 21.0156 3.84766 14.9707 3.84766ZM10.0586-6.14258L14.0625-6.14258L14.0625-2.12891C14.0625-1.5918 14.4336-1.2207 14.9512-1.2207C15.4883-1.2207 15.8594-1.5918 15.8594-2.12891L15.8594-6.14258L19.8828-6.14258C20.4102-6.14258 20.791-6.51367 20.791-7.03125C20.791-7.56836 20.4199-7.94922 19.8828-7.94922L15.8594-7.94922L15.8594-11.9531C15.8594-12.5098 15.4883-12.8809 14.9512-12.8809C14.4336-12.8809 14.0625-12.5 14.0625-11.9531L14.0625-7.94922L10.0586-7.94922C9.50195-7.94922 9.13086-7.56836 9.13086-7.03125C9.13086-6.51367 9.51172-6.14258 10.0586-6.14258Z"/>
  </g>
  <text style="stroke:none;fill:black;font-family:-apple-system,&quot;SF Pro Display&quot;,&quot;SF Pro Text&quot;,Helvetica,sans-serif;font-weight:bold;" transform="matrix(1 0 0 1 263 1953)">Design Variations</text>
  <text style="stroke:none;fill:black;font-family:-apple-system,&quot;SF Pro Display&quot;,&quot;SF Pro Text&quot;,Helvetica,sans-serif;" transform="matrix(1 0 0 1 263 1971)">Symbols are supported in up to nine weights and three scales.</text>
  <text style="stroke:none;fill:black;font-family:-apple-system,&quot;SF Pro Display&quot;,&quot;SF Pro Text&quot;,Helvetica,sans-serif;" transform="matrix(1 0 0 1 263 1989)">For optimal layout with text and other symbols, vertically align</text>
  <text style="stroke:none;fill:black;font-family:-apple-system,&quot;SF Pro Display&quot;,&quot;SF Pro Text&quot;,Helvetica,sans-serif;" transform="matrix(1 0 0 1 263 2007)">symbols with the adjacent text.</text>
  <line id="" style="fill:none;stroke:#00AEEF;stroke-width:0.5;opacity:1.0;" x1="776" x2="776" y1="1919" y2="1933"/>
  <g id="" transform="matrix(1 0 0 1 776 1933)">
   <path d="M3.31055 0.126953C3.82812 0.126953 4.08203-0.0683594 4.26758-0.605469L5.52734-4.0625L11.2891-4.0625L12.5488-0.605469C12.7344-0.0683594 12.9883 0.126953 13.4961 0.126953C14.0137 0.126953 14.3457-0.185547 14.3457-0.673828C14.3457-0.839844 14.3164-0.986328 14.2383-1.20117L9.6582-13.3887C9.43359-13.9941 9.0332-14.2871 8.4082-14.2871C7.80273-14.2871 7.39258-13.9941 7.17773-13.3984L2.59766-1.19141C2.51953-0.976562 2.49023-0.830078 2.49023-0.664062C2.49023-0.175781 2.80273 0.126953 3.31055 0.126953ZM6.00586-5.53711L8.37891-12.1094L8.42773-12.1094L10.8008-5.53711Z"/>
  </g>
  <line id="" style="fill:none;stroke:#00AEEF;stroke-width:0.5;opacity:1.0;" x1="792.836" x2="792.836" y1="1919" y2="1933"/>
  <text style="stroke:none;fill:black;font-family:-apple-system,&quot;SF Pro Display&quot;,&quot;SF Pro Text&quot;,Helvetica,sans-serif;font-weight:bold;" transform="matrix(1 0 0 1 776 1953)">Margins</text>
  <text style="stroke:none;fill:black;font-family:-apple-system,&quot;SF Pro Display&quot;,&quot;SF Pro Text&quot;,Helvetica,sans-serif;" transform="matrix(1 0 0 1 776 1971)">Leading and trailing margins on the left and right side of each symbol</text>
  <text style="stroke:none;fill:black;font-family:-apple-system,&quot;SF Pro Display&quot;,&quot;SF Pro Text&quot;,Helvetica,sans-serif;" transform="matrix(1 0 0 1 776 1989)">can be adjusted by modifying the x-location of the margin guidelines.</text>
  <text style="stroke:none;fill:black;font-family:-apple-system,&quot;SF Pro Display&quot;,&quot;SF Pro Text&quot;,Helvetica,sans-serif;" transform="matrix(1 0 0 1 776 2007)">Modifications are automatically applied proportionally to all</text>
  <text style="stroke:none;fill:black;font-family:-apple-system,&quot;SF Pro Display&quot;,&quot;SF Pro Text&quot;,Helvetica,sans-serif;" transform="matrix(1 0 0 1 776 2025)">scales and weights.</text>
  <g id="" transform="matrix(1 0 0 1 1289 1933)">
   <path d="M2.8418 1.86523L4.54102 3.57422C5.40039 4.44336 6.38672 4.38477 7.31445 3.35938L17.4902-7.85156C17.7539-7.76367 18.0273-7.7832 18.3398-7.8418L19.4043-8.03711L20.0684-7.36328L20.0293-6.80664C19.9902-6.30859 20.1172-5.92773 20.6055-5.44922L21.3672-4.70703C21.8457-4.22852 22.4609-4.19922 22.9297-4.66797L25.8398-7.58789C26.3086-8.05664 26.2891-8.65234 25.8105-9.13086L25.0391-9.89258C24.5605-10.3711 24.1895-10.5273 23.7109-10.4883L23.1348-10.4395L22.4902-11.0742L22.7344-12.1973C22.8613-12.7637 22.7051-13.2031 22.1191-13.7891L19.9219-15.9766C16.582-19.2969 12.1484-19.2188 9.25781-16.3281C8.83789-15.918 8.80859-15.3418 9.04297-14.9512C9.27734-14.5898 9.73633-14.3555 10.3809-14.5215C11.8457-14.8633 13.3691-14.9219 14.7949-13.9844L14.209-12.5293C14.0137-12.0508 13.9844-11.6504 14.1113-11.2891L3.04688-0.898438C2.06055 0.0195312 1.98242 0.996094 2.8418 1.86523ZM10.752-15.957C13.1836-17.7344 16.4746-17.4316 18.7012-15.2051L21.1328-12.793C21.3672-12.5586 21.4062-12.373 21.3379-12.0312L21.0156-10.5469L22.5195-9.0625L23.5059-9.12109C23.7598-9.13086 23.8379-9.11133 24.0332-8.91602L24.6094-8.33984L22.168-5.89844L21.5918-6.47461C21.3965-6.66992 21.3672-6.74805 21.377-7.01172L21.4453-7.98828L19.9512-9.47266L18.4277-9.21875C18.1055-9.15039 17.959-9.17969 17.7148-9.41406L15.7129-11.416C15.459-11.6504 15.4297-11.8164 15.5859-12.1875L16.4648-14.2773C14.9023-15.7324 12.8711-16.3574 10.8398-15.7617C10.6836-15.7227 10.625-15.8496 10.752-15.957ZM5.27344 2.30469L4.10156 1.14258C3.63281 0.683594 3.74023 0.341797 4.14062-0.0195312L14.9512-10.1953L16.416-8.71094L6.42578 2.27539C6.07422 2.67578 5.74219 2.77344 5.27344 2.30469Z"/>
  </g>
  <text style="stroke:none;fill:black;font-family:-apple-system,&quot;SF Pro Display&quot;,&quot;SF Pro Text&quot;,Helvetica,sans-serif;font-weight:bold;" transform="matrix(1 0 0 1 1289 1953)">Exporting</text>
  <text style="stroke:none;fill:black;font-family:-apple-system,&quot;SF Pro Display&quot;,&quot;SF Pro Text&quot;,Helvetica,sans-serif;" transform="matrix(1 0 0 1 1289 1971)">Symbols should be outlined when exporting to ensure the</text>
  <text style="stroke:none;fill:black;font-family:-apple-system,&quot;SF Pro Display&quot;,&quot;SF Pro Text&quot;,Helvetica,sans-serif;" transform="matrix(1 0 0 1 1289 1989)">design is preserved when submitting to Xcode.</text>
  <text id="template-version" style="stroke:none;fill:black;font-family:-apple-system,&quot;SF Pro Display&quot;,&quot;SF Pro Text&quot;,Helvetica,sans-serif;text-anchor:end;" transform="matrix(1 0 0 1 3036 1933)">Template v.2.0</text>
  <text style="stroke:none;fill:black;font-family:-apple-system,&quot;SF Pro Display&quot;,&quot;SF Pro Text&quot;,Helvetica,sans-serif;text-anchor:end;" transform="matrix(1 0 0 1 3036 1951)">Requires Xcode 12 or greater</text>
  <text style="stroke:none;fill:black;font-family:-apple-system,&quot;SF Pro Display&quot;,&quot;SF Pro Text&quot;,Helvetica,sans-serif;text-anchor:end;" transform="matrix(1 0 0 1 3036 1969)">Generated from waveform</text>
  <text style="stroke:none;fill:black;font-family:-apple-system,&quot;SF Pro Display&quot;,&quot;SF Pro Text&quot;,Helvetica,sans-serif;text-anchor:end;" transform="matrix(1 0 0 1 3036 1987)">Typeset at 100 points</text>
  <text style="stroke:none;fill:black;font-family:-apple-system,&quot;SF Pro Display&quot;,&quot;SF Pro Text&quot;,Helvetica,sans-serif;" transform="matrix(1 0 0 1 263 726)">Small</text>
  <text style="stroke:none;fill:black;font-family:-apple-system,&quot;SF Pro Display&quot;,&quot;SF Pro Text&quot;,Helvetica,sans-serif;" transform="matrix(1 0 0 1 263 1156)">Medium</text>
  <text style="stroke:none;fill:black;font-family:-apple-system,&quot;SF Pro Display&quot;,&quot;SF Pro Text&quot;,Helvetica,sans-serif;" transform="matrix(1 0 0 1 263 1586)">Large</text>
 </g>
 <g id="Guides">
  <g id="H-reference" style="fill:#27AAE1;stroke:none;" transform="matrix(1 0 0 1 339 696)">
   <path d="M0.976562 0L3.66211 0L12.9883-24.4629L45.752-24.4629L55.127 0L57.7637 0L30.6152-70.459L28.125-70.459ZM29.3457-67.1387L29.4434-67.1387L44.873-26.709L13.8672-26.709Z"/>
  </g>
  <line id="Baseline-S" style="fill:none;stroke:#27AAE1;opacity:1;stroke-width:0.5;" x1="263" x2="3036" y1="696" y2="696"/>
  <line id="Capline-S" style="fill:none;stroke:#27AAE1;opacity:1;stroke-width:0.5;" x1="263" x2="3036" y1="625.541" y2="625.541"/>
  <g id="H-reference" style="fill:#27AAE1;stroke:none;" transform="matrix(1 0 0 1 339 1126)">
   <path d="M0.976562 0L3.66211 0L12.9883-24.4629L45.752-24.4629L55.127 0L57.7637 0L30.6152-70.459L28.125-70.459ZM29.3457-67.1387L29.4434-67.1387L44.873-26.709L13.8672-26.709Z"/>
  </g>
  <line id="Baseline-M" style="fill:none;stroke:#27AAE1;opacity:1;stroke-width:0.5;" x1="263" x2="3036" y1="1126" y2="1126"/>
  <line id="Capline-M" style="fill:none;stroke:#27AAE1;opacity:1;stroke-width:0.5;" x1="263" x2="3036" y1="1055.54" y2="1055.54"/>
  <g id="H-reference" style="fill:#27AAE1;stroke:none;" transform="matrix(1 0 0 1 339 1556)">
   <path d="M0.976562 0L3.66211 0L12.9883-24.4629L45.752-24.4629L55.127 0L57.7637 0L30.6152-70.459L28.125-70.459ZM29.3457-67.1387L29.4434-67.1387L44.873-26.709L13.8672-26.709Z"/>
  </g>
  <line id="Baseline-L" style="fill:none;stroke:#27AAE1;opacity:1;stroke-width:0.5;" x1="263" x2="3036" y1="1556" y2="1556"/>
  <line id="Capline-L" style="fill:none;stroke:#27AAE1;opacity:1;stroke-width:0.5;" x1="263" x2="3036" y1="1485.54" y2="1485.54"/>
  <line id="left-margin" style="fill:none;stroke:#00AEEF;stroke-width:0.5;opacity:1.0;" x1="1398.45" x2="1398.45" y1="1030.79" y2="1150.12"/>
  <line id="right-margin" style="fill:none;stroke:#00AEEF;stroke-width:0.5;opacity:1.0;" x1="1501.24" x2="1501.24" y1="1030.79" y2="1150.12"/>
 </g>
 <g id="Symbols">
  <g id="Black-L" transform="matrix(1 0 0 1 2853.57 1556)">
   <path d="M68.6035 25.1465C72.9004 25.1465 76.1719 21.7285 76.1719 17.5781L76.1719-88.0859C76.1719-92.334 72.8027-95.6543 68.6035-95.6543C64.4043-95.6543 61.1328-92.2852 61.1328-88.0859L61.1328 17.5781C61.1328 21.7285 64.4043 25.1465 68.6035 25.1465ZM113.623 13.3301C117.871 13.3301 121.143 10.0098 121.143 5.85938L121.143-76.3672C121.143-80.6152 117.822-83.8867 113.623-83.8867C109.375-83.8867 106.104-80.5176 106.104-76.3672L106.104 5.85938C106.104 10.0586 109.424 13.3301 113.623 13.3301ZM46.0938 7.51953C50.293 7.51953 53.6621 4.19922 53.6621 0L53.6621-70.5078C53.6621-74.707 50.293-78.0273 46.0938-78.0273C41.8457-78.0273 38.5742-74.707 38.5742-70.5078L38.5742 0C38.5742 4.24805 41.8945 7.51953 46.0938 7.51953ZM91.1621-3.95508C95.3613-3.95508 98.6328-7.32422 98.6328-11.4746L98.6328-59.0332C98.6328-63.2812 95.3125-66.6016 91.1621-66.6016C86.9629-66.6016 83.6426-63.1836 83.6426-59.0332L83.6426-11.4746C83.6426-7.32422 86.9629-3.95508 91.1621-3.95508ZM136.084-12.8906C140.332-12.8906 143.604-16.2598 143.604-20.4102L143.604-50.0977C143.604-54.3457 140.283-57.6172 136.084-57.6172C131.836-57.6172 128.564-54.2969 128.564-50.0977L128.564-20.4102C128.564-16.1621 131.885-12.8906 136.084-12.8906ZM23.584-17.7246C27.832-17.7246 31.1523-21.1426 31.1523-25.293L31.1523-45.2148C31.1523-49.4629 27.7832-52.7832 23.584-52.7832C19.3848-52.7832 16.0645-49.3652 16.0645-45.2148L16.0645-25.293C16.0645-21.1426 19.3848-17.7246 23.584-17.7246Z"/>
  </g>
  <g id="Heavy-L" transform="matrix(1 0 0 1 2560.27 1556)">
   <path d="M65.7227 24.5605C69.4824 24.5605 72.4121 21.582 72.4121 17.9199L72.4121-88.3789C72.4121-92.1387 69.4336-95.0684 65.7227-95.0684C61.9629-95.0684 59.082-92.0898 59.082-88.3789L59.082 17.9199C59.082 21.582 61.9629 24.5605 65.7227 24.5605ZM108.691 12.3535C112.451 12.3535 115.283 9.375 115.283 5.71289L115.283-76.2207C115.283-79.9316 112.402-82.8125 108.691-82.8125C104.883-82.8125 102.051-79.8828 102.051-76.2207L102.051 5.71289C102.051 9.42383 104.932 12.3535 108.691 12.3535ZM44.1895 5.61523C47.9492 5.61523 50.8789 2.68555 50.8789-1.02539L50.8789-69.4824C50.8789-73.1934 47.9492-76.123 44.1895-76.123C40.4297-76.123 37.5488-73.1934 37.5488-69.4824L37.5488-1.02539C37.5488 2.73438 40.4785 5.61523 44.1895 5.61523ZM87.207-4.63867C90.918-4.63867 93.8477-7.66602 93.8477-11.3281L93.8477-59.1797C93.8477-62.8906 90.918-65.8203 87.207-65.8203C83.4961-65.8203 80.5664-62.8418 80.5664-59.1797L80.5664-11.3281C80.5664-7.66602 83.4961-4.63867 87.207-4.63867ZM130.127-14.1113C133.887-14.1113 136.768-17.041 136.768-20.752L136.768-49.7559C136.768-53.5156 133.838-56.3965 130.127-56.3965C126.367-56.3965 123.486-53.4668 123.486-49.7559L123.486-20.752C123.486-16.9922 126.416-14.1113 130.127-14.1113ZM22.7051-19.043C26.4648-19.043 29.3945-22.0215 29.3945-25.7324L29.3945-44.7754C29.3945-48.5352 26.416-51.4648 22.7051-51.4648C18.9941-51.4648 16.0645-48.4863 16.0645-44.7754L16.0645-25.7324C16.0645-22.0215 18.9941-19.043 22.7051-19.043Z"/>
  </g>
  <g id="Bold-L" transform="matrix(1 0 0 1 2267.39 1556)">
   <path d="M62.4512 23.9746C65.6738 23.9746 68.1641 21.4355 68.1641 18.2617L68.1641-88.7695C68.1641-91.9434 65.625-94.4336 62.4512-94.4336C59.2285-94.4336 56.7871-91.8945 56.7871-88.7695L56.7871 18.2617C56.7871 21.4355 59.2285 23.9746 62.4512 23.9746ZM103.125 11.1816C106.348 11.1816 108.789 8.69141 108.789 5.51758L108.789-76.0254C108.789-79.1992 106.348-81.6895 103.125-81.6895C99.9023-81.6895 97.4609-79.1992 97.4609-76.0254L97.4609 5.51758C97.4609 8.74023 99.9512 11.1816 103.125 11.1816ZM42.0898 3.4668C45.3125 3.4668 47.8027 0.976562 47.8027-2.19727L47.8027-68.3105C47.8027-71.4355 45.3125-73.9746 42.0898-73.9746C38.8672-73.9746 36.4258-71.4355 36.4258-68.3105L36.4258-2.19727C36.4258 0.976562 38.8672 3.4668 42.0898 3.4668ZM82.8125-5.46875C85.9863-5.46875 88.4766-8.00781 88.4766-11.1816L88.4766-59.3262C88.4766-62.5 85.9863-64.9902 82.8125-64.9902C79.5898-64.9902 77.1484-62.5 77.1484-59.3262L77.1484-11.1816C77.1484-8.00781 79.5898-5.46875 82.8125-5.46875ZM123.438-15.4297C126.709-15.4297 129.102-17.9199 129.102-21.0938L129.102-49.4141C129.102-52.5879 126.66-55.0781 123.438-55.0781C120.215-55.0781 117.773-52.5879 117.773-49.4141L117.773-21.0938C117.773-17.8711 120.264-15.4297 123.438-15.4297ZM21.7285-20.5078C24.9512-20.5078 27.4414-23.0469 27.4414-26.2207L27.4414-44.2871C27.4414-47.4609 24.9512-50 21.7285-50C18.5547-50 16.0645-47.4609 16.0645-44.2871L16.0645-26.2207C16.0645-23.0469 18.5547-20.5078 21.7285-20.5078Z"/>
  </g>
  <g id="Semibold-L" transform="matrix(1 0 0 1 1973.3 1556)">
   <path d="M60.2051 23.5352C63.0371 23.5352 65.2344 21.3379 65.2344 18.5059L65.2344-89.0137C65.2344-91.7969 63.0371-93.9941 60.2051-93.9941C57.373-93.9941 55.1758-91.7969 55.1758-89.0137L55.1758 18.5059C55.1758 21.3379 57.373 23.5352 60.2051 23.5352ZM99.3164 10.4004C102.148 10.4004 104.297 8.20312 104.297 5.41992L104.297-75.8789C104.297-78.7109 102.148-80.9082 99.3164-80.9082C96.4355-80.9082 94.3359-78.7109 94.3359-75.8789L94.3359 5.41992C94.3359 8.25195 96.4844 10.4004 99.3164 10.4004ZM40.625 2.00195C43.457 2.00195 45.6543-0.195312 45.6543-2.97852L45.6543-67.4805C45.6543-70.2637 43.457-72.4609 40.625-72.4609C37.793-72.4609 35.6445-70.2637 35.6445-67.4805L35.6445-2.97852C35.6445-0.195312 37.793 2.00195 40.625 2.00195ZM79.7852-6.05469C82.6172-6.05469 84.7656-8.25195 84.7656-11.084L84.7656-59.4238C84.7656-62.2559 82.5684-64.4531 79.7852-64.4531C76.9043-64.4531 74.7559-62.207 74.7559-59.4238L74.7559-11.084C74.7559-8.25195 76.9043-6.05469 79.7852-6.05469ZM118.848-16.3086C121.729-16.3086 123.877-18.5059 123.877-21.3379L123.877-49.1699C123.877-51.9531 121.68-54.1504 118.848-54.1504C116.016-54.1504 113.867-51.9531 113.867-49.1699L113.867-21.3379C113.867-18.5059 116.016-16.3086 118.848-16.3086ZM21.0449-21.4844C23.9258-21.4844 26.0742-23.7305 26.0742-26.5137L26.0742-43.9453C26.0742-46.7773 23.877-48.9746 21.0449-48.9746C18.2129-48.9746 16.0645-46.7285 16.0645-43.9453L16.0645-26.5137C16.0645-23.7305 18.2129-21.4844 21.0449-21.4844Z"/>
  </g>
  <g id="Medium-L" transform="matrix(1 0 0 1 1678.59 1556)">
   <path d="M58.4961 23.1934C61.084 23.1934 62.9883 21.2402 62.9883 18.7012L62.9883-89.1602C62.9883-91.6992 61.0352-93.7012 58.4961-93.7012C55.9082-93.7012 54.0039-91.6992 54.0039-89.1602L54.0039 18.7012C54.0039 21.2402 55.9082 23.1934 58.4961 23.1934ZM96.4355 9.81445C98.9746 9.81445 100.928 7.86133 100.928 5.32227L100.928-75.7812C100.928-78.3203 98.9746-80.2734 96.4355-80.2734C93.8477-80.2734 91.9434-78.3203 91.9434-75.7812L91.9434 5.32227C91.9434 7.86133 93.8477 9.81445 96.4355 9.81445ZM39.502 0.878906C42.0898 0.878906 44.043-1.07422 44.043-3.61328L44.043-66.8457C44.043-69.3848 42.0898-71.3379 39.502-71.3379C36.9629-71.3379 35.0098-69.3848 35.0098-66.8457L35.0098-3.61328C35.0098-1.07422 36.9629 0.878906 39.502 0.878906ZM77.4414-6.44531C80.0293-6.44531 81.9336-8.44727 81.9336-10.9863L81.9336-59.5215C81.9336-62.0117 80.0293-64.0137 77.4414-64.0137C74.9023-64.0137 72.9492-62.0117 72.9492-59.5215L72.9492-10.9863C72.9492-8.44727 74.9023-6.44531 77.4414-6.44531ZM115.381-16.9922C117.969-16.9922 119.873-18.9941 119.873-21.4844L119.873-48.9746C119.873-51.5137 117.92-53.4668 115.381-53.4668C112.793-53.4668 110.889-51.4648 110.889-48.9746L110.889-21.4844C110.889-18.9941 112.793-16.9922 115.381-16.9922ZM20.5566-22.2656C23.1445-22.2656 25.0488-24.2676 25.0488-26.7578L25.0488-43.7012C25.0488-46.2402 23.0957-48.1934 20.5566-48.1934C18.0176-48.1934 16.0645-46.2402 16.0645-43.7012L16.0645-26.7578C16.0645-24.2676 18.0176-22.2656 20.5566-22.2656Z"/>
  </g>
  <g id="Regular-L" transform="matrix(1 0 0 1 1384.49 1556)">
   <path d="M56.25 22.8027C58.4473 22.8027 60.1074 21.0938 60.1074 18.9453L60.1074-89.4043C60.1074-91.5527 58.4473-93.2617 56.25-93.2617C54.0527-93.2617 52.4414-91.5527 52.4414-89.4043L52.4414 18.9453C52.4414 21.0938 54.0527 22.8027 56.25 22.8027ZM92.627 9.0332C94.8242 9.0332 96.4844 7.37305 96.4844 5.22461L96.4844-75.6836C96.4844-77.832 94.8242-79.4922 92.627-79.4922C90.4297-79.4922 88.8184-77.832 88.8184-75.6836L88.8184 5.22461C88.8184 7.37305 90.4297 9.0332 92.627 9.0332ZM38.0859-0.585938C40.2832-0.585938 41.8945-2.24609 41.8945-4.39453L41.8945-66.0645C41.8945-68.2129 40.2832-69.873 38.0859-69.873C35.8887-69.873 34.2285-68.2129 34.2285-66.0645L34.2285-4.39453C34.2285-2.24609 35.8887-0.585938 38.0859-0.585938ZM74.4629-7.03125C76.6602-7.03125 78.2715-8.69141 78.2715-10.8398L78.2715-59.6191C78.2715-61.7676 76.6602-63.4277 74.4629-63.4277C72.2656-63.4277 70.6055-61.7676 70.6055-59.6191L70.6055-10.8398C70.6055-8.69141 72.2656-7.03125 74.4629-7.03125ZM110.84-17.9199C113.037-17.9199 114.648-19.5801 114.648-21.7285L114.648-48.7305C114.648-50.8789 113.037-52.5391 110.84-52.5391C108.643-52.5391 106.982-50.8789 106.982-48.7305L106.982-21.7285C106.982-19.5801 108.643-17.9199 110.84-17.9199ZM19.873-23.2422C22.1191-23.2422 23.7305-24.9512 23.7305-27.0996L23.7305-43.3594C23.7305-45.5078 22.1191-47.2168 19.873-47.2168C17.6758-47.2168 16.0645-45.5078 16.0645-43.3594L16.0645-27.0996C16.0645-24.9512 17.6758-23.2422 19.873-23.2422Z"/>
  </g>
  <g id="Light-L" transform="matrix(1 0 0 1 1089.07 1556)">
   <path d="M55.0781 22.8027C56.7871 22.8027 58.0566 21.4844 58.0566 19.7754L58.0566-90.2344C58.0566-91.9434 56.7871-93.2617 55.0781-93.2617C53.3203-93.2617 52.0508-91.9434 52.0508-90.2344L52.0508 19.7754C52.0508 21.4844 53.3203 22.8027 55.0781 22.8027ZM91.0645 7.56836C92.8223 7.56836 94.0918 6.29883 94.0918 4.58984L94.0918-75.0488C94.0918-76.7578 92.8223-78.0273 91.0645-78.0273C89.3555-78.0273 88.0859-76.7578 88.0859-75.0488L88.0859 4.58984C88.0859 6.29883 89.3555 7.56836 91.0645 7.56836ZM37.0605-1.31836C38.8184-1.31836 40.0879-2.58789 40.0879-4.29688L40.0879-66.1621C40.0879-67.8711 38.8184-69.1406 37.0605-69.1406C35.3516-69.1406 34.082-67.8711 34.082-66.1621L34.082-4.29688C34.082-2.58789 35.3516-1.31836 37.0605-1.31836ZM73.0469-7.32422C74.8047-7.32422 76.0742-8.59375 76.0742-10.3027L76.0742-60.1562C76.0742-61.8652 74.8047-63.1348 73.0469-63.1348C71.3379-63.1348 70.0684-61.8652 70.0684-60.1562L70.0684-10.3027C70.0684-8.59375 71.3379-7.32422 73.0469-7.32422ZM109.082-17.5781C110.791-17.5781 112.061-18.8477 112.061-20.5566L112.061-49.9023C112.061-51.6113 110.791-52.8809 109.082-52.8809C107.324-52.8809 106.055-51.6113 106.055-49.9023L106.055-20.5566C106.055-18.8477 107.324-17.5781 109.082-17.5781ZM19.043-23.4863C20.8008-23.4863 22.0703-24.7559 22.0703-26.4648L22.0703-43.9941C22.0703-45.7031 20.8008-46.9727 19.043-46.9727C17.334-46.9727 16.0645-45.7031 16.0645-43.9941L16.0645-26.4648C16.0645-24.7559 17.334-23.4863 19.043-23.4863Z"/>
  </g>
  <g id="Thin-L" transform="matrix(1 0 0 1 794.069 1556)">
   <path d="M53.4668 22.8027C54.5898 22.8027 55.3711 22.0215 55.3711 20.8984L55.3711-91.3574C55.3711-92.4805 54.5898-93.2617 53.4668-93.2617C52.3438-93.2617 51.5625-92.4805 51.5625-91.3574L51.5625 20.8984C51.5625 22.0215 52.3438 22.8027 53.4668 22.8027ZM89.0137 5.61523C90.1367 5.61523 90.8691 4.83398 90.8691 3.71094L90.8691-74.1699C90.8691-75.293 90.1367-76.0742 89.0137-76.0742C87.8418-76.0742 87.1094-75.293 87.1094-74.1699L87.1094 3.71094C87.1094 4.83398 87.8418 5.61523 89.0137 5.61523ZM35.7422-2.29492C36.8652-2.29492 37.5977-3.07617 37.5977-4.19922L37.5977-66.2598C37.5977-67.3828 36.8652-68.1641 35.7422-68.1641C34.5703-68.1641 33.8379-67.3828 33.8379-66.2598L33.8379-4.19922C33.8379-3.07617 34.5703-2.29492 35.7422-2.29492ZM71.2402-7.66602C72.3633-7.66602 73.1445-8.44727 73.1445-9.57031L73.1445-60.8887C73.1445-62.0117 72.3633-62.793 71.2402-62.793C70.1172-62.793 69.3359-62.0117 69.3359-60.8887L69.3359-9.57031C69.3359-8.44727 70.1172-7.66602 71.2402-7.66602ZM106.738-17.1387C107.861-17.1387 108.643-17.9199 108.643-19.043L108.643-51.416C108.643-52.5391 107.861-53.3203 106.738-53.3203C105.615-53.3203 104.834-52.5391 104.834-51.416L104.834-19.043C104.834-17.9199 105.615-17.1387 106.738-17.1387ZM17.9688-23.7793C19.0918-23.7793 19.873-24.5605 19.873-25.6836L19.873-44.7754C19.873-45.8984 19.0918-46.6797 17.9688-46.6797C16.8457-46.6797 16.0645-45.8984 16.0645-44.7754L16.0645-25.6836C16.0645-24.5605 16.8457-23.7793 17.9688-23.7793Z"/>
  </g>
  <g id="Ultralight-L" transform="matrix(1 0 0 1 498.237 1556)">
   <path d="M52.6855 22.8027C53.4668 22.8027 54.0039 22.2656 54.0039 21.4355L54.0039-91.8945C54.0039-92.7246 53.4668-93.2617 52.6855-93.2617C51.8555-93.2617 51.3184-92.7246 51.3184-91.8945L51.3184 21.4355C51.3184 22.2656 51.8555 22.8027 52.6855 22.8027ZM87.9395 4.63867C88.7207 4.63867 89.2578 4.10156 89.2578 3.27148L89.2578-73.7305C89.2578-74.5605 88.7207-75.0977 87.9395-75.0977C87.1094-75.0977 86.5723-74.5605 86.5723-73.7305L86.5723 3.27148C86.5723 4.10156 87.1094 4.63867 87.9395 4.63867ZM35.0098-2.7832C35.8398-2.7832 36.377-3.32031 36.377-4.10156L36.377-66.3574C36.377-67.1387 35.8398-67.6758 35.0098-67.6758C34.2285-67.6758 33.6914-67.1387 33.6914-66.3574L33.6914-4.10156C33.6914-3.32031 34.2285-2.7832 35.0098-2.7832ZM70.3125-7.86133C71.0938-7.86133 71.6309-8.34961 71.6309-9.17969L71.6309-61.2793C71.6309-62.1094 71.0938-62.5977 70.3125-62.5977C69.4824-62.5977 68.9453-62.1094 68.9453-61.2793L68.9453-9.17969C68.9453-8.34961 69.4824-7.86133 70.3125-7.86133ZM105.566-16.8945C106.396-16.8945 106.885-17.4316 106.885-18.2617L106.885-52.1973C106.885-53.0273 106.396-53.5645 105.566-53.5645C104.736-53.5645 104.248-53.0273 104.248-52.1973L104.248-18.2617C104.248-17.4316 104.736-16.8945 105.566-16.8945ZM17.3828-23.9258C18.2129-23.9258 18.75-24.4629 18.75-25.2441L18.75-45.2148C18.75-45.9961 18.2129-46.5332 17.3828-46.5332C16.6016-46.5332 16.0645-45.9961 16.0645-45.2148L16.0645-25.2441C16.0645-24.4629 16.6016-23.9258 17.3828-23.9258Z"/>
  </g>
  <g id="Black-M" transform="matrix(1 0 0 1 2867.63 1126)">
   <path d="M56.4941 12.3047C60.2051 12.3047 63.0859 9.32617 63.0859 5.66406L63.0859-76.2207C63.0859-79.9316 60.1074-82.8125 56.4941-82.8125C52.832-82.8125 49.9512-79.834 49.9512-76.2207L49.9512 5.66406C49.9512 9.32617 52.832 12.3047 56.4941 12.3047ZM93.8965 2.97852C97.6074 2.97852 100.439 0.0976562 100.439-3.56445L100.439-66.9922C100.439-70.7031 97.5586-73.5352 93.8965-73.5352C90.1855-73.5352 87.3535-70.6055 87.3535-66.9922L87.3535-3.56445C87.3535 0.146484 90.2344 2.97852 93.8965 2.97852ZM37.7441 0.0488281C41.3574 0.0488281 44.3359-2.83203 44.3359-6.49414L44.3359-64.0625C44.3359-67.6758 41.3574-70.6055 37.7441-70.6055C34.0332-70.6055 31.2012-67.6758 31.2012-64.0625L31.2012-6.49414C31.2012-2.7832 34.082 0.0488281 37.7441 0.0488281ZM75.1953-10.1562C78.8574-10.1562 81.7383-13.0859 81.7383-16.748L81.7383-53.7598C81.7383-57.4707 78.8086-60.4004 75.1953-60.4004C71.582-60.4004 68.6523-57.4219 68.6523-53.7598L68.6523-16.748C68.6523-13.0859 71.582-10.1562 75.1953-10.1562ZM112.549-16.1621C116.26-16.1621 119.092-19.043 119.092-22.7051L119.092-47.8027C119.092-51.5137 116.211-54.3457 112.549-54.3457C108.838-54.3457 106.006-51.4648 106.006-47.8027L106.006-22.7051C106.006-18.9941 108.936-16.1621 112.549-16.1621ZM18.9941-20.0684C22.7051-20.0684 25.5859-22.998 25.5859-26.6602L25.5859-43.8965C25.5859-47.6074 22.6562-50.4883 18.9941-50.4883C15.332-50.4883 12.4512-47.5098 12.4512-43.8965L12.4512-26.6602C12.4512-22.998 15.332-20.0684 18.9941-20.0684Z"/>
  </g>
  <g id="Heavy-M" transform="matrix(1 0 0 1 2574.31 1126)">
   <path d="M53.6133 11.6699C56.8848 11.6699 59.4727 9.08203 59.4727 5.81055L59.4727-76.3184C59.4727-79.6387 56.8359-82.1777 53.6133-82.1777C50.3418-82.1777 47.8027-79.5898 47.8027-76.3184L47.8027 5.81055C47.8027 9.08203 50.3418 11.6699 53.6133 11.6699ZM88.8672 2.24609C92.1875 2.24609 94.6777-0.292969 94.6777-3.56445L94.6777-66.9434C94.6777-70.2637 92.1387-72.7539 88.8672-72.7539C85.5957-72.7539 83.0566-70.2148 83.0566-66.9434L83.0566-3.56445C83.0566-0.244141 85.6445 2.24609 88.8672 2.24609ZM35.9375-1.80664C39.1602-1.80664 41.7969-4.39453 41.7969-7.61719L41.7969-62.8906C41.7969-66.1133 39.1602-68.7012 35.9375-68.7012C32.6172-68.7012 30.127-66.1133 30.127-62.8906L30.127-7.61719C30.127-4.3457 32.666-1.80664 35.9375-1.80664ZM71.2891-10.8398C74.5117-10.8398 77.0996-13.4766 77.0996-16.6992L77.0996-53.8086C77.0996-57.0801 74.4629-59.668 71.2891-59.668C68.0176-59.668 65.4785-57.0312 65.4785-53.8086L65.4785-16.6992C65.4785-13.4766 68.0176-10.8398 71.2891-10.8398ZM106.494-17.5293C109.814-17.5293 112.305-20.1172 112.305-23.3398L112.305-47.168C112.305-50.4395 109.766-52.9785 106.494-52.9785C103.223-52.9785 100.684-50.3906 100.684-47.168L100.684-23.3398C100.684-20.0684 103.271-17.5293 106.494-17.5293ZM18.2617-21.3867C21.582-21.3867 24.1211-24.0234 24.1211-27.2461L24.1211-43.2617C24.1211-46.5332 21.5332-49.1211 18.2617-49.1211C14.9902-49.1211 12.4512-46.4844 12.4512-43.2617L12.4512-27.2461C12.4512-24.0234 14.9902-21.3867 18.2617-21.3867Z"/>
  </g>
  <g id="Bold-M" transform="matrix(1 0 0 1 2281.38 1126)">
   <path d="M50.3906 11.0352C53.2227 11.0352 55.4199 8.78906 55.4199 6.00586L55.4199-76.4648C55.4199-79.2969 53.1738-81.4941 50.3906-81.4941C47.5586-81.4941 45.4102-79.248 45.4102-76.4648L45.4102 6.00586C45.4102 8.78906 47.5586 11.0352 50.3906 11.0352ZM83.3008 1.46484C86.1328 1.46484 88.2812-0.732422 88.2812-3.51562L88.2812-66.9434C88.2812-69.7754 86.084-71.9727 83.3008-71.9727C80.4688-71.9727 78.3203-69.7266 78.3203-66.9434L78.3203-3.51562C78.3203-0.732422 80.4688 1.46484 83.3008 1.46484ZM33.9355-3.95508C36.7188-3.95508 38.916-6.15234 38.916-8.93555L38.916-61.5723C38.916-64.3555 36.7188-66.5527 33.9355-66.5527C31.0547-66.5527 28.9062-64.3555 28.9062-61.5723L28.9062-8.93555C28.9062-6.10352 31.1035-3.95508 33.9355-3.95508ZM66.8457-11.6699C69.6777-11.6699 71.8262-13.916 71.8262-16.6992L71.8262-53.8086C71.8262-56.5918 69.6289-58.8379 66.8457-58.8379C64.0625-58.8379 61.8652-56.5918 61.8652-53.8086L61.8652-16.6992C61.8652-13.916 64.0625-11.6699 66.8457-11.6699ZM99.707-19.0918C102.588-19.0918 104.736-21.2891 104.736-24.0723L104.736-46.4355C104.736-49.2188 102.539-51.416 99.707-51.416C96.875-51.416 94.7266-49.2188 94.7266-46.4355L94.7266-24.0723C94.7266-21.2402 96.9238-19.0918 99.707-19.0918ZM17.4316-22.9492C20.2637-22.9492 22.4609-25.1953 22.4609-27.9785L22.4609-42.5293C22.4609-45.3613 20.2637-47.5586 17.4316-47.5586C14.6484-47.5586 12.4512-45.3125 12.4512-42.5293L12.4512-27.9785C12.4512-25.1953 14.6484-22.9492 17.4316-22.9492Z"/>
  </g>
  <g id="Semibold-M" transform="matrix(1 0 0 1 1987.31 1126)">
   <path d="M48.1445 10.5469C50.6836 10.5469 52.6367 8.59375 52.6367 6.10352L52.6367-76.5625C52.6367-79.0527 50.6836-81.0059 48.1445-81.0059C45.6543-81.0059 43.75-79.0527 43.75-76.5625L43.75 6.10352C43.75 8.59375 45.6543 10.5469 48.1445 10.5469ZM79.4434 0.927734C81.9336 0.927734 83.8379-1.07422 83.8379-3.51562L83.8379-66.9434C83.8379-69.4336 81.9336-71.3867 79.4434-71.3867C76.9043-71.3867 75-69.4336 75-66.9434L75-3.51562C75-1.02539 76.9531 0.927734 79.4434 0.927734ZM32.5195-5.37109C35.0098-5.37109 36.9629-7.37305 36.9629-9.81445L36.9629-60.6445C36.9629-63.1348 35.0098-65.0879 32.5195-65.0879C29.9805-65.0879 28.0762-63.1348 28.0762-60.6445L28.0762-9.81445C28.0762-7.32422 30.0293-5.37109 32.5195-5.37109ZM63.8184-12.2559C66.3086-12.2559 68.2129-14.209 68.2129-16.6992L68.2129-53.8086C68.2129-56.2988 66.3086-58.252 63.8184-58.252C61.3281-58.252 59.375-56.25 59.375-53.8086L59.375-16.6992C59.375-14.209 61.3281-12.2559 63.8184-12.2559ZM95.0684-20.1172C97.5586-20.1172 99.4629-22.1191 99.4629-24.5605L99.4629-45.8984C99.4629-48.3887 97.5586-50.3418 95.0684-50.3418C92.5293-50.3418 90.625-48.3887 90.625-45.8984L90.625-24.5605C90.625-22.0703 92.5293-20.1172 95.0684-20.1172ZM16.8945-23.9746C19.3848-23.9746 21.3379-25.9766 21.3379-28.418L21.3379-42.041C21.3379-44.5312 19.3848-46.4844 16.8945-46.4844C14.3555-46.4844 12.4512-44.5312 12.4512-42.041L12.4512-28.418C12.4512-25.9766 14.3555-23.9746 16.8945-23.9746Z"/>
  </g>
  <g id="Medium-M" transform="matrix(1 0 0 1 1692.58 1126)">
   <path d="M46.4844 10.2051C48.7793 10.2051 50.4883 8.39844 50.4883 6.20117L50.4883-76.6602C50.4883-78.9062 48.7305-80.6641 46.4844-80.6641C44.2383-80.6641 42.4805-78.9062 42.4805-76.6602L42.4805 6.20117C42.4805 8.39844 44.2383 10.2051 46.4844 10.2051ZM76.5137 0.488281C78.8086 0.488281 80.5176-1.26953 80.5176-3.51562L80.5176-66.9434C80.5176-69.1895 78.7598-70.9473 76.5137-70.9473C74.2188-70.9473 72.5098-69.1895 72.5098-66.9434L72.5098-3.51562C72.5098-1.26953 74.2188 0.488281 76.5137 0.488281ZM31.4453-6.49414C33.7402-6.49414 35.498-8.25195 35.498-10.498L35.498-59.9609C35.498-62.207 33.7402-63.9648 31.4453-63.9648C29.1992-63.9648 27.4902-62.207 27.4902-59.9609L27.4902-10.498C27.4902-8.25195 29.1992-6.49414 31.4453-6.49414ZM61.5234-12.6465C63.7695-12.6465 65.4785-14.4531 65.4785-16.6504L65.4785-53.8086C65.4785-56.0547 63.7695-57.8125 61.5234-57.8125C59.2285-57.8125 57.5195-56.0059 57.5195-53.8086L57.5195-16.6504C57.5195-14.4531 59.2285-12.6465 61.5234-12.6465ZM91.5039-20.9473C93.7988-20.9473 95.5078-22.7051 95.5078-24.9512L95.5078-45.5078C95.5078-47.7539 93.7988-49.5117 91.5039-49.5117C89.209-49.5117 87.5-47.7539 87.5-45.5078L87.5-24.9512C87.5-22.7051 89.2578-20.9473 91.5039-20.9473ZM16.4551-24.8047C18.75-24.8047 20.459-26.5625 20.459-28.8086L20.459-41.6504C20.459-43.8965 18.7012-45.7031 16.4551-45.7031C14.1602-45.7031 12.4512-43.8965 12.4512-41.6504L12.4512-28.8086C12.4512-26.5625 14.1602-24.8047 16.4551-24.8047Z"/>
  </g>
  <g id="Regular-M" transform="matrix(1 0 0 1 1398.45 1126)">
   <path d="M44.2871 9.7168C46.2402 9.7168 47.7539 8.20312 47.7539 6.29883L47.7539-76.7578C47.7539-78.6621 46.2402-80.1758 44.2871-80.1758C42.334-80.1758 40.8691-78.6621 40.8691-76.7578L40.8691 6.29883C40.8691 8.20312 42.334 9.7168 44.2871 9.7168ZM72.7051-0.0488281C74.6582-0.0488281 76.123-1.61133 76.123-3.51562L76.123-66.9434C76.123-68.8477 74.6582-70.4102 72.7051-70.4102C70.7031-70.4102 69.2383-68.8477 69.2383-66.9434L69.2383-3.51562C69.2383-1.61133 70.7031-0.0488281 72.7051-0.0488281ZM30.0781-7.95898C32.0801-7.95898 33.5449-9.47266 33.5449-11.377L33.5449-59.082C33.5449-60.9863 32.0801-62.5 30.0781-62.5C28.125-62.5 26.6602-60.9863 26.6602-59.082L26.6602-11.377C26.6602-9.47266 28.125-7.95898 30.0781-7.95898ZM58.4961-13.2324C60.4492-13.2324 61.9141-14.7461 61.9141-16.6504L61.9141-53.8086C61.9141-55.7129 60.4492-57.2266 58.4961-57.2266C56.543-57.2266 55.0293-55.7129 55.0293-53.8086L55.0293-16.6504C55.0293-14.7461 56.543-13.2324 58.4961-13.2324ZM86.9141-21.9727C88.8672-21.9727 90.332-23.5352 90.332-25.4395L90.332-45.0195C90.332-46.9238 88.8672-48.4863 86.9141-48.4863C84.9121-48.4863 83.4473-46.9238 83.4473-45.0195L83.4473-25.4395C83.4473-23.5352 84.9121-21.9727 86.9141-21.9727ZM15.918-25.8301C17.8711-25.8301 19.3359-27.3438 19.3359-29.248L19.3359-41.2109C19.3359-43.1152 17.8711-44.6289 15.918-44.6289C13.916-44.6289 12.4512-43.1152 12.4512-41.2109L12.4512-29.248C12.4512-27.3438 13.916-25.8301 15.918-25.8301Z"/>
  </g>
  <g id="Light-M" transform="matrix(1 0 0 1 1102.89 1126)">
   <path d="M43.2129 9.7168C44.7754 9.7168 45.8984 8.54492 45.8984 7.03125L45.8984-77.4902C45.8984-79.0039 44.7754-80.1758 43.2129-80.1758C41.6504-80.1758 40.5273-79.0039 40.5273-77.4902L40.5273 7.03125C40.5273 8.54492 41.6504 9.7168 43.2129 9.7168ZM71.2891-1.41602C72.8516-1.41602 73.9746-2.58789 73.9746-4.10156L73.9746-66.3574C73.9746-67.8711 72.8516-69.043 71.2891-69.043C69.7266-69.043 68.6035-67.8711 68.6035-66.3574L68.6035-4.10156C68.6035-2.58789 69.7266-1.41602 71.2891-1.41602ZM29.1992-8.59375C30.7129-8.59375 31.8848-9.76562 31.8848-11.2793L31.8848-59.1797C31.8848-60.6934 30.7129-61.8652 29.1992-61.8652C27.6367-61.8652 26.4648-60.6934 26.4648-59.1797L26.4648-11.2793C26.4648-9.76562 27.6367-8.59375 29.1992-8.59375ZM57.2266-13.4766C58.7891-13.4766 59.9609-14.6484 59.9609-16.1621L59.9609-54.2969C59.9609-55.8105 58.7891-56.9824 57.2266-56.9824C55.7129-56.9824 54.541-55.8105 54.541-54.2969L54.541-16.1621C54.541-14.6484 55.7129-13.4766 57.2266-13.4766ZM85.3027-21.6797C86.8652-21.6797 88.0371-22.8516 88.0371-24.4141L88.0371-46.0449C88.0371-47.6074 86.8652-48.7793 85.3027-48.7793C83.7402-48.7793 82.6172-47.6074 82.6172-46.0449L82.6172-24.4141C82.6172-22.8516 83.7402-21.6797 85.3027-21.6797ZM15.1367-26.0254C16.6992-26.0254 17.8223-27.1973 17.8223-28.7109L17.8223-41.748C17.8223-43.2617 16.6992-44.4336 15.1367-44.4336C13.5742-44.4336 12.4512-43.2617 12.4512-41.748L12.4512-28.7109C12.4512-27.1973 13.5742-26.0254 15.1367-26.0254Z"/>
  </g>
  <g id="Thin-M" transform="matrix(1 0 0 1 807.716 1126)">
   <path d="M41.7969 9.7168C42.7734 9.7168 43.5059 9.0332 43.5059 8.00781L43.5059-78.4668C43.5059-79.4922 42.7734-80.1758 41.7969-80.1758C40.7715-80.1758 40.0879-79.4922 40.0879-78.4668L40.0879 8.00781C40.0879 9.0332 40.7715 9.7168 41.7969 9.7168ZM69.4336-3.125C70.4102-3.125 71.1426-3.85742 71.1426-4.88281L71.1426-65.5762C71.1426-66.6016 70.4102-67.334 69.4336-67.334C68.4082-67.334 67.7246-66.6016 67.7246-65.5762L67.7246-4.88281C67.7246-3.85742 68.4082-3.125 69.4336-3.125ZM27.9785-9.47266C29.0039-9.47266 29.6875-10.2051 29.6875-11.1816L29.6875-59.2773C29.6875-60.2539 29.0039-60.9863 27.9785-60.9863C26.9531-60.9863 26.2695-60.2539 26.2695-59.2773L26.2695-11.1816C26.2695-10.2051 26.9531-9.47266 27.9785-9.47266ZM55.6152-13.7695C56.5918-13.7695 57.3242-14.502 57.3242-15.4785L57.3242-54.9805C57.3242-55.957 56.5918-56.6895 55.6152-56.6895C54.5898-56.6895 53.9062-55.957 53.9062-54.9805L53.9062-15.4785C53.9062-14.502 54.5898-13.7695 55.6152-13.7695ZM83.252-21.2891C84.2285-21.2891 84.9609-22.0215 84.9609-22.998L84.9609-47.4609C84.9609-48.4375 84.2285-49.1699 83.252-49.1699C82.2266-49.1699 81.543-48.4375 81.543-47.4609L81.543-22.998C81.543-22.0215 82.2266-21.2891 83.252-21.2891ZM14.1602-26.2695C15.1855-26.2695 15.8691-27.002 15.8691-27.9785L15.8691-42.4805C15.8691-43.457 15.1855-44.1895 14.1602-44.1895C13.1348-44.1895 12.4512-43.457 12.4512-42.4805L12.4512-27.9785C12.4512-27.002 13.1348-26.2695 14.1602-26.2695Z"/>
  </g>
  <g id="Ultralight-M" transform="matrix(1 0 0 1 511.811 1126)">
   <path d="M41.0645 9.7168C41.7969 9.7168 42.2852 9.27734 42.2852 8.54492L42.2852-79.0039C42.2852-79.7363 41.7969-80.1758 41.0645-80.1758C40.332-80.1758 39.8438-79.7363 39.8438-79.0039L39.8438 8.54492C39.8438 9.27734 40.332 9.7168 41.0645 9.7168ZM68.457-4.05273C69.1895-4.05273 69.6777-4.54102 69.6777-5.27344L69.6777-65.1855C69.6777-65.918 69.1895-66.4062 68.457-66.4062C67.7246-66.4062 67.2363-65.918 67.2363-65.1855L67.2363-5.27344C67.2363-4.54102 67.7246-4.05273 68.457-4.05273ZM27.3438-9.91211C28.0762-9.91211 28.5645-10.4004 28.5645-11.1328L28.5645-59.3262C28.5645-60.0586 28.0762-60.5469 27.3438-60.5469C26.6113-60.5469 26.1719-60.0586 26.1719-59.3262L26.1719-11.1328C26.1719-10.4004 26.6113-9.91211 27.3438-9.91211ZM54.7852-13.9648C55.4688-13.9648 55.957-14.4531 55.957-15.1855L55.957-55.2734C55.957-56.0059 55.4688-56.4941 54.7852-56.4941C54.0527-56.4941 53.5645-56.0059 53.5645-55.2734L53.5645-15.1855C53.5645-14.4531 54.0527-13.9648 54.7852-13.9648ZM82.1777-21.0938C82.9102-21.0938 83.3496-21.582 83.3496-22.3145L83.3496-48.1445C83.3496-48.877 82.9102-49.3652 82.1777-49.3652C81.4453-49.3652 80.957-48.877 80.957-48.1445L80.957-22.3145C80.957-21.582 81.4453-21.0938 82.1777-21.0938ZM13.6719-26.416C14.4043-26.416 14.8438-26.9043 14.8438-27.6367L14.8438-42.8223C14.8438-43.5547 14.4043-44.043 13.6719-44.043C12.9395-44.043 12.4512-43.5547 12.4512-42.8223L12.4512-27.6367C12.4512-26.9043 12.9395-26.416 13.6719-26.416Z"/>
  </g>
  <g id="Black-S" transform="matrix(1 0 0 1 2882.11 696)">
   <path d="M44.043 1.95312C46.9238 1.95312 49.1699-0.341797 49.1699-3.17383L49.1699-67.334C49.1699-70.2148 46.875-72.4609 44.043-72.4609C41.2109-72.4609 38.9648-70.166 38.9648-67.334L38.9648-3.17383C38.9648-0.341797 41.2109 1.95312 44.043 1.95312ZM73.1934-5.32227C76.0742-5.32227 78.2715-7.56836 78.2715-10.4004L78.2715-60.1074C78.2715-62.9883 76.0254-65.1855 73.1934-65.1855C70.3125-65.1855 68.1152-62.9395 68.1152-60.1074L68.1152-10.4004C68.1152-7.51953 70.3613-5.32227 73.1934-5.32227ZM29.4434-7.71484C32.2754-7.71484 34.5703-9.96094 34.5703-12.793L34.5703-57.7148C34.5703-60.5469 32.2754-62.793 29.4434-62.793C26.5625-62.793 24.3652-60.5469 24.3652-57.7148L24.3652-12.793C24.3652-9.91211 26.6113-7.71484 29.4434-7.71484ZM58.6426-15.625C61.4746-15.625 63.7207-17.9199 63.7207-20.752L63.7207-49.7559C63.7207-52.6367 61.4258-54.8828 58.6426-54.8828C55.8105-54.8828 53.5645-52.5879 53.5645-49.7559L53.5645-20.752C53.5645-17.9199 55.8105-15.625 58.6426-15.625ZM87.7441-20.4102C90.625-20.4102 92.8223-22.6562 92.8223-25.4883L92.8223-45.0195C92.8223-47.9004 90.5762-50.0977 87.7441-50.0977C84.8633-50.0977 82.666-47.8516 82.666-45.0195L82.666-25.4883C82.666-22.6074 84.9121-20.4102 87.7441-20.4102ZM14.8438-23.4375C17.7246-23.4375 19.9707-25.7324 19.9707-28.5645L19.9707-41.9434C19.9707-44.8242 17.6758-47.0703 14.8438-47.0703C12.0117-47.0703 9.76562-44.7754 9.76562-41.9434L9.76562-28.5645C9.76562-25.7324 12.0117-23.4375 14.8438-23.4375Z"/>
  </g>
  <g id="Heavy-S" transform="matrix(1 0 0 1 2587.86 696)">
   <path d="M41.9434 1.51367C44.5801 1.51367 46.582-0.585938 46.582-3.125L46.582-67.334C46.582-69.9707 44.5312-71.9727 41.9434-71.9727C39.4043-71.9727 37.3535-69.9219 37.3535-67.334L37.3535-3.125C37.3535-0.585938 39.4043 1.51367 41.9434 1.51367ZM69.5312-5.71289C72.1191-5.71289 74.1211-7.76367 74.1211-10.3516L74.1211-60.1562C74.1211-62.7441 72.1191-64.7461 69.5312-64.7461C66.8945-64.7461 64.9414-62.7441 64.9414-60.1562L64.9414-10.3516C64.9414-7.71484 66.9434-5.71289 69.5312-5.71289ZM28.1738-9.08203C30.7617-9.08203 32.8125-11.1328 32.8125-13.6719L32.8125-56.7871C32.8125-59.375 30.7617-61.4258 28.1738-61.4258C25.5371-61.4258 23.584-59.375 23.584-56.7871L23.584-13.6719C23.584-11.084 25.5859-9.08203 28.1738-9.08203ZM55.7617-16.1621C58.3496-16.1621 60.3516-18.2129 60.3516-20.8008L60.3516-49.707C60.3516-52.2949 58.3008-54.3457 55.7617-54.3457C53.1738-54.3457 51.1719-52.2461 51.1719-49.707L51.1719-20.8008C51.1719-18.2129 53.1738-16.1621 55.7617-16.1621ZM83.3008-21.4844C85.8887-21.4844 87.8906-23.5352 87.8906-26.0742L87.8906-44.3848C87.8906-47.0215 85.8398-49.0234 83.3008-49.0234C80.6641-49.0234 78.6621-46.9727 78.6621-44.3848L78.6621-26.0742C78.6621-23.4863 80.7129-21.4844 83.3008-21.4844ZM14.3555-24.4629C16.9922-24.4629 18.9941-26.5137 18.9941-29.1016L18.9941-41.4062C18.9941-43.9941 16.9434-46.0449 14.3555-46.0449C11.8164-46.0449 9.76562-43.9453 9.76562-41.4062L9.76562-29.1016C9.76562-26.5137 11.8164-24.4629 14.3555-24.4629Z"/>
  </g>
  <g id="Bold-S" transform="matrix(1 0 0 1 2293.91 696)">
   <path d="M39.6484 0.976562C41.9434 0.976562 43.75-0.830078 43.75-3.125L43.75-67.3828C43.75-69.6777 41.9434-71.4844 39.6484-71.4844C37.3535-71.4844 35.5469-69.6289 35.5469-67.3828L35.5469-3.125C35.5469-0.830078 37.3535 0.976562 39.6484 0.976562ZM65.4297-6.20117C67.7246-6.20117 69.4824-8.00781 69.4824-10.2539L69.4824-60.2539C69.4824-62.5 67.7246-64.3066 65.4297-64.3066C63.0859-64.3066 61.3281-62.5 61.3281-60.2539L61.3281-10.2539C61.3281-7.95898 63.1348-6.20117 65.4297-6.20117ZM26.7578-10.6445C29.0039-10.6445 30.8105-12.4512 30.8105-14.6973L30.8105-55.8105C30.8105-58.0566 29.0039-59.8633 26.7578-59.8633C24.4141-59.8633 22.6562-58.0566 22.6562-55.8105L22.6562-14.6973C22.6562-12.4023 24.4629-10.6445 26.7578-10.6445ZM52.5391-16.748C54.834-16.748 56.5918-18.5547 56.5918-20.8496L56.5918-49.6582C56.5918-51.9531 54.7852-53.7598 52.5391-53.7598C50.2441-53.7598 48.4863-51.9043 48.4863-49.6582L48.4863-20.8496C48.4863-18.5547 50.2441-16.748 52.5391-16.748ZM78.3203-22.7051C80.6152-22.7051 82.373-24.5117 82.373-26.7578L82.373-43.7012C82.373-45.9961 80.5664-47.7539 78.3203-47.7539C75.9766-47.7539 74.2188-45.9961 74.2188-43.7012L74.2188-26.7578C74.2188-24.4629 76.0254-22.7051 78.3203-22.7051ZM13.8184-25.5859C16.1621-25.5859 17.9199-27.4414 17.9199-29.6875L17.9199-40.7715C17.9199-43.0664 16.1133-44.873 13.8184-44.873C11.5234-44.873 9.76562-43.0664 9.76562-40.7715L9.76562-29.6875C9.76562-27.4414 11.5234-25.5859 13.8184-25.5859Z"/>
  </g>
  <g id="Semibold-S" transform="matrix(1 0 0 1 1999.1 696)">
   <path d="M38.0371 0.634766C40.1367 0.634766 41.748-1.02539 41.748-3.07617L41.748-67.3828C41.748-69.4336 40.1367-71.0938 38.0371-71.0938C35.9375-71.0938 34.3262-69.4336 34.3262-67.3828L34.3262-3.07617C34.3262-1.02539 35.9375 0.634766 38.0371 0.634766ZM62.5977-6.49414C64.6973-6.49414 66.3086-8.1543 66.3086-10.2051L66.3086-60.3027C66.3086-62.3535 64.6973-63.9648 62.5977-63.9648C60.498-63.9648 58.8867-62.3535 58.8867-60.3027L58.8867-10.2051C58.8867-8.10547 60.498-6.49414 62.5977-6.49414ZM25.7324-11.6699C27.832-11.6699 29.4434-13.3301 29.4434-15.3809L29.4434-55.0781C29.4434-57.1289 27.832-58.7891 25.7324-58.7891C23.6328-58.7891 22.0703-57.1289 22.0703-55.0781L22.0703-15.3809C22.0703-13.3301 23.6816-11.6699 25.7324-11.6699ZM50.3418-17.1387C52.3926-17.1387 54.0039-18.7988 54.0039-20.8496L54.0039-49.6094C54.0039-51.6602 52.3926-53.3203 50.3418-53.3203C48.2422-53.3203 46.6309-51.6602 46.6309-49.6094L46.6309-20.8496C46.6309-18.7988 48.2422-17.1387 50.3418-17.1387ZM74.8535-23.5352C76.9531-23.5352 78.5645-25.1953 78.5645-27.2461L78.5645-43.2129C78.5645-45.3125 76.9531-46.9238 74.8535-46.9238C72.7539-46.9238 71.1426-45.3125 71.1426-43.2129L71.1426-27.2461C71.1426-25.1465 72.7539-23.5352 74.8535-23.5352ZM13.4766-26.3672C15.5762-26.3672 17.1875-28.0273 17.1875-30.127L17.1875-40.3809C17.1875-42.4316 15.5762-44.0918 13.4766-44.0918C11.377-44.0918 9.76562-42.4316 9.76562-40.3809L9.76562-30.127C9.76562-28.0273 11.377-26.3672 13.4766-26.3672Z"/>
  </g>
  <g id="Medium-S" transform="matrix(1 0 0 1 1703.83 696)">
   <path d="M36.8164 0.341797C38.7695 0.341797 40.2344-1.17188 40.2344-3.07617L40.2344-67.3828C40.2344-69.2871 38.7695-70.8008 36.8164-70.8008C34.8633-70.8008 33.3984-69.2871 33.3984-67.3828L33.3984-3.07617C33.3984-1.17188 34.8633 0.341797 36.8164 0.341797ZM60.4492-6.73828C62.4023-6.73828 63.8672-8.25195 63.8672-10.1562L63.8672-60.3027C63.8672-62.207 62.4023-63.7207 60.4492-63.7207C58.4961-63.7207 57.0312-62.207 57.0312-60.3027L57.0312-10.1562C57.0312-8.25195 58.4961-6.73828 60.4492-6.73828ZM25-12.5C26.9531-12.5 28.418-14.0137 28.418-15.918L28.418-54.541C28.418-56.4453 26.9531-58.0078 25-58.0078C23.0469-58.0078 21.582-56.4453 21.582-54.541L21.582-15.918C21.582-14.0137 23.0469-12.5 25-12.5ZM48.6328-17.4805C50.5859-17.4805 52.0508-18.9941 52.0508-20.8984L52.0508-49.5605C52.0508-51.4648 50.5859-53.0273 48.6328-53.0273C46.6797-53.0273 45.2148-51.4648 45.2148-49.5605L45.2148-20.8984C45.2148-18.9941 46.6797-17.4805 48.6328-17.4805ZM72.2656-24.1699C74.2188-24.1699 75.6836-25.6836 75.6836-27.5879L75.6836-42.8711C75.6836-44.7754 74.1699-46.2891 72.2656-46.2891C70.3125-46.2891 68.8477-44.7754 68.8477-42.8711L68.8477-27.5879C68.8477-25.6836 70.3125-24.1699 72.2656-24.1699ZM13.1836-27.002C15.1367-27.002 16.6016-28.5156 16.6016-30.4199L16.6016-40.0391C16.6016-41.9434 15.1367-43.5059 13.1836-43.5059C11.2305-43.5059 9.76562-41.9434 9.76562-40.0391L9.76562-30.4199C9.76562-28.5156 11.2305-27.002 13.1836-27.002Z"/>
  </g>
  <g id="Regular-S" transform="matrix(1 0 0 1 1409 696)">
   <path d="M35.2539 0C36.9629 0 38.2812-1.36719 38.2812-3.07617L38.2812-67.3828C38.2812-69.0918 36.9629-70.459 35.2539-70.459C33.4961-70.459 32.1777-69.0918 32.1777-67.3828L32.1777-3.07617C32.1777-1.36719 33.4961 0 35.2539 0ZM57.666-7.03125C59.375-7.03125 60.6934-8.39844 60.6934-10.1074L60.6934-60.3516C60.6934-62.0605 59.375-63.4277 57.666-63.4277C55.9082-63.4277 54.5898-62.0605 54.5898-60.3516L54.5898-10.1074C54.5898-8.39844 55.9082-7.03125 57.666-7.03125ZM24.0234-13.5254C25.7812-13.5254 27.0996-14.8926 27.0996-16.6016L27.0996-53.8574C27.0996-55.5664 25.7812-56.9336 24.0234-56.9336C22.2656-56.9336 20.9473-55.5664 20.9473-53.8574L20.9473-16.6016C20.9473-14.8926 22.2656-13.5254 24.0234-13.5254ZM46.4355-17.8711C48.1934-17.8711 49.5117-19.2383 49.5117-20.8984L49.5117-49.5605C49.5117-51.2207 48.1934-52.5879 46.4355-52.5879C44.6777-52.5879 43.3594-51.2207 43.3594-49.5605L43.3594-20.8984C43.3594-19.2383 44.6777-17.8711 46.4355-17.8711ZM68.8477-25C70.6055-25 71.9238-26.3672 71.9238-28.0762L71.9238-42.3828C71.9238-44.0918 70.6055-45.459 68.8477-45.459C67.0898-45.459 65.7715-44.0918 65.7715-42.3828L65.7715-28.0762C65.7715-26.3672 67.0898-25 68.8477-25ZM12.8418-27.7832C14.5508-27.7832 15.8691-29.1504 15.8691-30.8105L15.8691-39.6484C15.8691-41.3086 14.5508-42.6758 12.8418-42.6758C11.084-42.6758 9.76562-41.3086 9.76562-39.6484L9.76562-30.8105C9.76562-29.1504 11.084-27.7832 12.8418-27.7832Z"/>
  </g>
  <g id="Light-S" transform="matrix(1 0 0 1 1113.31 696)">
   <path d="M34.2773 0C35.6445 0 36.6699-1.07422 36.6699-2.39258L36.6699-68.0664C36.6699-69.3848 35.6445-70.459 34.2773-70.459C32.9102-70.459 31.8848-69.3848 31.8848-68.0664L31.8848-2.39258C31.8848-1.07422 32.9102 0 34.2773 0ZM56.3965-8.20312C57.7637-8.20312 58.7891-9.27734 58.7891-10.5957L58.7891-59.8633C58.7891-61.1816 57.7637-62.2559 56.3965-62.2559C55.0293-62.2559 54.0039-61.1816 54.0039-59.8633L54.0039-10.5957C54.0039-9.27734 55.0293-8.20312 56.3965-8.20312ZM23.2422-14.1113C24.6094-14.1113 25.6348-15.1855 25.6348-16.5039L25.6348-53.9551C25.6348-55.2734 24.6094-56.3477 23.2422-56.3477C21.8262-56.3477 20.8008-55.2734 20.8008-53.9551L20.8008-16.5039C20.8008-15.1855 21.8262-14.1113 23.2422-14.1113ZM45.3613-18.0664C46.7285-18.0664 47.7539-19.1406 47.7539-20.459L47.7539-50C47.7539-51.3184 46.7285-52.3926 45.3613-52.3926C43.9453-52.3926 42.9199-51.3184 42.9199-50L42.9199-20.459C42.9199-19.1406 43.9453-18.0664 45.3613-18.0664ZM67.4316-24.7559C68.8477-24.7559 69.873-25.7812 69.873-27.1484L69.873-43.3105C69.873-44.6777 68.8477-45.7031 67.4316-45.7031C66.0645-45.7031 65.0391-44.6777 65.0391-43.3105L65.0391-27.1484C65.0391-25.7812 66.0645-24.7559 67.4316-24.7559ZM12.1582-27.9297C13.5254-27.9297 14.5508-29.0039 14.5508-30.3223L14.5508-40.1367C14.5508-41.4551 13.5254-42.5293 12.1582-42.5293C10.791-42.5293 9.76562-41.4551 9.76562-40.1367L9.76562-30.3223C9.76562-29.0039 10.791-27.9297 12.1582-27.9297Z"/>
  </g>
  <g id="Thin-S" transform="matrix(1 0 0 1 817.97 696)">
   <path d="M33.0078 0C33.9355 0 34.5703-0.634766 34.5703-1.51367L34.5703-68.9453C34.5703-69.8242 33.9355-70.459 33.0078-70.459C32.1289-70.459 31.4941-69.8242 31.4941-68.9453L31.4941-1.51367C31.4941-0.634766 32.1289 0 33.0078 0ZM54.7363-9.76562C55.6641-9.76562 56.2988-10.4004 56.2988-11.2793L56.2988-59.1797C56.2988-60.0586 55.6641-60.6934 54.7363-60.6934C53.8574-60.6934 53.2227-60.0586 53.2227-59.1797L53.2227-11.2793C53.2227-10.4004 53.8574-9.76562 54.7363-9.76562ZM22.168-14.8926C23.0469-14.8926 23.6816-15.5273 23.6816-16.4062L23.6816-54.0527C23.6816-54.9316 23.0469-55.5664 22.168-55.5664C21.2891-55.5664 20.6543-54.9316 20.6543-54.0527L20.6543-16.4062C20.6543-15.5273 21.2891-14.8926 22.168-14.8926ZM43.8965-18.3594C44.7754-18.3594 45.4102-19.043 45.4102-19.9219L45.4102-50.5371C45.4102-51.416 44.7754-52.0996 43.8965-52.0996C43.0176-52.0996 42.3828-51.416 42.3828-50.5371L42.3828-19.9219C42.3828-19.043 43.0176-18.3594 43.8965-18.3594ZM65.625-24.4141C66.5039-24.4141 67.1387-25.0488 67.1387-25.9277L67.1387-44.5312C67.1387-45.4102 66.5039-46.0449 65.625-46.0449C64.7461-46.0449 64.1113-45.4102 64.1113-44.5312L64.1113-25.9277C64.1113-25.0488 64.7461-24.4141 65.625-24.4141ZM11.2793-28.1738C12.207-28.1738 12.8418-28.8086 12.8418-29.6875L12.8418-40.7715C12.8418-41.6504 12.207-42.2852 11.2793-42.2852C10.4004-42.2852 9.76562-41.6504 9.76562-40.7715L9.76562-29.6875C9.76562-28.8086 10.4004-28.1738 11.2793-28.1738Z"/>
  </g>
  <g id="Ultralight-S" transform="matrix(1 0 0 1 521.943 696)">
   <path d="M32.373 0C33.0078 0 33.4473-0.439453 33.4473-1.07422L33.4473-69.3848C33.4473-70.0195 33.0078-70.459 32.373-70.459C31.7383-70.459 31.2988-70.0195 31.2988-69.3848L31.2988-1.07422C31.2988-0.439453 31.7383 0 32.373 0ZM53.9062-10.5469C54.541-10.5469 54.9805-10.9863 54.9805-11.6211L54.9805-58.8379C54.9805-59.4727 54.541-59.9121 53.9062-59.9121C53.2715-59.9121 52.832-59.4727 52.832-58.8379L52.832-11.6211C52.832-10.9863 53.2715-10.5469 53.9062-10.5469ZM21.6309-15.2832C22.2656-15.2832 22.7051-15.7227 22.7051-16.3574L22.7051-54.1016C22.7051-54.7363 22.2656-55.1758 21.6309-55.1758C20.9473-55.1758 20.5078-54.7363 20.5078-54.1016L20.5078-16.3574C20.5078-15.7227 20.9473-15.2832 21.6309-15.2832ZM43.1641-18.5059C43.7988-18.5059 44.2383-18.9453 44.2383-19.5801L44.2383-50.8789C44.2383-51.5137 43.7988-51.9531 43.1641-51.9531C42.4805-51.9531 42.041-51.5137 42.041-50.8789L42.041-19.5801C42.041-18.9453 42.4805-18.5059 43.1641-18.5059ZM64.6484-24.2188C65.332-24.2188 65.7715-24.6582 65.7715-25.293L65.7715-45.166C65.7715-45.8008 65.332-46.2402 64.6484-46.2402C64.0137-46.2402 63.5742-45.8008 63.5742-45.166L63.5742-25.293C63.5742-24.6582 64.0137-24.2188 64.6484-24.2188ZM10.8398-28.2715C11.4746-28.2715 11.9141-28.7109 11.9141-29.3945L11.9141-41.0645C11.9141-41.748 11.4746-42.1875 10.8398-42.1875C10.2051-42.1875 9.76562-41.748 9.76562-41.0645L9.76562-29.3945C9.76562-28.7109 10.2051-28.2715 10.8398-28.2715Z"/>
  </g>
 </g>
</svg>
