<?xml version="1.0" encoding="UTF-8"?>
<!--Generator: Apple Native CoreSVG 123-->
<!DOCTYPE svg
PUBLIC "-//W3C//DTD SVG 1.1//EN"
       "http://www.w3.org/Graphics/SVG/1.1/DTD/svg11.dtd">
<svg version="1.1" xmlns="http://www.w3.org/2000/svg" xmlns:xlink="http://www.w3.org/1999/xlink" width="3300" height="2200">
 <!--glyph: "uni100285.medium", point size: 100.000000, font version: "Version 15.0d7e11", template writer version: "5"-->
 <g id="Notes">
  <rect height="2200" id="artboard" style="fill:white;opacity:1" width="3300" x="0" y="0"/>
  <line id="" style="fill:none;stroke:black;opacity:1;stroke-width:0.5;" x1="263" x2="3036" y1="292" y2="292"/>
  <text style="stroke:none;fill:black;font-family:-apple-system,&quot;SF Pro Display&quot;,&quot;SF Pro Text&quot;,Helvetica,sans-serif;font-weight:bold;" transform="matrix(1 0 0 1 263 322)">Weight/Scale Variations</text>
  <text style="stroke:none;fill:black;font-family:-apple-system,&quot;SF Pro Display&quot;,&quot;SF Pro Text&quot;,Helvetica,sans-serif;text-anchor:middle;" transform="matrix(1 0 0 1 559.711 322)">Ultralight</text>
  <text style="stroke:none;fill:black;font-family:-apple-system,&quot;SF Pro Display&quot;,&quot;SF Pro Text&quot;,Helvetica,sans-serif;text-anchor:middle;" transform="matrix(1 0 0 1 856.422 322)">Thin</text>
  <text style="stroke:none;fill:black;font-family:-apple-system,&quot;SF Pro Display&quot;,&quot;SF Pro Text&quot;,Helvetica,sans-serif;text-anchor:middle;" transform="matrix(1 0 0 1 1153.13 322)">Light</text>
  <text style="stroke:none;fill:black;font-family:-apple-system,&quot;SF Pro Display&quot;,&quot;SF Pro Text&quot;,Helvetica,sans-serif;text-anchor:middle;" transform="matrix(1 0 0 1 1449.84 322)">Regular</text>
  <text style="stroke:none;fill:black;font-family:-apple-system,&quot;SF Pro Display&quot;,&quot;SF Pro Text&quot;,Helvetica,sans-serif;text-anchor:middle;" transform="matrix(1 0 0 1 1746.56 322)">Medium</text>
  <text style="stroke:none;fill:black;font-family:-apple-system,&quot;SF Pro Display&quot;,&quot;SF Pro Text&quot;,Helvetica,sans-serif;text-anchor:middle;" transform="matrix(1 0 0 1 2043.27 322)">Semibold</text>
  <text style="stroke:none;fill:black;font-family:-apple-system,&quot;SF Pro Display&quot;,&quot;SF Pro Text&quot;,Helvetica,sans-serif;text-anchor:middle;" transform="matrix(1 0 0 1 2339.98 322)">Bold</text>
  <text style="stroke:none;fill:black;font-family:-apple-system,&quot;SF Pro Display&quot;,&quot;SF Pro Text&quot;,Helvetica,sans-serif;text-anchor:middle;" transform="matrix(1 0 0 1 2636.69 322)">Heavy</text>
  <text style="stroke:none;fill:black;font-family:-apple-system,&quot;SF Pro Display&quot;,&quot;SF Pro Text&quot;,Helvetica,sans-serif;text-anchor:middle;" transform="matrix(1 0 0 1 2933.4 322)">Black</text>
  <line id="" style="fill:none;stroke:black;opacity:1;stroke-width:0.5;" x1="263" x2="3036" y1="1903" y2="1903"/>
  <g id="" transform="matrix(1 0 0 1 263 1933)">
   <path d="M 9.24805 0.830078 C 13.5547 0.830078 17.1387 -2.74414 17.1387 -7.05078 C 17.1387 -11.3574 13.5449 -14.9316 9.23828 -14.9316 C 4.94141 -14.9316 1.36719 -11.3574 1.36719 -7.05078 C 1.36719 -2.74414 4.95117 0.830078 9.24805 0.830078 Z M 9.24805 -0.654297 C 5.70312 -0.654297 2.87109 -3.49609 2.87109 -7.05078 C 2.87109 -10.6055 5.69336 -13.4473 9.23828 -13.4473 C 12.793 -13.4473 15.6348 -10.6055 15.6445 -7.05078 C 15.6543 -3.49609 12.8027 -0.654297 9.24805 -0.654297 Z M 9.22852 -3.42773 C 9.69727 -3.42773 9.9707 -3.74023 9.9707 -4.25781 L 9.9707 -6.31836 L 12.1973 -6.31836 C 12.6953 -6.31836 13.0371 -6.57227 13.0371 -7.04102 C 13.0371 -7.51953 12.7148 -7.7832 12.1973 -7.7832 L 9.9707 -7.7832 L 9.9707 -10.0098 C 9.9707 -10.5273 9.69727 -10.8496 9.22852 -10.8496 C 8.75977 -10.8496 8.50586 -10.5078 8.50586 -10.0098 L 8.50586 -7.7832 L 6.29883 -7.7832 C 5.78125 -7.7832 5.44922 -7.51953 5.44922 -7.04102 C 5.44922 -6.57227 5.80078 -6.31836 6.29883 -6.31836 L 8.50586 -6.31836 L 8.50586 -4.25781 C 8.50586 -3.75977 8.75977 -3.42773 9.22852 -3.42773 Z"/>
  </g>
  <g id="" transform="matrix(1 0 0 1 281.506 1933)">
   <path d="M 11.709 2.91016 C 17.1582 2.91016 21.6699 -1.60156 21.6699 -7.05078 C 21.6699 -12.4902 17.1484 -17.0117 11.6992 -17.0117 C 6.25977 -17.0117 1.74805 -12.4902 1.74805 -7.05078 C 1.74805 -1.60156 6.26953 2.91016 11.709 2.91016 Z M 11.709 1.25 C 7.09961 1.25 3.41797 -2.44141 3.41797 -7.05078 C 3.41797 -11.6504 7.08984 -15.3516 11.6992 -15.3516 C 16.3086 -15.3516 20 -11.6504 20.0098 -7.05078 C 20.0195 -2.44141 16.3184 1.25 11.709 1.25 Z M 11.6895 -2.41211 C 12.207 -2.41211 12.5195 -2.77344 12.5195 -3.33984 L 12.5195 -6.23047 L 15.5762 -6.23047 C 16.123 -6.23047 16.5039 -6.51367 16.5039 -7.03125 C 16.5039 -7.55859 16.1426 -7.86133 15.5762 -7.86133 L 12.5195 -7.86133 L 12.5195 -10.9277 C 12.5195 -11.5039 12.207 -11.8555 11.6895 -11.8555 C 11.1719 -11.8555 10.8789 -11.4844 10.8789 -10.9277 L 10.8789 -7.86133 L 7.83203 -7.86133 C 7.26562 -7.86133 6.89453 -7.55859 6.89453 -7.03125 C 6.89453 -6.51367 7.28516 -6.23047 7.83203 -6.23047 L 10.8789 -6.23047 L 10.8789 -3.33984 C 10.8789 -2.79297 11.1719 -2.41211 11.6895 -2.41211 Z"/>
  </g>
  <g id="" transform="matrix(1 0 0 1 304.924 1933)">
   <path d="M 14.9707 5.67383 C 21.9336 5.67383 27.6953 -0.078125 27.6953 -7.04102 C 27.6953 -14.0039 21.9238 -19.7559 14.9609 -19.7559 C 8.00781 -19.7559 2.25586 -14.0039 2.25586 -7.04102 C 2.25586 -0.078125 8.01758 5.67383 14.9707 5.67383 Z M 14.9707 3.85742 C 8.93555 3.85742 4.08203 -1.00586 4.08203 -7.04102 C 4.08203 -13.0762 8.92578 -17.9395 14.9609 -17.9395 C 21.0059 -17.9395 25.8594 -13.0762 25.8691 -7.04102 C 25.8789 -1.00586 21.0156 3.85742 14.9707 3.85742 Z M 14.9512 -1.06445 C 15.5176 -1.06445 15.8691 -1.45508 15.8691 -2.06055 L 15.8691 -6.13281 L 20.1074 -6.13281 C 20.6934 -6.13281 21.1133 -6.46484 21.1133 -7.02148 C 21.1133 -7.59766 20.7227 -7.93945 20.1074 -7.93945 L 15.8691 -7.93945 L 15.8691 -12.1875 C 15.8691 -12.8027 15.5176 -13.1934 14.9512 -13.1934 C 14.3848 -13.1934 14.0625 -12.7832 14.0625 -12.1875 L 14.0625 -7.93945 L 9.83398 -7.93945 C 9.21875 -7.93945 8.80859 -7.59766 8.80859 -7.02148 C 8.80859 -6.46484 9.23828 -6.13281 9.83398 -6.13281 L 14.0625 -6.13281 L 14.0625 -2.06055 C 14.0625 -1.47461 14.3848 -1.06445 14.9512 -1.06445 Z"/>
  </g>
  <text style="stroke:none;fill:black;font-family:-apple-system,&quot;SF Pro Display&quot;,&quot;SF Pro Text&quot;,Helvetica,sans-serif;font-weight:bold;" transform="matrix(1 0 0 1 263 1953)">Design Variations</text>
  <text style="stroke:none;fill:black;font-family:-apple-system,&quot;SF Pro Display&quot;,&quot;SF Pro Text&quot;,Helvetica,sans-serif;" transform="matrix(1 0 0 1 263 1971)">Symbols are supported in up to nine weights and three scales.</text>
  <text style="stroke:none;fill:black;font-family:-apple-system,&quot;SF Pro Display&quot;,&quot;SF Pro Text&quot;,Helvetica,sans-serif;" transform="matrix(1 0 0 1 263 1989)">For optimal layout with text and other symbols, vertically align</text>
  <text style="stroke:none;fill:black;font-family:-apple-system,&quot;SF Pro Display&quot;,&quot;SF Pro Text&quot;,Helvetica,sans-serif;" transform="matrix(1 0 0 1 263 2007)">symbols with the adjacent text.</text>
  <rect height="14" id="" style="fill:#00AEEF;stroke:none;opacity:0.4;" width="3" x="776" y="1919"/>
  <g id="" transform="matrix(1 0 0 1 779 1933)">
   <path d="M 10.5273 0 L 12.373 0 L 7.17773 -14.0918 L 5.43945 -14.0918 L 0.244141 0 L 2.08984 0 L 3.50586 -4.0332 L 9.11133 -4.0332 Z M 6.2793 -11.9531 L 6.33789 -11.9531 L 8.59375 -5.52734 L 4.02344 -5.52734 Z"/>
  </g>
  <rect height="14" id="" style="fill:#00AEEF;stroke:none;opacity:0.4;" width="3" x="791.617" y="1919"/>
  <text style="stroke:none;fill:black;font-family:-apple-system,&quot;SF Pro Display&quot;,&quot;SF Pro Text&quot;,Helvetica,sans-serif;font-weight:bold;" transform="matrix(1 0 0 1 776 1953)">Margins</text>
  <text style="stroke:none;fill:black;font-family:-apple-system,&quot;SF Pro Display&quot;,&quot;SF Pro Text&quot;,Helvetica,sans-serif;" transform="matrix(1 0 0 1 776 1971)">Leading and trailing margins on the left and right side of each symbol</text>
  <text style="stroke:none;fill:black;font-family:-apple-system,&quot;SF Pro Display&quot;,&quot;SF Pro Text&quot;,Helvetica,sans-serif;" transform="matrix(1 0 0 1 776 1989)">can be adjusted by modifying the width of the blue rectangles.</text>
  <text style="stroke:none;fill:black;font-family:-apple-system,&quot;SF Pro Display&quot;,&quot;SF Pro Text&quot;,Helvetica,sans-serif;" transform="matrix(1 0 0 1 776 2007)">Modifications are automatically applied proportionally to all</text>
  <text style="stroke:none;fill:black;font-family:-apple-system,&quot;SF Pro Display&quot;,&quot;SF Pro Text&quot;,Helvetica,sans-serif;" transform="matrix(1 0 0 1 776 2025)">scales and weights.</text>
  <g id="" transform="matrix(1 0 0 1 1289 1933)">
   <path d="M 2.83203 3.11523 L 4.375 4.6582 C 5.22461 5.48828 6.19141 5.41992 7.06055 4.46289 L 17.2754 -6.66016 C 17.7051 -6.36719 18.0957 -6.37695 18.5645 -6.47461 L 19.6094 -6.68945 L 20.3027 -5.99609 L 20.2539 -5.47852 C 20.1855 -4.95117 20.3516 -4.53125 20.8496 -4.0332 L 21.6602 -3.22266 C 22.168 -2.71484 22.8223 -2.68555 23.3008 -3.16406 L 26.5527 -6.41602 C 27.0312 -6.89453 27.0117 -7.54883 26.5039 -8.05664 L 25.6836 -8.87695 C 25.1855 -9.375 24.7754 -9.55078 24.2383 -9.47266 L 23.7109 -9.41406 L 23.0566 -10.0781 L 23.3398 -11.2207 C 23.4863 -11.7871 23.3398 -12.2559 22.7148 -12.8613 L 20.3027 -15.2539 C 16.7578 -18.7793 12.2266 -18.6719 9.11133 -15.5371 C 8.69141 -15.1074 8.64258 -14.5215 8.91602 -14.0918 C 9.15039 -13.7207 9.62891 -13.4961 10.2734 -13.6621 C 11.7871 -14.043 13.3008 -13.9258 14.7852 -12.9199 L 14.1602 -11.3379 C 13.9258 -10.752 13.9453 -10.2734 14.1797 -9.83398 L 3.01758 0.439453 C 2.08008 1.30859 1.97266 2.25586 2.83203 3.11523 Z M 10.6738 -15.1465 C 13.3398 -17.1387 16.6504 -16.8262 19.0527 -14.4141 L 21.6797 -11.8066 C 21.9141 -11.5723 21.9434 -11.3867 21.8848 -11.0938 L 21.5039 -9.53125 L 23.0762 -7.95898 L 24.043 -8.04688 C 24.3262 -8.07617 24.4141 -8.05664 24.6387 -7.83203 L 25.2637 -7.20703 L 22.5098 -4.46289 L 21.8848 -5.07812 C 21.6602 -5.30273 21.6406 -5.40039 21.6699 -5.68359 L 21.7578 -6.64062 L 20.1953 -8.20312 L 18.5742 -7.89062 C 18.291 -7.83203 18.1445 -7.83203 17.9102 -8.07617 L 15.7324 -10.2539 C 15.5078 -10.4883 15.4785 -10.625 15.6055 -10.9473 L 16.5527 -13.2227 C 14.9512 -14.7559 12.8418 -15.6055 10.8008 -14.9512 C 10.7129 -14.9219 10.6445 -14.9414 10.6152 -14.9805 C 10.5859 -15.0293 10.5859 -15.0781 10.6738 -15.1465 Z M 4.10156 2.41211 C 3.61328 1.91406 3.78906 1.61133 4.12109 1.30859 L 15.0781 -8.80859 L 16.3086 -7.57812 L 6.15234 3.34961 C 5.84961 3.68164 5.46875 3.7793 5.06836 3.37891 Z"/>
  </g>
  <text style="stroke:none;fill:black;font-family:-apple-system,&quot;SF Pro Display&quot;,&quot;SF Pro Text&quot;,Helvetica,sans-serif;font-weight:bold;" transform="matrix(1 0 0 1 1289 1953)">Exporting</text>
  <text style="stroke:none;fill:black;font-family:-apple-system,&quot;SF Pro Display&quot;,&quot;SF Pro Text&quot;,Helvetica,sans-serif;" transform="matrix(1 0 0 1 1289 1971)">Symbols should be outlined when exporting to ensure the</text>
  <text style="stroke:none;fill:black;font-family:-apple-system,&quot;SF Pro Display&quot;,&quot;SF Pro Text&quot;,Helvetica,sans-serif;" transform="matrix(1 0 0 1 1289 1989)">design is preserved when submitting to Xcode.</text>
  <text id="template-version" style="stroke:none;fill:black;font-family:-apple-system,&quot;SF Pro Display&quot;,&quot;SF Pro Text&quot;,Helvetica,sans-serif;text-anchor:end;" transform="matrix(1 0 0 1 3036 1933)">Template v.1.0</text>
  <text style="stroke:none;fill:black;font-family:-apple-system,&quot;SF Pro Display&quot;,&quot;SF Pro Text&quot;,Helvetica,sans-serif;text-anchor:end;" transform="matrix(1 0 0 1 3036 1951)">Generated from pause</text>
  <text style="stroke:none;fill:black;font-family:-apple-system,&quot;SF Pro Display&quot;,&quot;SF Pro Text&quot;,Helvetica,sans-serif;text-anchor:end;" transform="matrix(1 0 0 1 3036 1969)">Typeset at 100 points</text>
  <text style="stroke:none;fill:black;font-family:-apple-system,&quot;SF Pro Display&quot;,&quot;SF Pro Text&quot;,Helvetica,sans-serif;" transform="matrix(1 0 0 1 263 726)">Small</text>
  <text style="stroke:none;fill:black;font-family:-apple-system,&quot;SF Pro Display&quot;,&quot;SF Pro Text&quot;,Helvetica,sans-serif;" transform="matrix(1 0 0 1 263 1156)">Medium</text>
  <text style="stroke:none;fill:black;font-family:-apple-system,&quot;SF Pro Display&quot;,&quot;SF Pro Text&quot;,Helvetica,sans-serif;" transform="matrix(1 0 0 1 263 1586)">Large</text>
 </g>
 <g id="Guides">
  <g id="H-reference" style="fill:#27AAE1;stroke:none;" transform="matrix(1 0 0 1 339 696)">
   <path d="M 54.9316 0 L 57.666 0 L 30.5664 -70.459 L 28.0762 -70.459 L 0.976562 0 L 3.66211 0 L 12.9395 -24.4629 L 45.7031 -24.4629 Z M 29.1992 -67.0898 L 29.4434 -67.0898 L 44.8242 -26.709 L 13.8184 -26.709 Z"/>
  </g>
  <line id="Baseline-S" style="fill:none;stroke:#27AAE1;opacity:1;stroke-width:0.577;" x1="263" x2="3036" y1="696" y2="696"/>
  <line id="Capline-S" style="fill:none;stroke:#27AAE1;opacity:1;stroke-width:0.577;" x1="263" x2="3036" y1="625.541" y2="625.541"/>
  <g id="H-reference" style="fill:#27AAE1;stroke:none;" transform="matrix(1 0 0 1 339 1126)">
   <path d="M 54.9316 0 L 57.666 0 L 30.5664 -70.459 L 28.0762 -70.459 L 0.976562 0 L 3.66211 0 L 12.9395 -24.4629 L 45.7031 -24.4629 Z M 29.1992 -67.0898 L 29.4434 -67.0898 L 44.8242 -26.709 L 13.8184 -26.709 Z"/>
  </g>
  <line id="Baseline-M" style="fill:none;stroke:#27AAE1;opacity:1;stroke-width:0.577;" x1="263" x2="3036" y1="1126" y2="1126"/>
  <line id="Capline-M" style="fill:none;stroke:#27AAE1;opacity:1;stroke-width:0.577;" x1="263" x2="3036" y1="1055.54" y2="1055.54"/>
  <g id="H-reference" style="fill:#27AAE1;stroke:none;" transform="matrix(1 0 0 1 339 1556)">
   <path d="M 54.9316 0 L 57.666 0 L 30.5664 -70.459 L 28.0762 -70.459 L 0.976562 0 L 3.66211 0 L 12.9395 -24.4629 L 45.7031 -24.4629 Z M 29.1992 -67.0898 L 29.4434 -67.0898 L 44.8242 -26.709 L 13.8184 -26.709 Z"/>
  </g>
  <line id="Baseline-L" style="fill:none;stroke:#27AAE1;opacity:1;stroke-width:0.577;" x1="263" x2="3036" y1="1556" y2="1556"/>
  <line id="Capline-L" style="fill:none;stroke:#27AAE1;opacity:1;stroke-width:0.577;" x1="263" x2="3036" y1="1485.54" y2="1485.54"/>
  <rect height="119.336" id="left-margin" style="fill:#00AEEF;stroke:none;opacity:0.4;" width="12.4512" x="1417.08" y="1030.79"/>
  <rect height="119.336" id="right-margin" style="fill:#00AEEF;stroke:none;opacity:0.4;" width="12.4512" x="1470.16" y="1030.79"/>
 </g>
 <g id="Symbols">
  <g id="Black-L" transform="matrix(1 0 0 1 2879.47 1556)">
   <path d="M 28.3203 21.4844 C 35.4492 21.4844 40.625 16.4062 40.625 9.57031 L 40.625 -80.0293 C 40.625 -86.8164 35.4492 -91.8945 28.3203 -91.8945 C 21.2402 -91.8945 16.0645 -86.8164 16.0645 -80.0293 L 16.0645 9.57031 C 16.0645 16.4062 21.2402 21.4844 28.3203 21.4844 Z M 79.4922 21.4844 C 86.6211 21.4844 91.7969 16.4062 91.7969 9.57031 L 91.7969 -80.0293 C 91.7969 -86.8164 86.6211 -91.8945 79.4922 -91.8945 C 72.4121 -91.8945 67.2363 -86.8164 67.2363 -80.0293 L 67.2363 9.57031 C 67.2363 16.4062 72.4121 21.4844 79.4922 21.4844 Z"/>
  </g>
  <g id="Heavy-L" transform="matrix(1 0 0 1 2585.74 1556)">
   <path d="M 26.5137 20.166 C 32.5195 20.166 36.9629 15.8203 36.9629 10.0586 L 36.9629 -80.4688 C 36.9629 -86.2793 32.5195 -90.5762 26.5137 -90.5762 C 20.5078 -90.5762 16.0645 -86.2793 16.0645 -80.4688 L 16.0645 10.0586 C 16.0645 15.8203 20.5078 20.166 26.5137 20.166 Z M 75.3906 20.166 C 81.4453 20.166 85.8398 15.8203 85.8398 10.0586 L 85.8398 -80.4688 C 85.8398 -86.2793 81.4453 -90.5762 75.3906 -90.5762 C 69.3848 -90.5762 64.9414 -86.2793 64.9414 -80.4688 L 64.9414 10.0586 C 64.9414 15.8203 69.3848 20.166 75.3906 20.166 Z"/>
  </g>
  <g id="Bold-L" transform="matrix(1 0 0 1 2292.32 1556)">
   <path d="M 24.5117 18.75 C 29.2969 18.75 32.9102 15.2344 32.9102 10.5469 L 32.9102 -80.957 C 32.9102 -85.6445 29.2969 -89.1113 24.5117 -89.1113 C 19.6777 -89.1113 16.0645 -85.6445 16.0645 -80.957 L 16.0645 10.5469 C 16.0645 15.2344 19.6777 18.75 24.5117 18.75 Z M 70.8008 18.75 C 75.6348 18.75 79.248 15.2344 79.248 10.5469 L 79.248 -80.957 C 79.248 -85.6445 75.6348 -89.1113 70.8008 -89.1113 C 66.0156 -89.1113 62.4023 -85.6445 62.4023 -80.957 L 62.4023 10.5469 C 62.4023 15.2344 66.0156 18.75 70.8008 18.75 Z"/>
  </g>
  <g id="Semibold-L" transform="matrix(1 0 0 1 1997.88 1556)">
   <path d="M 23.0957 17.7246 C 27.0508 17.7246 30.127 14.7949 30.127 10.8887 L 30.127 -81.2988 C 30.127 -85.1562 27.0508 -88.1348 23.0957 -88.1348 C 19.0918 -88.1348 16.0645 -85.1562 16.0645 -81.2988 L 16.0645 10.8887 C 16.0645 14.7949 19.0918 17.7246 23.0957 17.7246 Z M 67.6758 17.7246 C 71.6309 17.7246 74.707 14.7949 74.707 10.8887 L 74.707 -81.2988 C 74.707 -85.1562 71.6309 -88.1348 67.6758 -88.1348 C 63.6719 -88.1348 60.6445 -85.1562 60.6445 -81.2988 L 60.6445 10.8887 C 60.6445 14.7949 63.6719 17.7246 67.6758 17.7246 Z"/>
  </g>
  <g id="Medium-L" transform="matrix(1 0 0 1 1702.9 1556)">
   <path d="M 22.0215 16.9922 C 25.3418 16.9922 27.9785 14.4531 27.9785 11.1816 L 27.9785 -81.543 C 27.9785 -84.8633 25.3418 -87.3535 22.0215 -87.3535 C 18.7012 -87.3535 16.0645 -84.8633 16.0645 -81.543 L 16.0645 11.1816 C 16.0645 14.4531 18.7012 16.9922 22.0215 16.9922 Z M 65.2832 16.9922 C 68.6035 16.9922 71.2402 14.4531 71.2402 11.1816 L 71.2402 -81.543 C 71.2402 -84.8633 68.6035 -87.3535 65.2832 -87.3535 C 61.9141 -87.3535 59.3262 -84.8633 59.3262 -81.543 L 59.3262 11.1816 C 59.3262 14.4531 61.9141 16.9922 65.2832 16.9922 Z"/>
  </g>
  <g id="Regular-L" transform="matrix(1 0 0 1 1408.46 1556)">
   <path d="M 20.6543 15.9668 C 23.1445 15.9668 25.1953 14.0137 25.1953 11.5234 L 25.1953 -81.8848 C 25.1953 -84.4238 23.1445 -86.377 20.6543 -86.377 C 18.1152 -86.377 16.0645 -84.4238 16.0645 -81.8848 L 16.0645 11.5234 C 16.0645 14.0137 18.1152 15.9668 20.6543 15.9668 Z M 62.1582 15.9668 C 64.6484 15.9668 66.6992 14.0137 66.6992 11.5234 L 66.6992 -81.8848 C 66.6992 -84.4238 64.6484 -86.377 62.1582 -86.377 C 59.6191 -86.377 57.5684 -84.4238 57.5684 -81.8848 L 57.5684 11.5234 C 57.5684 14.0137 59.6191 15.9668 62.1582 15.9668 Z"/>
  </g>
  <g id="Light-L" transform="matrix(1 0 0 1 1112.95 1556)">
   <path d="M 19.5312 14.7949 C 21.4355 14.7949 22.998 13.2812 22.998 11.377 L 22.998 -81.7871 C 22.998 -83.6914 21.4355 -85.1562 19.5312 -85.1562 C 17.627 -85.1562 16.0645 -83.6914 16.0645 -81.7871 L 16.0645 11.377 C 16.0645 13.2812 17.627 14.7949 19.5312 14.7949 Z M 60.8398 14.7949 C 62.7441 14.7949 64.3066 13.2812 64.3066 11.377 L 64.3066 -81.7871 C 64.3066 -83.6914 62.7441 -85.1562 60.8398 -85.1562 C 58.9355 -85.1562 57.373 -83.6914 57.373 -81.7871 L 57.373 11.377 C 57.373 13.2812 58.9355 14.7949 60.8398 14.7949 Z"/>
  </g>
  <g id="Thin-L" transform="matrix(1 0 0 1 817.824 1556)">
   <path d="M 18.0664 13.2324 C 19.1406 13.2324 20.0684 12.3535 20.0684 11.2305 L 20.0684 -81.6406 C 20.0684 -82.7148 19.1406 -83.5938 18.0664 -83.5938 C 16.9434 -83.5938 16.0645 -82.7148 16.0645 -81.6406 L 16.0645 11.2305 C 16.0645 12.3535 16.9434 13.2324 18.0664 13.2324 Z M 59.1309 13.2324 C 60.2539 13.2324 61.1328 12.3535 61.1328 11.2305 L 61.1328 -81.6406 C 61.1328 -82.7148 60.2539 -83.5938 59.1309 -83.5938 C 58.0566 -83.5938 57.1289 -82.7148 57.1289 -81.6406 L 57.1289 11.2305 C 57.1289 12.3535 58.0566 13.2324 59.1309 13.2324 Z"/>
  </g>
  <g id="Ultralight-L" transform="matrix(1 0 0 1 521.918 1556)">
   <path d="M 17.334 12.4512 C 18.0176 12.4512 18.5547 11.8652 18.5547 11.1816 L 18.5547 -81.543 C 18.5547 -82.2266 18.0176 -82.8125 17.334 -82.8125 C 16.6016 -82.8125 16.0645 -82.2266 16.0645 -81.543 L 16.0645 11.1816 C 16.0645 11.8652 16.6016 12.4512 17.334 12.4512 Z M 58.252 12.4512 C 58.9355 12.4512 59.5215 11.8652 59.5215 11.1816 L 59.5215 -81.543 C 59.5215 -82.2266 58.9355 -82.8125 58.252 -82.8125 C 57.5684 -82.8125 57.0312 -82.2266 57.0312 -81.543 L 57.0312 11.1816 C 57.0312 11.8652 57.5684 12.4512 58.252 12.4512 Z"/>
  </g>
  <g id="Black-M" transform="matrix(1 0 0 1 2888.26 1126)">
   <path d="M 23.8281 9.81445 C 30.4688 9.81445 35.2051 5.17578 35.2051 -1.17188 L 35.2051 -69.2871 C 35.2051 -75.6348 30.4688 -80.2734 23.8281 -80.2734 C 17.1875 -80.2734 12.4512 -75.6348 12.4512 -69.2871 L 12.4512 -1.17188 C 12.4512 5.17578 17.1875 9.81445 23.8281 9.81445 Z M 66.4551 9.81445 C 73.0957 9.81445 77.832 5.17578 77.832 -1.17188 L 77.832 -69.2871 C 77.832 -75.6348 73.0957 -80.2734 66.4551 -80.2734 C 59.8145 -80.2734 55.0781 -75.6348 55.0781 -69.2871 L 55.0781 -1.17188 C 55.0781 5.17578 59.8145 9.81445 66.4551 9.81445 Z"/>
  </g>
  <g id="Heavy-M" transform="matrix(1 0 0 1 2594.48 1126)">
   <path d="M 22.1191 8.74023 C 27.7344 8.74023 31.7871 4.73633 31.7871 -0.634766 L 31.7871 -69.8242 C 31.7871 -75.1953 27.7344 -79.1504 22.1191 -79.1504 C 16.5039 -79.1504 12.4512 -75.1953 12.4512 -69.8242 L 12.4512 -0.634766 C 12.4512 4.73633 16.5039 8.74023 22.1191 8.74023 Z M 62.3047 8.74023 C 67.9199 8.74023 71.9727 4.73633 71.9727 -0.634766 L 71.9727 -69.8242 C 71.9727 -75.1953 67.9199 -79.1504 62.3047 -79.1504 C 56.6895 -79.1504 52.6367 -75.1953 52.6367 -69.8242 L 52.6367 -0.634766 C 52.6367 4.73633 56.6895 8.74023 62.3047 8.74023 Z"/>
  </g>
  <g id="Bold-M" transform="matrix(1 0 0 1 2301.04 1126)">
   <path d="M 20.2148 7.4707 C 24.707 7.4707 27.9785 4.24805 27.9785 -0.0488281 L 27.9785 -70.3613 C 27.9785 -74.6582 24.707 -77.9297 20.2148 -77.9297 C 15.7715 -77.9297 12.4512 -74.6582 12.4512 -70.3613 L 12.4512 -0.0488281 C 12.4512 4.24805 15.7715 7.4707 20.2148 7.4707 Z M 57.666 7.4707 C 62.1582 7.4707 65.4297 4.24805 65.4297 -0.0488281 L 65.4297 -70.3613 C 65.4297 -74.6582 62.1582 -77.9297 57.666 -77.9297 C 53.2227 -77.9297 49.9023 -74.6582 49.9023 -70.3613 L 49.9023 -0.0488281 C 49.9023 4.24805 53.2227 7.4707 57.666 7.4707 Z"/>
  </g>
  <g id="Semibold-M" transform="matrix(1 0 0 1 2006.57 1126)">
   <path d="M 18.8965 6.64062 C 22.6074 6.64062 25.3906 3.90625 25.3906 0.341797 L 25.3906 -70.752 C 25.3906 -74.3652 22.6074 -77.0508 18.8965 -77.0508 C 15.2344 -77.0508 12.4512 -74.3652 12.4512 -70.752 L 12.4512 0.341797 C 12.4512 3.90625 15.2344 6.64062 18.8965 6.64062 Z M 54.4922 6.64062 C 58.1543 6.64062 60.9375 3.90625 60.9375 0.341797 L 60.9375 -70.752 C 60.9375 -74.3652 58.1543 -77.0508 54.4922 -77.0508 C 50.7812 -77.0508 47.998 -74.3652 47.998 -70.752 L 47.998 0.341797 C 47.998 3.90625 50.7812 6.64062 54.4922 6.64062 Z"/>
  </g>
  <g id="Medium-M" transform="matrix(1 0 0 1 1711.57 1126)">
   <path d="M 17.9199 5.95703 C 20.9961 5.95703 23.3887 3.66211 23.3887 0.634766 L 23.3887 -71.0449 C 23.3887 -74.0723 20.9961 -76.3672 17.9199 -76.3672 C 14.8438 -76.3672 12.4512 -74.0723 12.4512 -71.0449 L 12.4512 0.634766 C 12.4512 3.66211 14.8438 5.95703 17.9199 5.95703 Z M 52.0508 5.95703 C 55.127 5.95703 57.5195 3.66211 57.5195 0.634766 L 57.5195 -71.0449 C 57.5195 -74.0723 55.127 -76.3672 52.0508 -76.3672 C 48.9746 -76.3672 46.582 -74.0723 46.582 -71.0449 L 46.582 0.634766 C 46.582 3.66211 48.9746 5.95703 52.0508 5.95703 Z"/>
  </g>
  <g id="Regular-M" transform="matrix(1 0 0 1 1417.08 1126)">
   <path d="M 16.6016 5.12695 C 18.9453 5.12695 20.8008 3.36914 20.8008 1.07422 L 20.8008 -71.4355 C 20.8008 -73.7305 18.9453 -75.5371 16.6016 -75.5371 C 14.3066 -75.5371 12.4512 -73.7305 12.4512 -71.4355 L 12.4512 1.07422 C 12.4512 3.36914 14.3066 5.12695 16.6016 5.12695 Z M 48.877 5.12695 C 51.1719 5.12695 53.0762 3.36914 53.0762 1.07422 L 53.0762 -71.4355 C 53.0762 -73.7305 51.1719 -75.5371 48.877 -75.5371 C 46.582 -75.5371 44.7266 -73.7305 44.7266 -71.4355 L 44.7266 1.07422 C 44.7266 3.36914 46.582 5.12695 48.877 5.12695 Z"/>
  </g>
  <g id="Light-M" transform="matrix(1 0 0 1 1121.44 1126)">
   <path d="M 15.625 4.05273 C 17.3828 4.05273 18.7988 2.68555 18.7988 0.976562 L 18.7988 -71.3379 C 18.7988 -73.0957 17.3828 -74.4629 15.625 -74.4629 C 13.8672 -74.4629 12.4512 -73.0957 12.4512 -71.3379 L 12.4512 0.976562 C 12.4512 2.68555 13.8672 4.05273 15.625 4.05273 Z M 47.7539 4.05273 C 49.5117 4.05273 50.9277 2.68555 50.9277 0.976562 L 50.9277 -71.3379 C 50.9277 -73.0957 49.5117 -74.4629 47.7539 -74.4629 C 45.9961 -74.4629 44.5801 -73.0957 44.5801 -71.3379 L 44.5801 0.976562 C 44.5801 2.68555 45.9961 4.05273 47.7539 4.05273 Z"/>
  </g>
  <g id="Thin-M" transform="matrix(1 0 0 1 826.173 1126)">
   <path d="M 14.3066 2.68555 C 15.332 2.68555 16.1621 1.85547 16.1621 0.830078 L 16.1621 -71.2402 C 16.1621 -72.2656 15.332 -73.0469 14.3066 -73.0469 C 13.2812 -73.0469 12.4512 -72.2656 12.4512 -71.2402 L 12.4512 0.830078 C 12.4512 1.85547 13.2812 2.68555 14.3066 2.68555 Z M 46.1914 2.68555 C 47.2168 2.68555 48.0469 1.85547 48.0469 0.830078 L 48.0469 -71.2402 C 48.0469 -72.2656 47.2168 -73.0469 46.1914 -73.0469 C 45.166 -73.0469 44.3359 -72.2656 44.3359 -71.2402 L 44.3359 0.830078 C 44.3359 1.85547 45.166 2.68555 46.1914 2.68555 Z"/>
  </g>
  <g id="Ultralight-M" transform="matrix(1 0 0 1 530.17 1126)">
   <path d="M 13.623 1.95312 C 14.3066 1.95312 14.8438 1.41602 14.8438 0.78125 L 14.8438 -71.1426 C 14.8438 -71.8262 14.3066 -72.3633 13.623 -72.3633 C 12.9883 -72.3633 12.4512 -71.8262 12.4512 -71.1426 L 12.4512 0.78125 C 12.4512 1.41602 12.9883 1.95312 13.623 1.95312 Z M 45.4102 1.95312 C 46.0938 1.95312 46.6309 1.41602 46.6309 0.78125 L 46.6309 -71.1426 C 46.6309 -71.8262 46.0938 -72.3633 45.4102 -72.3633 C 44.7754 -72.3633 44.2383 -71.8262 44.2383 -71.1426 L 44.2383 0.78125 C 44.2383 1.41602 44.7754 1.95312 45.4102 1.95312 Z"/>
  </g>
  <g id="Black-S" transform="matrix(1 0 0 1 2898.24 696)">
   <path d="M 18.5547 0 C 23.6816 0 27.3438 -3.61328 27.3438 -8.49609 L 27.3438 -61.9629 C 27.3438 -66.8457 23.6816 -70.459 18.5547 -70.459 C 13.4277 -70.459 9.76562 -66.8457 9.76562 -61.9629 L 9.76562 -8.49609 C 9.76562 -3.61328 13.4277 0 18.5547 0 Z M 51.7578 0 C 56.8848 0 60.5469 -3.61328 60.5469 -8.49609 L 60.5469 -61.9629 C 60.5469 -66.8457 56.8848 -70.459 51.7578 -70.459 C 46.6309 -70.459 42.9688 -66.8457 42.9688 -61.9629 L 42.9688 -8.49609 C 42.9688 -3.61328 46.6309 0 51.7578 0 Z"/>
  </g>
  <g id="Heavy-S" transform="matrix(1 0 0 1 2603.66 696)">
   <path d="M 17.3828 -0.732422 C 21.7773 -0.732422 24.9512 -3.85742 24.9512 -8.10547 L 24.9512 -62.3535 C 24.9512 -66.6016 21.7773 -69.7266 17.3828 -69.7266 C 12.9395 -69.7266 9.76562 -66.6016 9.76562 -62.3535 L 9.76562 -8.10547 C 9.76562 -3.85742 12.9395 -0.732422 17.3828 -0.732422 Z M 48.7305 -0.732422 C 53.125 -0.732422 56.2988 -3.85742 56.2988 -8.10547 L 56.2988 -62.3535 C 56.2988 -66.6016 53.125 -69.7266 48.7305 -69.7266 C 44.3359 -69.7266 41.1133 -66.6016 41.1133 -62.3535 L 41.1133 -8.10547 C 41.1133 -3.85742 44.3359 -0.732422 48.7305 -0.732422 Z"/>
  </g>
  <g id="Bold-S" transform="matrix(1 0 0 1 2309.29 696)">
   <path d="M 16.0156 -1.5625 C 19.6289 -1.5625 22.3145 -4.15039 22.3145 -7.61719 L 22.3145 -62.793 C 22.3145 -66.2598 19.6289 -68.8965 16.0156 -68.8965 C 12.4512 -68.8965 9.76562 -66.2598 9.76562 -62.793 L 9.76562 -7.61719 C 9.76562 -4.15039 12.4512 -1.5625 16.0156 -1.5625 Z M 45.3125 -1.5625 C 48.9258 -1.5625 51.6113 -4.15039 51.6113 -7.61719 L 51.6113 -62.793 C 51.6113 -66.2598 48.9258 -68.8965 45.3125 -68.8965 C 41.748 -68.8965 39.0625 -66.2598 39.0625 -62.793 L 39.0625 -7.61719 C 39.0625 -4.15039 41.748 -1.5625 45.3125 -1.5625 Z"/>
  </g>
  <g id="Semibold-S" transform="matrix(1 0 0 1 2014.21 696)">
   <path d="M 15.1367 -2.09961 C 18.1641 -2.09961 20.459 -4.3457 20.459 -7.32422 L 20.459 -63.1348 C 20.459 -66.0645 18.1641 -68.3105 15.1367 -68.3105 C 12.0605 -68.3105 9.76562 -66.0645 9.76562 -63.1348 L 9.76562 -7.32422 C 9.76562 -4.3457 12.0605 -2.09961 15.1367 -2.09961 Z M 42.9688 -2.09961 C 45.9961 -2.09961 48.3398 -4.3457 48.3398 -7.32422 L 48.3398 -63.1348 C 48.3398 -66.0645 45.9961 -68.3105 42.9688 -68.3105 C 39.9414 -68.3105 37.6465 -66.0645 37.6465 -63.1348 L 37.6465 -7.32422 C 37.6465 -4.3457 39.9414 -2.09961 42.9688 -2.09961 Z"/>
  </g>
  <g id="Medium-S" transform="matrix(1 0 0 1 1718.75 696)">
   <path d="M 14.4043 -2.53906 C 17.041 -2.53906 19.0918 -4.49219 19.0918 -7.08008 L 19.0918 -63.3301 C 19.0918 -65.918 17.041 -67.8711 14.4043 -67.8711 C 11.8164 -67.8711 9.76562 -65.918 9.76562 -63.3301 L 9.76562 -7.08008 C 9.76562 -4.49219 11.8164 -2.53906 14.4043 -2.53906 Z M 41.2109 -2.53906 C 43.7988 -2.53906 45.8496 -4.49219 45.8496 -7.08008 L 45.8496 -63.3301 C 45.8496 -65.918 43.7988 -67.8711 41.2109 -67.8711 C 38.5742 -67.8711 36.5234 -65.918 36.5234 -63.3301 L 36.5234 -7.08008 C 36.5234 -4.49219 38.5742 -2.53906 41.2109 -2.53906 Z"/>
  </g>
  <g id="Regular-S" transform="matrix(1 0 0 1 1423.65 696)">
   <path d="M 13.5254 -3.07617 C 15.5762 -3.07617 17.2852 -4.6875 17.2852 -6.73828 L 17.2852 -63.6719 C 17.2852 -65.7227 15.5762 -67.334 13.5254 -67.334 C 11.4746 -67.334 9.76562 -65.7227 9.76562 -63.6719 L 9.76562 -6.73828 C 9.76562 -4.6875 11.4746 -3.07617 13.5254 -3.07617 Z M 38.8672 -3.07617 C 40.9668 -3.07617 42.627 -4.6875 42.627 -6.73828 L 42.627 -63.6719 C 42.627 -65.7227 40.9668 -67.334 38.8672 -67.334 C 36.8164 -67.334 35.1074 -65.7227 35.1074 -63.6719 L 35.1074 -6.73828 C 35.1074 -4.6875 36.8164 -3.07617 38.8672 -3.07617 Z"/>
  </g>
  <g id="Light-S" transform="matrix(1 0 0 1 1127.89 696)">
   <path d="M 12.6465 -4.05273 C 14.209 -4.05273 15.5273 -5.27344 15.5273 -6.83594 L 15.5273 -63.5742 C 15.5273 -65.1367 14.209 -66.3574 12.6465 -66.3574 C 11.0352 -66.3574 9.76562 -65.1367 9.76562 -63.5742 L 9.76562 -6.83594 C 9.76562 -5.27344 11.0352 -4.05273 12.6465 -4.05273 Z M 37.8418 -4.05273 C 39.4531 -4.05273 40.7227 -5.27344 40.7227 -6.83594 L 40.7227 -63.5742 C 40.7227 -65.1367 39.4531 -66.3574 37.8418 -66.3574 C 36.2793 -66.3574 34.9609 -65.1367 34.9609 -63.5742 L 34.9609 -6.83594 C 34.9609 -5.27344 36.2793 -4.05273 37.8418 -4.05273 Z"/>
  </g>
  <g id="Thin-S" transform="matrix(1 0 0 1 832.423 696)">
   <path d="M 11.4746 -5.27344 C 12.4023 -5.27344 13.1836 -6.00586 13.1836 -6.93359 L 13.1836 -63.4766 C 13.1836 -64.4043 12.4023 -65.1367 11.4746 -65.1367 C 10.5469 -65.1367 9.76562 -64.4043 9.76562 -63.4766 L 9.76562 -6.93359 C 9.76562 -6.00586 10.5469 -5.27344 11.4746 -5.27344 Z M 36.5234 -5.27344 C 37.4512 -5.27344 38.2324 -6.00586 38.2324 -6.93359 L 38.2324 -63.4766 C 38.2324 -64.4043 37.4512 -65.1367 36.5234 -65.1367 C 35.5469 -65.1367 34.8145 -64.4043 34.8145 -63.4766 L 34.8145 -6.93359 C 34.8145 -6.00586 35.5469 -5.27344 36.5234 -5.27344 Z"/>
  </g>
  <g id="Ultralight-S" transform="matrix(1 0 0 1 536.371 696)">
   <path d="M 10.8887 -5.9082 C 11.4746 -5.9082 12.0117 -6.39648 12.0117 -7.03125 L 12.0117 -63.3789 C 12.0117 -64.0137 11.4746 -64.502 10.8887 -64.502 C 10.2539 -64.502 9.76562 -64.0137 9.76562 -63.3789 L 9.76562 -7.03125 C 9.76562 -6.39648 10.2539 -5.9082 10.8887 -5.9082 Z M 35.791 -5.9082 C 36.4258 -5.9082 36.9141 -6.39648 36.9141 -7.03125 L 36.9141 -63.3789 C 36.9141 -64.0137 36.4258 -64.502 35.791 -64.502 C 35.2051 -64.502 34.668 -64.0137 34.668 -63.3789 L 34.668 -7.03125 C 34.668 -6.39648 35.2051 -5.9082 35.791 -5.9082 Z"/>
  </g>
 </g>
</svg>
