<svg width="128" height="128" viewBox="0 0 128 128" fill="none" xmlns="http://www.w3.org/2000/svg">
<path d="M115.033 65.2874C115.068 66.6065 114.785 67.9147 114.208 69.1015C113.631 70.2882 112.777 71.3187 111.718 72.1058L60.3028 110.339C56.7398 112.956 52.0429 112.526 47.9711 109.208L23.3675 88.6884C22.1464 87.6699 21.1576 86.4017 20.4676 84.9691C19.7776 83.5365 19.4024 81.9728 19.3672 80.3831L18.8022 58.8676L73.3234 39.9128C76.9996 37.2098 81.8541 37.6549 86.0585 41.0805L114.385 44.541L115.033 65.2874Z" fill="#8359FE" stroke="black" stroke-width="4.66006" stroke-linecap="round" stroke-linejoin="round"/>
<path d="M113.075 49.4933L60.3596 88.2154C56.9736 90.7007 52.5166 90.2915 48.6537 87.1416L20.9583 64.5783C18.3666 62.4674 17.9593 57.7309 20.2279 56.065L72.7252 17.5034C76.2185 14.9369 80.8244 15.3596 84.818 18.6121L112.354 41.0447C114.921 43.1402 115.323 47.8399 113.075 49.4933Z" fill="#B68CFF" stroke="black" stroke-width="4.42426" stroke-linecap="round" stroke-linejoin="round"/>
<path d="M55.4268 91.1099V111.815" stroke="black" stroke-width="4.66006" stroke-linecap="round" stroke-linejoin="round"/>
<path d="M61.958 36.3082C50.3538 39.8761 43.1532 48.9534 45.862 56.6115C47.5405 61.3519 52.6156 64.4767 58.9871 65.3638L62.2908 73.5686L67.9019 65.1955C69.2145 64.9748 70.5123 64.6737 71.788 64.2939C83.3923 60.8305 90.5977 51.6777 87.8821 43.8812C85.1704 36.1002 73.5623 32.7229 61.958 36.3082Z" fill="white" stroke="black" stroke-width="5.4142" stroke-linecap="round" stroke-linejoin="round"/>
<path d="M62.5199 52.6393C63.9429 53.688 63.6469 55.5542 61.8611 56.7925C60.0752 58.0308 57.4593 58.1808 56.0139 57.1176C54.6131 56.0873 54.9091 54.2269 56.6679 53.0079C58.4809 51.7503 61.0968 51.5926 62.5199 52.6393Z" fill="black"/>
<path d="M69.828 47.5533C71.2511 48.603 70.955 50.475 69.1692 51.7191C67.3833 52.9632 64.7674 53.117 63.322 52.0519C61.9212 51.0206 62.2172 49.1544 63.976 47.9306C65.7909 46.6691 68.403 46.5046 69.828 47.5533Z" fill="black"/>
<path d="M77.1358 42.4447C78.5589 43.4963 78.2629 45.3731 76.477 46.6231C74.6911 47.873 72.0743 48.0239 70.628 46.9597C69.2271 45.9275 69.5232 44.0574 71.2819 42.8259C73.0968 41.5596 75.7127 41.3941 77.1358 42.4447Z" fill="black"/>
<path d="M40.513 97.3912C40.2585 96.2646 39.7846 95.1992 39.1183 94.2558C38.452 93.3124 37.6064 92.5095 36.6299 91.8929C35.6533 91.2763 34.5648 90.858 33.4266 90.6621C32.2884 90.4661 31.1227 90.4963 29.9962 90.7508C29.8772 90.7779 29.7611 90.8079 29.645 90.8398C29.8871 88.0331 29.1826 85.2261 27.644 82.8662C26.1053 80.5064 23.8209 78.7295 21.155 77.8188C18.4891 76.9082 15.5951 76.9161 12.9342 77.8414C10.2733 78.7667 7.9988 80.5561 6.47313 82.9244C4.94745 85.2927 4.25845 88.1035 4.51596 90.9089C4.77346 93.7142 5.96265 96.3527 7.89397 98.4036C9.82529 100.455 12.3876 101.8 15.1724 102.225C17.9573 102.651 20.8044 102.132 23.26 100.751C23.288 100.923 23.32 101.095 23.3567 101.268C23.6014 102.404 24.0689 103.481 24.7322 104.435C25.3956 105.39 26.2416 106.204 27.2214 106.829C28.2012 107.455 29.2953 107.88 30.4404 108.08C31.5856 108.281 32.759 108.252 33.893 107.995C35.0269 107.739 36.0987 107.261 37.0466 106.588C37.9944 105.915 38.7994 105.06 39.415 104.074C40.0307 103.088 40.4447 101.99 40.6331 100.843C40.8216 99.6955 40.7808 98.5225 40.513 97.3912Z" fill="white" stroke="black" stroke-width="4.66006" stroke-linecap="round" stroke-linejoin="round"/>
<path d="M123.198 79.2172C125.61 73.4348 122.877 66.7922 117.095 64.3805C111.313 61.9688 104.67 64.7013 102.258 70.4836C99.8468 76.266 102.579 82.9086 108.362 85.3203C114.144 87.732 120.786 84.9995 123.198 79.2172Z" fill="white" stroke="black" stroke-width="3.50546" stroke-linecap="round" stroke-linejoin="round"/>
<path d="M107.003 70.9324C107.51 69.7179 108.478 68.7544 109.695 68.2539C110.912 67.7533 112.278 67.7567 113.493 68.2632" stroke="black" stroke-width="3.06639" stroke-linecap="round" stroke-linejoin="round"/>
<path d="M118.428 70.549C118.684 69.9351 118.394 69.2298 117.78 68.9738C117.166 68.7177 116.461 69.0078 116.205 69.6218C115.949 70.2357 116.239 70.941 116.853 71.197C117.467 71.4531 118.172 71.163 118.428 70.549Z" fill="black" stroke="black" stroke-width="0.766343" stroke-miterlimit="10"/>
<path d="M11.1119 91.0808C12.4477 91.0808 13.5305 89.9979 13.5305 88.6622C13.5305 87.3265 12.4477 86.2437 11.1119 86.2437C9.77619 86.2437 8.69336 87.3265 8.69336 88.6622C8.69336 89.9979 9.77619 91.0808 11.1119 91.0808Z" fill="black" stroke="black" stroke-width="0.889324" stroke-miterlimit="10"/>
</svg>
