<?xml version="1.0" encoding="UTF-8"?>
<!--Generator: Apple Native CoreSVG 149-->
<!DOCTYPE svg
PUBLIC "-//W3C//DTD SVG 1.1//EN"
       "http://www.w3.org/Graphics/SVG/1.1/DTD/svg11.dtd">
<svg version="1.1" xmlns="http://www.w3.org/2000/svg" xmlns:xlink="http://www.w3.org/1999/xlink" width="3300" height="2200">
 <!--glyph: "uni100206.medium", point size: 100.000000, font version: "Version 16.0d18e1", template writer version: "8"-->
 <g id="Notes">
  <rect height="2200" id="artboard" style="fill:white;opacity:1" width="3300" x="0" y="0"/>
  <line id="" style="fill:none;stroke:black;opacity:1;stroke-width:0.5;" x1="263" x2="3036" y1="292" y2="292"/>
  <text style="stroke:none;fill:black;font-family:-apple-system,&quot;SF Pro Display&quot;,&quot;SF Pro Text&quot;,Helvetica,sans-serif;font-weight:bold;" transform="matrix(1 0 0 1 263 322)">Weight/Scale Variations</text>
  <text style="stroke:none;fill:black;font-family:-apple-system,&quot;SF Pro Display&quot;,&quot;SF Pro Text&quot;,Helvetica,sans-serif;text-anchor:middle;" transform="matrix(1 0 0 1 559.711 322)">Ultralight</text>
  <text style="stroke:none;fill:black;font-family:-apple-system,&quot;SF Pro Display&quot;,&quot;SF Pro Text&quot;,Helvetica,sans-serif;text-anchor:middle;" transform="matrix(1 0 0 1 856.422 322)">Thin</text>
  <text style="stroke:none;fill:black;font-family:-apple-system,&quot;SF Pro Display&quot;,&quot;SF Pro Text&quot;,Helvetica,sans-serif;text-anchor:middle;" transform="matrix(1 0 0 1 1153.13 322)">Light</text>
  <text style="stroke:none;fill:black;font-family:-apple-system,&quot;SF Pro Display&quot;,&quot;SF Pro Text&quot;,Helvetica,sans-serif;text-anchor:middle;" transform="matrix(1 0 0 1 1449.84 322)">Regular</text>
  <text style="stroke:none;fill:black;font-family:-apple-system,&quot;SF Pro Display&quot;,&quot;SF Pro Text&quot;,Helvetica,sans-serif;text-anchor:middle;" transform="matrix(1 0 0 1 1746.56 322)">Medium</text>
  <text style="stroke:none;fill:black;font-family:-apple-system,&quot;SF Pro Display&quot;,&quot;SF Pro Text&quot;,Helvetica,sans-serif;text-anchor:middle;" transform="matrix(1 0 0 1 2043.27 322)">Semibold</text>
  <text style="stroke:none;fill:black;font-family:-apple-system,&quot;SF Pro Display&quot;,&quot;SF Pro Text&quot;,Helvetica,sans-serif;text-anchor:middle;" transform="matrix(1 0 0 1 2339.98 322)">Bold</text>
  <text style="stroke:none;fill:black;font-family:-apple-system,&quot;SF Pro Display&quot;,&quot;SF Pro Text&quot;,Helvetica,sans-serif;text-anchor:middle;" transform="matrix(1 0 0 1 2636.69 322)">Heavy</text>
  <text style="stroke:none;fill:black;font-family:-apple-system,&quot;SF Pro Display&quot;,&quot;SF Pro Text&quot;,Helvetica,sans-serif;text-anchor:middle;" transform="matrix(1 0 0 1 2933.4 322)">Black</text>
  <line id="" style="fill:none;stroke:black;opacity:1;stroke-width:0.5;" x1="263" x2="3036" y1="1903" y2="1903"/>
  <g id="" transform="matrix(1 0 0 1 263 1933)">
   <path d="M9.24805 0.830078C13.5547 0.830078 17.1387-2.74414 17.1387-7.05078C17.1387-11.3574 13.5449-14.9316 9.23828-14.9316C4.94141-14.9316 1.36719-11.3574 1.36719-7.05078C1.36719-2.74414 4.95117 0.830078 9.24805 0.830078ZM9.24805-0.654297C5.70312-0.654297 2.87109-3.49609 2.87109-7.05078C2.87109-10.6055 5.69336-13.4473 9.23828-13.4473C12.793-13.4473 15.6348-10.6055 15.6445-7.05078C15.6543-3.49609 12.8027-0.654297 9.24805-0.654297ZM6.39648-6.31836L8.50586-6.31836L8.50586-4.19922C8.50586-3.75977 8.79883-3.45703 9.22852-3.45703C9.67773-3.45703 9.9707-3.75977 9.9707-4.19922L9.9707-6.31836L12.0996-6.31836C12.5391-6.31836 12.8418-6.61133 12.8418-7.04102C12.8418-7.48047 12.5391-7.7832 12.0996-7.7832L9.9707-7.7832L9.9707-9.89258C9.9707-10.3418 9.67773-10.6445 9.22852-10.6445C8.79883-10.6445 8.50586-10.3418 8.50586-9.89258L8.50586-7.7832L6.39648-7.7832C5.94727-7.7832 5.64453-7.48047 5.64453-7.04102C5.64453-6.61133 5.94727-6.31836 6.39648-6.31836Z"/>
  </g>
  <g id="" transform="matrix(1 0 0 1 281.506 1933)">
   <path d="M11.709 2.91016C17.1582 2.91016 21.6699-1.61133 21.6699-7.05078C21.6699-12.5 17.1484-17.0117 11.6992-17.0117C6.25977-17.0117 1.74805-12.5 1.74805-7.05078C1.74805-1.61133 6.26953 2.91016 11.709 2.91016ZM11.709 1.25C7.09961 1.25 3.41797-2.44141 3.41797-7.05078C3.41797-11.6602 7.08984-15.3516 11.6992-15.3516C16.3086-15.3516 20-11.6602 20.0098-7.05078C20.0195-2.44141 16.3184 1.25 11.709 1.25ZM7.98828-6.23047L10.8789-6.23047L10.8789-3.32031C10.8789-2.83203 11.2109-2.5 11.6895-2.5C12.1777-2.5 12.5195-2.83203 12.5195-3.32031L12.5195-6.23047L15.4297-6.23047C15.918-6.23047 16.25-6.5625 16.25-7.04102C16.25-7.5293 15.918-7.87109 15.4297-7.87109L12.5195-7.87109L12.5195-10.7617C12.5195-11.2695 12.1777-11.6016 11.6895-11.6016C11.2109-11.6016 10.8789-11.2598 10.8789-10.7617L10.8789-7.87109L7.98828-7.87109C7.48047-7.87109 7.14844-7.5293 7.14844-7.04102C7.14844-6.5625 7.49023-6.23047 7.98828-6.23047Z"/>
  </g>
  <g id="" transform="matrix(1 0 0 1 304.924 1933)">
   <path d="M14.9707 5.66406C21.9336 5.66406 27.6953-0.0976562 27.6953-7.05078C27.6953-14.0137 21.9238-19.7754 14.9609-19.7754C8.00781-19.7754 2.25586-14.0137 2.25586-7.05078C2.25586-0.0976562 8.01758 5.66406 14.9707 5.66406ZM14.9707 3.84766C8.93555 3.84766 4.08203-1.01562 4.08203-7.05078C4.08203-13.0957 8.92578-17.9492 14.9609-17.9492C21.0059-17.9492 25.8594-13.0957 25.8691-7.05078C25.8789-1.01562 21.0156 3.84766 14.9707 3.84766ZM10.0586-6.14258L14.0625-6.14258L14.0625-2.12891C14.0625-1.5918 14.4336-1.2207 14.9512-1.2207C15.4883-1.2207 15.8594-1.5918 15.8594-2.12891L15.8594-6.14258L19.8828-6.14258C20.4102-6.14258 20.791-6.51367 20.791-7.03125C20.791-7.56836 20.4199-7.94922 19.8828-7.94922L15.8594-7.94922L15.8594-11.9531C15.8594-12.5098 15.4883-12.8809 14.9512-12.8809C14.4336-12.8809 14.0625-12.5 14.0625-11.9531L14.0625-7.94922L10.0586-7.94922C9.50195-7.94922 9.13086-7.56836 9.13086-7.03125C9.13086-6.51367 9.51172-6.14258 10.0586-6.14258Z"/>
  </g>
  <text style="stroke:none;fill:black;font-family:-apple-system,&quot;SF Pro Display&quot;,&quot;SF Pro Text&quot;,Helvetica,sans-serif;font-weight:bold;" transform="matrix(1 0 0 1 263 1953)">Design Variations</text>
  <text style="stroke:none;fill:black;font-family:-apple-system,&quot;SF Pro Display&quot;,&quot;SF Pro Text&quot;,Helvetica,sans-serif;" transform="matrix(1 0 0 1 263 1971)">Symbols are supported in up to nine weights and three scales.</text>
  <text style="stroke:none;fill:black;font-family:-apple-system,&quot;SF Pro Display&quot;,&quot;SF Pro Text&quot;,Helvetica,sans-serif;" transform="matrix(1 0 0 1 263 1989)">For optimal layout with text and other symbols, vertically align</text>
  <text style="stroke:none;fill:black;font-family:-apple-system,&quot;SF Pro Display&quot;,&quot;SF Pro Text&quot;,Helvetica,sans-serif;" transform="matrix(1 0 0 1 263 2007)">symbols with the adjacent text.</text>
  <line id="" style="fill:none;stroke:#00AEEF;stroke-width:0.5;opacity:1.0;" x1="776" x2="776" y1="1919" y2="1933"/>
  <g id="" transform="matrix(1 0 0 1 776 1933)">
   <path d="M3.31055 0.126953C3.82812 0.126953 4.08203-0.0683594 4.26758-0.605469L5.52734-4.0625L11.2891-4.0625L12.5488-0.605469C12.7344-0.0683594 12.9883 0.126953 13.4961 0.126953C14.0137 0.126953 14.3457-0.185547 14.3457-0.673828C14.3457-0.839844 14.3164-0.986328 14.2383-1.20117L9.6582-13.3887C9.43359-13.9941 9.0332-14.2871 8.4082-14.2871C7.80273-14.2871 7.39258-13.9941 7.17773-13.3984L2.59766-1.19141C2.51953-0.976562 2.49023-0.830078 2.49023-0.664062C2.49023-0.175781 2.80273 0.126953 3.31055 0.126953ZM6.00586-5.53711L8.37891-12.1094L8.42773-12.1094L10.8008-5.53711Z"/>
  </g>
  <line id="" style="fill:none;stroke:#00AEEF;stroke-width:0.5;opacity:1.0;" x1="792.836" x2="792.836" y1="1919" y2="1933"/>
  <text style="stroke:none;fill:black;font-family:-apple-system,&quot;SF Pro Display&quot;,&quot;SF Pro Text&quot;,Helvetica,sans-serif;font-weight:bold;" transform="matrix(1 0 0 1 776 1953)">Margins</text>
  <text style="stroke:none;fill:black;font-family:-apple-system,&quot;SF Pro Display&quot;,&quot;SF Pro Text&quot;,Helvetica,sans-serif;" transform="matrix(1 0 0 1 776 1971)">Leading and trailing margins on the left and right side of each symbol</text>
  <text style="stroke:none;fill:black;font-family:-apple-system,&quot;SF Pro Display&quot;,&quot;SF Pro Text&quot;,Helvetica,sans-serif;" transform="matrix(1 0 0 1 776 1989)">can be adjusted by modifying the x-location of the margin guidelines.</text>
  <text style="stroke:none;fill:black;font-family:-apple-system,&quot;SF Pro Display&quot;,&quot;SF Pro Text&quot;,Helvetica,sans-serif;" transform="matrix(1 0 0 1 776 2007)">Modifications are automatically applied proportionally to all</text>
  <text style="stroke:none;fill:black;font-family:-apple-system,&quot;SF Pro Display&quot;,&quot;SF Pro Text&quot;,Helvetica,sans-serif;" transform="matrix(1 0 0 1 776 2025)">scales and weights.</text>
  <g id="" transform="matrix(1 0 0 1 1289 1933)">
   <path d="M2.8418 1.86523L4.54102 3.57422C5.40039 4.44336 6.38672 4.38477 7.31445 3.35938L17.4902-7.85156C17.7539-7.76367 18.0273-7.7832 18.3398-7.8418L19.4043-8.03711L20.0684-7.36328L20.0293-6.80664C19.9902-6.30859 20.1172-5.92773 20.6055-5.44922L21.3672-4.70703C21.8457-4.22852 22.4609-4.19922 22.9297-4.66797L25.8398-7.58789C26.3086-8.05664 26.2891-8.65234 25.8105-9.13086L25.0391-9.89258C24.5605-10.3711 24.1895-10.5273 23.7109-10.4883L23.1348-10.4395L22.4902-11.0742L22.7344-12.1973C22.8613-12.7637 22.7051-13.2031 22.1191-13.7891L19.9219-15.9766C16.582-19.2969 12.1484-19.2188 9.25781-16.3281C8.83789-15.918 8.80859-15.3418 9.04297-14.9512C9.27734-14.5898 9.73633-14.3555 10.3809-14.5215C11.8457-14.8633 13.3691-14.9219 14.7949-13.9844L14.209-12.5293C14.0137-12.0508 13.9844-11.6504 14.1113-11.2891L3.04688-0.898438C2.06055 0.0195312 1.98242 0.996094 2.8418 1.86523ZM10.752-15.957C13.1836-17.7344 16.4746-17.4316 18.7012-15.2051L21.1328-12.793C21.3672-12.5586 21.4062-12.373 21.3379-12.0312L21.0156-10.5469L22.5195-9.0625L23.5059-9.12109C23.7598-9.13086 23.8379-9.11133 24.0332-8.91602L24.6094-8.33984L22.168-5.89844L21.5918-6.47461C21.3965-6.66992 21.3672-6.74805 21.377-7.01172L21.4453-7.98828L19.9512-9.47266L18.4277-9.21875C18.1055-9.15039 17.959-9.17969 17.7148-9.41406L15.7129-11.416C15.459-11.6504 15.4297-11.8164 15.5859-12.1875L16.4648-14.2773C14.9023-15.7324 12.8711-16.3574 10.8398-15.7617C10.6836-15.7227 10.625-15.8496 10.752-15.957ZM5.27344 2.30469L4.10156 1.14258C3.63281 0.683594 3.74023 0.341797 4.14062-0.0195312L14.9512-10.1953L16.416-8.71094L6.42578 2.27539C6.07422 2.67578 5.74219 2.77344 5.27344 2.30469Z"/>
  </g>
  <text style="stroke:none;fill:black;font-family:-apple-system,&quot;SF Pro Display&quot;,&quot;SF Pro Text&quot;,Helvetica,sans-serif;font-weight:bold;" transform="matrix(1 0 0 1 1289 1953)">Exporting</text>
  <text style="stroke:none;fill:black;font-family:-apple-system,&quot;SF Pro Display&quot;,&quot;SF Pro Text&quot;,Helvetica,sans-serif;" transform="matrix(1 0 0 1 1289 1971)">Symbols should be outlined when exporting to ensure the</text>
  <text style="stroke:none;fill:black;font-family:-apple-system,&quot;SF Pro Display&quot;,&quot;SF Pro Text&quot;,Helvetica,sans-serif;" transform="matrix(1 0 0 1 1289 1989)">design is preserved when submitting to Xcode.</text>
  <text id="template-version" style="stroke:none;fill:black;font-family:-apple-system,&quot;SF Pro Display&quot;,&quot;SF Pro Text&quot;,Helvetica,sans-serif;text-anchor:end;" transform="matrix(1 0 0 1 3036 1933)">Template v.2.0</text>
  <text style="stroke:none;fill:black;font-family:-apple-system,&quot;SF Pro Display&quot;,&quot;SF Pro Text&quot;,Helvetica,sans-serif;text-anchor:end;" transform="matrix(1 0 0 1 3036 1951)">Requires Xcode 12 or greater</text>
  <text style="stroke:none;fill:black;font-family:-apple-system,&quot;SF Pro Display&quot;,&quot;SF Pro Text&quot;,Helvetica,sans-serif;text-anchor:end;" transform="matrix(1 0 0 1 3036 1969)">Generated from square.and.arrow.up.on.square</text>
  <text style="stroke:none;fill:black;font-family:-apple-system,&quot;SF Pro Display&quot;,&quot;SF Pro Text&quot;,Helvetica,sans-serif;text-anchor:end;" transform="matrix(1 0 0 1 3036 1987)">Typeset at 100 points</text>
  <text style="stroke:none;fill:black;font-family:-apple-system,&quot;SF Pro Display&quot;,&quot;SF Pro Text&quot;,Helvetica,sans-serif;" transform="matrix(1 0 0 1 263 726)">Small</text>
  <text style="stroke:none;fill:black;font-family:-apple-system,&quot;SF Pro Display&quot;,&quot;SF Pro Text&quot;,Helvetica,sans-serif;" transform="matrix(1 0 0 1 263 1156)">Medium</text>
  <text style="stroke:none;fill:black;font-family:-apple-system,&quot;SF Pro Display&quot;,&quot;SF Pro Text&quot;,Helvetica,sans-serif;" transform="matrix(1 0 0 1 263 1586)">Large</text>
 </g>
 <g id="Guides">
  <g id="H-reference" style="fill:#27AAE1;stroke:none;" transform="matrix(1 0 0 1 339 696)">
   <path d="M0.976562 0L3.66211 0L12.9883-24.4629L45.752-24.4629L55.127 0L57.7637 0L30.6152-70.459L28.125-70.459ZM29.3457-67.1387L29.4434-67.1387L44.873-26.709L13.8672-26.709Z"/>
  </g>
  <line id="Baseline-S" style="fill:none;stroke:#27AAE1;opacity:1;stroke-width:0.5;" x1="263" x2="3036" y1="696" y2="696"/>
  <line id="Capline-S" style="fill:none;stroke:#27AAE1;opacity:1;stroke-width:0.5;" x1="263" x2="3036" y1="625.541" y2="625.541"/>
  <g id="H-reference" style="fill:#27AAE1;stroke:none;" transform="matrix(1 0 0 1 339 1126)">
   <path d="M0.976562 0L3.66211 0L12.9883-24.4629L45.752-24.4629L55.127 0L57.7637 0L30.6152-70.459L28.125-70.459ZM29.3457-67.1387L29.4434-67.1387L44.873-26.709L13.8672-26.709Z"/>
  </g>
  <line id="Baseline-M" style="fill:none;stroke:#27AAE1;opacity:1;stroke-width:0.5;" x1="263" x2="3036" y1="1126" y2="1126"/>
  <line id="Capline-M" style="fill:none;stroke:#27AAE1;opacity:1;stroke-width:0.5;" x1="263" x2="3036" y1="1055.54" y2="1055.54"/>
  <g id="H-reference" style="fill:#27AAE1;stroke:none;" transform="matrix(1 0 0 1 339 1556)">
   <path d="M0.976562 0L3.66211 0L12.9883-24.4629L45.752-24.4629L55.127 0L57.7637 0L30.6152-70.459L28.125-70.459ZM29.3457-67.1387L29.4434-67.1387L44.873-26.709L13.8672-26.709Z"/>
  </g>
  <line id="Baseline-L" style="fill:none;stroke:#27AAE1;opacity:1;stroke-width:0.5;" x1="263" x2="3036" y1="1556" y2="1556"/>
  <line id="Capline-L" style="fill:none;stroke:#27AAE1;opacity:1;stroke-width:0.5;" x1="263" x2="3036" y1="1485.54" y2="1485.54"/>
  <line id="left-margin" style="fill:none;stroke:#00AEEF;stroke-width:0.5;opacity:1.0;" x1="1381.88" x2="1381.88" y1="1030.79" y2="1150.12"/>
  <line id="right-margin" style="fill:none;stroke:#00AEEF;stroke-width:0.5;opacity:1.0;" x1="1517.81" x2="1517.81" y1="1030.79" y2="1150.12"/>
 </g>
 <g id="Symbols">
  <g id="Black-L" transform="matrix(1 0 0 1 2839.21 1556)">
   <path d="M76.6602-30.6641C81.6406-30.6641 85.498-34.7168 85.498-39.4043L85.498-98.2422L84.7168-107.422L87.207-102.49L93.457-95.8008C94.9219-94.2383 96.9238-93.3105 99.1211-93.3105C102.979-93.3105 106.641-96.2402 106.641-100.537C106.641-102.734 105.811-104.297 104.346-105.762L83.8379-125.391C81.4941-127.686 79.0527-128.516 76.6602-128.516C74.2676-128.516 71.875-127.686 69.5312-125.391L48.9746-105.762C47.5098-104.297 46.6797-102.734 46.6797-100.537C46.6797-96.2402 50.3418-93.3105 54.1992-93.3105C56.3965-93.3105 58.3984-94.2383 59.8633-95.8008L66.1621-102.49L68.6523-107.422L67.8711-98.2422L67.8711-39.4043C67.8711-34.7168 71.6797-30.6641 76.6602-30.6641ZM39.9902 22.6562L55.957 22.6562L55.957 33.252C55.957 48.4863 64.5996 57.0801 79.8828 57.0801L148.389 57.0801C163.623 57.0801 172.314 48.4863 172.314 33.252L172.314-33.1055C172.314-48.291 163.623-56.9336 148.389-56.9336L137.207-56.9336L137.207-60.0098C137.207-75.1953 128.564-83.7891 113.33-83.7891L97.9492-83.7891L97.9492-63.5742L110.596-63.5742C114.795-63.5742 116.992-61.6699 116.992-57.1289L116.992-4.00391C116.992 0.537109 114.795 2.44141 110.596 2.44141L42.6758 2.44141C38.4766 2.44141 36.3281 0.537109 36.3281-4.00391L36.3281-57.1289C36.3281-61.6699 38.4766-63.5742 42.6758-63.5742L55.7617-63.5742L55.7617-83.7891L39.9902-83.7891C24.7559-83.7891 16.0645-75.1953 16.0645-60.0098L16.0645-1.12305C16.0645 14.0625 24.7559 22.6562 39.9902 22.6562ZM82.6172 36.8652C78.3691 36.8652 76.2207 34.9609 76.2207 30.4199L76.2207 22.6562L113.33 22.6562C128.564 22.6562 137.207 14.0625 137.207-1.12305L137.207-36.6699L145.654-36.6699C149.902-36.6699 152.051-34.8145 152.051-30.2734L152.051 30.4199C152.051 34.9609 149.902 36.8652 145.654 36.8652Z"/>
  </g>
  <g id="Heavy-L" transform="matrix(1 0 0 1 2544.26 1556)">
   <path d="M75.3906-29.9805C79.7363-29.9805 83.1543-33.5449 83.1543-37.6465L83.1543-98.291L82.4707-107.52L85.5957-102.539L92.8223-94.8242C94.0918-93.457 95.8984-92.627 97.8027-92.627C101.27-92.627 104.492-95.2637 104.492-99.0723C104.492-100.977 103.76-102.393 102.441-103.711L81.5918-123.73C79.541-125.732 77.4902-126.465 75.3906-126.465C73.291-126.465 71.2402-125.732 69.2383-123.73L48.3887-103.711C47.0703-102.393 46.3379-100.977 46.3379-99.0723C46.3379-95.2637 49.5117-92.627 52.9785-92.627C54.8828-92.627 56.6895-93.457 58.0078-94.8242L65.2344-102.539L68.3594-107.52L67.6758-98.291L67.6758-37.6465C67.6758-33.5449 71.0449-29.9805 75.3906-29.9805ZM38.8184 22.3145L55.0781 22.3145L55.0781 32.5684C55.0781 47.1191 63.1836 55.2246 77.7832 55.2246L146.045 55.2246C160.645 55.2246 168.799 47.1191 168.799 32.5684L168.799-33.2031C168.799-47.7539 160.645-55.8594 146.045-55.8594L134.668-55.8594L134.668-60.3516C134.668-74.9023 126.562-83.0078 111.914-83.0078L95.9961-83.0078L95.9961-65.4785L109.814-65.4785C114.6-65.4785 117.188-63.1836 117.188-58.0566L117.188-2.63672C117.188 2.49023 114.6 4.78516 109.814 4.78516L40.918 4.78516C36.084 4.78516 33.5938 2.49023 33.5938-2.63672L33.5938-58.0566C33.5938-63.1836 36.084-65.4785 40.918-65.4785L55.127-65.4785L55.127-83.0078L38.8184-83.0078C24.2188-83.0078 16.0645-74.9023 16.0645-60.3516L16.0645-0.341797C16.0645 14.209 24.2188 22.3145 38.8184 22.3145ZM79.9316 37.6953C75.1465 37.6953 72.5586 35.4004 72.5586 30.2734L72.5586 22.3145L111.914 22.3145C126.562 22.3145 134.668 14.209 134.668-0.341797L134.668-38.3301L143.896-38.3301C148.779-38.3301 151.27-36.0352 151.27-30.9082L151.27 30.2734C151.27 35.4004 148.779 37.6953 143.896 37.6953Z"/>
  </g>
  <g id="Bold-L" transform="matrix(1 0 0 1 2249.5 1556)">
   <path d="M73.9746-29.1992C77.6367-29.1992 80.5664-32.1777 80.5664-35.6445L80.5664-98.4375L79.9805-107.617L83.7891-102.539L92.0898-93.7988C93.1641-92.5781 94.7266-91.8945 96.3867-91.8945C99.4141-91.8945 102.1-94.1895 102.1-97.4121C102.1-99.0723 101.465-100.293 100.293-101.416L79.1016-121.875C77.4414-123.535 75.7324-124.121 73.9746-124.121C72.2656-124.121 70.5566-123.535 68.8965-121.875L47.6562-101.416C46.5332-100.293 45.8984-99.0723 45.8984-97.4121C45.8984-94.1895 48.5352-91.8945 51.5625-91.8945C53.2227-91.8945 54.7852-92.5781 55.9082-93.7988L64.1602-102.539L68.0176-107.666L67.4316-98.4375L67.4316-35.6445C67.4316-32.1777 70.3613-29.1992 73.9746-29.1992ZM37.5 21.875L54.0527 21.875L54.0527 31.7871C54.0527 45.6055 61.5723 53.125 75.4883 53.125L143.408 53.125C157.324 53.125 164.893 45.6543 164.893 31.7871L164.893-33.3008C164.893-47.168 157.324-54.6387 143.408-54.6387L131.885-54.6387L131.885-60.791C131.885-74.6094 124.365-82.0801 110.4-82.0801L93.8477-82.0801L93.8477-67.6758L108.984-67.6758C114.404-67.6758 117.432-64.8926 117.432-59.1309L117.432-1.12305C117.432 4.6875 114.404 7.42188 108.984 7.42188L38.9648 7.42188C33.4473 7.42188 30.5176 4.6875 30.5176-1.12305L30.5176-59.1309C30.5176-64.8926 33.4473-67.6758 38.9648-67.6758L54.3457-67.6758L54.3457-82.0801L37.5-82.0801C23.6328-82.0801 16.0645-74.6094 16.0645-60.791L16.0645 0.537109C16.0645 14.4043 23.6328 21.875 37.5 21.875ZM76.9531 38.6719C71.4844 38.6719 68.5059 35.9375 68.5059 30.127L68.5059 21.875L110.4 21.875C124.365 21.875 131.885 14.3555 131.885 0.537109L131.885-40.1855L141.992-40.1855C147.51-40.1855 150.439-37.4023 150.439-31.6406L150.439 30.127C150.439 35.9375 147.51 38.6719 141.992 38.6719Z"/>
  </g>
  <g id="Semibold-L" transform="matrix(1 0 0 1 1954.16 1556)">
   <path d="M73.0469-28.6621C76.1719-28.6621 78.7598-31.25 78.7598-34.2773L78.7598-98.4863L78.2715-107.715L82.5684-102.539L91.5527-93.0664C92.5293-91.9922 93.9453-91.3574 95.3613-91.3574C98.0957-91.3574 100.439-93.4082 100.439-96.2891C100.439-97.7539 99.8535-98.8281 98.8281-99.8535L77.3926-120.605C75.9277-122.07 74.5117-122.559 73.0469-122.559C71.5332-122.559 70.1172-122.07 68.6523-120.605L47.2168-99.8535C46.1914-98.8281 45.6055-97.7539 45.6055-96.2891C45.6055-93.4082 47.9004-91.3574 50.6348-91.3574C52.0508-91.3574 53.4668-91.9922 54.4434-93.0664L63.4766-102.539L67.7734-107.715L67.2852-98.4863L67.2852-34.2773C67.2852-31.25 69.873-28.6621 73.0469-28.6621ZM36.6211 21.582L53.3691 21.582L53.3691 31.25C53.3691 44.5801 60.4492 51.6602 73.9258 51.6602L141.602 51.6602C155.029 51.6602 162.158 44.6289 162.158 31.25L162.158-33.3984C162.158-46.7285 155.029-53.7598 141.602-53.7598L129.932-53.7598L129.932-61.084C129.932-74.3652 122.803-81.4941 109.326-81.4941L92.334-81.4941L92.334-69.1406L108.35-69.1406C114.258-69.1406 117.578-66.0645 117.578-59.8633L117.578-0.0488281C117.578 6.20117 114.258 9.22852 108.35 9.22852L37.5977 9.22852C31.6406 9.22852 28.418 6.20117 28.418-0.0488281L28.418-59.8633C28.418-66.0645 31.6406-69.1406 37.5977-69.1406L53.8574-69.1406L53.8574-81.4941L36.6211-81.4941C23.1934-81.4941 16.0645-74.4141 16.0645-61.084L16.0645 1.17188C16.0645 14.5508 23.1934 21.582 36.6211 21.582ZM74.9023 39.3555C68.9941 39.3555 65.6738 36.2793 65.6738 30.0293L65.6738 21.582L109.326 21.582C122.803 21.582 129.932 14.502 129.932 1.17188L129.932-41.4551L140.625-41.4551C146.631-41.4551 149.854-38.3789 149.854-32.1777L149.854 30.0293C149.854 36.2793 146.631 39.3555 140.625 39.3555Z"/>
  </g>
  <g id="Medium-L" transform="matrix(1 0 0 1 1658.47 1556)">
   <path d="M72.2656-28.2715C75.0977-28.2715 77.3926-30.5664 77.3926-33.252L77.3926-98.5352L76.9531-107.764L81.6406-102.539L91.1621-92.4805C92.0898-91.5039 93.3594-90.9668 94.5801-90.9668C97.1191-90.9668 99.1699-92.8223 99.1699-95.4102C99.1699-96.7285 98.6328-97.7051 97.7051-98.6816L76.123-119.629C74.8047-120.898 73.6328-121.338 72.2656-121.338C70.9473-121.338 69.7266-120.898 68.457-119.629L46.8262-98.6816C45.8984-97.7051 45.3613-96.7285 45.3613-95.4102C45.3613-92.8223 47.3633-90.9668 49.9023-90.9668C51.1719-90.9668 52.4902-91.5039 53.3691-92.4805L62.9395-102.539L67.5781-107.812L67.1875-98.5352L67.1875-33.252C67.1875-30.5664 69.4824-28.2715 72.2656-28.2715ZM35.9375 21.3379L52.832 21.3379L52.832 30.8594C52.832 43.7988 59.6191 50.5859 72.7051 50.5859L140.234 50.5859C153.271 50.5859 160.107 43.8477 160.107 30.8594L160.107-33.4473C160.107-46.3867 153.271-53.125 140.234-53.125L128.418-53.125L128.418-61.2793C128.418-74.2188 121.68-81.0059 108.545-81.0059L91.2109-81.0059L91.2109-70.2637L107.91-70.2637C114.16-70.2637 117.725-66.9434 117.725-60.4004L117.725 0.732422C117.725 7.32422 114.16 10.6445 107.91 10.6445L36.5723 10.6445C30.2246 10.6445 26.8066 7.32422 26.8066 0.732422L26.8066-60.4004C26.8066-66.9434 30.2246-70.2637 36.5723-70.2637L53.4668-70.2637L53.4668-81.0059L35.9375-81.0059C22.9004-81.0059 16.0645-74.2676 16.0645-61.2793L16.0645 1.66016C16.0645 14.6484 22.9004 21.3379 35.9375 21.3379ZM73.3398 39.8438C67.0898 39.8438 63.5742 36.5234 63.5742 29.9805L63.5742 21.3379L108.545 21.3379C121.68 21.3379 128.418 14.5508 128.418 1.66016L128.418-42.3828L139.6-42.3828C145.947-42.3828 149.365-39.1113 149.365-32.5195L149.365 29.9805C149.365 36.5234 145.947 39.8438 139.6 39.8438Z"/>
  </g>
  <g id="Regular-L" transform="matrix(1 0 0 1 1363.1 1556)">
   <path d="M71.3379-27.7344C73.6328-27.7344 75.5859-29.6387 75.5859-31.9336L75.5859-98.6328L75.293-107.861L80.3711-102.539L90.6738-91.7969C91.4551-90.918 92.5781-90.4785 93.6035-90.4785C95.8008-90.4785 97.5098-92.0898 97.5098-94.2871C97.5098-95.4102 97.0703-96.2891 96.2402-97.1191L74.4141-118.359C73.3398-119.434 72.4121-119.775 71.3379-119.775C70.2148-119.775 69.2871-119.434 68.2129-118.359L46.3867-97.1191C45.5566-96.2891 45.0684-95.4102 45.0684-94.2871C45.0684-92.0898 46.7285-90.4785 48.9746-90.4785C50-90.4785 51.1719-90.918 51.9531-91.7969L62.207-102.539L67.3828-107.91L67.041-98.6328L67.041-31.9336C67.041-29.6387 68.9941-27.7344 71.3379-27.7344ZM35.0586 21.0938L52.1484 21.0938L52.1484 30.3223C52.1484 42.7734 58.4961 49.1699 71.1426 49.1699L138.428 49.1699C151.025 49.1699 157.422 42.8223 157.422 30.3223L157.422-33.4961C157.422-45.9961 151.025-52.2949 138.428-52.2949L126.514-52.2949L126.514-61.5723C126.514-74.0234 120.166-80.3711 107.52-80.3711L89.6973-80.3711L89.6973-71.7285L107.324-71.7285C114.014-71.7285 117.871-68.1152 117.871-61.1328L117.871 1.80664C117.871 8.78906 114.014 12.4023 107.324 12.4023L35.2539 12.4023C28.418 12.4023 24.707 8.78906 24.707 1.80664L24.707-61.1328C24.707-68.1152 28.418-71.7285 35.2539-71.7285L52.9297-71.7285L52.9297-80.3711L35.0586-80.3711C22.4609-80.3711 16.0645-74.0723 16.0645-61.5723L16.0645 2.24609C16.0645 14.7461 22.4609 21.0938 35.0586 21.0938ZM71.2891 40.4785C64.5996 40.4785 60.791 36.8652 60.791 29.8828L60.791 21.0938L107.52 21.0938C120.166 21.0938 126.514 14.6973 126.514 2.24609L126.514-43.6523L138.281-43.6523C145.068-43.6523 148.779-40.0391 148.779-33.0566L148.779 29.8828C148.779 36.8652 145.068 40.4785 138.281 40.4785Z"/>
  </g>
  <g id="Light-L" transform="matrix(1 0 0 1 1067.68 1556)">
   <path d="M70.4102-27.2949C72.168-27.2949 73.6816-28.7598 73.6816-30.5176L73.6816-99.9023L73.4375-108.887L79.7363-102.441L91.0156-90.8691C91.6016-90.1855 92.5293-89.8438 93.3105-89.8438C94.9707-89.8438 96.2891-91.1133 96.2891-92.7734C96.2891-93.6523 95.9473-94.2871 95.3125-94.9219L72.7539-117.188C71.9727-117.969 71.2402-118.262 70.4102-118.262C69.5801-118.262 68.7988-117.969 68.0176-117.188L45.4102-94.9219C44.7754-94.2871 44.4336-93.6523 44.4336-92.7734C44.4336-91.1133 45.7031-89.8438 47.4121-89.8438C48.1934-89.8438 49.1211-90.1855 49.707-90.8691L60.9863-102.441L67.334-108.936L67.1387-99.9023L67.1387-30.5176C67.1387-28.7598 68.6035-27.2949 70.4102-27.2949ZM34.0332 20.8008L51.0742 20.8008L51.0742 29.541C51.0742 41.2598 57.1777 47.4121 69.043 47.4121L136.865 47.4121C148.73 47.4121 154.834 41.3574 154.834 29.541L154.834-35.5957C154.834-47.4121 148.73-53.4668 136.865-53.4668L124.658-53.4668L124.658-62.207C124.658-73.877 118.555-80.0781 106.689-80.0781L88.5254-80.0781L88.5254-73.4375L106.543-73.4375C113.818-73.4375 118.066-69.4824 118.066-61.8652L118.066 2.63672C118.066 10.2539 113.818 14.209 106.543 14.209L34.1797 14.209C26.709 14.209 22.7051 10.2539 22.7051 2.63672L22.7051-61.8652C22.7051-69.4824 26.709-73.4375 34.1797-73.4375L52.2949-73.4375L52.2949-80.0781L34.0332-80.0781C22.168-80.0781 16.0645-73.9746 16.0645-62.207L16.0645 2.97852C16.0645 14.7461 22.168 20.8008 34.0332 20.8008ZM69.2383 40.7715C61.9141 40.7715 57.7148 36.8652 57.7148 29.1992L57.7148 20.8008L106.689 20.8008C118.555 20.8008 124.658 14.6484 124.658 2.97852L124.658-46.8262L136.719-46.8262C144.238-46.8262 148.242-42.8711 148.242-35.2539L148.242 29.1992C148.242 36.8652 144.238 40.7715 136.719 40.7715Z"/>
  </g>
  <g id="Thin-L" transform="matrix(1 0 0 1 772.682 1556)">
   <path d="M69.1895-26.6602C70.2637-26.6602 71.1426-27.5391 71.1426-28.6133L71.1426-101.562L71.0449-110.254L78.9062-102.295L91.5039-89.6484C91.8457-89.2578 92.4316-88.9648 92.9199-88.9648C93.8477-88.9648 94.6777-89.7949 94.6777-90.8203C94.6777-91.3086 94.4824-91.6992 94.0918-92.0898L70.5566-115.625C70.166-116.064 69.6777-116.211 69.1895-116.211C68.7012-116.211 68.2129-116.064 67.7734-115.625L44.1895-92.0898C43.7988-91.6992 43.6035-91.3086 43.6035-90.8203C43.6035-89.7949 44.3848-88.9648 45.3613-88.9648C45.8496-88.9648 46.4355-89.2578 46.7773-89.6484L59.375-102.295L67.334-110.352L67.2363-101.562L67.2363-28.6133C67.2363-27.5391 68.1152-26.6602 69.1895-26.6602ZM32.666 20.459L49.707 20.459L49.707 28.5156C49.707 39.2578 55.4688 45.1172 66.3086 45.1172L134.814 45.1172C145.703 45.1172 151.416 39.4043 151.416 28.5156L151.416-38.3789C151.416-49.2676 145.703-54.9805 134.814-54.9805L122.217-54.9805L122.217-63.0371C122.217-73.7305 116.504-79.6387 105.615-79.6387L87.0117-79.6387L87.0117-75.6836L105.469-75.6836C113.574-75.6836 118.311-71.2891 118.311-62.8418L118.311 3.71094C118.311 12.1582 113.574 16.5527 105.469 16.5527L32.8125 16.5527C24.4141 16.5527 19.9707 12.1582 19.9707 3.71094L19.9707-62.8418C19.9707-71.2891 24.4141-75.6836 32.8125-75.6836L51.416-75.6836L51.416-79.6387L32.666-79.6387C21.7773-79.6387 16.0645-73.877 16.0645-63.0371L16.0645 3.90625C16.0645 14.7461 21.7773 20.459 32.666 20.459ZM66.5039 41.1621C58.3496 41.1621 53.6621 36.8164 53.6621 28.3203L53.6621 20.459L105.615 20.459C116.504 20.459 122.217 14.5996 122.217 3.90625L122.217-51.0254L134.668-51.0254C143.115-51.0254 147.51-46.6797 147.51-38.1836L147.51 28.3203C147.51 36.8164 143.115 41.1621 134.668 41.1621Z"/>
  </g>
  <g id="Ultralight-L" transform="matrix(1 0 0 1 476.85 1556)">
   <path d="M68.5547-26.3672C69.2383-26.3672 69.8242-26.9531 69.8242-27.6367L69.8242-102.441L69.7754-110.938L78.4668-102.246L91.748-89.0137C91.9922-88.7695 92.3828-88.5254 92.7246-88.5254C93.2617-88.5254 93.8477-89.1602 93.8477-89.7949C93.8477-90.0879 93.75-90.332 93.5059-90.625L69.4336-114.844C69.1895-115.039 68.8477-115.186 68.5547-115.186C68.2129-115.186 67.9199-115.039 67.6758-114.844L43.5547-90.625C43.2617-90.332 43.1641-90.0879 43.1641-89.7949C43.1641-89.1602 43.6523-88.5254 44.2871-88.5254C44.6289-88.5254 45.0195-88.7695 45.3125-89.0137L58.5449-102.246L67.334-111.035L67.2852-102.441L67.2852-27.6367C67.2852-26.9531 67.8223-26.3672 68.5547-26.3672ZM31.9824 20.3125L49.0234 20.3125L49.0234 28.0273C49.0234 38.2324 54.541 43.9453 64.9414 43.9453L133.789 43.9453C144.141 43.9453 149.658 38.3789 149.658 28.0273L149.658-39.7949C149.658-50.1953 144.141-55.7617 133.789-55.7617L120.947-55.7617L120.947-63.4766C120.947-73.6816 115.43-79.3945 105.078-79.3945L86.2305-79.3945L86.2305-76.8555L104.883-76.8555C113.477-76.8555 118.408-72.2168 118.408-63.3301L118.408 4.24805C118.408 13.1348 113.477 17.7246 104.883 17.7246L32.1289 17.7246C23.1934 17.7246 18.6035 13.1348 18.6035 4.24805L18.6035-63.3301C18.6035-72.2168 23.1934-76.8555 32.1289-76.8555L50.9766-76.8555L50.9766-79.3945L31.9824-79.3945C21.582-79.3945 16.0645-73.8281 16.0645-63.4766L16.0645 4.3457C16.0645 14.7461 21.582 20.3125 31.9824 20.3125ZM65.0879 41.4062C56.4941 41.4062 51.5625 36.7676 51.5625 27.8809L51.5625 20.3125L105.078 20.3125C115.43 20.3125 120.947 14.5996 120.947 4.3457L120.947-53.1738L133.594-53.1738C142.529-53.1738 147.119-48.584 147.119-39.6973L147.119 27.8809C147.119 36.7676 142.529 41.4062 133.594 41.4062Z"/>
  </g>
  <g id="Black-M" transform="matrix(1 0 0 1 2858.74 1126)">
   <path d="M60.6445-32.373C65.0391-32.373 68.3594-35.9863 68.3594-40.0879L68.3594-84.6191L67.6758-91.5527L69.4336-87.3047L73.5352-82.959C74.8047-81.6406 76.4648-80.8105 78.418-80.8105C81.6406-80.8105 84.9121-83.3008 84.9121-87.0117C84.9121-88.916 84.2285-90.2344 82.959-91.5039L67.041-106.689C64.9902-108.691 62.793-109.473 60.6445-109.473C58.4961-109.473 56.2988-108.691 54.1992-106.689L38.3301-91.5039C37.0605-90.2344 36.377-88.916 36.377-87.0117C36.377-83.3008 39.6484-80.8105 42.8223-80.8105C44.7754-80.8105 46.4844-81.6406 47.7539-82.959L51.8555-87.3047L53.5645-91.5527L52.8809-84.6191L52.8809-40.0879C52.8809-35.9863 56.2012-32.373 60.6445-32.373ZM31.9824 10.0098L44.043 10.0098L44.043 18.3594C44.043 30.6152 51.3184 37.8906 63.5742 37.8906L117.334 37.8906C129.59 37.8906 136.865 30.6152 136.865 18.3594L136.865-34.6191C136.865-46.8262 129.59-54.1504 117.334-54.1504L108.74-54.1504L108.74-54.248C108.74-66.5039 101.465-73.7793 89.209-73.7793L77.9297-73.7793L77.9297-55.5176L86.2793-55.5176C89.1113-55.5176 90.4785-54.3945 90.4785-51.3184L90.4785-12.4512C90.4785-9.375 89.1113-8.25195 86.2793-8.25195L34.9121-8.25195C32.0801-8.25195 30.7617-9.375 30.7617-12.4512L30.7617-51.3184C30.7617-54.3945 32.0801-55.5176 34.9121-55.5176L43.7988-55.5176L43.7988-73.7793L31.9824-73.7793C19.7266-73.7793 12.4512-66.5039 12.4512-54.248L12.4512-9.52148C12.4512 2.73438 19.7266 10.0098 31.9824 10.0098ZM66.5039 19.6289C63.6719 19.6289 62.3535 18.5547 62.3535 15.4785L62.3535 10.0098L89.209 10.0098C101.465 10.0098 108.74 2.73438 108.74-9.52148L108.74-35.8398L114.404-35.8398C117.236-35.8398 118.604-34.7656 118.604-31.6895L118.604 15.4785C118.604 18.5547 117.236 19.6289 114.404 19.6289Z"/>
  </g>
  <g id="Heavy-M" transform="matrix(1 0 0 1 2563.59 1126)">
   <path d="M59.4727-31.7383C63.3789-31.7383 66.3086-34.9121 66.3086-38.5254L66.3086-84.375L65.7227-91.4062L67.8223-87.3535L72.7051-82.1289C73.8281-80.957 75.3906-80.2246 77.0996-80.2246C79.9805-80.2246 82.8613-82.5195 82.8613-85.791C82.8613-87.5 82.2266-88.6719 81.1035-89.7949L65.0879-105.176C63.2324-106.982 61.377-107.617 59.4727-107.617C57.6172-107.617 55.7129-106.982 53.9062-105.176L37.8906-89.7949C36.7676-88.6719 36.1328-87.5 36.1328-85.791C36.1328-82.5195 38.9648-80.2246 41.8945-80.2246C43.6035-80.2246 45.166-80.957 46.2891-82.1289L51.1719-87.3535L53.2715-91.4062L52.6855-84.375L52.6855-38.5254C52.6855-34.9121 55.6152-31.7383 59.4727-31.7383ZM31.0059 9.66797L43.3105 9.66797L43.3105 17.8223C43.3105 29.541 50.0977 36.3281 61.8652 36.3281L115.186 36.3281C126.953 36.3281 133.74 29.5898 133.74 17.8223L133.74-34.1309C133.74-45.8984 126.953-52.6367 115.186-52.6367L106.494-52.6367L106.494-54.4922C106.494-66.2598 99.707-72.998 87.9395-72.998L76.123-72.998L76.123-57.1777L85.6934-57.1777C88.9648-57.1777 90.625-55.7129 90.625-52.1484L90.625-11.1328C90.625-7.61719 88.9648-6.15234 85.6934-6.15234L33.252-6.15234C29.9316-6.15234 28.2715-7.61719 28.2715-11.1328L28.2715-52.1484C28.2715-55.7129 29.9316-57.1777 33.252-57.1777L43.2129-57.1777L43.2129-72.998L31.0059-72.998C19.2383-72.998 12.4512-66.2598 12.4512-54.4922L12.4512-8.83789C12.4512 2.92969 19.2383 9.66797 31.0059 9.66797ZM64.1113 20.5078C60.8398 20.5078 59.1309 19.043 59.1309 15.4785L59.1309 9.66797L87.9395 9.66797C99.707 9.66797 106.494 2.92969 106.494-8.83789L106.494-36.8164L112.891-36.8164C116.211-36.8164 117.871-35.3516 117.871-31.8359L117.871 15.4785C117.871 19.043 116.211 20.5078 112.891 20.5078Z"/>
  </g>
  <g id="Bold-M" transform="matrix(1 0 0 1 2268.66 1126)">
   <path d="M58.2031-31.0547C61.4746-31.0547 64.0137-33.6914 64.0137-36.7676L64.0137-84.1309L63.5254-91.2598L66.0645-87.4023L71.7773-81.25C72.7539-80.2246 74.1211-79.5898 75.5859-79.5898C78.1738-79.5898 80.6152-81.5918 80.6152-84.4238C80.6152-85.8887 80.0293-86.9629 79.0527-87.9395L62.8418-103.516C61.3281-105.029 59.7656-105.566 58.2031-105.566C56.6406-105.566 55.127-105.029 53.6133-103.516L37.4023-87.9395C36.377-86.9629 35.8398-85.8887 35.8398-84.4238C35.8398-81.5918 38.2324-79.5898 40.8203-79.5898C42.2852-79.5898 43.6523-80.2246 44.6289-81.25L50.3906-87.4023L52.9297-91.2598L52.3926-84.1309L52.3926-36.7676C52.3926-33.6914 54.9805-31.0547 58.2031-31.0547ZM29.8828 9.27734L42.5293 9.27734L42.5293 17.1875C42.5293 28.3691 48.6816 34.5215 59.9609 34.5215L112.744 34.5215C123.975 34.5215 130.176 28.3691 130.176 17.1875L130.176-33.6426C130.176-44.8242 123.975-50.9766 112.744-50.9766L103.906-50.9766L103.906-54.7852C103.906-65.918 97.7539-72.1191 86.5234-72.1191L74.0723-72.1191L74.0723-59.0332L84.9609-59.0332C88.8184-59.0332 90.8691-57.1777 90.8691-53.125L90.8691-9.7168C90.8691-5.66406 88.8184-3.80859 84.9609-3.80859L31.3965-3.80859C27.5391-3.80859 25.5371-5.66406 25.5371-9.7168L25.5371-53.125C25.5371-57.1777 27.5391-59.0332 31.3965-59.0332L42.5781-59.0332L42.5781-72.1191L29.8828-72.1191C18.6523-72.1191 12.4512-65.918 12.4512-54.7852L12.4512-8.05664C12.4512 3.125 18.6523 9.27734 29.8828 9.27734ZM61.4746 21.4355C57.666 21.4355 55.5664 19.6289 55.5664 15.5273L55.5664 9.27734L86.5234 9.27734C97.7539 9.27734 103.906 3.125 103.906-8.05664L103.906-37.8906L111.23-37.8906C115.088-37.8906 117.09-36.0352 117.09-31.9824L117.09 15.5273C117.09 19.6289 115.088 21.4355 111.23 21.4355Z"/>
  </g>
  <g id="Semibold-M" transform="matrix(1 0 0 1 1973.17 1126)">
   <path d="M57.3242-30.5664C60.1562-30.5664 62.4512-32.8613 62.4512-35.5469L62.4512-83.9355L62.0117-91.1133L64.7949-87.4023L71.1914-80.6641C72.0215-79.6875 73.291-79.1504 74.5117-79.1504C76.9531-79.1504 79.0039-80.957 79.0039-83.4961C79.0039-84.8145 78.5156-85.7422 77.6367-86.6699L61.3281-102.344C59.9609-103.662 58.6914-104.102 57.3242-104.102C56.0059-104.102 54.6875-103.662 53.3691-102.344L37.0605-86.6699C36.1328-85.7422 35.6445-84.8145 35.6445-83.4961C35.6445-80.957 37.6953-79.1504 40.0879-79.1504C41.3574-79.1504 42.627-79.6875 43.5059-80.6641L49.8535-87.4023L52.6855-91.1621L52.2461-83.9355L52.2461-35.5469C52.2461-32.8613 54.4922-30.5664 57.3242-30.5664ZM29.1016 9.0332L41.9434 9.0332L41.9434 16.7969C41.9434 27.5391 47.7539 33.3008 58.5938 33.3008L111.084 33.3008C121.924 33.3008 127.734 27.5391 127.734 16.7969L127.734-33.3008C127.734-44.0918 121.924-49.8047 111.084-49.8047L102.148-49.8047L102.148-54.9805C102.148-65.7227 96.3867-71.4844 85.498-71.4844L72.6562-71.4844L72.6562-60.3027L84.4727-60.3027C88.6719-60.3027 91.0156-58.2031 91.0156-53.7598L91.0156-8.74023C91.0156-4.29688 88.6719-2.14844 84.4727-2.14844L30.127-2.14844C25.8789-2.14844 23.6328-4.29688 23.6328-8.74023L23.6328-53.7598C23.6328-58.2031 25.8789-60.3027 30.127-60.3027L42.1387-60.3027L42.1387-71.4844L29.1016-71.4844C18.2617-71.4844 12.4512-65.7227 12.4512-54.9805L12.4512-7.51953C12.4512 3.27148 18.2617 9.0332 29.1016 9.0332ZM59.6191 22.1191C55.4688 22.1191 53.125 20.0195 53.125 15.5762L53.125 9.0332L85.498 9.0332C96.3867 9.0332 102.148 3.22266 102.148-7.51953L102.148-38.623L110.059-38.623C114.307-38.623 116.553-36.5234 116.553-32.0801L116.553 15.5762C116.553 20.0195 114.307 22.1191 110.059 22.1191Z"/>
  </g>
  <g id="Medium-M" transform="matrix(1 0 0 1 1677.39 1126)">
   <path d="M56.6895-30.1758C59.1797-30.1758 61.2305-32.2266 61.2305-34.668L61.2305-83.7891L60.8887-91.0645L63.8672-87.4512L70.7031-80.1758C71.4844-79.2969 72.6074-78.8574 73.7305-78.8574C75.9766-78.8574 77.832-80.4688 77.832-82.7637C77.832-83.9844 77.3438-84.8633 76.5137-85.6934L60.1562-101.465C58.9844-102.637 57.8613-103.027 56.6895-103.027C55.4688-103.027 54.3945-102.637 53.2227-101.465L36.8164-85.6934C35.9863-84.8633 35.498-83.9844 35.498-82.7637C35.498-80.4688 37.3047-78.8574 39.5508-78.8574C40.6738-78.8574 41.8457-79.2969 42.627-80.1758L49.4629-87.4512L52.4902-91.0645L52.0996-83.7891L52.0996-34.668C52.0996-32.2266 54.1504-30.1758 56.6895-30.1758ZM28.5156 8.83789L41.5527 8.83789L41.5527 16.4551C41.5527 26.9043 47.0215 32.373 57.6172 32.373L109.814 32.373C120.361 32.373 125.879 26.9043 125.879 16.4551L125.879-33.0078C125.879-43.5059 120.361-48.9746 109.814-48.9746L100.83-48.9746L100.83-55.127C100.83-65.5762 95.3613-71.0449 84.7656-71.0449L71.582-71.0449L71.582-61.2793L84.1309-61.2793C88.5742-61.2793 91.1133-58.9355 91.1133-54.248L91.1133-7.95898C91.1133-3.27148 88.5742-0.927734 84.1309-0.927734L29.1504-0.927734C24.6582-0.927734 22.168-3.27148 22.168-7.95898L22.168-54.248C22.168-58.9355 24.6582-61.2793 29.1504-61.2793L41.8457-61.2793L41.8457-71.0449L28.5156-71.0449C17.9688-71.0449 12.4512-65.5762 12.4512-55.127L12.4512-7.12891C12.4512 3.36914 17.9688 8.83789 28.5156 8.83789ZM58.252 22.6074C53.7598 22.6074 51.2695 20.3125 51.2695 15.5762L51.2695 8.83789L84.7656 8.83789C95.3613 8.83789 100.83 3.36914 100.83-7.12891L100.83-39.209L109.18-39.209C113.721-39.209 116.162-36.8652 116.162-32.1777L116.162 15.5762C116.162 20.3125 113.721 22.6074 109.18 22.6074Z"/>
  </g>
  <g id="Regular-M" transform="matrix(1 0 0 1 1381.88 1126)">
   <path d="M55.8105-29.6875C57.9102-29.6875 59.668-31.3965 59.668-33.4473L59.668-83.6426L59.375-90.918L62.6953-87.4512L70.0684-79.5898C70.752-78.8086 71.7773-78.418 72.7051-78.418C74.7559-78.418 76.2695-79.834 76.2695-81.8359C76.2695-82.9102 75.8789-83.6914 75.1465-84.4238L58.6426-100.342C57.666-101.318 56.7871-101.611 55.8105-101.611C54.834-101.611 53.9551-101.318 52.9785-100.342L36.4746-84.4238C35.7422-83.6914 35.3027-82.9102 35.3027-81.8359C35.3027-79.834 36.8164-78.418 38.8184-78.418C39.7949-78.418 40.8203-78.8086 41.5039-79.5898L48.9258-87.4512L52.2461-90.918L51.9043-83.6426L51.9043-33.4473C51.9043-31.3965 53.7109-29.6875 55.8105-29.6875ZM27.7832 8.54492L40.9668 8.54492L40.9668 16.0156C40.9668 26.0742 46.0938 31.1523 56.2988 31.1523L108.154 31.1523C118.359 31.1523 123.486 26.123 123.486 16.0156L123.486-32.666C123.486-42.7734 118.359-47.8027 108.154-47.8027L99.1211-47.8027L99.1211-55.2734C99.1211-65.332 93.9941-70.4102 83.7891-70.4102L70.166-70.4102L70.166-62.5488L83.6426-62.5488C88.4766-62.5488 91.2598-59.9609 91.2598-54.8828L91.2598-6.98242C91.2598-1.9043 88.4766 0.683594 83.6426 0.683594L27.8809 0.683594C22.998 0.683594 20.3125-1.9043 20.3125-6.98242L20.3125-54.8828C20.3125-59.9609 22.998-62.5488 27.8809-62.5488L41.4062-62.5488L41.4062-70.4102L27.7832-70.4102C17.5781-70.4102 12.4512-65.3809 12.4512-55.2734L12.4512-6.5918C12.4512 3.51562 17.5781 8.54492 27.7832 8.54492ZM56.4453 23.291C51.6113 23.291 48.8281 20.7031 48.8281 15.625L48.8281 8.54492L83.7891 8.54492C93.9941 8.54492 99.1211 3.4668 99.1211-6.5918L99.1211-39.9414L108.057-39.9414C112.939-39.9414 115.625-37.3535 115.625-32.2754L115.625 15.625C115.625 20.7031 112.939 23.291 108.057 23.291Z"/>
  </g>
  <g id="Light-M" transform="matrix(1 0 0 1 1086.31 1126)">
   <path d="M54.9805-29.2969C56.5918-29.2969 57.959-30.6152 57.959-32.1777L57.959-84.7656L57.7637-91.8457L62.1094-87.3535L70.4102-78.7598C70.9473-78.1738 71.7285-77.832 72.4609-77.832C73.9746-77.832 75.1953-78.9551 75.1953-80.5176C75.1953-81.2988 74.8535-81.8848 74.3164-82.4707L57.1289-99.2676C56.3965-100 55.7617-100.244 54.9805-100.244C54.1992-100.244 53.5645-100 52.832-99.2676L35.6445-82.4707C35.0586-81.8848 34.7168-81.2988 34.7168-80.5176C34.7168-78.9551 35.8887-77.832 37.4512-77.832C38.1836-77.832 39.0137-78.1738 39.5508-78.7598L47.8516-87.3535L52.1973-91.8945L52.002-84.7656L52.002-32.1777C52.002-30.6152 53.3691-29.2969 54.9805-29.2969ZM26.8555 8.30078L40.0391 8.30078L40.0391 15.332C40.0391 24.707 44.9219 29.5898 54.4434 29.5898L106.787 29.5898C116.309 29.5898 121.191 24.8047 121.191 15.332L121.191-34.5703C121.191-44.043 116.309-48.8281 106.787-48.8281L97.4609-48.8281L97.4609-55.8594C97.4609-65.2344 92.5781-70.1172 83.0566-70.1172L69.1406-70.1172L69.1406-64.0625L82.9102-64.0625C88.3301-64.0625 91.4062-61.1816 91.4062-55.5176L91.4062-6.25C91.4062-0.634766 88.3301 2.29492 82.9102 2.29492L26.9531 2.29492C21.4844 2.29492 18.5059-0.634766 18.5059-6.25L18.5059-55.5176C18.5059-61.1816 21.4844-64.0625 26.9531-64.0625L40.8203-64.0625L40.8203-70.1172L26.8555-70.1172C17.334-70.1172 12.4512-65.2832 12.4512-55.8594L12.4512-5.95703C12.4512 3.51562 17.334 8.30078 26.8555 8.30078ZM54.5898 23.5352C49.1699 23.5352 46.0938 20.6543 46.0938 14.9902L46.0938 8.30078L83.0566 8.30078C92.5781 8.30078 97.4609 3.4668 97.4609-5.95703L97.4609-42.8223L106.641-42.8223C112.158-42.8223 115.137-39.8926 115.137-34.2773L115.137 14.9902C115.137 20.6543 112.158 23.5352 106.641 23.5352Z"/>
  </g>
  <g id="Thin-M" transform="matrix(1 0 0 1 791.139 1126)">
   <path d="M53.9062-28.7109C54.8828-28.7109 55.6641-29.541 55.6641-30.5176L55.6641-86.2793L55.5664-93.0664L61.3281-87.2559L70.8008-77.6367C71.1426-77.2949 71.6797-77.0508 72.1191-77.0508C72.998-77.0508 73.7305-77.832 73.7305-78.7109C73.7305-79.1992 73.5352-79.541 73.1934-79.8828L55.1758-97.8516C54.7852-98.291 54.3457-98.4375 53.9062-98.4375C53.418-98.4375 52.9785-98.291 52.5879-97.8516L34.5215-79.8828C34.1797-79.541 33.9844-79.1992 33.9844-78.7109C33.9844-77.832 34.668-77.0508 35.5957-77.0508C36.0352-77.0508 36.5723-77.2949 36.9141-77.6367L46.3867-87.2559L52.1973-93.1152L52.0996-86.2793L52.0996-30.5176C52.0996-29.541 52.8809-28.7109 53.9062-28.7109ZM25.6348 8.00781L38.8184 8.00781L38.8184 14.4043C38.8184 22.9004 43.3594 27.5391 52.002 27.5391L104.932 27.5391C113.574 27.5391 118.115 23.0469 118.115 14.4043L118.115-37.0605C118.115-45.7031 113.574-50.1953 104.932-50.1953L95.2637-50.1953L95.2637-56.5918C95.2637-65.1367 90.7227-69.7266 82.0801-69.7266L67.7734-69.7266L67.7734-66.1133L81.9824-66.1133C88.0859-66.1133 91.6016-62.793 91.6016-56.3965L91.6016-5.32227C91.6016 1.07422 88.0859 4.39453 81.9824 4.39453L25.7324 4.39453C19.3848 4.39453 16.0645 1.07422 16.0645-5.32227L16.0645-56.3965C16.0645-62.793 19.3848-66.1133 25.7324-66.1133L40.0391-66.1133L40.0391-69.7266L25.6348-69.7266C16.9922-69.7266 12.4512-65.2344 12.4512-56.5918L12.4512-5.12695C12.4512 3.51562 16.9922 8.00781 25.6348 8.00781ZM52.0996 23.9258C45.9961 23.9258 42.4805 20.6055 42.4805 14.209L42.4805 8.00781L82.0801 8.00781C90.7227 8.00781 95.2637 3.41797 95.2637-5.12695L95.2637-46.582L104.785-46.582C111.133-46.582 114.453-43.2617 114.453-36.9141L114.453 14.209C114.453 20.6055 111.133 23.9258 104.785 23.9258Z"/>
  </g>
  <g id="Ultralight-M" transform="matrix(1 0 0 1 495.209 1126)">
   <path d="M53.3203-28.4668C54.0039-28.4668 54.541-29.0039 54.541-29.6387L54.541-87.0605L54.4434-93.7012L60.9375-87.1582L71.0449-77.0996C71.2402-76.8555 71.6309-76.6602 71.9238-76.6602C72.4609-76.6602 72.998-77.1973 72.998-77.832C72.998-78.125 72.9004-78.3691 72.6562-78.6133L54.1504-97.168C53.9062-97.4121 53.6133-97.5098 53.3203-97.5098C53.0273-97.5098 52.7344-97.4121 52.4902-97.168L33.9355-78.6133C33.6914-78.3691 33.5938-78.125 33.5938-77.832C33.5938-77.1973 34.082-76.6602 34.668-76.6602C34.9609-76.6602 35.3027-76.8555 35.5469-77.0996L45.6543-87.1582L52.1973-93.75L52.1484-87.0605L52.1484-29.6387C52.1484-29.0039 52.6855-28.4668 53.3203-28.4668ZM25 7.86133L38.1836 7.86133L38.1836 13.916C38.1836 22.0215 42.5293 26.4648 50.7324 26.4648L104.004 26.4648C112.158 26.4648 116.553 22.1191 116.553 13.916L116.553-38.3789C116.553-46.5332 112.158-50.8789 104.004-50.8789L94.1406-50.8789L94.1406-56.9824C94.1406-65.0391 89.7949-69.5312 81.5918-69.5312L67.041-69.5312L67.041-67.1387L81.4453-67.1387C87.9883-67.1387 91.748-63.623 91.748-56.8848L91.748-4.78516C91.748 1.95312 87.9883 5.46875 81.4453 5.46875L25.0977 5.46875C18.3594 5.46875 14.8438 1.95312 14.8438-4.78516L14.8438-56.8848C14.8438-63.623 18.3594-67.1387 25.0977-67.1387L39.6484-67.1387L39.6484-69.5312L25-69.5312C16.7969-69.5312 12.4512-65.1855 12.4512-56.9824L12.4512-4.6875C12.4512 3.51562 16.7969 7.86133 25 7.86133ZM50.8789 24.0723C44.3359 24.0723 40.5762 20.5566 40.5762 13.8184L40.5762 7.86133L81.5918 7.86133C89.7949 7.86133 94.1406 3.36914 94.1406-4.6875L94.1406-48.4863L103.857-48.4863C110.645-48.4863 114.16-45.0195 114.16-38.2324L114.16 13.8184C114.16 20.5566 110.645 24.0723 103.857 24.0723Z"/>
  </g>
  <g id="Black-S" transform="matrix(1 0 0 1 2875 696)">
   <path d="M47.4121-32.959C50.8301-32.959 53.418-35.7422 53.418-38.916L53.418-73.877L52.8809-79.3457L54.248-76.0254L57.5195-72.5586C58.4961-71.5332 59.8145-70.8984 61.3281-70.8984C63.8184-70.8984 66.3574-72.8516 66.3574-75.7324C66.3574-77.1973 65.8203-78.2227 64.8438-79.1992L52.3926-91.1133C50.7812-92.6758 49.0723-93.2617 47.4121-93.2617C45.752-93.2617 44.043-92.6758 42.4316-91.1133L29.9805-79.1992C29.0039-78.2227 28.4668-77.1973 28.4668-75.7324C28.4668-72.8516 31.0059-70.8984 33.4961-70.8984C35.0098-70.8984 36.3281-71.5332 37.3047-72.5586L40.5762-76.0254L41.9434-79.3457L41.4062-73.877L41.4062-38.916C41.4062-35.7422 43.9941-32.959 47.4121-32.959ZM25 0.195312L34.4727 0.195312L34.4727 6.73828C34.4727 16.3086 40.1367 21.9727 49.707 21.9727L91.7969 21.9727C101.367 21.9727 107.031 16.3086 107.031 6.73828L107.031-34.668C107.031-44.2383 101.367-49.9023 91.7969-49.9023L85.0586-49.9023L85.0586-50.1465C85.0586-59.7168 79.3945-65.3809 69.8242-65.3809L60.9375-65.3809L60.9375-51.2207L67.5781-51.2207C69.8242-51.2207 70.8984-50.3418 70.8984-47.9004L70.8984-17.2852C70.8984-14.8438 69.8242-13.9648 67.5781-13.9648L27.2461-13.9648C25-13.9648 23.9258-14.8438 23.9258-17.2852L23.9258-47.9004C23.9258-50.3418 25-51.2207 27.2461-51.2207L34.2773-51.2207L34.2773-65.3809L25-65.3809C15.4297-65.3809 9.76562-59.7168 9.76562-50.1465L9.76562-15.0391C9.76562-5.46875 15.4297 0.195312 25 0.195312ZM51.9531 7.8125C49.707 7.8125 48.6328 6.93359 48.6328 4.49219L48.6328 0.195312L69.8242 0.195312C79.3945 0.195312 85.0586-5.46875 85.0586-15.0391L85.0586-35.7422L89.5508-35.7422C91.7969-35.7422 92.8711-34.8633 92.8711-32.4219L92.8711 4.49219C92.8711 6.93359 91.7969 7.8125 89.5508 7.8125Z"/>
  </g>
  <g id="Heavy-S" transform="matrix(1 0 0 1 2579.36 696)">
   <path d="M46.6309-32.5195C49.707-32.5195 52.0508-35.0098 52.0508-37.8906L52.0508-73.584L51.5625-79.1504L53.0762-76.0742L56.8848-72.0215C57.7637-71.0938 58.9844-70.5078 60.3516-70.5078C62.6465-70.5078 64.9414-72.3145 64.9414-74.9512C64.9414-76.2695 64.4043-77.2461 63.5254-78.125L51.0254-90.0879C49.6094-91.5039 48.0957-91.9922 46.6309-91.9922C45.166-91.9922 43.6523-91.5039 42.2363-90.0879L29.7363-78.125C28.8574-77.2461 28.3203-76.2695 28.3203-74.9512C28.3203-72.3145 30.6152-70.5078 32.9102-70.5078C34.2773-70.5078 35.498-71.0938 36.4258-72.0215L40.1855-76.0742L41.6992-79.1504L41.2109-73.584L41.2109-37.8906C41.2109-35.0098 43.5547-32.5195 46.6309-32.5195ZM24.3652-0.0488281L34.0332-0.0488281L34.0332 6.39648C34.0332 15.625 39.3066 20.9473 48.584 20.9473L90.2832 20.9473C99.5605 20.9473 104.883 15.625 104.883 6.39648L104.883-34.1309C104.883-43.3594 99.5605-48.6328 90.2832-48.6328L83.4961-48.6328L83.4961-50.293C83.4961-59.5215 78.2227-64.7949 68.9453-64.7949L59.668-64.7949L59.668-52.3438L67.1875-52.3438C69.7266-52.3438 70.9961-51.2207 70.9961-48.4863L70.9961-16.4062C70.9961-13.623 69.7266-12.5 67.1875-12.5L26.0742-12.5C23.5352-12.5 22.2656-13.623 22.2656-16.4062L22.2656-48.4863C22.2656-51.2207 23.5352-52.3438 26.0742-52.3438L33.8867-52.3438L33.8867-64.7949L24.3652-64.7949C15.0879-64.7949 9.76562-59.5215 9.76562-50.293L9.76562-14.5996C9.76562-5.32227 15.0879-0.0488281 24.3652-0.0488281ZM50.3418 8.44727C47.8027 8.44727 46.4844 7.32422 46.4844 4.58984L46.4844-0.0488281L68.9453-0.0488281C78.2227-0.0488281 83.4961-5.32227 83.4961-14.5996L83.4961-36.1816L88.5742-36.1816C91.1133-36.1816 92.3828-35.0586 92.3828-32.3242L92.3828 4.58984C92.3828 7.32422 91.1133 8.44727 88.5742 8.44727Z"/>
  </g>
  <g id="Bold-S" transform="matrix(1 0 0 1 2283.87 696)">
   <path d="M45.752-32.0312C48.3887-32.0312 50.4883-34.1797 50.4883-36.6699L50.4883-73.2422L50.0977-78.8574L51.8066-76.123L56.1523-71.4844C56.9336-70.6055 58.0078-70.1172 59.2285-70.1172C61.377-70.1172 63.3301-71.7285 63.3301-74.0723C63.3301-75.2441 62.8418-76.123 62.0605-76.9531L49.5117-88.916C48.291-90.1367 47.0215-90.5762 45.752-90.5762C44.4824-90.5762 43.2617-90.1367 41.9922-88.916L29.4922-76.9531C28.6621-76.123 28.2227-75.2441 28.2227-74.0723C28.2227-71.7285 30.127-70.1172 32.2754-70.1172C33.4473-70.1172 34.6191-70.6055 35.4004-71.4844L39.6973-76.123L41.4062-78.9062L41.0156-73.2422L41.0156-36.6699C41.0156-34.1797 43.1152-32.0312 45.752-32.0312ZM23.6328-0.292969L33.5449-0.292969L33.5449 6.00586C33.5449 14.8926 38.4277 19.7754 47.3633 19.7754L88.623 19.7754C97.5586 19.7754 102.441 14.8926 102.441 6.00586L102.441-33.4961C102.441-42.3828 97.5586-47.2656 88.623-47.2656L81.7383-47.2656L81.7383-50.3906C81.7383-59.2773 76.8555-64.1602 67.9199-64.1602L58.2031-64.1602L58.2031-53.5645L66.748-53.5645C69.6289-53.5645 71.1426-52.1484 71.1426-49.1211L71.1426-15.3809C71.1426-12.3047 69.6289-10.8887 66.748-10.8887L24.8047-10.8887C21.9238-10.8887 20.3613-12.3047 20.3613-15.3809L20.3613-49.1211C20.3613-52.1484 21.9238-53.5645 24.8047-53.5645L33.4961-53.5645L33.4961-64.1602L23.6328-64.1602C14.6973-64.1602 9.76562-59.2773 9.76562-50.3906L9.76562-14.0625C9.76562-5.17578 14.6973-0.292969 23.6328-0.292969ZM48.5352 9.13086C45.6543 9.13086 44.1406 7.76367 44.1406 4.6875L44.1406-0.292969L67.9199-0.292969C76.8555-0.292969 81.7383-5.17578 81.7383-14.0625L81.7383-36.6699L87.4512-36.6699C90.332-36.6699 91.8457-35.2539 91.8457-32.1777L91.8457 4.6875C91.8457 7.76367 90.332 9.13086 87.4512 9.13086Z"/>
  </g>
  <g id="Semibold-S" transform="matrix(1 0 0 1 1987.99 696)">
   <path d="M45.166-31.6895C47.5098-31.6895 49.4629-33.6426 49.4629-35.8887L49.4629-72.998L49.0723-78.7109L50.9277-76.1719L55.6152-71.0938C56.3477-70.2637 57.373-69.8242 58.4473-69.8242C60.498-69.8242 62.207-71.3379 62.207-73.4375C62.207-74.5605 61.7676-75.3906 61.0352-76.123L48.4863-88.1348C47.3633-89.2578 46.2891-89.5996 45.166-89.5996C44.043-89.5996 42.9688-89.2578 41.8457-88.1348L29.2969-76.123C28.5156-75.3906 28.125-74.5605 28.125-73.4375C28.125-71.3379 29.834-69.8242 31.8359-69.8242C32.9102-69.8242 33.9844-70.2637 34.7168-71.0938L39.4043-76.1719L41.2598-78.7109L40.8691-72.998L40.8691-35.8887C40.8691-33.6426 42.7734-31.6895 45.166-31.6895ZM23.0957-0.488281L33.1543-0.488281L33.1543 5.71289C33.1543 14.3555 37.793 18.9453 46.5332 18.9453L87.4512 18.9453C96.1426 18.9453 100.781 14.3555 100.781 5.71289L100.781-33.0566C100.781-41.6992 96.1426-46.2891 87.4512-46.2891L80.5664-46.2891L80.5664-50.4883C80.5664-59.1309 75.9277-63.7207 67.2363-63.7207L57.2266-63.7207L57.2266-54.3945L66.4551-54.3945C69.5312-54.3945 71.2402-52.832 71.2402-49.5117L71.2402-14.6973C71.2402-11.377 69.5312-9.81445 66.4551-9.81445L23.877-9.81445C20.752-9.81445 19.0918-11.377 19.0918-14.6973L19.0918-49.5117C19.0918-52.832 20.752-54.3945 23.877-54.3945L33.2031-54.3945L33.2031-63.7207L23.0957-63.7207C14.4043-63.7207 9.76562-59.1309 9.76562-50.4883L9.76562-13.7207C9.76562-5.07812 14.4043-0.488281 23.0957-0.488281ZM47.3145 9.61914C44.1895 9.61914 42.4805 8.05664 42.4805 4.78516L42.4805-0.488281L67.2363-0.488281C75.9277-0.488281 80.5664-5.07812 80.5664-13.7207L80.5664-36.9629L86.6699-36.9629C89.7949-36.9629 91.5039-35.4004 91.5039-32.0801L91.5039 4.78516C91.5039 8.05664 89.7949 9.61914 86.6699 9.61914Z"/>
  </g>
  <g id="Medium-S" transform="matrix(1 0 0 1 1691.92 696)">
   <path d="M44.7266-31.4453C46.875-31.4453 48.6328-33.2031 48.6328-35.2539L48.6328-72.8027L48.291-78.5645L50.2441-76.1719L55.2246-70.752C55.9082-70.0195 56.8848-69.6289 57.8613-69.6289C59.8145-69.6289 61.377-70.9961 61.377-72.998C61.377-74.0234 60.9863-74.8047 60.2539-75.4883L47.6562-87.5488C46.6797-88.5254 45.752-88.8672 44.7266-88.8672C43.6523-88.8672 42.7734-88.5254 41.748-87.5488L29.1504-75.4883C28.418-74.8047 28.0273-74.0234 28.0273-72.998C28.0273-70.9961 29.5898-69.6289 31.4941-69.6289C32.4707-69.6289 33.4961-70.0195 34.1797-70.752L39.1602-76.1719L41.1133-78.5645L40.7715-72.8027L40.7715-35.2539C40.7715-33.2031 42.5293-31.4453 44.7266-31.4453ZM22.7051-0.634766L32.9102-0.634766L32.9102 5.51758C32.9102 13.9648 37.3047 18.3105 45.8496 18.3105L86.5723 18.3105C95.1172 18.3105 99.5117 13.9648 99.5117 5.51758L99.5117-32.7637C99.5117-41.2109 95.1172-45.5566 86.5723-45.5566L79.6387-45.5566L79.6387-50.5859C79.6387-59.0332 75.2441-63.3789 66.6992-63.3789L56.4941-63.3789L56.4941-55.0781L66.2109-55.0781C69.4824-55.0781 71.3379-53.3203 71.3379-49.8535L71.3379-14.1602C71.3379-10.6934 69.4824-8.93555 66.2109-8.93555L23.1934-8.93555C19.9219-8.93555 18.0664-10.6934 18.0664-14.1602L18.0664-49.8535C18.0664-53.3203 19.9219-55.0781 23.1934-55.0781L33.0078-55.0781L33.0078-63.3789L22.7051-63.3789C14.209-63.3789 9.76562-59.0332 9.76562-50.5859L9.76562-13.4277C9.76562-4.98047 14.209-0.634766 22.7051-0.634766ZM46.3379 10.0098C43.0664 10.0098 41.2598 8.30078 41.2598 4.83398L41.2598-0.634766L66.6992-0.634766C75.2441-0.634766 79.6387-4.98047 79.6387-13.4277L79.6387-37.207L86.084-37.207C89.3555-37.207 91.2109-35.498 91.2109-32.0312L91.2109 4.83398C91.2109 8.30078 89.3555 10.0098 86.084 10.0098Z"/>
  </g>
  <g id="Regular-S" transform="matrix(1 0 0 1 1396.01 696)">
   <path d="M44.0918-31.1035C45.9961-31.1035 47.6074-32.6172 47.6074-34.4727L47.6074-72.6074L47.3145-78.418L49.3652-76.2207L54.7363-70.3613C55.3711-69.6777 56.25-69.3359 57.0801-69.3359C58.9355-69.3359 60.3027-70.6055 60.3027-72.4121C60.3027-73.3398 59.9121-74.0234 59.2285-74.707L46.6309-86.7676C45.752-87.6465 45.0195-87.9395 44.0918-87.9395C43.2129-87.9395 42.4805-87.6465 41.5527-86.7676L28.9551-74.707C28.3203-74.0234 27.9297-73.3398 27.9297-72.4121C27.9297-70.6055 29.248-69.3359 31.1035-69.3359C31.9336-69.3359 32.8613-69.6777 33.4961-70.3613L38.8672-76.2207L40.918-78.418L40.625-72.6074L40.625-34.4727C40.625-32.6172 42.2363-31.1035 44.0918-31.1035ZM22.2168-0.830078L32.5684-0.830078L32.5684 5.27344C32.5684 13.4766 36.6699 17.5293 45.0195 17.5293L85.4492 17.5293C93.7012 17.5293 97.9004 13.4766 97.9004 5.27344L97.9004-32.3242C97.9004-40.5273 93.7012-44.5801 85.4492-44.5801L78.4668-44.5801L78.4668-50.6836C78.4668-58.8867 74.3652-62.9395 66.0156-62.9395L55.5176-62.9395L55.5176-55.9082L65.918-55.9082C69.3848-55.9082 71.4355-54.0039 71.4355-50.293L71.4355-13.4766C71.4355-9.76562 69.3848-7.86133 65.918-7.86133L22.3145-7.86133C18.7988-7.86133 16.7969-9.76562 16.7969-13.4766L16.7969-50.293C16.7969-54.0039 18.7988-55.9082 22.3145-55.9082L32.7148-55.9082L32.7148-62.9395L22.2168-62.9395C13.916-62.9395 9.76562-58.8867 9.76562-50.6836L9.76562-13.0859C9.76562-4.88281 13.916-0.830078 22.2168-0.830078ZM45.1172 10.498C41.6016 10.498 39.5996 8.59375 39.5996 4.88281L39.5996-0.830078L66.0156-0.830078C74.3652-0.830078 78.4668-4.88281 78.4668-13.0859L78.4668-37.5488L85.3516-37.5488C88.8672-37.5488 90.8203-35.6445 90.8203-31.9336L90.8203 4.88281C90.8203 8.59375 88.8672 10.498 85.3516 10.498Z"/>
  </g>
  <g id="Light-S" transform="matrix(1 0 0 1 1100.33 696)">
   <path d="M43.3594-30.7129C44.8242-30.7129 46.0449-31.9336 46.0449-33.3496L46.0449-73.584L45.8496-79.248L48.877-76.123L55.0293-69.6289C55.5176-69.0918 56.2012-68.8477 56.8359-68.8477C58.252-68.8477 59.3262-69.8242 59.3262-71.1914C59.3262-71.9238 59.0332-72.4609 58.4961-72.998L45.3125-85.791C44.6777-86.4746 44.043-86.7188 43.3594-86.7188C42.6758-86.7188 42.0898-86.4746 41.4062-85.791L28.2227-72.998C27.7344-72.4609 27.4414-71.9238 27.4414-71.1914C27.4414-69.8242 28.4668-68.8477 29.834-68.8477C30.5176-68.8477 31.25-69.0918 31.7383-69.6289L37.8906-76.123L40.918-79.248L40.6738-73.584L40.6738-33.3496C40.6738-31.9336 41.9434-30.7129 43.3594-30.7129ZM21.3867-1.02539L31.7383-1.02539L31.7383 4.63867C31.7383 12.2559 35.6445 16.1621 43.3594 16.1621L84.1797 16.1621C91.8945 16.1621 95.8496 12.3047 95.8496 4.63867L95.8496-33.9844C95.8496-41.6504 91.8945-45.5078 84.1797-45.5078L77.002-45.5078L77.002-51.1719C77.002-58.7891 73.0957-62.6953 65.332-62.6953L54.5898-62.6953L54.5898-57.2266L65.2344-57.2266C69.2383-57.2266 71.582-55.0781 71.582-50.8789L71.582-12.793C71.582-8.59375 69.2383-6.44531 65.2344-6.44531L21.4844-6.44531C17.4316-6.44531 15.1855-8.59375 15.1855-12.793L15.1855-50.8789C15.1855-55.0781 17.4316-57.2266 21.4844-57.2266L32.2266-57.2266L32.2266-62.6953L21.3867-62.6953C13.6719-62.6953 9.76562-58.8379 9.76562-51.1719L9.76562-12.5488C9.76562-4.88281 13.6719-1.02539 21.3867-1.02539ZM43.457 10.7422C39.4531 10.7422 37.1582 8.54492 37.1582 4.3457L37.1582-1.02539L65.332-1.02539C73.0957-1.02539 77.002-4.93164 77.002-12.5488L77.002-40.0879L84.082-40.0879C88.1836-40.0879 90.3809-37.8906 90.3809-33.6914L90.3809 4.3457C90.3809 8.54492 88.1836 10.7422 84.082 10.7422Z"/>
  </g>
  <g id="Thin-S" transform="matrix(1 0 0 1 804.982 696)">
   <path d="M42.4316-30.2246C43.3105-30.2246 44.043-30.957 44.043-31.8359L44.043-74.9512L43.9453-80.3223L48.1934-76.0254L55.3711-68.7012C55.6641-68.3594 56.1523-68.1641 56.543-68.1641C57.373-68.1641 58.0566-68.7988 58.0566-69.6289C58.0566-70.0684 57.8613-70.4102 57.5684-70.7031L43.6035-84.5703C43.2129-84.9609 42.8223-85.1074 42.4316-85.1074C41.9922-85.1074 41.6016-84.9609 41.2598-84.5703L27.2461-70.7031C26.9043-70.4102 26.7578-70.0684 26.7578-69.6289C26.7578-68.7988 27.3926-68.1641 28.2227-68.1641C28.6133-68.1641 29.1016-68.3594 29.3945-68.7012L36.6211-76.0254L40.8691-80.3711L40.7715-74.9512L40.7715-31.8359C40.7715-30.957 41.5039-30.2246 42.4316-30.2246ZM20.3125-1.26953L30.6641-1.26953L30.6641 3.85742C30.6641 10.6934 34.2773 14.3555 41.2109 14.3555L82.5684 14.3555C89.502 14.3555 93.1152 10.7422 93.1152 3.85742L93.1152-36.1816C93.1152-43.1152 89.502-46.6797 82.5684-46.6797L75.0488-46.6797L75.0488-51.8066C75.0488-58.6914 71.4355-62.3535 64.502-62.3535L53.3691-62.3535L53.3691-59.0332L64.4043-59.0332C69.0918-59.0332 71.7285-56.4941 71.7285-51.6602L71.7285-11.9629C71.7285-7.12891 69.0918-4.58984 64.4043-4.58984L20.4102-4.58984C15.625-4.58984 13.0859-7.12891 13.0859-11.9629L13.0859-51.6602C13.0859-56.4941 15.625-59.0332 20.4102-59.0332L31.543-59.0332L31.543-62.3535L20.3125-62.3535C13.3789-62.3535 9.76562-58.7402 9.76562-51.8066L9.76562-11.8164C9.76562-4.88281 13.3789-1.26953 20.3125-1.26953ZM41.3086 11.0352C36.6699 11.0352 33.9844 8.54492 33.9844 3.66211L33.9844-1.26953L64.502-1.26953C71.4355-1.26953 75.0488-4.93164 75.0488-11.8164L75.0488-43.4082L82.4707-43.4082C87.3047-43.4082 89.8438-40.8691 89.8438-36.0352L89.8438 3.66211C89.8438 8.54492 87.3047 11.0352 82.4707 11.0352Z"/>
  </g>
  <g id="Ultralight-S" transform="matrix(1 0 0 1 508.954 696)">
   <path d="M41.8945-29.9805C42.5293-29.9805 43.0176-30.4688 43.0176-31.1035L43.0176-75.6348L42.9688-80.8594L47.8516-75.9277L55.5664-68.1641C55.8105-67.9688 56.1035-67.8223 56.3965-67.8223C56.8848-67.8223 57.373-68.2617 57.373-68.8477C57.373-69.0918 57.2754-69.3359 57.0312-69.5312L42.6758-83.9355C42.4805-84.1797 42.1875-84.2773 41.8945-84.2773C41.6504-84.2773 41.3574-84.1797 41.1133-83.9355L26.709-69.5312C26.5137-69.3359 26.416-69.0918 26.416-68.8477C26.416-68.2617 26.8555-67.8223 27.3926-67.8223C27.6855-67.8223 27.9785-67.9688 28.2227-68.1641L35.9375-75.9277L40.8691-80.9082L40.8203-75.6348L40.8203-31.1035C40.8203-30.4688 41.3086-29.9805 41.8945-29.9805ZM19.7754-1.41602L30.127-1.41602L30.127 3.41797C30.127 9.86328 33.5449 13.3789 40.0879 13.3789L81.7383 13.3789C88.2812 13.3789 91.748 9.96094 91.748 3.41797L91.748-37.3535C91.748-43.8477 88.2812-47.3145 81.7383-47.3145L74.0723-47.3145L74.0723-52.1484C74.0723-58.5938 70.6055-62.1582 64.0625-62.1582L52.7344-62.1582L52.7344-59.9609L63.9648-59.9609C68.9453-59.9609 71.875-57.2754 71.875-52.0508L71.875-11.5234C71.875-6.34766 68.9453-3.61328 63.9648-3.61328L19.873-3.61328C14.6484-3.61328 11.9629-6.34766 11.9629-11.5234L11.9629-52.0508C11.9629-57.2754 14.6484-59.9609 19.873-59.9609L31.2012-59.9609L31.2012-62.1582L19.7754-62.1582C13.2324-62.1582 9.76562-58.6914 9.76562-52.1484L9.76562-11.4258C9.76562-4.88281 13.2324-1.41602 19.7754-1.41602ZM40.1855 11.1816C35.2051 11.1816 32.3242 8.49609 32.3242 3.32031L32.3242-1.41602L64.0625-1.41602C70.6055-1.41602 74.0723-4.98047 74.0723-11.4258L74.0723-45.1172L81.6406-45.1172C86.8164-45.1172 89.502-42.4316 89.502-37.207L89.502 3.32031C89.502 8.49609 86.8164 11.1816 81.6406 11.1816Z"/>
  </g>
 </g>
</svg>
