<?xml version="1.0" encoding="UTF-8"?>
<!--Generator: Apple Native CoreSVG 149-->
<!DOCTYPE svg
PUBLIC "-//W3C//DTD SVG 1.1//EN"
       "http://www.w3.org/Graphics/SVG/1.1/DTD/svg11.dtd">
<svg version="1.1" xmlns="http://www.w3.org/2000/svg" xmlns:xlink="http://www.w3.org/1999/xlink" width="3300" height="2200">
 <!--glyph: "uni100360.medium", point size: 100.000000, font version: "Version 16.0d18e1", template writer version: "8"-->
 <g id="Notes">
  <rect height="2200" id="artboard" style="fill:white;opacity:1" width="3300" x="0" y="0"/>
  <line id="" style="fill:none;stroke:black;opacity:1;stroke-width:0.5;" x1="263" x2="3036" y1="292" y2="292"/>
  <text style="stroke:none;fill:black;font-family:-apple-system,&quot;SF Pro Display&quot;,&quot;SF Pro Text&quot;,Helvetica,sans-serif;font-weight:bold;" transform="matrix(1 0 0 1 263 322)">Weight/Scale Variations</text>
  <text style="stroke:none;fill:black;font-family:-apple-system,&quot;SF Pro Display&quot;,&quot;SF Pro Text&quot;,Helvetica,sans-serif;text-anchor:middle;" transform="matrix(1 0 0 1 559.711 322)">Ultralight</text>
  <text style="stroke:none;fill:black;font-family:-apple-system,&quot;SF Pro Display&quot;,&quot;SF Pro Text&quot;,Helvetica,sans-serif;text-anchor:middle;" transform="matrix(1 0 0 1 856.422 322)">Thin</text>
  <text style="stroke:none;fill:black;font-family:-apple-system,&quot;SF Pro Display&quot;,&quot;SF Pro Text&quot;,Helvetica,sans-serif;text-anchor:middle;" transform="matrix(1 0 0 1 1153.13 322)">Light</text>
  <text style="stroke:none;fill:black;font-family:-apple-system,&quot;SF Pro Display&quot;,&quot;SF Pro Text&quot;,Helvetica,sans-serif;text-anchor:middle;" transform="matrix(1 0 0 1 1449.84 322)">Regular</text>
  <text style="stroke:none;fill:black;font-family:-apple-system,&quot;SF Pro Display&quot;,&quot;SF Pro Text&quot;,Helvetica,sans-serif;text-anchor:middle;" transform="matrix(1 0 0 1 1746.56 322)">Medium</text>
  <text style="stroke:none;fill:black;font-family:-apple-system,&quot;SF Pro Display&quot;,&quot;SF Pro Text&quot;,Helvetica,sans-serif;text-anchor:middle;" transform="matrix(1 0 0 1 2043.27 322)">Semibold</text>
  <text style="stroke:none;fill:black;font-family:-apple-system,&quot;SF Pro Display&quot;,&quot;SF Pro Text&quot;,Helvetica,sans-serif;text-anchor:middle;" transform="matrix(1 0 0 1 2339.98 322)">Bold</text>
  <text style="stroke:none;fill:black;font-family:-apple-system,&quot;SF Pro Display&quot;,&quot;SF Pro Text&quot;,Helvetica,sans-serif;text-anchor:middle;" transform="matrix(1 0 0 1 2636.69 322)">Heavy</text>
  <text style="stroke:none;fill:black;font-family:-apple-system,&quot;SF Pro Display&quot;,&quot;SF Pro Text&quot;,Helvetica,sans-serif;text-anchor:middle;" transform="matrix(1 0 0 1 2933.4 322)">Black</text>
  <line id="" style="fill:none;stroke:black;opacity:1;stroke-width:0.5;" x1="263" x2="3036" y1="1903" y2="1903"/>
  <g id="" transform="matrix(1 0 0 1 263 1933)">
   <path d="M9.24805 0.830078C13.5547 0.830078 17.1387-2.74414 17.1387-7.05078C17.1387-11.3574 13.5449-14.9316 9.23828-14.9316C4.94141-14.9316 1.36719-11.3574 1.36719-7.05078C1.36719-2.74414 4.95117 0.830078 9.24805 0.830078ZM9.24805-0.654297C5.70312-0.654297 2.87109-3.49609 2.87109-7.05078C2.87109-10.6055 5.69336-13.4473 9.23828-13.4473C12.793-13.4473 15.6348-10.6055 15.6445-7.05078C15.6543-3.49609 12.8027-0.654297 9.24805-0.654297ZM6.39648-6.31836L8.50586-6.31836L8.50586-4.19922C8.50586-3.75977 8.79883-3.45703 9.22852-3.45703C9.67773-3.45703 9.9707-3.75977 9.9707-4.19922L9.9707-6.31836L12.0996-6.31836C12.5391-6.31836 12.8418-6.61133 12.8418-7.04102C12.8418-7.48047 12.5391-7.7832 12.0996-7.7832L9.9707-7.7832L9.9707-9.89258C9.9707-10.3418 9.67773-10.6445 9.22852-10.6445C8.79883-10.6445 8.50586-10.3418 8.50586-9.89258L8.50586-7.7832L6.39648-7.7832C5.94727-7.7832 5.64453-7.48047 5.64453-7.04102C5.64453-6.61133 5.94727-6.31836 6.39648-6.31836Z"/>
  </g>
  <g id="" transform="matrix(1 0 0 1 281.506 1933)">
   <path d="M11.709 2.91016C17.1582 2.91016 21.6699-1.61133 21.6699-7.05078C21.6699-12.5 17.1484-17.0117 11.6992-17.0117C6.25977-17.0117 1.74805-12.5 1.74805-7.05078C1.74805-1.61133 6.26953 2.91016 11.709 2.91016ZM11.709 1.25C7.09961 1.25 3.41797-2.44141 3.41797-7.05078C3.41797-11.6602 7.08984-15.3516 11.6992-15.3516C16.3086-15.3516 20-11.6602 20.0098-7.05078C20.0195-2.44141 16.3184 1.25 11.709 1.25ZM7.98828-6.23047L10.8789-6.23047L10.8789-3.32031C10.8789-2.83203 11.2109-2.5 11.6895-2.5C12.1777-2.5 12.5195-2.83203 12.5195-3.32031L12.5195-6.23047L15.4297-6.23047C15.918-6.23047 16.25-6.5625 16.25-7.04102C16.25-7.5293 15.918-7.87109 15.4297-7.87109L12.5195-7.87109L12.5195-10.7617C12.5195-11.2695 12.1777-11.6016 11.6895-11.6016C11.2109-11.6016 10.8789-11.2598 10.8789-10.7617L10.8789-7.87109L7.98828-7.87109C7.48047-7.87109 7.14844-7.5293 7.14844-7.04102C7.14844-6.5625 7.49023-6.23047 7.98828-6.23047Z"/>
  </g>
  <g id="" transform="matrix(1 0 0 1 304.924 1933)">
   <path d="M14.9707 5.66406C21.9336 5.66406 27.6953-0.0976562 27.6953-7.05078C27.6953-14.0137 21.9238-19.7754 14.9609-19.7754C8.00781-19.7754 2.25586-14.0137 2.25586-7.05078C2.25586-0.0976562 8.01758 5.66406 14.9707 5.66406ZM14.9707 3.84766C8.93555 3.84766 4.08203-1.01562 4.08203-7.05078C4.08203-13.0957 8.92578-17.9492 14.9609-17.9492C21.0059-17.9492 25.8594-13.0957 25.8691-7.05078C25.8789-1.01562 21.0156 3.84766 14.9707 3.84766ZM10.0586-6.14258L14.0625-6.14258L14.0625-2.12891C14.0625-1.5918 14.4336-1.2207 14.9512-1.2207C15.4883-1.2207 15.8594-1.5918 15.8594-2.12891L15.8594-6.14258L19.8828-6.14258C20.4102-6.14258 20.791-6.51367 20.791-7.03125C20.791-7.56836 20.4199-7.94922 19.8828-7.94922L15.8594-7.94922L15.8594-11.9531C15.8594-12.5098 15.4883-12.8809 14.9512-12.8809C14.4336-12.8809 14.0625-12.5 14.0625-11.9531L14.0625-7.94922L10.0586-7.94922C9.50195-7.94922 9.13086-7.56836 9.13086-7.03125C9.13086-6.51367 9.51172-6.14258 10.0586-6.14258Z"/>
  </g>
  <text style="stroke:none;fill:black;font-family:-apple-system,&quot;SF Pro Display&quot;,&quot;SF Pro Text&quot;,Helvetica,sans-serif;font-weight:bold;" transform="matrix(1 0 0 1 263 1953)">Design Variations</text>
  <text style="stroke:none;fill:black;font-family:-apple-system,&quot;SF Pro Display&quot;,&quot;SF Pro Text&quot;,Helvetica,sans-serif;" transform="matrix(1 0 0 1 263 1971)">Symbols are supported in up to nine weights and three scales.</text>
  <text style="stroke:none;fill:black;font-family:-apple-system,&quot;SF Pro Display&quot;,&quot;SF Pro Text&quot;,Helvetica,sans-serif;" transform="matrix(1 0 0 1 263 1989)">For optimal layout with text and other symbols, vertically align</text>
  <text style="stroke:none;fill:black;font-family:-apple-system,&quot;SF Pro Display&quot;,&quot;SF Pro Text&quot;,Helvetica,sans-serif;" transform="matrix(1 0 0 1 263 2007)">symbols with the adjacent text.</text>
  <line id="" style="fill:none;stroke:#00AEEF;stroke-width:0.5;opacity:1.0;" x1="776" x2="776" y1="1919" y2="1933"/>
  <g id="" transform="matrix(1 0 0 1 776 1933)">
   <path d="M3.31055 0.126953C3.82812 0.126953 4.08203-0.0683594 4.26758-0.605469L5.52734-4.0625L11.2891-4.0625L12.5488-0.605469C12.7344-0.0683594 12.9883 0.126953 13.4961 0.126953C14.0137 0.126953 14.3457-0.185547 14.3457-0.673828C14.3457-0.839844 14.3164-0.986328 14.2383-1.20117L9.6582-13.3887C9.43359-13.9941 9.0332-14.2871 8.4082-14.2871C7.80273-14.2871 7.39258-13.9941 7.17773-13.3984L2.59766-1.19141C2.51953-0.976562 2.49023-0.830078 2.49023-0.664062C2.49023-0.175781 2.80273 0.126953 3.31055 0.126953ZM6.00586-5.53711L8.37891-12.1094L8.42773-12.1094L10.8008-5.53711Z"/>
  </g>
  <line id="" style="fill:none;stroke:#00AEEF;stroke-width:0.5;opacity:1.0;" x1="792.836" x2="792.836" y1="1919" y2="1933"/>
  <text style="stroke:none;fill:black;font-family:-apple-system,&quot;SF Pro Display&quot;,&quot;SF Pro Text&quot;,Helvetica,sans-serif;font-weight:bold;" transform="matrix(1 0 0 1 776 1953)">Margins</text>
  <text style="stroke:none;fill:black;font-family:-apple-system,&quot;SF Pro Display&quot;,&quot;SF Pro Text&quot;,Helvetica,sans-serif;" transform="matrix(1 0 0 1 776 1971)">Leading and trailing margins on the left and right side of each symbol</text>
  <text style="stroke:none;fill:black;font-family:-apple-system,&quot;SF Pro Display&quot;,&quot;SF Pro Text&quot;,Helvetica,sans-serif;" transform="matrix(1 0 0 1 776 1989)">can be adjusted by modifying the x-location of the margin guidelines.</text>
  <text style="stroke:none;fill:black;font-family:-apple-system,&quot;SF Pro Display&quot;,&quot;SF Pro Text&quot;,Helvetica,sans-serif;" transform="matrix(1 0 0 1 776 2007)">Modifications are automatically applied proportionally to all</text>
  <text style="stroke:none;fill:black;font-family:-apple-system,&quot;SF Pro Display&quot;,&quot;SF Pro Text&quot;,Helvetica,sans-serif;" transform="matrix(1 0 0 1 776 2025)">scales and weights.</text>
  <g id="" transform="matrix(1 0 0 1 1289 1933)">
   <path d="M2.8418 1.86523L4.54102 3.57422C5.40039 4.44336 6.38672 4.38477 7.31445 3.35938L17.4902-7.85156C17.7539-7.76367 18.0273-7.7832 18.3398-7.8418L19.4043-8.03711L20.0684-7.36328L20.0293-6.80664C19.9902-6.30859 20.1172-5.92773 20.6055-5.44922L21.3672-4.70703C21.8457-4.22852 22.4609-4.19922 22.9297-4.66797L25.8398-7.58789C26.3086-8.05664 26.2891-8.65234 25.8105-9.13086L25.0391-9.89258C24.5605-10.3711 24.1895-10.5273 23.7109-10.4883L23.1348-10.4395L22.4902-11.0742L22.7344-12.1973C22.8613-12.7637 22.7051-13.2031 22.1191-13.7891L19.9219-15.9766C16.582-19.2969 12.1484-19.2188 9.25781-16.3281C8.83789-15.918 8.80859-15.3418 9.04297-14.9512C9.27734-14.5898 9.73633-14.3555 10.3809-14.5215C11.8457-14.8633 13.3691-14.9219 14.7949-13.9844L14.209-12.5293C14.0137-12.0508 13.9844-11.6504 14.1113-11.2891L3.04688-0.898438C2.06055 0.0195312 1.98242 0.996094 2.8418 1.86523ZM10.752-15.957C13.1836-17.7344 16.4746-17.4316 18.7012-15.2051L21.1328-12.793C21.3672-12.5586 21.4062-12.373 21.3379-12.0312L21.0156-10.5469L22.5195-9.0625L23.5059-9.12109C23.7598-9.13086 23.8379-9.11133 24.0332-8.91602L24.6094-8.33984L22.168-5.89844L21.5918-6.47461C21.3965-6.66992 21.3672-6.74805 21.377-7.01172L21.4453-7.98828L19.9512-9.47266L18.4277-9.21875C18.1055-9.15039 17.959-9.17969 17.7148-9.41406L15.7129-11.416C15.459-11.6504 15.4297-11.8164 15.5859-12.1875L16.4648-14.2773C14.9023-15.7324 12.8711-16.3574 10.8398-15.7617C10.6836-15.7227 10.625-15.8496 10.752-15.957ZM5.27344 2.30469L4.10156 1.14258C3.63281 0.683594 3.74023 0.341797 4.14062-0.0195312L14.9512-10.1953L16.416-8.71094L6.42578 2.27539C6.07422 2.67578 5.74219 2.77344 5.27344 2.30469Z"/>
  </g>
  <text style="stroke:none;fill:black;font-family:-apple-system,&quot;SF Pro Display&quot;,&quot;SF Pro Text&quot;,Helvetica,sans-serif;font-weight:bold;" transform="matrix(1 0 0 1 1289 1953)">Exporting</text>
  <text style="stroke:none;fill:black;font-family:-apple-system,&quot;SF Pro Display&quot;,&quot;SF Pro Text&quot;,Helvetica,sans-serif;" transform="matrix(1 0 0 1 1289 1971)">Symbols should be outlined when exporting to ensure the</text>
  <text style="stroke:none;fill:black;font-family:-apple-system,&quot;SF Pro Display&quot;,&quot;SF Pro Text&quot;,Helvetica,sans-serif;" transform="matrix(1 0 0 1 1289 1989)">design is preserved when submitting to Xcode.</text>
  <text id="template-version" style="stroke:none;fill:black;font-family:-apple-system,&quot;SF Pro Display&quot;,&quot;SF Pro Text&quot;,Helvetica,sans-serif;text-anchor:end;" transform="matrix(1 0 0 1 3036 1933)">Template v.2.0</text>
  <text style="stroke:none;fill:black;font-family:-apple-system,&quot;SF Pro Display&quot;,&quot;SF Pro Text&quot;,Helvetica,sans-serif;text-anchor:end;" transform="matrix(1 0 0 1 3036 1951)">Requires Xcode 12 or greater</text>
  <text style="stroke:none;fill:black;font-family:-apple-system,&quot;SF Pro Display&quot;,&quot;SF Pro Text&quot;,Helvetica,sans-serif;text-anchor:end;" transform="matrix(1 0 0 1 3036 1969)">Generated from ellipsis</text>
  <text style="stroke:none;fill:black;font-family:-apple-system,&quot;SF Pro Display&quot;,&quot;SF Pro Text&quot;,Helvetica,sans-serif;text-anchor:end;" transform="matrix(1 0 0 1 3036 1987)">Typeset at 100 points</text>
  <text style="stroke:none;fill:black;font-family:-apple-system,&quot;SF Pro Display&quot;,&quot;SF Pro Text&quot;,Helvetica,sans-serif;" transform="matrix(1 0 0 1 263 726)">Small</text>
  <text style="stroke:none;fill:black;font-family:-apple-system,&quot;SF Pro Display&quot;,&quot;SF Pro Text&quot;,Helvetica,sans-serif;" transform="matrix(1 0 0 1 263 1156)">Medium</text>
  <text style="stroke:none;fill:black;font-family:-apple-system,&quot;SF Pro Display&quot;,&quot;SF Pro Text&quot;,Helvetica,sans-serif;" transform="matrix(1 0 0 1 263 1586)">Large</text>
 </g>
 <g id="Guides">
  <g id="H-reference" style="fill:#27AAE1;stroke:none;" transform="matrix(1 0 0 1 339 696)">
   <path d="M0.976562 0L3.66211 0L12.9883-24.4629L45.752-24.4629L55.127 0L57.7637 0L30.6152-70.459L28.125-70.459ZM29.3457-67.1387L29.4434-67.1387L44.873-26.709L13.8672-26.709Z"/>
  </g>
  <line id="Baseline-S" style="fill:none;stroke:#27AAE1;opacity:1;stroke-width:0.5;" x1="263" x2="3036" y1="696" y2="696"/>
  <line id="Capline-S" style="fill:none;stroke:#27AAE1;opacity:1;stroke-width:0.5;" x1="263" x2="3036" y1="625.541" y2="625.541"/>
  <g id="H-reference" style="fill:#27AAE1;stroke:none;" transform="matrix(1 0 0 1 339 1126)">
   <path d="M0.976562 0L3.66211 0L12.9883-24.4629L45.752-24.4629L55.127 0L57.7637 0L30.6152-70.459L28.125-70.459ZM29.3457-67.1387L29.4434-67.1387L44.873-26.709L13.8672-26.709Z"/>
  </g>
  <line id="Baseline-M" style="fill:none;stroke:#27AAE1;opacity:1;stroke-width:0.5;" x1="263" x2="3036" y1="1126" y2="1126"/>
  <line id="Capline-M" style="fill:none;stroke:#27AAE1;opacity:1;stroke-width:0.5;" x1="263" x2="3036" y1="1055.54" y2="1055.54"/>
  <g id="H-reference" style="fill:#27AAE1;stroke:none;" transform="matrix(1 0 0 1 339 1556)">
   <path d="M0.976562 0L3.66211 0L12.9883-24.4629L45.752-24.4629L55.127 0L57.7637 0L30.6152-70.459L28.125-70.459ZM29.3457-67.1387L29.4434-67.1387L44.873-26.709L13.8672-26.709Z"/>
  </g>
  <line id="Baseline-L" style="fill:none;stroke:#27AAE1;opacity:1;stroke-width:0.5;" x1="263" x2="3036" y1="1556" y2="1556"/>
  <line id="Capline-L" style="fill:none;stroke:#27AAE1;opacity:1;stroke-width:0.5;" x1="263" x2="3036" y1="1485.54" y2="1485.54"/>
  <line id="left-margin" style="fill:none;stroke:#00AEEF;stroke-width:0.5;opacity:1.0;" x1="1395.06" x2="1395.06" y1="1030.79" y2="1150.12"/>
  <line id="right-margin" style="fill:none;stroke:#00AEEF;stroke-width:0.5;opacity:1.0;" x1="1504.63" x2="1504.63" y1="1030.79" y2="1150.12"/>
 </g>
 <g id="Symbols">
  <g id="Black-L" transform="matrix(1 0 0 1 2857.86 1556)">
   <path d="M43.1152-35.2051C43.1152-44.2871 36.3281-51.0742 27.1973-51.0742C18.457-51.0742 11.2793-43.9941 11.2793-35.2051C11.2793-26.7578 18.457-19.2871 27.1973-19.2871C35.6934-19.2871 43.1152-26.7578 43.1152-35.2051ZM91.4062-35.2051C91.4062-44.2871 84.668-51.0742 75.5371-51.0742C66.8457-51.0742 59.668-43.9941 59.668-35.2051C59.668-26.7578 66.8457-19.2871 75.5371-19.2871C84.0332-19.2871 91.4062-26.7578 91.4062-35.2051ZM139.795-35.2051C139.795-44.2871 133.008-51.0742 123.877-51.0742C115.137-51.0742 107.959-43.9941 107.959-35.2051C107.959-26.7578 115.137-19.2871 123.877-19.2871C132.373-19.2871 139.795-26.7578 139.795-35.2051Z"/>
  </g>
  <g id="Heavy-L" transform="matrix(1 0 0 1 2562.74 1556)">
   <path d="M41.2598-35.2051C41.2598-43.7012 34.8145-50.1465 26.2695-50.1465C18.0664-50.1465 11.2793-43.5059 11.2793-35.2051C11.2793-27.1973 18.0664-20.2637 26.2695-20.2637C34.3262-20.2637 41.2598-27.1973 41.2598-35.2051ZM88.8672-35.2051C88.8672-43.7012 82.4707-50.1465 73.9258-50.1465C65.7227-50.1465 58.9844-43.5059 58.9844-35.2051C58.9844-27.1973 65.7227-20.2637 73.9258-20.2637C81.9824-20.2637 88.8672-27.1973 88.8672-35.2051ZM136.621-35.2051C136.621-43.7012 130.176-50.1465 121.631-50.1465C113.379-50.1465 106.592-43.5059 106.592-35.2051C106.592-27.1973 113.379-20.2637 121.631-20.2637C129.639-20.2637 136.621-27.1973 136.621-35.2051Z"/>
  </g>
  <g id="Bold-L" transform="matrix(1 0 0 1 2267.83 1556)">
   <path d="M39.209-35.1562C39.209-43.0176 33.1055-49.0723 25.1953-49.0723C17.5293-49.0723 11.2793-42.8711 11.2793-35.1562C11.2793-27.6855 17.5293-21.2891 25.1953-21.2891C32.8125-21.2891 39.209-27.6855 39.209-35.1562ZM86.0352-35.1562C86.0352-43.0176 79.9805-49.0723 72.168-49.0723C64.502-49.0723 58.252-42.8711 58.252-35.1562C58.252-27.6855 64.502-21.2891 72.168-21.2891C79.6875-21.2891 86.0352-27.6855 86.0352-35.1562ZM133.008-35.1562C133.008-43.0176 126.953-49.0723 119.092-49.0723C111.377-49.0723 105.127-42.8711 105.127-35.1562C105.127-27.6855 111.377-21.2891 119.092-21.2891C126.611-21.2891 133.008-27.6855 133.008-35.1562Z"/>
  </g>
  <g id="Semibold-L" transform="matrix(1 0 0 1 1972.34 1556)">
   <path d="M37.7441-35.1562C37.7441-42.5781 31.9336-48.3398 24.4629-48.3398C17.2363-48.3398 11.2793-42.4805 11.2793-35.1562C11.2793-27.9785 17.2363-22.0215 24.4629-22.0215C31.7383-22.0215 37.7441-27.9785 37.7441-35.1562ZM84.082-35.1562C84.082-42.5781 78.3203-48.3398 70.8984-48.3398C63.6719-48.3398 57.7637-42.4805 57.7637-35.1562C57.7637-27.9785 63.6719-22.0215 70.8984-22.0215C78.125-22.0215 84.082-27.9785 84.082-35.1562ZM130.566-35.1562C130.566-42.5781 124.756-48.3398 117.383-48.3398C110.01-48.3398 104.102-42.4805 104.102-35.1562C104.102-27.9785 110.01-22.0215 117.383-22.0215C124.561-22.0215 130.566-27.9785 130.566-35.1562Z"/>
  </g>
  <g id="Medium-L" transform="matrix(1 0 0 1 1676.56 1556)">
   <path d="M36.6699-35.1562C36.6699-42.2363 31.0547-47.8027 23.9258-47.8027C16.9434-47.8027 11.2793-42.1875 11.2793-35.1562C11.2793-28.2227 16.9434-22.5586 23.9258-22.5586C30.957-22.5586 36.6699-28.2227 36.6699-35.1562ZM82.5684-35.1562C82.5684-42.2363 77.002-47.8027 69.9707-47.8027C63.0371-47.8027 57.373-42.1875 57.373-35.1562C57.373-28.2227 63.0371-22.5586 69.9707-22.5586C76.9043-22.5586 82.5684-28.2227 82.5684-35.1562ZM128.711-35.1562C128.711-42.2363 123.096-47.8027 116.064-47.8027C108.984-47.8027 103.32-42.1875 103.32-35.1562C103.32-28.2227 108.984-22.5586 116.064-22.5586C122.949-22.5586 128.711-28.2227 128.711-35.1562Z"/>
  </g>
  <g id="Regular-L" transform="matrix(1 0 0 1 1381.07 1556)">
   <path d="M35.2539-35.1562C35.2539-41.748 29.8828-47.0703 23.1934-47.0703C16.6504-47.0703 11.2793-41.748 11.2793-35.1562C11.2793-28.5645 16.6504-23.291 23.1934-23.291C29.8828-23.291 35.2539-28.5645 35.2539-35.1562ZM80.6641-35.1562C80.6641-41.748 75.3418-47.0703 68.75-47.0703C62.207-47.0703 56.8848-41.748 56.8848-35.1562C56.8848-28.5645 62.207-23.291 68.75-23.291C75.3418-23.291 80.6641-28.5645 80.6641-35.1562ZM126.27-35.1562C126.27-41.748 120.898-47.0703 114.307-47.0703C107.666-47.0703 102.295-41.748 102.295-35.1562C102.295-28.5645 107.666-23.291 114.307-23.291C120.898-23.291 126.27-28.5645 126.27-35.1562Z"/>
  </g>
  <g id="Light-L" transform="matrix(1 0 0 1 1087.02 1556)">
   <path d="M33.3008-35.1562C33.3008-41.2109 28.3691-46.1426 22.2656-46.1426C16.2109-46.1426 11.2793-41.2109 11.2793-35.1562C11.2793-29.0527 16.2109-24.1699 22.2656-24.1699C28.3691-24.1699 33.3008-29.0527 33.3008-35.1562ZM77.0996-35.1562C77.0996-41.2109 72.168-46.1426 66.1133-46.1426C60.0586-46.1426 55.1758-41.2109 55.1758-35.1562C55.1758-29.0527 60.0586-24.1699 66.1133-24.1699C72.168-24.1699 77.0996-29.0527 77.0996-35.1562ZM120.947-35.1562C120.947-41.2109 116.016-46.1426 109.961-46.1426C103.857-46.1426 98.9258-41.2109 98.9258-35.1562C98.9258-29.0527 103.857-24.1699 109.961-24.1699C116.016-24.1699 120.947-29.0527 120.947-35.1562Z"/>
  </g>
  <g id="Thin-L" transform="matrix(1 0 0 1 793.8 1556)">
   <path d="M30.7617-35.1074C30.7617-40.5273 26.3672-44.873 20.9961-44.873C15.6738-44.873 11.2793-40.5273 11.2793-35.1074C11.2793-29.6875 15.6738-25.3906 20.9961-25.3906C26.3672-25.3906 30.7617-29.6875 30.7617-35.1074ZM72.3633-35.1074C72.3633-40.5273 67.9688-44.873 62.6465-44.873C57.2754-44.873 52.8809-40.5273 52.8809-35.1074C52.8809-29.6875 57.2754-25.3906 62.6465-25.3906C67.9688-25.3906 72.3633-29.6875 72.3633-35.1074ZM113.965-35.1074C113.965-40.5273 109.57-44.873 104.248-44.873C98.877-44.873 94.4824-40.5273 94.4824-35.1074C94.4824-29.6875 98.877-25.3906 104.248-25.3906C109.57-25.3906 113.965-29.6875 113.965-35.1074Z"/>
  </g>
  <g id="Ultralight-L" transform="matrix(1 0 0 1 498.871 1556)">
   <path d="M29.4922-35.1074C29.4922-40.1367 25.3418-44.1895 20.3613-44.1895C15.4297-44.1895 11.2793-40.1367 11.2793-35.1074C11.2793-30.0293 15.4297-25.9766 20.3613-25.9766C25.3418-25.9766 29.4922-30.0293 29.4922-35.1074ZM69.9219-35.1074C69.9219-40.1367 65.8203-44.1895 60.8398-44.1895C55.8594-44.1895 51.709-40.1367 51.709-35.1074C51.709-30.0293 55.8594-25.9766 60.8398-25.9766C65.8203-25.9766 69.9219-30.0293 69.9219-35.1074ZM110.4-35.1074C110.4-40.1367 106.25-44.1895 101.318-44.1895C96.3379-44.1895 92.1875-40.1367 92.1875-35.1074C92.1875-30.0293 96.3379-25.9766 101.318-25.9766C106.25-25.9766 110.4-30.0293 110.4-35.1074Z"/>
  </g>
  <g id="Black-M" transform="matrix(1 0 0 1 2874.12 1126)">
   <path d="M34.9121-35.2051C34.9121-42.7734 29.3945-48.291 21.8262-48.291C14.6973-48.291 8.74023-42.4805 8.74023-35.2051C8.74023-28.3691 14.6973-22.1191 21.8262-22.1191C28.7109-22.1191 34.9121-28.3691 34.9121-35.2051ZM72.3633-35.2051C72.3633-42.7734 66.8457-48.291 59.2773-48.291C52.1484-48.291 46.1914-42.4805 46.1914-35.2051C46.1914-28.3691 52.1484-22.1191 59.2773-22.1191C66.1621-22.1191 72.3633-28.3691 72.3633-35.2051ZM109.814-35.2051C109.814-42.7734 104.346-48.291 96.7285-48.291C89.5996-48.291 83.6426-42.4805 83.6426-35.2051C83.6426-28.3691 89.5996-22.1191 96.7285-22.1191C103.613-22.1191 109.814-28.3691 109.814-35.2051Z"/>
  </g>
  <g id="Heavy-M" transform="matrix(1 0 0 1 2578.46 1126)">
   <path d="M33.3984-35.2051C33.3984-42.2852 28.125-47.5098 21.0449-47.5098C14.3066-47.5098 8.74023-42.041 8.74023-35.2051C8.74023-28.7109 14.3066-22.9004 21.0449-22.9004C27.5879-22.9004 33.3984-28.7109 33.3984-35.2051ZM70.5078-35.2051C70.5078-42.2852 65.2832-47.5098 58.2031-47.5098C51.5137-47.5098 45.9473-42.041 45.9473-35.2051C45.9473-28.7109 51.5137-22.9004 58.2031-22.9004C64.7461-22.9004 70.5078-28.7109 70.5078-35.2051ZM107.715-35.2051C107.715-42.2852 102.49-47.5098 95.4102-47.5098C88.6719-47.5098 83.0566-42.041 83.0566-35.2051C83.0566-28.7109 88.6719-22.9004 95.4102-22.9004C101.953-22.9004 107.715-28.7109 107.715-35.2051Z"/>
  </g>
  <g id="Bold-M" transform="matrix(1 0 0 1 2282.95 1126)">
   <path d="M31.6406-35.2051C31.6406-41.6992 26.709-46.6309 20.166-46.6309C13.916-46.6309 8.74023-41.5527 8.74023-35.2051C8.74023-29.0527 13.916-23.7793 20.166-23.7793C26.3672-23.7793 31.6406-29.0527 31.6406-35.2051ZM68.457-35.2051C68.457-41.6992 63.5254-46.6309 57.0312-46.6309C50.7812-46.6309 45.6055-41.5527 45.6055-35.2051C45.6055-29.0527 50.7812-23.7793 57.0312-23.7793C63.1836-23.7793 68.457-29.0527 68.457-35.2051ZM105.322-35.2051C105.322-41.6992 100.391-46.6309 93.8965-46.6309C87.5977-46.6309 82.4219-41.5527 82.4219-35.2051C82.4219-29.0527 87.5977-23.7793 93.8965-23.7793C100.049-23.7793 105.322-29.0527 105.322-35.2051Z"/>
  </g>
  <g id="Semibold-M" transform="matrix(1 0 0 1 1987.04 1126)">
   <path d="M30.4688-35.2051C30.4688-41.3086 25.7324-46.0449 19.5801-46.0449C13.623-46.0449 8.74023-41.2109 8.74023-35.2051C8.74023-29.3457 13.623-24.3652 19.5801-24.3652C25.4883-24.3652 30.4688-29.3457 30.4688-35.2051ZM67.041-35.2051C67.041-41.3086 62.3047-46.0449 56.2012-46.0449C50.2441-46.0449 45.4102-41.2109 45.4102-35.2051C45.4102-29.3457 50.2441-24.3652 56.2012-24.3652C62.1094-24.3652 67.041-29.3457 67.041-35.2051ZM103.711-35.2051C103.711-41.3086 98.9746-46.0449 92.8711-46.0449C86.8652-46.0449 81.9824-41.2109 81.9824-35.2051C81.9824-29.3457 86.8652-24.3652 92.8711-24.3652C98.7305-24.3652 103.711-29.3457 103.711-35.2051Z"/>
  </g>
  <g id="Medium-M" transform="matrix(1 0 0 1 1690.94 1126)">
   <path d="M29.5898-35.2051C29.5898-41.0156 25-45.5566 19.1406-45.5566C13.3789-45.5566 8.74023-40.918 8.74023-35.2051C8.74023-29.541 13.3789-24.8535 19.1406-24.8535C24.8535-24.8535 29.5898-29.541 29.5898-35.2051ZM65.918-35.2051C65.918-41.0156 61.377-45.5566 55.6152-45.5566C49.9023-45.5566 45.2637-40.918 45.2637-35.2051C45.2637-29.541 49.9023-24.8535 55.6152-24.8535C61.2793-24.8535 65.918-29.541 65.918-35.2051ZM102.49-35.2051C102.49-41.0156 97.9004-45.5566 92.0898-45.5566C86.2793-45.5566 81.6406-40.918 81.6406-35.2051C81.6406-29.541 86.2793-24.8535 92.0898-24.8535C97.7539-24.8535 102.49-29.541 102.49-35.2051Z"/>
  </g>
  <g id="Regular-M" transform="matrix(1 0 0 1 1395.06 1126)">
   <path d="M28.418-35.2051C28.418-40.625 24.0234-44.9707 18.5059-44.9707C13.1348-44.9707 8.74023-40.625 8.74023-35.2051C8.74023-29.7852 13.1348-25.4395 18.5059-25.4395C24.0234-25.4395 28.418-29.7852 28.418-35.2051ZM64.5508-35.2051C64.5508-40.625 60.2051-44.9707 54.7852-44.9707C49.4141-44.9707 45.0684-40.625 45.0684-35.2051C45.0684-29.7852 49.4141-25.4395 54.7852-25.4395C60.2051-25.4395 64.5508-29.7852 64.5508-35.2051ZM100.83-35.2051C100.83-40.625 96.4844-44.9707 91.0645-44.9707C85.5469-44.9707 81.2012-40.625 81.2012-35.2051C81.2012-29.7852 85.5469-25.4395 91.0645-25.4395C96.4844-25.4395 100.83-29.7852 100.83-35.2051Z"/>
  </g>
  <g id="Light-M" transform="matrix(1 0 0 1 1100.72 1126)">
   <path d="M26.6602-35.1562C26.6602-40.1367 22.6562-44.0918 17.6758-44.0918C12.7441-44.0918 8.74023-40.1367 8.74023-35.1562C8.74023-30.2246 12.7441-26.2695 17.6758-26.2695C22.6562-26.2695 26.6602-30.2246 26.6602-35.1562ZM61.3281-35.1562C61.3281-40.1367 57.373-44.0918 52.4414-44.0918C47.5098-44.0918 43.5059-40.1367 43.5059-35.1562C43.5059-30.2246 47.5098-26.2695 52.4414-26.2695C57.373-26.2695 61.3281-30.2246 61.3281-35.1562ZM96.0938-35.1562C96.0938-40.1367 92.0898-44.0918 87.1582-44.0918C82.1777-44.0918 78.1738-40.1367 78.1738-35.1562C78.1738-30.2246 82.1777-26.2695 87.1582-26.2695C92.0898-26.2695 96.0938-30.2246 96.0938-35.1562Z"/>
  </g>
  <g id="Thin-M" transform="matrix(1 0 0 1 807.13 1126)">
   <path d="M24.4141-35.1562C24.4141-39.502 20.8496-42.9688 16.5527-42.9688C12.2559-42.9688 8.74023-39.502 8.74023-35.1562C8.74023-30.8105 12.2559-27.3438 16.5527-27.3438C20.8496-27.3438 24.4141-30.8105 24.4141-35.1562ZM57.0801-35.1562C57.0801-39.502 53.5645-42.9688 49.3164-42.9688C45.0195-42.9688 41.5039-39.502 41.5039-35.1562C41.5039-30.8105 45.0195-27.3438 49.3164-27.3438C53.5645-27.3438 57.0801-30.8105 57.0801-35.1562ZM89.8438-35.1562C89.8438-39.502 86.3281-42.9688 82.0312-42.9688C77.7344-42.9688 74.1699-39.502 74.1699-35.1562C74.1699-30.8105 77.7344-27.3438 82.0312-27.3438C86.3281-27.3438 89.8438-30.8105 89.8438-35.1562Z"/>
  </g>
  <g id="Ultralight-M" transform="matrix(1 0 0 1 512.03 1126)">
   <path d="M23.2422-35.1562C23.2422-39.1602 19.9219-42.3828 15.9668-42.3828C12.0117-42.3828 8.74023-39.1602 8.74023-35.1562C8.74023-31.1035 12.0117-27.8809 15.9668-27.8809C19.9219-27.8809 23.2422-31.1035 23.2422-35.1562ZM54.9316-35.1562C54.9316-39.1602 51.6602-42.3828 47.7051-42.3828C43.7012-42.3828 40.4297-39.1602 40.4297-35.1562C40.4297-31.1035 43.7012-27.8809 47.7051-27.8809C51.6602-27.8809 54.9316-31.1035 54.9316-35.1562ZM86.6211-35.1562C86.6211-39.1602 83.3496-42.3828 79.3945-42.3828C75.4395-42.3828 72.168-39.1602 72.168-35.1562C72.168-31.1035 75.4395-27.8809 79.3945-27.8809C83.3496-27.8809 86.6211-31.1035 86.6211-35.1562Z"/>
  </g>
  <g id="Black-S" transform="matrix(1 0 0 1 2887.01 696)">
   <path d="M27.2461-35.2051C27.2461-41.1133 22.9492-45.4102 17.041-45.4102C11.4746-45.4102 6.83594-40.8691 6.83594-35.2051C6.83594-29.8828 11.4746-25 17.041-25C22.4121-25 27.2461-29.8828 27.2461-35.2051ZM56.5918-35.2051C56.5918-41.1133 52.2949-45.4102 46.3867-45.4102C40.8203-45.4102 36.1816-40.8691 36.1816-35.2051C36.1816-29.8828 40.8203-25 46.3867-25C51.7578-25 56.5918-29.8828 56.5918-35.2051ZM85.9375-35.2051C85.9375-41.1133 81.6406-45.4102 75.7324-45.4102C70.166-45.4102 65.5273-40.8691 65.5273-35.2051C65.5273-29.8828 70.166-25 75.7324-25C81.1035-25 85.9375-29.8828 85.9375-35.2051Z"/>
  </g>
  <g id="Heavy-S" transform="matrix(1 0 0 1 2590.84 696)">
   <path d="M26.2695-35.2051C26.2695-40.7715 22.1191-44.9219 16.5527-44.9219C11.2305-44.9219 6.83594-40.5762 6.83594-35.2051C6.83594-30.0781 11.2305-25.5371 16.5527-25.5371C21.7285-25.5371 26.2695-30.0781 26.2695-35.2051ZM55.5176-35.2051C55.5176-40.7715 51.416-44.9219 45.8496-44.9219C40.5273-44.9219 36.1328-40.5762 36.1328-35.2051C36.1328-30.0781 40.5273-25.5371 45.8496-25.5371C50.9766-25.5371 55.5176-30.0781 55.5176-35.2051ZM84.8633-35.2051C84.8633-40.7715 80.7129-44.9219 75.1465-44.9219C69.8242-44.9219 65.4297-40.5762 65.4297-35.2051C65.4297-30.0781 69.8242-25.5371 75.1465-25.5371C80.3223-25.5371 84.8633-30.0781 84.8633-35.2051Z"/>
  </g>
  <g id="Bold-S" transform="matrix(1 0 0 1 2294.76 696)">
   <path d="M25.1465-35.2051C25.1465-40.3809 21.1914-44.3359 15.9668-44.3359C10.9375-44.3359 6.83594-40.2832 6.83594-35.2051C6.83594-30.3223 10.9375-26.0742 15.9668-26.0742C20.9473-26.0742 25.1465-30.3223 25.1465-35.2051ZM54.3457-35.2051C54.3457-40.3809 50.3906-44.3359 45.2148-44.3359C40.2344-44.3359 36.1328-40.2832 36.1328-35.2051C36.1328-30.3223 40.2344-26.0742 45.2148-26.0742C50.1465-26.0742 54.3457-30.3223 54.3457-35.2051ZM83.5938-35.2051C83.5938-40.3809 79.6875-44.3359 74.4629-44.3359C69.4336-44.3359 65.2832-40.2832 65.2832-35.2051C65.2832-30.3223 69.4336-26.0742 74.4629-26.0742C79.3945-26.0742 83.5938-30.3223 83.5938-35.2051Z"/>
  </g>
  <g id="Semibold-S" transform="matrix(1 0 0 1 1998.47 696)">
   <path d="M24.4141-35.2051C24.4141-40.1367 20.5566-43.9453 15.5762-43.9453C10.791-43.9453 6.83594-40.0391 6.83594-35.2051C6.83594-30.4688 10.791-26.4648 15.5762-26.4648C20.4102-26.4648 24.4141-30.4688 24.4141-35.2051ZM53.5156-35.2051C53.5156-40.1367 49.707-43.9453 44.8242-43.9453C39.9902-43.9453 36.084-40.0391 36.084-35.2051C36.084-30.4688 39.9902-26.4648 44.8242-26.4648C49.5605-26.4648 53.5156-30.4688 53.5156-35.2051ZM82.7637-35.2051C82.7637-40.1367 78.9551-43.9453 74.0234-43.9453C69.1406-43.9453 65.1855-40.0391 65.1855-35.2051C65.1855-30.4688 69.1406-26.4648 74.0234-26.4648C78.7598-26.4648 82.7637-30.4688 82.7637-35.2051Z"/>
  </g>
  <g id="Medium-S" transform="matrix(1 0 0 1 1702.07 696)">
   <path d="M23.8281-35.2051C23.8281-39.9414 20.1172-43.6523 15.2832-43.6523C10.6445-43.6523 6.83594-39.8926 6.83594-35.2051C6.83594-30.5664 10.6445-26.8066 15.2832-26.8066C20.0195-26.8066 23.8281-30.5664 23.8281-35.2051ZM52.8809-35.2051C52.8809-39.9414 49.2188-43.6523 44.4824-43.6523C39.8438-43.6523 36.084-39.8926 36.084-35.2051C36.084-30.5664 39.8438-26.8066 44.4824-26.8066C49.1211-26.8066 52.8809-30.5664 52.8809-35.2051ZM82.1289-35.2051C82.1289-39.9414 78.418-43.6523 73.6816-43.6523C68.9453-43.6523 65.1367-39.8926 65.1367-35.2051C65.1367-30.5664 68.9453-26.8066 73.6816-26.8066C78.3203-26.8066 82.1289-30.5664 82.1289-35.2051Z"/>
  </g>
  <g id="Regular-S" transform="matrix(1 0 0 1 1405.78 696)">
   <path d="M23.0957-35.2051C23.0957-39.6484 19.4824-43.2617 14.8926-43.2617C10.4492-43.2617 6.83594-39.6484 6.83594-35.2051C6.83594-30.7129 10.4492-27.1973 14.8926-27.1973C19.4824-27.1973 23.0957-30.7129 23.0957-35.2051ZM52.0996-35.2051C52.0996-39.6484 48.5352-43.2617 44.043-43.2617C39.5996-43.2617 36.0352-39.6484 36.0352-35.2051C36.0352-30.7129 39.5996-27.1973 44.043-27.1973C48.5352-27.1973 52.0996-30.7129 52.0996-35.2051ZM81.2988-35.2051C81.2988-39.6484 77.6855-43.2617 73.2422-43.2617C68.6523-43.2617 65.0391-39.6484 65.0391-35.2051C65.0391-30.7129 68.6523-27.1973 73.2422-27.1973C77.6855-27.1973 81.2988-30.7129 81.2988-35.2051Z"/>
  </g>
  <g id="Light-S" transform="matrix(1 0 0 1 1111.17 696)">
   <path d="M21.5332-35.2051C21.5332-39.2578 18.2617-42.5293 14.1602-42.5293C10.1074-42.5293 6.83594-39.2578 6.83594-35.2051C6.83594-31.1523 10.1074-27.8809 14.1602-27.8809C18.2617-27.8809 21.5332-31.1523 21.5332-35.2051ZM49.2676-35.2051C49.2676-39.2578 45.9961-42.5293 41.9922-42.5293C37.9395-42.5293 34.668-39.2578 34.668-35.2051C34.668-31.1523 37.9395-27.8809 41.9922-27.8809C45.9961-27.8809 49.2676-31.1523 49.2676-35.2051ZM77.0996-35.2051C77.0996-39.2578 73.8281-42.5293 69.7754-42.5293C65.6738-42.5293 62.4023-39.2578 62.4023-35.2051C62.4023-31.1523 65.6738-27.8809 69.7754-27.8809C73.8281-27.8809 77.0996-31.1523 77.0996-35.2051Z"/>
  </g>
  <g id="Thin-S" transform="matrix(1 0 0 1 817.213 696)">
   <path d="M19.5312-35.1562C19.5312-38.6719 16.6992-41.5039 13.1836-41.5039C9.7168-41.5039 6.83594-38.6719 6.83594-35.1562C6.83594-31.6406 9.7168-28.8574 13.1836-28.8574C16.6992-28.8574 19.5312-31.6406 19.5312-35.1562ZM45.5078-35.1562C45.5078-38.6719 42.6758-41.5039 39.209-41.5039C35.7422-41.5039 32.8613-38.6719 32.8613-35.1562C32.8613-31.6406 35.7422-28.8574 39.209-28.8574C42.6758-28.8574 45.5078-31.6406 45.5078-35.1562ZM71.582-35.1562C71.582-38.6719 68.7012-41.5039 65.2344-41.5039C61.7188-41.5039 58.8867-38.6719 58.8867-35.1562C58.8867-31.6406 61.7188-28.8574 65.2344-28.8574C68.7012-28.8574 71.582-31.6406 71.582-35.1562Z"/>
  </g>
  <g id="Ultralight-S" transform="matrix(1 0 0 1 521.943 696)">
   <path d="M18.5059-35.1562C18.5059-38.3789 15.8691-40.9668 12.6465-40.9668C9.47266-40.9668 6.83594-38.3789 6.83594-35.1562C6.83594-31.9336 9.47266-29.3457 12.6465-29.3457C15.8691-29.3457 18.5059-31.9336 18.5059-35.1562ZM43.6035-35.1562C43.6035-38.3789 40.9668-40.9668 37.793-40.9668C34.5703-40.9668 31.9336-38.3789 31.9336-35.1562C31.9336-31.9336 34.5703-29.3457 37.793-29.3457C40.9668-29.3457 43.6035-31.9336 43.6035-35.1562ZM68.7012-35.1562C68.7012-38.3789 66.0645-40.9668 62.8906-40.9668C59.7168-40.9668 57.0801-38.3789 57.0801-35.1562C57.0801-31.9336 59.7168-29.3457 62.8906-29.3457C66.0645-29.3457 68.7012-31.9336 68.7012-35.1562Z"/>
  </g>
 </g>
</svg>
